G04 #@! TF.GenerationSoftware,KiCad,Pcbnew,9.0.0*
G04 #@! TF.CreationDate,2025-04-21T01:10:44+03:00*
G04 #@! TF.ProjectId,BMS,424d532e-6b69-4636-9164-5f7063625858,rev?*
G04 #@! TF.SameCoordinates,Original*
G04 #@! TF.FileFunction,Paste,Bot*
G04 #@! TF.FilePolarity,Positive*
%FSLAX46Y46*%
G04 Gerber Fmt 4.6, Leading zero omitted, Abs format (unit mm)*
G04 Created by KiCad (PCBNEW 9.0.0) date 2025-04-21 01:10:44*
%MOMM*%
%LPD*%
G01*
G04 APERTURE LIST*
G04 Aperture macros list*
%AMRoundRect*
0 Rectangle with rounded corners*
0 $1 Rounding radius*
0 $2 $3 $4 $5 $6 $7 $8 $9 X,Y pos of 4 corners*
0 Add a 4 corners polygon primitive as box body*
4,1,4,$2,$3,$4,$5,$6,$7,$8,$9,$2,$3,0*
0 Add four circle primitives for the rounded corners*
1,1,$1+$1,$2,$3*
1,1,$1+$1,$4,$5*
1,1,$1+$1,$6,$7*
1,1,$1+$1,$8,$9*
0 Add four rect primitives between the rounded corners*
20,1,$1+$1,$2,$3,$4,$5,0*
20,1,$1+$1,$4,$5,$6,$7,0*
20,1,$1+$1,$6,$7,$8,$9,0*
20,1,$1+$1,$8,$9,$2,$3,0*%
G04 Aperture macros list end*
%ADD10R,1.400000X1.150000*%
%ADD11RoundRect,0.200000X0.275000X-0.200000X0.275000X0.200000X-0.275000X0.200000X-0.275000X-0.200000X0*%
%ADD12RoundRect,0.150000X-0.150000X0.825000X-0.150000X-0.825000X0.150000X-0.825000X0.150000X0.825000X0*%
%ADD13RoundRect,0.200000X-0.200000X-0.275000X0.200000X-0.275000X0.200000X0.275000X-0.200000X0.275000X0*%
%ADD14RoundRect,0.075000X-0.700000X-0.075000X0.700000X-0.075000X0.700000X0.075000X-0.700000X0.075000X0*%
%ADD15RoundRect,0.075000X-0.075000X-0.700000X0.075000X-0.700000X0.075000X0.700000X-0.075000X0.700000X0*%
%ADD16RoundRect,0.225000X-0.250000X0.225000X-0.250000X-0.225000X0.250000X-0.225000X0.250000X0.225000X0*%
%ADD17RoundRect,0.150000X0.825000X0.150000X-0.825000X0.150000X-0.825000X-0.150000X0.825000X-0.150000X0*%
%ADD18RoundRect,0.225000X-0.225000X-0.250000X0.225000X-0.250000X0.225000X0.250000X-0.225000X0.250000X0*%
%ADD19RoundRect,0.250000X0.312500X0.625000X-0.312500X0.625000X-0.312500X-0.625000X0.312500X-0.625000X0*%
%ADD20RoundRect,0.225000X0.225000X0.250000X-0.225000X0.250000X-0.225000X-0.250000X0.225000X-0.250000X0*%
%ADD21RoundRect,0.200000X0.200000X0.275000X-0.200000X0.275000X-0.200000X-0.275000X0.200000X-0.275000X0*%
%ADD22RoundRect,0.150000X-0.725000X-0.150000X0.725000X-0.150000X0.725000X0.150000X-0.725000X0.150000X0*%
%ADD23RoundRect,0.162500X-1.012500X-0.162500X1.012500X-0.162500X1.012500X0.162500X-1.012500X0.162500X0*%
%ADD24RoundRect,0.166667X-0.583333X-1.083333X0.583333X-1.083333X0.583333X1.083333X-0.583333X1.083333X0*%
%ADD25RoundRect,0.200000X-0.275000X0.200000X-0.275000X-0.200000X0.275000X-0.200000X0.275000X0.200000X0*%
%ADD26RoundRect,0.150000X0.150000X-0.512500X0.150000X0.512500X-0.150000X0.512500X-0.150000X-0.512500X0*%
%ADD27RoundRect,0.150000X0.150000X-0.587500X0.150000X0.587500X-0.150000X0.587500X-0.150000X-0.587500X0*%
%ADD28RoundRect,0.150000X-0.150000X0.725000X-0.150000X-0.725000X0.150000X-0.725000X0.150000X0.725000X0*%
%ADD29RoundRect,0.150000X0.512500X0.150000X-0.512500X0.150000X-0.512500X-0.150000X0.512500X-0.150000X0*%
%ADD30RoundRect,0.225000X0.250000X-0.225000X0.250000X0.225000X-0.250000X0.225000X-0.250000X-0.225000X0*%
G04 APERTURE END LIST*
D10*
X198450000Y-94507000D03*
X196250000Y-94507000D03*
X196250000Y-92907000D03*
X198450000Y-92907000D03*
D11*
X185573000Y-68670500D03*
X185573000Y-67020500D03*
D12*
X176083000Y-92309000D03*
X177353000Y-92309000D03*
X178623000Y-92309000D03*
X179893000Y-92309000D03*
X179893000Y-97259000D03*
X178623000Y-97259000D03*
X177353000Y-97259000D03*
X176083000Y-97259000D03*
D13*
X178685000Y-76119000D03*
X180335000Y-76119000D03*
D14*
X201935000Y-95560000D03*
X201935000Y-95060000D03*
X201935000Y-94560000D03*
X201935000Y-94060000D03*
X201935000Y-93560000D03*
X201935000Y-93060000D03*
X201935000Y-92560000D03*
X201935000Y-92060000D03*
X201935000Y-91560000D03*
X201935000Y-91060000D03*
X201935000Y-90560000D03*
X201935000Y-90060000D03*
X201935000Y-89560000D03*
X201935000Y-89060000D03*
X201935000Y-88560000D03*
X201935000Y-88060000D03*
D15*
X203860000Y-86135000D03*
X204360000Y-86135000D03*
X204860000Y-86135000D03*
X205360000Y-86135000D03*
X205860000Y-86135000D03*
X206360000Y-86135000D03*
X206860000Y-86135000D03*
X207360000Y-86135000D03*
X207860000Y-86135000D03*
X208360000Y-86135000D03*
X208860000Y-86135000D03*
X209360000Y-86135000D03*
X209860000Y-86135000D03*
X210360000Y-86135000D03*
X210860000Y-86135000D03*
X211360000Y-86135000D03*
D14*
X213285000Y-88060000D03*
X213285000Y-88560000D03*
X213285000Y-89060000D03*
X213285000Y-89560000D03*
X213285000Y-90060000D03*
X213285000Y-90560000D03*
X213285000Y-91060000D03*
X213285000Y-91560000D03*
X213285000Y-92060000D03*
X213285000Y-92560000D03*
X213285000Y-93060000D03*
X213285000Y-93560000D03*
X213285000Y-94060000D03*
X213285000Y-94560000D03*
X213285000Y-95060000D03*
X213285000Y-95560000D03*
D15*
X211360000Y-97485000D03*
X210860000Y-97485000D03*
X210360000Y-97485000D03*
X209860000Y-97485000D03*
X209360000Y-97485000D03*
X208860000Y-97485000D03*
X208360000Y-97485000D03*
X207860000Y-97485000D03*
X207360000Y-97485000D03*
X206860000Y-97485000D03*
X206360000Y-97485000D03*
X205860000Y-97485000D03*
X205360000Y-97485000D03*
X204860000Y-97485000D03*
X204360000Y-97485000D03*
X203860000Y-97485000D03*
D16*
X137525000Y-63865000D03*
X137525000Y-65415000D03*
D11*
X164896000Y-72299000D03*
X164896000Y-70649000D03*
X195788500Y-68670500D03*
X195788500Y-67020500D03*
D17*
X188710000Y-95160000D03*
X188710000Y-96430000D03*
X188710000Y-97700000D03*
X188710000Y-98970000D03*
X183760000Y-98970000D03*
X183760000Y-97700000D03*
X183760000Y-96430000D03*
X183760000Y-95160000D03*
D11*
X155003000Y-72299000D03*
X155003000Y-70649000D03*
X144688000Y-68670500D03*
X144688000Y-67020500D03*
D13*
X168023500Y-76119000D03*
X169673500Y-76119000D03*
D11*
X175382500Y-68670500D03*
X175382500Y-67020500D03*
X215563000Y-72510125D03*
X215563000Y-70860125D03*
D18*
X203860000Y-99240000D03*
X205410000Y-99240000D03*
D19*
X176134000Y-75427000D03*
X173209000Y-75427000D03*
D20*
X216865000Y-55690000D03*
X215315000Y-55690000D03*
D17*
X188571000Y-89750000D03*
X188571000Y-91020000D03*
X188571000Y-92290000D03*
X188571000Y-93560000D03*
X183621000Y-93560000D03*
X183621000Y-92290000D03*
X183621000Y-91020000D03*
X183621000Y-89750000D03*
D11*
X185748000Y-72299000D03*
X185748000Y-70649000D03*
D21*
X179510000Y-78761000D03*
X177860000Y-78761000D03*
D16*
X194520000Y-93045000D03*
X194520000Y-94595000D03*
D22*
X167917000Y-93798000D03*
X167917000Y-92528000D03*
X167917000Y-91258000D03*
X167917000Y-89988000D03*
X173067000Y-89988000D03*
X173067000Y-91258000D03*
X173067000Y-92528000D03*
X173067000Y-93798000D03*
D16*
X199979000Y-88336000D03*
X199979000Y-89886000D03*
D23*
X141140000Y-63865000D03*
X141140000Y-61325000D03*
X141140000Y-58785000D03*
X141140000Y-56245000D03*
X150190000Y-56245000D03*
X150190000Y-58785000D03*
X150190000Y-61325000D03*
X150190000Y-63865000D03*
D24*
X153073500Y-89380000D03*
X156773500Y-89380000D03*
D25*
X160279000Y-88251000D03*
X160279000Y-89901000D03*
D19*
X165472500Y-75427000D03*
X162547500Y-75427000D03*
D20*
X205387000Y-84380000D03*
X203837000Y-84380000D03*
D19*
X145439500Y-75427000D03*
X142514500Y-75427000D03*
D21*
X197435000Y-78199000D03*
X195785000Y-78199000D03*
X153573000Y-84001000D03*
X151923000Y-84001000D03*
D18*
X212270000Y-84380000D03*
X213820000Y-84380000D03*
D13*
X199091000Y-76119000D03*
X200741000Y-76119000D03*
D19*
X216139500Y-75638125D03*
X213214500Y-75638125D03*
D26*
X188953000Y-68670500D03*
X187053000Y-68670500D03*
X188003000Y-66395500D03*
D27*
X199343500Y-72440500D03*
X197443500Y-72440500D03*
X198393500Y-70565500D03*
D26*
X199168500Y-68670500D03*
X197268500Y-68670500D03*
X198218500Y-66395500D03*
D11*
X175557500Y-72299000D03*
X175557500Y-70649000D03*
D27*
X218943000Y-72651625D03*
X217043000Y-72651625D03*
X217993000Y-70776625D03*
D21*
X168848500Y-78761000D03*
X167198500Y-78761000D03*
D28*
X181970000Y-80055000D03*
X183240000Y-80055000D03*
X184510000Y-80055000D03*
X185780000Y-80055000D03*
X185780000Y-85205000D03*
X184510000Y-85205000D03*
X183240000Y-85205000D03*
X181970000Y-85205000D03*
D26*
X148155500Y-68670500D03*
X146255500Y-68670500D03*
X147205500Y-66395500D03*
D21*
X158955500Y-78761000D03*
X157305500Y-78761000D03*
X193301000Y-96430000D03*
X191651000Y-96430000D03*
D11*
X205834000Y-68670500D03*
X205834000Y-67020500D03*
D25*
X200180000Y-91410000D03*
X200180000Y-93060000D03*
D13*
X218690500Y-76330125D03*
X220340500Y-76330125D03*
D27*
X158470500Y-72440500D03*
X156570500Y-72440500D03*
X157520500Y-70565500D03*
D21*
X206305000Y-78199000D03*
X204655000Y-78199000D03*
D16*
X153744000Y-95171000D03*
X153744000Y-96721000D03*
D21*
X193301000Y-99924000D03*
X191651000Y-99924000D03*
D27*
X209389000Y-72440500D03*
X207489000Y-72440500D03*
X208439000Y-70565500D03*
D11*
X144863000Y-72299000D03*
X144863000Y-70649000D03*
D27*
X168276000Y-72440500D03*
X166376000Y-72440500D03*
X167326000Y-70565500D03*
D26*
X209214000Y-68670500D03*
X207314000Y-68670500D03*
X208264000Y-66395500D03*
D16*
X137575000Y-59170000D03*
X137575000Y-60720000D03*
D20*
X210860000Y-84380000D03*
X209310000Y-84380000D03*
D11*
X164721000Y-68670500D03*
X164721000Y-67020500D03*
X178623000Y-90182000D03*
X178623000Y-88532000D03*
D16*
X198519000Y-88336000D03*
X198519000Y-89886000D03*
D25*
X196117500Y-81530000D03*
X196117500Y-83180000D03*
D11*
X154828000Y-68670500D03*
X154828000Y-67020500D03*
D18*
X196598000Y-96137000D03*
X198148000Y-96137000D03*
D29*
X157082500Y-59067000D03*
X157082500Y-60967000D03*
X154807500Y-60017000D03*
D21*
X148815500Y-78761000D03*
X147165500Y-78761000D03*
D26*
X178762500Y-68670500D03*
X176862500Y-68670500D03*
X177812500Y-66395500D03*
D16*
X200180000Y-95560000D03*
X200180000Y-97110000D03*
D11*
X206009000Y-72299000D03*
X206009000Y-70649000D03*
D27*
X189128000Y-72440500D03*
X187228000Y-72440500D03*
X188178000Y-70565500D03*
D19*
X196540000Y-75427000D03*
X193615000Y-75427000D03*
D27*
X148330500Y-72440500D03*
X146430500Y-72440500D03*
X147380500Y-70565500D03*
D13*
X147990500Y-76119000D03*
X149640500Y-76119000D03*
D26*
X158208000Y-68670500D03*
X156308000Y-68670500D03*
X157258000Y-66395500D03*
D19*
X186324500Y-75427000D03*
X183399500Y-75427000D03*
D18*
X215015000Y-94125000D03*
X216565000Y-94125000D03*
D16*
X215040000Y-95560000D03*
X215040000Y-97110000D03*
D21*
X216595000Y-77488125D03*
X214945000Y-77488125D03*
D16*
X138985000Y-63865000D03*
X138985000Y-65415000D03*
D13*
X209136500Y-76119000D03*
X210786500Y-76119000D03*
D26*
X168101000Y-68670500D03*
X166201000Y-68670500D03*
X167151000Y-66395500D03*
D11*
X215388000Y-68881625D03*
X215388000Y-67231625D03*
D20*
X153523000Y-82541000D03*
X151973000Y-82541000D03*
D26*
X218768000Y-68881625D03*
X216868000Y-68881625D03*
X217818000Y-66606625D03*
D27*
X178937500Y-72440500D03*
X177037500Y-72440500D03*
X177987500Y-70565500D03*
D21*
X177544000Y-99839000D03*
X175894000Y-99839000D03*
D19*
X155579500Y-75427000D03*
X152654500Y-75427000D03*
D13*
X158130500Y-76119000D03*
X159780500Y-76119000D03*
D16*
X160719000Y-95171000D03*
X160719000Y-96721000D03*
D21*
X187395000Y-78199000D03*
X185745000Y-78199000D03*
D30*
X152345000Y-60790000D03*
X152345000Y-59240000D03*
D19*
X206585500Y-75427000D03*
X203660500Y-75427000D03*
D25*
X181666000Y-89370000D03*
X181666000Y-91020000D03*
D11*
X195963500Y-72299000D03*
X195963500Y-70649000D03*
D13*
X188875500Y-76119000D03*
X190525500Y-76119000D03*
D21*
X193316000Y-91407000D03*
X191666000Y-91407000D03*
M02*
