M48
; DRILL file {KiCad 9.0.0} date 2025-04-21T01:10:46+0300
; FORMAT={-:-/ absolute / metric / decimal}
; #@! TF.CreationDate,2025-04-21T01:10:46+03:00
; #@! TF.GenerationSoftware,Kicad,Pcbnew,9.0.0
; #@! TF.FileFunction,Plated,1,4,PTH
FMAT,2
METRIC
; #@! TA.AperFunction,Plated,PTH,ViaDrill
T1C0.300
; #@! TA.AperFunction,Plated,PTH,ViaDrill
T2C0.400
; #@! TA.AperFunction,Plated,PTH,ComponentDrill
T3C0.500
; #@! TA.AperFunction,Plated,PTH,ComponentDrill
T4C0.650
; #@! TA.AperFunction,Plated,PTH,ComponentDrill
T5C0.800
; #@! TA.AperFunction,Plated,PTH,ComponentDrill
T6C1.000
; #@! TA.AperFunction,Plated,PTH,ComponentDrill
T7C1.020
; #@! TA.AperFunction,Plated,PTH,ComponentDrill
T8C1.100
; #@! TA.AperFunction,Plated,PTH,ComponentDrill
T9C3.200
%
G90
G05
T1
X144.329Y-86.163
X144.329Y-87.224
X145.801Y-86.163
X222.604Y-62.66
T2
X132.629Y-65.49
X137.525Y-65.415
X137.575Y-59.17
X137.575Y-60.72
X138.985Y-65.415
X139.36Y-56.235
X140.973Y-94.841
X140.973Y-97.841
X141.14Y-57.634
X141.566Y-96.347
X142.173Y-94.841
X142.173Y-97.841
X143.29Y-62.817
X143.43Y-73.656
X144.329Y-84.613
X144.56Y-62.817
X145.789Y-84.613
X145.849Y-79.865
X146.319Y-59.242
X146.319Y-60.792
X147.862Y-94.052
X147.862Y-96.352
X147.873Y-98.641
X147.99Y-76.119
X148.283Y-84.907
X148.66Y-58.785
X148.66Y-61.325
X149.585Y-68.67
X150.19Y-55.335
X150.19Y-64.595
X150.562Y-92.377
X150.892Y-73.644
X151.152Y-76.119
X151.367Y-94.052
X151.923Y-82.491
X151.939Y-85.217
X151.939Y-86.385
X152.19Y-77.28
X152.95Y-85.217
X152.95Y-86.385
X153.073Y-88.749
X153.073Y-89.998
X153.523Y-82.541
X153.57Y-73.892
X153.744Y-95.171
X153.744Y-96.721
X154.73Y-65.58
X155.2Y-61.271
X155.201Y-86.163
X155.32Y-58.748
X155.988Y-79.865
X156.77Y-89.998
X156.789Y-88.749
X156.804Y-86.393
X158.13Y-76.119
X159.615Y-68.67
X160.279Y-88.252
X160.719Y-95.171
X160.719Y-96.721
X160.885Y-77.28
X161.156Y-73.932
X161.575Y-91.861
X161.586Y-88.011
X162.779Y-90.151
X163.398Y-73.771
X164.293Y-86.535
X164.293Y-88.185
X164.318Y-99.593
X165.753Y-86.535
X165.753Y-88.185
X165.778Y-99.593
X165.881Y-79.805
X166.286Y-91.547
X166.411Y-92.539
X167.213Y-86.535
X167.213Y-88.185
X167.238Y-99.593
X168.023Y-76.119
X168.673Y-86.535
X168.673Y-88.185
X168.698Y-99.593
X169.263Y-93.099
X169.497Y-68.67
X170.416Y-95.913
X170.598Y-94.09
X170.619Y-90.312
X170.761Y-73.421
X170.79Y-77.28
X173.067Y-94.495
X173.192Y-97.954
X174.125Y-73.782
X174.573Y-88.571
X174.904Y-91.814
X175.894Y-99.839
X176.588Y-79.865
X177.021Y-94.57
X177.234Y-89.899
X178.522Y-84.78
X178.685Y-76.119
X179.129Y-103.777
X179.614Y-90.745
X179.756Y-81.052
X179.85Y-89.623
X180.018Y-68.67
X180.122Y-100.328
X180.593Y-99.446
X180.618Y-85.997
X181.209Y-97.7
X181.407Y-93.829
X181.636Y-73.634
X181.666Y-89.37
X182.003Y-95.887
X182.1Y-76.022
X182.116Y-99.277
X182.209Y-97.7
X182.61Y-77.28
X183.206Y-78.499
X184.231Y-73.881
X184.396Y-87.194
X185.125Y-80.08
X185.46Y-87.259
X185.612Y-82.43
X185.712Y-103.777
X185.745Y-78.199
X185.909Y-93.101
X185.95Y-98.97
X188.863Y-76.107
X189.355Y-87.114
X190.353Y-68.67
X190.355Y-78.199
X190.482Y-97.509
X190.482Y-98.97
X191.297Y-94.226
X191.398Y-92.863
X191.851Y-73.627
X192.234Y-76.119
X193.035Y-84.848
X193.445Y-92.916
X193.617Y-81.53
X194.506Y-73.931
X194.555Y-90.741
X195.17Y-95.834
X195.785Y-78.199
X196.117Y-81.53
X196.25Y-94.507
X197.86Y-61.81
X198.218Y-65.343
X198.45Y-92.907
X198.519Y-88.336
X198.519Y-89.886
X199.091Y-76.119
X199.979Y-88.336
X199.979Y-89.886
X200.18Y-95.56
X200.18Y-97.11
X200.395Y-78.199
X200.601Y-100.066
X200.721Y-68.67
X201.806Y-78.811
X201.842Y-77.227
X201.982Y-73.464
X203.4Y-78.65
X203.549Y-93.907
X203.665Y-91.822
X203.837Y-84.38
X203.86Y-99.24
X203.89Y-88.56
X204.576Y-74.058
X204.599Y-95.83
X204.655Y-78.199
X204.834Y-87.799
X205.387Y-84.38
X205.41Y-99.24
X205.711Y-90.837
X205.86Y-89.025
X206.249Y-95.83
X206.71Y-92.81
X208.044Y-79.94
X208.099Y-99.358
X208.67Y-94.068
X209.136Y-76.119
X209.188Y-99.66
X209.265Y-78.199
X209.31Y-84.38
X209.403Y-92.518
X209.984Y-93.334
X210.189Y-95.622
X210.483Y-94.419
X210.708Y-68.667
X211.048Y-80.665
X211.36Y-95.738
X211.891Y-73.371
X212.27Y-84.38
X213.01Y-99.07
X213.82Y-84.38
X214.13Y-74.146
X214.653Y-88.384
X214.945Y-78.255
X215.04Y-95.56
X215.04Y-97.11
X215.315Y-55.69
X216.565Y-95.985
X216.865Y-55.69
X218.69Y-76.33
X220.326Y-68.859
X220.729Y-96.602
X221.054Y-73.679
X221.88Y-96.602
X221.948Y-76.109
T3
X129.969Y-54.45
X129.969Y-103.45
X130.672Y-52.753
X130.672Y-56.148
X130.672Y-101.753
X130.672Y-105.148
X132.369Y-52.05
X132.369Y-56.85
X132.369Y-101.05
X132.369Y-105.85
X134.067Y-52.753
X134.067Y-56.148
X134.067Y-101.753
X134.067Y-105.148
X134.769Y-54.45
X134.769Y-103.45
X224.969Y-54.45
X224.969Y-103.45
X225.672Y-52.753
X225.672Y-56.148
X225.672Y-101.753
X225.672Y-105.148
X227.369Y-52.05
X227.369Y-56.85
X227.369Y-101.05
X227.369Y-105.85
X229.067Y-52.753
X229.067Y-56.148
X229.067Y-101.753
X229.067Y-105.148
X229.769Y-54.45
X229.769Y-103.45
T4
X225.005Y-68.69
X225.005Y-69.96
X225.005Y-71.23
X225.005Y-72.5
X225.005Y-73.77
X226.275Y-68.69
X226.275Y-69.96
X226.275Y-71.23
X226.275Y-72.5
X226.275Y-73.77
T5
X144.54Y-88.928
X147.04Y-88.928
T6
X153.694Y-56.07
X156.234Y-56.07
X158.774Y-56.07
X196.4Y-56.075
X198.94Y-56.075
X201.48Y-56.075
X204.02Y-56.075
X206.56Y-56.075
X209.1Y-56.075
T7
X137.445Y-69.33
X137.445Y-72.33
X137.445Y-81.45
X137.445Y-84.45
X137.445Y-87.45
X137.445Y-90.45
X140.445Y-69.33
X140.445Y-72.33
X140.445Y-81.45
X140.445Y-84.45
X140.445Y-87.45
X140.445Y-90.45
X164.4Y-60.035
X164.4Y-63.035
X167.4Y-60.035
X167.4Y-63.035
X175.575Y-60.035
X175.575Y-63.035
X178.575Y-60.035
X178.575Y-63.035
X181.575Y-60.035
X181.575Y-63.035
X184.575Y-60.035
X184.575Y-63.035
X187.575Y-60.035
X187.575Y-63.035
X218.88Y-83.09
X218.88Y-86.09
X218.88Y-89.09
X218.88Y-92.09
X221.88Y-83.09
X221.88Y-86.09
X221.88Y-89.09
X221.88Y-92.09
T8
X213.84Y-52.44
X213.84Y-58.94
X218.34Y-52.44
X218.34Y-58.94
T9
X132.369Y-54.45
X132.369Y-103.45
X227.369Y-54.45
X227.369Y-103.45
M30
