G04 #@! TF.GenerationSoftware,KiCad,Pcbnew,9.0.0*
G04 #@! TF.CreationDate,2025-04-21T01:10:44+03:00*
G04 #@! TF.ProjectId,BMS,424d532e-6b69-4636-9164-5f7063625858,rev?*
G04 #@! TF.SameCoordinates,Original*
G04 #@! TF.FileFunction,Soldermask,Bot*
G04 #@! TF.FilePolarity,Negative*
%FSLAX46Y46*%
G04 Gerber Fmt 4.6, Leading zero omitted, Abs format (unit mm)*
G04 Created by KiCad (PCBNEW 9.0.0) date 2025-04-21 01:10:44*
%MOMM*%
%LPD*%
G01*
G04 APERTURE LIST*
G04 Aperture macros list*
%AMRoundRect*
0 Rectangle with rounded corners*
0 $1 Rounding radius*
0 $2 $3 $4 $5 $6 $7 $8 $9 X,Y pos of 4 corners*
0 Add a 4 corners polygon primitive as box body*
4,1,4,$2,$3,$4,$5,$6,$7,$8,$9,$2,$3,0*
0 Add four circle primitives for the rounded corners*
1,1,$1+$1,$2,$3*
1,1,$1+$1,$4,$5*
1,1,$1+$1,$6,$7*
1,1,$1+$1,$8,$9*
0 Add four rect primitives between the rounded corners*
20,1,$1+$1,$2,$3,$4,$5,0*
20,1,$1+$1,$4,$5,$6,$7,0*
20,1,$1+$1,$6,$7,$8,$9,0*
20,1,$1+$1,$8,$9,$2,$3,0*%
%AMFreePoly0*
4,1,23,0.500000,-0.750000,0.000000,-0.750000,0.000000,-0.745722,-0.065263,-0.745722,-0.191342,-0.711940,-0.304381,-0.646677,-0.396677,-0.554381,-0.461940,-0.441342,-0.495722,-0.315263,-0.495722,-0.250000,-0.500000,-0.250000,-0.500000,0.250000,-0.495722,0.250000,-0.495722,0.315263,-0.461940,0.441342,-0.396677,0.554381,-0.304381,0.646677,-0.191342,0.711940,-0.065263,0.745722,0.000000,0.745722,
0.000000,0.750000,0.500000,0.750000,0.500000,-0.750000,0.500000,-0.750000,$1*%
%AMFreePoly1*
4,1,23,0.000000,0.745722,0.065263,0.745722,0.191342,0.711940,0.304381,0.646677,0.396677,0.554381,0.461940,0.441342,0.495722,0.315263,0.495722,0.250000,0.500000,0.250000,0.500000,-0.250000,0.495722,-0.250000,0.495722,-0.315263,0.461940,-0.441342,0.396677,-0.554381,0.304381,-0.646677,0.191342,-0.711940,0.065263,-0.745722,0.000000,-0.745722,0.000000,-0.750000,-0.500000,-0.750000,
-0.500000,0.750000,0.000000,0.750000,0.000000,0.745722,0.000000,0.745722,$1*%
G04 Aperture macros list end*
%ADD10C,3.000000*%
%ADD11RoundRect,0.250001X-0.499999X-0.499999X0.499999X-0.499999X0.499999X0.499999X-0.499999X0.499999X0*%
%ADD12C,1.500000*%
%ADD13C,0.800000*%
%ADD14C,6.400000*%
%ADD15C,2.000000*%
%ADD16RoundRect,0.250001X0.499999X-0.499999X0.499999X0.499999X-0.499999X0.499999X-0.499999X-0.499999X0*%
%ADD17RoundRect,0.250001X-0.499999X0.499999X-0.499999X-0.499999X0.499999X-0.499999X0.499999X0.499999X0*%
%ADD18R,1.400000X1.150000*%
%ADD19RoundRect,0.200000X0.275000X-0.200000X0.275000X0.200000X-0.275000X0.200000X-0.275000X-0.200000X0*%
%ADD20RoundRect,0.150000X-0.150000X0.825000X-0.150000X-0.825000X0.150000X-0.825000X0.150000X0.825000X0*%
%ADD21RoundRect,0.200000X-0.200000X-0.275000X0.200000X-0.275000X0.200000X0.275000X-0.200000X0.275000X0*%
%ADD22RoundRect,0.075000X-0.700000X-0.075000X0.700000X-0.075000X0.700000X0.075000X-0.700000X0.075000X0*%
%ADD23RoundRect,0.075000X-0.075000X-0.700000X0.075000X-0.700000X0.075000X0.700000X-0.075000X0.700000X0*%
%ADD24RoundRect,0.225000X-0.250000X0.225000X-0.250000X-0.225000X0.250000X-0.225000X0.250000X0.225000X0*%
%ADD25RoundRect,0.150000X0.825000X0.150000X-0.825000X0.150000X-0.825000X-0.150000X0.825000X-0.150000X0*%
%ADD26R,1.000000X1.000000*%
%ADD27O,1.000000X1.000000*%
%ADD28RoundRect,0.225000X-0.225000X-0.250000X0.225000X-0.250000X0.225000X0.250000X-0.225000X0.250000X0*%
%ADD29RoundRect,0.250000X0.312500X0.625000X-0.312500X0.625000X-0.312500X-0.625000X0.312500X-0.625000X0*%
%ADD30RoundRect,0.225000X0.225000X0.250000X-0.225000X0.250000X-0.225000X-0.250000X0.225000X-0.250000X0*%
%ADD31RoundRect,0.200000X0.200000X0.275000X-0.200000X0.275000X-0.200000X-0.275000X0.200000X-0.275000X0*%
%ADD32RoundRect,0.150000X-0.725000X-0.150000X0.725000X-0.150000X0.725000X0.150000X-0.725000X0.150000X0*%
%ADD33RoundRect,0.162500X-1.012500X-0.162500X1.012500X-0.162500X1.012500X0.162500X-1.012500X0.162500X0*%
%ADD34RoundRect,0.166667X-0.583333X-1.083333X0.583333X-1.083333X0.583333X1.083333X-0.583333X1.083333X0*%
%ADD35RoundRect,0.200000X-0.275000X0.200000X-0.275000X-0.200000X0.275000X-0.200000X0.275000X0.200000X0*%
%ADD36RoundRect,0.150000X0.150000X-0.512500X0.150000X0.512500X-0.150000X0.512500X-0.150000X-0.512500X0*%
%ADD37RoundRect,0.150000X0.150000X-0.587500X0.150000X0.587500X-0.150000X0.587500X-0.150000X-0.587500X0*%
%ADD38R,1.700000X1.700000*%
%ADD39O,1.700000X1.700000*%
%ADD40RoundRect,0.150000X-0.150000X0.725000X-0.150000X-0.725000X0.150000X-0.725000X0.150000X0.725000X0*%
%ADD41RoundRect,0.150000X0.512500X0.150000X-0.512500X0.150000X-0.512500X-0.150000X0.512500X-0.150000X0*%
%ADD42R,1.600000X1.600000*%
%ADD43C,1.600000*%
%ADD44FreePoly0,0.000000*%
%ADD45FreePoly1,0.000000*%
%ADD46RoundRect,0.225000X0.250000X-0.225000X0.250000X0.225000X-0.250000X0.225000X-0.250000X-0.225000X0*%
G04 APERTURE END LIST*
D10*
X177735000Y-55715000D03*
X185435000Y-55715000D03*
D11*
X175575000Y-60035000D03*
D12*
X178575000Y-60035000D03*
X181575000Y-60035000D03*
X184575000Y-60035000D03*
X187575000Y-60035000D03*
X175575000Y-63035000D03*
X178575000Y-63035000D03*
X181575000Y-63035000D03*
X184575000Y-63035000D03*
X187575000Y-63035000D03*
D13*
X227369500Y-105850500D03*
X225672444Y-105147556D03*
X229066556Y-105147556D03*
X224969500Y-103450500D03*
D14*
X227369500Y-103450500D03*
D13*
X229769500Y-103450500D03*
X225672444Y-101753444D03*
X229066556Y-101753444D03*
X227369500Y-101050500D03*
X132369500Y-105850500D03*
X130672444Y-105147556D03*
X134066556Y-105147556D03*
X129969500Y-103450500D03*
D14*
X132369500Y-103450500D03*
D13*
X134769500Y-103450500D03*
X130672444Y-101753444D03*
X134066556Y-101753444D03*
X132369500Y-101050500D03*
X132369500Y-56850500D03*
X130672444Y-56147556D03*
X134066556Y-56147556D03*
X129969500Y-54450500D03*
D14*
X132369500Y-54450500D03*
D13*
X134769500Y-54450500D03*
X130672444Y-52753444D03*
X134066556Y-52753444D03*
X132369500Y-52050500D03*
X227369500Y-56850500D03*
X225672444Y-56147556D03*
X229066556Y-56147556D03*
X224969500Y-54450500D03*
D14*
X227369500Y-54450500D03*
D13*
X229769500Y-54450500D03*
X225672444Y-52753444D03*
X229066556Y-52753444D03*
X227369500Y-52050500D03*
D15*
X213840000Y-58940000D03*
X213840000Y-52440000D03*
X218340000Y-58940000D03*
X218340000Y-52440000D03*
D10*
X165900000Y-55715000D03*
D11*
X164400000Y-60035000D03*
D12*
X167400000Y-60035000D03*
X164400000Y-63035000D03*
X167400000Y-63035000D03*
D10*
X133125000Y-88290000D03*
X133125000Y-83590000D03*
D16*
X137445000Y-90450000D03*
D12*
X137445000Y-87450000D03*
X137445000Y-84450000D03*
X137445000Y-81450000D03*
X140445000Y-90450000D03*
X140445000Y-87450000D03*
X140445000Y-84450000D03*
X140445000Y-81450000D03*
D10*
X226200000Y-85250000D03*
X226200000Y-89950000D03*
D17*
X221880000Y-83090000D03*
D12*
X221880000Y-86090000D03*
X221880000Y-89090000D03*
X221880000Y-92090000D03*
X218880000Y-83090000D03*
X218880000Y-86090000D03*
X218880000Y-89090000D03*
X218880000Y-92090000D03*
D10*
X133125000Y-70830000D03*
D16*
X137445000Y-72330000D03*
D12*
X137445000Y-69330000D03*
X140445000Y-72330000D03*
X140445000Y-69330000D03*
D18*
X198450000Y-94507000D03*
X196250000Y-94507000D03*
X196250000Y-92907000D03*
X198450000Y-92907000D03*
D19*
X185573000Y-68670500D03*
X185573000Y-67020500D03*
D20*
X176083000Y-92309000D03*
X177353000Y-92309000D03*
X178623000Y-92309000D03*
X179893000Y-92309000D03*
X179893000Y-97259000D03*
X178623000Y-97259000D03*
X177353000Y-97259000D03*
X176083000Y-97259000D03*
D21*
X178685000Y-76119000D03*
X180335000Y-76119000D03*
D22*
X201935000Y-95560000D03*
X201935000Y-95060000D03*
X201935000Y-94560000D03*
X201935000Y-94060000D03*
X201935000Y-93560000D03*
X201935000Y-93060000D03*
X201935000Y-92560000D03*
X201935000Y-92060000D03*
X201935000Y-91560000D03*
X201935000Y-91060000D03*
X201935000Y-90560000D03*
X201935000Y-90060000D03*
X201935000Y-89560000D03*
X201935000Y-89060000D03*
X201935000Y-88560000D03*
X201935000Y-88060000D03*
D23*
X203860000Y-86135000D03*
X204360000Y-86135000D03*
X204860000Y-86135000D03*
X205360000Y-86135000D03*
X205860000Y-86135000D03*
X206360000Y-86135000D03*
X206860000Y-86135000D03*
X207360000Y-86135000D03*
X207860000Y-86135000D03*
X208360000Y-86135000D03*
X208860000Y-86135000D03*
X209360000Y-86135000D03*
X209860000Y-86135000D03*
X210360000Y-86135000D03*
X210860000Y-86135000D03*
X211360000Y-86135000D03*
D22*
X213285000Y-88060000D03*
X213285000Y-88560000D03*
X213285000Y-89060000D03*
X213285000Y-89560000D03*
X213285000Y-90060000D03*
X213285000Y-90560000D03*
X213285000Y-91060000D03*
X213285000Y-91560000D03*
X213285000Y-92060000D03*
X213285000Y-92560000D03*
X213285000Y-93060000D03*
X213285000Y-93560000D03*
X213285000Y-94060000D03*
X213285000Y-94560000D03*
X213285000Y-95060000D03*
X213285000Y-95560000D03*
D23*
X211360000Y-97485000D03*
X210860000Y-97485000D03*
X210360000Y-97485000D03*
X209860000Y-97485000D03*
X209360000Y-97485000D03*
X208860000Y-97485000D03*
X208360000Y-97485000D03*
X207860000Y-97485000D03*
X207360000Y-97485000D03*
X206860000Y-97485000D03*
X206360000Y-97485000D03*
X205860000Y-97485000D03*
X205360000Y-97485000D03*
X204860000Y-97485000D03*
X204360000Y-97485000D03*
X203860000Y-97485000D03*
D24*
X137525000Y-63865000D03*
X137525000Y-65415000D03*
D19*
X164896000Y-72299000D03*
X164896000Y-70649000D03*
X195788500Y-68670500D03*
X195788500Y-67020500D03*
D25*
X188710000Y-95160000D03*
X188710000Y-96430000D03*
X188710000Y-97700000D03*
X188710000Y-98970000D03*
X183760000Y-98970000D03*
X183760000Y-97700000D03*
X183760000Y-96430000D03*
X183760000Y-95160000D03*
D19*
X155003000Y-72299000D03*
X155003000Y-70649000D03*
D26*
X225005000Y-73770000D03*
D27*
X226275000Y-73770000D03*
X225005000Y-72500000D03*
X226275000Y-72500000D03*
X225005000Y-71230000D03*
X226275000Y-71230000D03*
X225005000Y-69960000D03*
X226275000Y-69960000D03*
X225005000Y-68690000D03*
X226275000Y-68690000D03*
D19*
X144688000Y-68670500D03*
X144688000Y-67020500D03*
D21*
X168023500Y-76119000D03*
X169673500Y-76119000D03*
D19*
X175382500Y-68670500D03*
X175382500Y-67020500D03*
X215563000Y-72510125D03*
X215563000Y-70860125D03*
D28*
X203860000Y-99240000D03*
X205410000Y-99240000D03*
D29*
X176134000Y-75427000D03*
X173209000Y-75427000D03*
D30*
X216865000Y-55690000D03*
X215315000Y-55690000D03*
D25*
X188571000Y-89750000D03*
X188571000Y-91020000D03*
X188571000Y-92290000D03*
X188571000Y-93560000D03*
X183621000Y-93560000D03*
X183621000Y-92290000D03*
X183621000Y-91020000D03*
X183621000Y-89750000D03*
D19*
X185748000Y-72299000D03*
X185748000Y-70649000D03*
D31*
X179510000Y-78761000D03*
X177860000Y-78761000D03*
D24*
X194520000Y-93045000D03*
X194520000Y-94595000D03*
D32*
X167917000Y-93798000D03*
X167917000Y-92528000D03*
X167917000Y-91258000D03*
X167917000Y-89988000D03*
X173067000Y-89988000D03*
X173067000Y-91258000D03*
X173067000Y-92528000D03*
X173067000Y-93798000D03*
D24*
X199979000Y-88336000D03*
X199979000Y-89886000D03*
D33*
X141140000Y-63865000D03*
X141140000Y-61325000D03*
X141140000Y-58785000D03*
X141140000Y-56245000D03*
X150190000Y-56245000D03*
X150190000Y-58785000D03*
X150190000Y-61325000D03*
X150190000Y-63865000D03*
D34*
X153073500Y-89380000D03*
X156773500Y-89380000D03*
D35*
X160279000Y-88251000D03*
X160279000Y-89901000D03*
D29*
X165472500Y-75427000D03*
X162547500Y-75427000D03*
D30*
X205387000Y-84380000D03*
X203837000Y-84380000D03*
D29*
X145439500Y-75427000D03*
X142514500Y-75427000D03*
D31*
X197435000Y-78199000D03*
X195785000Y-78199000D03*
X153573000Y-84001000D03*
X151923000Y-84001000D03*
D28*
X212270000Y-84380000D03*
X213820000Y-84380000D03*
D21*
X199091000Y-76119000D03*
X200741000Y-76119000D03*
D29*
X216139500Y-75638125D03*
X213214500Y-75638125D03*
D36*
X188953000Y-68670500D03*
X187053000Y-68670500D03*
X188003000Y-66395500D03*
D37*
X199343500Y-72440500D03*
X197443500Y-72440500D03*
X198393500Y-70565500D03*
D36*
X199168500Y-68670500D03*
X197268500Y-68670500D03*
X198218500Y-66395500D03*
D19*
X175557500Y-72299000D03*
X175557500Y-70649000D03*
D37*
X218943000Y-72651625D03*
X217043000Y-72651625D03*
X217993000Y-70776625D03*
D31*
X168848500Y-78761000D03*
X167198500Y-78761000D03*
D38*
X153694000Y-56070000D03*
D39*
X156234000Y-56070000D03*
X158774000Y-56070000D03*
D40*
X181970000Y-80055000D03*
X183240000Y-80055000D03*
X184510000Y-80055000D03*
X185780000Y-80055000D03*
X185780000Y-85205000D03*
X184510000Y-85205000D03*
X183240000Y-85205000D03*
X181970000Y-85205000D03*
D36*
X148155500Y-68670500D03*
X146255500Y-68670500D03*
X147205500Y-66395500D03*
D31*
X158955500Y-78761000D03*
X157305500Y-78761000D03*
X193301000Y-96430000D03*
X191651000Y-96430000D03*
D19*
X205834000Y-68670500D03*
X205834000Y-67020500D03*
D35*
X200180000Y-91410000D03*
X200180000Y-93060000D03*
D21*
X218690500Y-76330125D03*
X220340500Y-76330125D03*
D37*
X158470500Y-72440500D03*
X156570500Y-72440500D03*
X157520500Y-70565500D03*
D31*
X206305000Y-78199000D03*
X204655000Y-78199000D03*
D24*
X153744000Y-95171000D03*
X153744000Y-96721000D03*
D31*
X193301000Y-99924000D03*
X191651000Y-99924000D03*
D37*
X209389000Y-72440500D03*
X207489000Y-72440500D03*
X208439000Y-70565500D03*
D19*
X144863000Y-72299000D03*
X144863000Y-70649000D03*
D37*
X168276000Y-72440500D03*
X166376000Y-72440500D03*
X167326000Y-70565500D03*
D36*
X209214000Y-68670500D03*
X207314000Y-68670500D03*
X208264000Y-66395500D03*
D24*
X137575000Y-59170000D03*
X137575000Y-60720000D03*
D30*
X210860000Y-84380000D03*
X209310000Y-84380000D03*
D19*
X164721000Y-68670500D03*
X164721000Y-67020500D03*
X178623000Y-90182000D03*
X178623000Y-88532000D03*
D24*
X198519000Y-88336000D03*
X198519000Y-89886000D03*
D35*
X196117500Y-81530000D03*
X196117500Y-83180000D03*
D19*
X154828000Y-68670500D03*
X154828000Y-67020500D03*
D28*
X196598000Y-96137000D03*
X198148000Y-96137000D03*
D41*
X157082500Y-59067000D03*
X157082500Y-60967000D03*
X154807500Y-60017000D03*
D31*
X148815500Y-78761000D03*
X147165500Y-78761000D03*
D42*
X147040379Y-88928000D03*
D43*
X144540379Y-88928000D03*
D36*
X178762500Y-68670500D03*
X176862500Y-68670500D03*
X177812500Y-66395500D03*
D24*
X200180000Y-95560000D03*
X200180000Y-97110000D03*
D19*
X206009000Y-72299000D03*
X206009000Y-70649000D03*
D37*
X189128000Y-72440500D03*
X187228000Y-72440500D03*
X188178000Y-70565500D03*
D29*
X196540000Y-75427000D03*
X193615000Y-75427000D03*
D37*
X148330500Y-72440500D03*
X146430500Y-72440500D03*
X147380500Y-70565500D03*
D21*
X147990500Y-76119000D03*
X149640500Y-76119000D03*
D36*
X158208000Y-68670500D03*
X156308000Y-68670500D03*
X157258000Y-66395500D03*
D29*
X186324500Y-75427000D03*
X183399500Y-75427000D03*
D28*
X215015000Y-94125000D03*
X216565000Y-94125000D03*
D24*
X215040000Y-95560000D03*
X215040000Y-97110000D03*
D31*
X216595000Y-77488125D03*
X214945000Y-77488125D03*
D24*
X138985000Y-63865000D03*
X138985000Y-65415000D03*
D21*
X209136500Y-76119000D03*
X210786500Y-76119000D03*
D36*
X168101000Y-68670500D03*
X166201000Y-68670500D03*
X167151000Y-66395500D03*
D44*
X222604000Y-62660000D03*
D45*
X223904000Y-62660000D03*
D19*
X215388000Y-68881625D03*
X215388000Y-67231625D03*
D30*
X153523000Y-82541000D03*
X151973000Y-82541000D03*
D36*
X218768000Y-68881625D03*
X216868000Y-68881625D03*
X217818000Y-66606625D03*
D37*
X178937500Y-72440500D03*
X177037500Y-72440500D03*
X177987500Y-70565500D03*
D31*
X177544000Y-99839000D03*
X175894000Y-99839000D03*
D29*
X155579500Y-75427000D03*
X152654500Y-75427000D03*
D21*
X158130500Y-76119000D03*
X159780500Y-76119000D03*
D24*
X160719000Y-95171000D03*
X160719000Y-96721000D03*
D31*
X187395000Y-78199000D03*
X185745000Y-78199000D03*
D46*
X152345000Y-60790000D03*
X152345000Y-59240000D03*
D29*
X206585500Y-75427000D03*
X203660500Y-75427000D03*
D35*
X181666000Y-89370000D03*
X181666000Y-91020000D03*
D19*
X195963500Y-72299000D03*
X195963500Y-70649000D03*
D21*
X188875500Y-76119000D03*
X190525500Y-76119000D03*
D38*
X196400000Y-56075000D03*
D39*
X198940000Y-56075000D03*
X201480000Y-56075000D03*
X204020000Y-56075000D03*
X206560000Y-56075000D03*
X209100000Y-56075000D03*
D31*
X193316000Y-91407000D03*
X191666000Y-91407000D03*
M02*
