G04 #@! TF.GenerationSoftware,KiCad,Pcbnew,9.0.0*
G04 #@! TF.CreationDate,2025-04-21T01:10:43+03:00*
G04 #@! TF.ProjectId,BMS,424d532e-6b69-4636-9164-5f7063625858,rev?*
G04 #@! TF.SameCoordinates,Original*
G04 #@! TF.FileFunction,Copper,L1,Top*
G04 #@! TF.FilePolarity,Positive*
%FSLAX46Y46*%
G04 Gerber Fmt 4.6, Leading zero omitted, Abs format (unit mm)*
G04 Created by KiCad (PCBNEW 9.0.0) date 2025-04-21 01:10:43*
%MOMM*%
%LPD*%
G01*
G04 APERTURE LIST*
G04 Aperture macros list*
%AMRoundRect*
0 Rectangle with rounded corners*
0 $1 Rounding radius*
0 $2 $3 $4 $5 $6 $7 $8 $9 X,Y pos of 4 corners*
0 Add a 4 corners polygon primitive as box body*
4,1,4,$2,$3,$4,$5,$6,$7,$8,$9,$2,$3,0*
0 Add four circle primitives for the rounded corners*
1,1,$1+$1,$2,$3*
1,1,$1+$1,$4,$5*
1,1,$1+$1,$6,$7*
1,1,$1+$1,$8,$9*
0 Add four rect primitives between the rounded corners*
20,1,$1+$1,$2,$3,$4,$5,0*
20,1,$1+$1,$4,$5,$6,$7,0*
20,1,$1+$1,$6,$7,$8,$9,0*
20,1,$1+$1,$8,$9,$2,$3,0*%
G04 Aperture macros list end*
%ADD10C,0.200000*%
G04 #@! TA.AperFunction,SMDPad,CuDef*
%ADD11RoundRect,0.200000X-0.275000X0.200000X-0.275000X-0.200000X0.275000X-0.200000X0.275000X0.200000X0*%
G04 #@! TD*
G04 #@! TA.AperFunction,SMDPad,CuDef*
%ADD12RoundRect,0.200000X0.275000X-0.200000X0.275000X0.200000X-0.275000X0.200000X-0.275000X-0.200000X0*%
G04 #@! TD*
G04 #@! TA.AperFunction,SMDPad,CuDef*
%ADD13RoundRect,0.225000X0.250000X-0.225000X0.250000X0.225000X-0.250000X0.225000X-0.250000X-0.225000X0*%
G04 #@! TD*
G04 #@! TA.AperFunction,SMDPad,CuDef*
%ADD14RoundRect,0.150000X0.587500X0.150000X-0.587500X0.150000X-0.587500X-0.150000X0.587500X-0.150000X0*%
G04 #@! TD*
G04 #@! TA.AperFunction,SMDPad,CuDef*
%ADD15RoundRect,0.250000X0.350000X-0.850000X0.350000X0.850000X-0.350000X0.850000X-0.350000X-0.850000X0*%
G04 #@! TD*
G04 #@! TA.AperFunction,SMDPad,CuDef*
%ADD16RoundRect,0.250000X1.125000X-1.275000X1.125000X1.275000X-1.125000X1.275000X-1.125000X-1.275000X0*%
G04 #@! TD*
G04 #@! TA.AperFunction,SMDPad,CuDef*
%ADD17RoundRect,0.249997X2.650003X-2.950003X2.650003X2.950003X-2.650003X2.950003X-2.650003X-2.950003X0*%
G04 #@! TD*
G04 #@! TA.AperFunction,SMDPad,CuDef*
%ADD18RoundRect,0.200000X0.200000X0.275000X-0.200000X0.275000X-0.200000X-0.275000X0.200000X-0.275000X0*%
G04 #@! TD*
G04 #@! TA.AperFunction,SMDPad,CuDef*
%ADD19RoundRect,0.225000X0.225000X0.250000X-0.225000X0.250000X-0.225000X-0.250000X0.225000X-0.250000X0*%
G04 #@! TD*
G04 #@! TA.AperFunction,ComponentPad*
%ADD20RoundRect,0.250001X-0.499999X-0.499999X0.499999X-0.499999X0.499999X0.499999X-0.499999X0.499999X0*%
G04 #@! TD*
G04 #@! TA.AperFunction,ComponentPad*
%ADD21C,1.500000*%
G04 #@! TD*
G04 #@! TA.AperFunction,SMDPad,CuDef*
%ADD22RoundRect,0.250000X0.250000X0.250000X-0.250000X0.250000X-0.250000X-0.250000X0.250000X-0.250000X0*%
G04 #@! TD*
G04 #@! TA.AperFunction,SMDPad,CuDef*
%ADD23RoundRect,0.150000X0.825000X0.150000X-0.825000X0.150000X-0.825000X-0.150000X0.825000X-0.150000X0*%
G04 #@! TD*
G04 #@! TA.AperFunction,SMDPad,CuDef*
%ADD24RoundRect,0.375000X0.625000X0.375000X-0.625000X0.375000X-0.625000X-0.375000X0.625000X-0.375000X0*%
G04 #@! TD*
G04 #@! TA.AperFunction,SMDPad,CuDef*
%ADD25RoundRect,0.500000X0.500000X1.400000X-0.500000X1.400000X-0.500000X-1.400000X0.500000X-1.400000X0*%
G04 #@! TD*
G04 #@! TA.AperFunction,SMDPad,CuDef*
%ADD26RoundRect,0.125984X0.274016X-0.724016X0.274016X0.724016X-0.274016X0.724016X-0.274016X-0.724016X0*%
G04 #@! TD*
G04 #@! TA.AperFunction,SMDPad,CuDef*
%ADD27RoundRect,0.225000X-0.250000X0.225000X-0.250000X-0.225000X0.250000X-0.225000X0.250000X0.225000X0*%
G04 #@! TD*
G04 #@! TA.AperFunction,ComponentPad*
%ADD28C,0.800000*%
G04 #@! TD*
G04 #@! TA.AperFunction,ComponentPad*
%ADD29C,6.400000*%
G04 #@! TD*
G04 #@! TA.AperFunction,SMDPad,CuDef*
%ADD30RoundRect,0.200000X-0.200000X-0.275000X0.200000X-0.275000X0.200000X0.275000X-0.200000X0.275000X0*%
G04 #@! TD*
G04 #@! TA.AperFunction,SMDPad,CuDef*
%ADD31RoundRect,0.250000X-0.250000X-0.250000X0.250000X-0.250000X0.250000X0.250000X-0.250000X0.250000X0*%
G04 #@! TD*
G04 #@! TA.AperFunction,ComponentPad*
%ADD32C,2.000000*%
G04 #@! TD*
G04 #@! TA.AperFunction,SMDPad,CuDef*
%ADD33R,1.910000X0.610000*%
G04 #@! TD*
G04 #@! TA.AperFunction,SMDPad,CuDef*
%ADD34R,1.205000X1.550000*%
G04 #@! TD*
G04 #@! TA.AperFunction,SMDPad,CuDef*
%ADD35RoundRect,0.100000X0.637500X0.100000X-0.637500X0.100000X-0.637500X-0.100000X0.637500X-0.100000X0*%
G04 #@! TD*
G04 #@! TA.AperFunction,ComponentPad*
%ADD36RoundRect,0.250001X0.499999X-0.499999X0.499999X0.499999X-0.499999X0.499999X-0.499999X-0.499999X0*%
G04 #@! TD*
G04 #@! TA.AperFunction,ComponentPad*
%ADD37RoundRect,0.250001X-0.499999X0.499999X-0.499999X-0.499999X0.499999X-0.499999X0.499999X0.499999X0*%
G04 #@! TD*
G04 #@! TA.AperFunction,SMDPad,CuDef*
%ADD38RoundRect,0.300000X-1.125000X-0.300000X1.125000X-0.300000X1.125000X0.300000X-1.125000X0.300000X0*%
G04 #@! TD*
G04 #@! TA.AperFunction,SMDPad,CuDef*
%ADD39RoundRect,0.150000X0.150000X-0.825000X0.150000X0.825000X-0.150000X0.825000X-0.150000X-0.825000X0*%
G04 #@! TD*
G04 #@! TA.AperFunction,SMDPad,CuDef*
%ADD40RoundRect,0.100000X0.100000X-0.637500X0.100000X0.637500X-0.100000X0.637500X-0.100000X-0.637500X0*%
G04 #@! TD*
G04 #@! TA.AperFunction,SMDPad,CuDef*
%ADD41RoundRect,0.225000X-0.375000X0.225000X-0.375000X-0.225000X0.375000X-0.225000X0.375000X0.225000X0*%
G04 #@! TD*
G04 #@! TA.AperFunction,ComponentPad*
%ADD42R,1.000000X1.000000*%
G04 #@! TD*
G04 #@! TA.AperFunction,ComponentPad*
%ADD43O,1.000000X1.000000*%
G04 #@! TD*
G04 #@! TA.AperFunction,ComponentPad*
%ADD44R,1.700000X1.700000*%
G04 #@! TD*
G04 #@! TA.AperFunction,ComponentPad*
%ADD45O,1.700000X1.700000*%
G04 #@! TD*
G04 #@! TA.AperFunction,ComponentPad*
%ADD46R,1.600000X1.600000*%
G04 #@! TD*
G04 #@! TA.AperFunction,ComponentPad*
%ADD47C,1.600000*%
G04 #@! TD*
G04 #@! TA.AperFunction,ViaPad*
%ADD48C,0.800000*%
G04 #@! TD*
G04 #@! TA.AperFunction,ViaPad*
%ADD49C,0.600000*%
G04 #@! TD*
G04 #@! TA.AperFunction,Conductor*
%ADD50C,0.800000*%
G04 #@! TD*
G04 #@! TA.AperFunction,Conductor*
%ADD51C,0.900000*%
G04 #@! TD*
G04 #@! TA.AperFunction,Conductor*
%ADD52C,0.600000*%
G04 #@! TD*
G04 #@! TA.AperFunction,Conductor*
%ADD53C,0.300000*%
G04 #@! TD*
G04 #@! TA.AperFunction,Conductor*
%ADD54C,1.600000*%
G04 #@! TD*
G04 #@! TA.AperFunction,Conductor*
%ADD55C,0.500000*%
G04 #@! TD*
G04 #@! TA.AperFunction,Conductor*
%ADD56C,1.000000*%
G04 #@! TD*
G04 #@! TA.AperFunction,Conductor*
%ADD57C,1.200000*%
G04 #@! TD*
G04 #@! TA.AperFunction,Conductor*
%ADD58C,0.400000*%
G04 #@! TD*
G04 #@! TA.AperFunction,Conductor*
%ADD59C,0.700000*%
G04 #@! TD*
G04 #@! TA.AperFunction,Conductor*
%ADD60C,0.650000*%
G04 #@! TD*
G04 APERTURE END LIST*
D10*
X-77493000Y-34155000D02*
X-77493000Y-34155000D01*
D11*
X168673000Y-86535500D03*
X168673000Y-88185500D03*
D12*
X147308500Y-79865000D03*
X147308500Y-78215000D03*
D13*
X144329000Y-86163000D03*
X144329000Y-84613000D03*
D11*
X179507500Y-78215000D03*
X179507500Y-79865000D03*
D14*
X183999500Y-102611000D03*
X183999500Y-100711000D03*
X182124500Y-101661000D03*
D12*
X160080500Y-76119000D03*
X160080500Y-74469000D03*
X165778000Y-99593000D03*
X165778000Y-97943000D03*
D15*
X163463500Y-76119000D03*
D16*
X164218500Y-71494000D03*
X167268500Y-71494000D03*
D17*
X165743500Y-69819000D03*
D16*
X164218500Y-68144000D03*
X167268500Y-68144000D03*
D15*
X168023500Y-76119000D03*
D18*
X206305000Y-78199000D03*
X204655000Y-78199000D03*
X158944000Y-53545000D03*
X157294000Y-53545000D03*
D11*
X168801000Y-78155125D03*
X168801000Y-79805125D03*
D18*
X192885000Y-90882000D03*
X191235000Y-90882000D03*
D12*
X211086500Y-76119000D03*
X211086500Y-74469000D03*
X168698000Y-99593000D03*
X168698000Y-97943000D03*
D15*
X143430500Y-76119000D03*
D16*
X144185500Y-71494000D03*
X147235500Y-71494000D03*
D17*
X145710500Y-69819000D03*
D16*
X144185500Y-68144000D03*
X147235500Y-68144000D03*
D15*
X147990500Y-76119000D03*
D11*
X157450000Y-78215000D03*
X157450000Y-79865000D03*
D12*
X190888000Y-72425000D03*
X190888000Y-70775000D03*
X220703000Y-72636125D03*
X220703000Y-70986125D03*
X178960000Y-100854000D03*
X178960000Y-99204000D03*
D18*
X187395000Y-78199000D03*
X185745000Y-78199000D03*
D19*
X151367000Y-94052000D03*
X149817000Y-94052000D03*
D20*
X175575000Y-60035000D03*
D21*
X178575000Y-60035000D03*
X181575000Y-60035000D03*
X184575000Y-60035000D03*
X187575000Y-60035000D03*
X175575000Y-63035000D03*
X178575000Y-63035000D03*
X181575000Y-63035000D03*
X184575000Y-63035000D03*
X187575000Y-63035000D03*
D11*
X165753000Y-86535500D03*
X165753000Y-88185500D03*
D15*
X194531000Y-76119000D03*
D16*
X195286000Y-71494000D03*
X198336000Y-71494000D03*
D17*
X196811000Y-69819000D03*
D16*
X195286000Y-68144000D03*
X198336000Y-68144000D03*
D15*
X199091000Y-76119000D03*
D22*
X196117500Y-81530000D03*
X193617500Y-81530000D03*
D23*
X189355000Y-92054000D03*
X189355000Y-90784000D03*
X189355000Y-89514000D03*
X189355000Y-88244000D03*
X184405000Y-88244000D03*
X184405000Y-89514000D03*
X184405000Y-90784000D03*
X184405000Y-92054000D03*
D18*
X160096000Y-83620000D03*
X158446000Y-83620000D03*
D12*
X145848500Y-79865000D03*
X145848500Y-78215000D03*
D24*
X147862000Y-98652000D03*
X147862000Y-96352000D03*
D25*
X141562000Y-96352000D03*
D24*
X147862000Y-94052000D03*
D26*
X153062000Y-98746000D03*
X154332000Y-98746000D03*
X159412000Y-98746000D03*
X160682000Y-98746000D03*
X160682000Y-93146000D03*
X154332000Y-93146000D03*
X153062000Y-93146000D03*
D27*
X146319000Y-59242000D03*
X146319000Y-60792000D03*
D11*
X155988500Y-78215000D03*
X155988500Y-79865000D03*
D18*
X190355000Y-78199000D03*
X188705000Y-78199000D03*
D11*
X167213000Y-86535500D03*
X167213000Y-88185500D03*
D28*
X227369500Y-105850500D03*
X225672444Y-105147556D03*
X229066556Y-105147556D03*
X224969500Y-103450500D03*
D29*
X227369500Y-103450500D03*
D28*
X229769500Y-103450500D03*
X225672444Y-101753444D03*
X229066556Y-101753444D03*
X227369500Y-101050500D03*
D12*
X201103500Y-72425000D03*
X201103500Y-70775000D03*
X149940500Y-76119000D03*
X149940500Y-74469000D03*
D28*
X132369500Y-105850500D03*
X130672444Y-105147556D03*
X134066556Y-105147556D03*
X129969500Y-103450500D03*
D29*
X132369500Y-103450500D03*
D28*
X134769500Y-103450500D03*
X130672444Y-101753444D03*
X134066556Y-101753444D03*
X132369500Y-101050500D03*
D18*
X192885000Y-89422000D03*
X191235000Y-89422000D03*
D12*
X190825500Y-76119000D03*
X190825500Y-74469000D03*
D18*
X195499000Y-97640000D03*
X193849000Y-97640000D03*
D28*
X132369500Y-56850500D03*
X130672444Y-56147556D03*
X134066556Y-56147556D03*
X129969500Y-54450500D03*
D29*
X132369500Y-54450500D03*
D28*
X134769500Y-54450500D03*
X130672444Y-52753444D03*
X134066556Y-52753444D03*
X132369500Y-52050500D03*
D11*
X164293000Y-86535500D03*
X164293000Y-88185500D03*
D15*
X174125000Y-76119000D03*
D16*
X174880000Y-71494000D03*
X177930000Y-71494000D03*
D17*
X176405000Y-69819000D03*
D16*
X174880000Y-68144000D03*
X177930000Y-68144000D03*
D15*
X178685000Y-76119000D03*
D30*
X204599000Y-95830000D03*
X206249000Y-95830000D03*
D13*
X149842000Y-98279500D03*
X149842000Y-96729500D03*
D12*
X180635000Y-76119000D03*
X180635000Y-74469000D03*
X160143000Y-72425000D03*
X160143000Y-70775000D03*
D23*
X189152000Y-97509000D03*
X189152000Y-96239000D03*
X189152000Y-94969000D03*
X189152000Y-93699000D03*
X184202000Y-93699000D03*
X184202000Y-94969000D03*
X184202000Y-96239000D03*
X184202000Y-97509000D03*
D31*
X160279000Y-88251000D03*
X162779000Y-88251000D03*
D18*
X209265000Y-78199000D03*
X207615000Y-78199000D03*
D13*
X145789000Y-86163000D03*
X145789000Y-84613000D03*
D31*
X193617500Y-83430000D03*
X196117500Y-83430000D03*
D15*
X214130500Y-76330125D03*
D16*
X214885500Y-71705125D03*
X217935500Y-71705125D03*
D17*
X216410500Y-70030125D03*
D16*
X214885500Y-68355125D03*
X217935500Y-68355125D03*
D15*
X218690500Y-76330125D03*
D28*
X227369500Y-56850500D03*
X225672444Y-56147556D03*
X229066556Y-56147556D03*
X224969500Y-54450500D03*
D29*
X227369500Y-54450500D03*
D28*
X229769500Y-54450500D03*
X225672444Y-52753444D03*
X229066556Y-52753444D03*
X227369500Y-52050500D03*
D32*
X213840000Y-58940000D03*
X213840000Y-52440000D03*
X218340000Y-58940000D03*
X218340000Y-52440000D03*
D18*
X153573000Y-81391000D03*
X151923000Y-81391000D03*
D11*
X180412000Y-101661000D03*
X180412000Y-103311000D03*
D33*
X155201500Y-87433000D03*
X155201500Y-86163000D03*
X155201500Y-84893000D03*
X155201500Y-83623000D03*
X149641500Y-83623000D03*
X149641500Y-84893000D03*
X149641500Y-86163000D03*
X149641500Y-87433000D03*
D34*
X153024000Y-86303000D03*
X153024000Y-84753000D03*
X151819000Y-86303000D03*
X151819000Y-84753000D03*
D35*
X186950000Y-84780000D03*
X186950000Y-84130000D03*
X186950000Y-83480000D03*
X186950000Y-82830000D03*
X186950000Y-82180000D03*
X186950000Y-81530000D03*
X186950000Y-80880000D03*
X186950000Y-80230000D03*
X181225000Y-80230000D03*
X181225000Y-80880000D03*
X181225000Y-81530000D03*
X181225000Y-82180000D03*
X181225000Y-82830000D03*
X181225000Y-83480000D03*
X181225000Y-84130000D03*
X181225000Y-84780000D03*
D12*
X150003000Y-72425000D03*
X150003000Y-70775000D03*
D11*
X178047500Y-78215000D03*
X178047500Y-79865000D03*
D20*
X164400000Y-60035000D03*
D21*
X167400000Y-60035000D03*
X164400000Y-63035000D03*
X167400000Y-63035000D03*
D15*
X153570500Y-76119000D03*
D16*
X154325500Y-71494000D03*
X157375500Y-71494000D03*
D17*
X155850500Y-69819000D03*
D16*
X154325500Y-68144000D03*
X157375500Y-68144000D03*
D15*
X158130500Y-76119000D03*
D30*
X158446000Y-85080000D03*
X160096000Y-85080000D03*
D36*
X137445000Y-90450000D03*
D21*
X137445000Y-87450000D03*
X137445000Y-84450000D03*
X137445000Y-81450000D03*
X140445000Y-90450000D03*
X140445000Y-87450000D03*
X140445000Y-84450000D03*
X140445000Y-81450000D03*
D12*
X201041000Y-76119000D03*
X201041000Y-74469000D03*
D37*
X221880000Y-83090000D03*
D21*
X221880000Y-86090000D03*
X221880000Y-89090000D03*
X221880000Y-92090000D03*
X218880000Y-83090000D03*
X218880000Y-86090000D03*
X218880000Y-89090000D03*
X218880000Y-92090000D03*
D11*
X165881000Y-78155125D03*
X165881000Y-79805125D03*
D26*
X136940000Y-62817000D03*
X138210000Y-62817000D03*
X143290000Y-62817000D03*
X144560000Y-62817000D03*
X144560000Y-57217000D03*
X138210000Y-57217000D03*
X136940000Y-57217000D03*
D22*
X162779000Y-90151000D03*
X160279000Y-90151000D03*
D12*
X220640500Y-76330125D03*
X220640500Y-74680125D03*
D11*
X150228500Y-78216500D03*
X150228500Y-79866500D03*
D15*
X184315500Y-76119000D03*
D16*
X185070500Y-71494000D03*
X188120500Y-71494000D03*
D17*
X186595500Y-69819000D03*
D16*
X185070500Y-68144000D03*
X188120500Y-68144000D03*
D15*
X188875500Y-76119000D03*
D18*
X195499000Y-99100000D03*
X193849000Y-99100000D03*
D12*
X148768500Y-79866500D03*
X148768500Y-78216500D03*
D11*
X185712000Y-100923500D03*
X185712000Y-102573500D03*
D27*
X155201500Y-88933000D03*
X155201500Y-90483000D03*
D38*
X148670000Y-58765000D03*
X156020000Y-58765000D03*
X156020000Y-61265000D03*
X148670000Y-61265000D03*
D12*
X169973500Y-76119000D03*
X169973500Y-74469000D03*
X211149000Y-72425000D03*
X211149000Y-70775000D03*
D11*
X158910000Y-78215000D03*
X158910000Y-79865000D03*
D18*
X197435000Y-78199000D03*
X195785000Y-78199000D03*
D12*
X170036000Y-72425000D03*
X170036000Y-70775000D03*
D11*
X176587500Y-78215000D03*
X176587500Y-79865000D03*
D12*
X164318000Y-99593000D03*
X164318000Y-97943000D03*
X174421000Y-100830000D03*
X174421000Y-99180000D03*
D39*
X176083000Y-97259000D03*
X177353000Y-97259000D03*
X178623000Y-97259000D03*
X179893000Y-97259000D03*
X179893000Y-92309000D03*
X178623000Y-92309000D03*
X177353000Y-92309000D03*
X176083000Y-92309000D03*
D18*
X200395000Y-78199000D03*
X198745000Y-78199000D03*
D15*
X204576500Y-76119000D03*
D16*
X205331500Y-71494000D03*
X208381500Y-71494000D03*
D17*
X206856500Y-69819000D03*
D16*
X205331500Y-68144000D03*
X208381500Y-68144000D03*
D15*
X209136500Y-76119000D03*
D12*
X167238000Y-99593000D03*
X167238000Y-97943000D03*
D11*
X167341000Y-78155125D03*
X167341000Y-79805125D03*
D40*
X164853000Y-95913000D03*
X165503000Y-95913000D03*
X166153000Y-95913000D03*
X166803000Y-95913000D03*
X167453000Y-95913000D03*
X168103000Y-95913000D03*
X168753000Y-95913000D03*
X169403000Y-95913000D03*
X169403000Y-90188000D03*
X168753000Y-90188000D03*
X168103000Y-90188000D03*
X167453000Y-90188000D03*
X166803000Y-90188000D03*
X166153000Y-90188000D03*
X165503000Y-90188000D03*
X164853000Y-90188000D03*
D36*
X137445000Y-72330000D03*
D21*
X137445000Y-69330000D03*
X140445000Y-72330000D03*
X140445000Y-69330000D03*
D12*
X180697500Y-72425000D03*
X180697500Y-70775000D03*
D41*
X150562000Y-89077000D03*
X150562000Y-92377000D03*
D42*
X225005000Y-73770000D03*
D43*
X226275000Y-73770000D03*
X225005000Y-72500000D03*
X226275000Y-72500000D03*
X225005000Y-71230000D03*
X226275000Y-71230000D03*
X225005000Y-69960000D03*
X226275000Y-69960000D03*
X225005000Y-68690000D03*
X226275000Y-68690000D03*
D44*
X153694000Y-56070000D03*
D45*
X156234000Y-56070000D03*
X158774000Y-56070000D03*
D46*
X147040379Y-88928000D03*
D47*
X144540379Y-88928000D03*
D44*
X196400000Y-56075000D03*
D45*
X198940000Y-56075000D03*
X201480000Y-56075000D03*
X204020000Y-56075000D03*
X206560000Y-56075000D03*
X209100000Y-56075000D03*
D48*
X150562000Y-92377000D03*
X148283000Y-84907000D03*
X205410000Y-99240000D03*
X137575000Y-60720000D03*
X147873000Y-98641000D03*
X204599000Y-95830000D03*
X156804500Y-86393000D03*
X213820000Y-84380000D03*
X151367000Y-94052000D03*
X139360000Y-56235000D03*
X216865000Y-55690000D03*
X151939500Y-85217000D03*
X199979000Y-89886000D03*
X180593270Y-99446008D03*
X137525000Y-65415000D03*
X151939500Y-86385000D03*
X216565000Y-95985000D03*
X144329000Y-84613000D03*
X195170000Y-95834000D03*
X215040000Y-97110000D03*
X209310000Y-84380000D03*
X145789000Y-84613000D03*
X152950000Y-86385000D03*
X153744000Y-96721000D03*
X152950000Y-85217000D03*
X203837000Y-84380000D03*
X200180000Y-97110000D03*
X138985000Y-65415000D03*
X198450000Y-92907000D03*
X196250000Y-94507000D03*
X198519000Y-89886000D03*
X215315000Y-55690000D03*
X213010000Y-99070000D03*
X203549000Y-93907000D03*
X212270000Y-84380000D03*
X200180000Y-95560000D03*
X191398000Y-92863000D03*
X199979000Y-88336000D03*
X185712000Y-103777000D03*
X189355000Y-87114000D03*
X142172999Y-94841000D03*
X132629000Y-65490000D03*
D49*
X222604000Y-62660000D03*
D48*
X203860000Y-99240000D03*
X198519000Y-88336000D03*
X140973000Y-94841000D03*
X173192000Y-97954000D03*
X190482000Y-98970000D03*
X147862000Y-96352000D03*
X142172999Y-97840999D03*
X190482000Y-97509000D03*
X191297000Y-94226000D03*
X141566500Y-96347000D03*
X140973000Y-97840999D03*
X205387000Y-84380000D03*
X215040000Y-95560000D03*
X182116000Y-99277000D03*
X153073500Y-88749000D03*
X153073500Y-89998000D03*
X156789000Y-88749000D03*
X156770000Y-89998000D03*
X151923000Y-82491000D03*
X175894000Y-99839000D03*
X137575000Y-59170000D03*
X179129000Y-103777000D03*
X153744000Y-95171000D03*
X147862000Y-94052000D03*
D49*
X144329000Y-87224000D03*
X144329000Y-86163000D03*
X145801000Y-86163000D03*
D48*
X153523000Y-82541000D03*
X209265000Y-78199000D03*
X161586000Y-88011000D03*
X152190000Y-77280000D03*
X218690500Y-76330125D03*
X170416000Y-95913000D03*
X200395000Y-78199000D03*
X179614469Y-90744883D03*
X160719000Y-96721000D03*
X184396000Y-87194000D03*
X166285999Y-91546841D03*
X185125000Y-80080000D03*
X170790000Y-77280000D03*
X193617500Y-81530000D03*
X190355000Y-78199000D03*
X185950000Y-98970000D03*
X185909000Y-93101000D03*
X160885000Y-77280000D03*
X182610000Y-77280000D03*
X180122000Y-100328000D03*
X155200000Y-61271000D03*
X155320000Y-58748000D03*
X196117500Y-81530000D03*
X221948000Y-76109000D03*
X214652659Y-88384050D03*
X210189000Y-95622000D03*
X211360000Y-95738000D03*
X155201500Y-86163000D03*
X194555000Y-90741000D03*
X154730000Y-65580000D03*
X145848500Y-79865000D03*
X209187799Y-99659642D03*
X209402628Y-92518372D03*
X208670000Y-94067926D03*
X206710000Y-92810000D03*
X149585500Y-68670500D03*
X155988500Y-79865000D03*
X151152000Y-76119000D03*
X147990500Y-76119000D03*
X150892000Y-73644000D03*
X205710831Y-90836831D03*
X159615000Y-68670500D03*
X203665000Y-91822000D03*
X165881000Y-79805125D03*
X158130500Y-76119000D03*
X169497000Y-68670000D03*
X185612500Y-82430000D03*
X176587500Y-79865000D03*
X168023500Y-76119000D03*
X161156500Y-73931672D03*
X180018000Y-68670500D03*
X203890000Y-88560000D03*
X182100000Y-76022000D03*
X178685000Y-76119000D03*
X185745000Y-78199000D03*
X204834000Y-87799000D03*
X170761128Y-73421000D03*
X190353000Y-68670500D03*
X181636000Y-73634372D03*
X192234000Y-76119000D03*
X195785000Y-78199000D03*
X188863250Y-76106750D03*
X198218500Y-65343500D03*
X191851000Y-73627000D03*
X200721500Y-68670500D03*
X204655000Y-78199000D03*
X199091000Y-76119000D03*
X201842000Y-77227000D03*
X210708000Y-68667000D03*
X193445000Y-92916004D03*
X205860000Y-89025000D03*
X214945000Y-78255000D03*
X209136500Y-76119000D03*
X211891000Y-73371000D03*
X220326000Y-68859125D03*
X161575000Y-91861000D03*
X165753000Y-88185500D03*
X167213000Y-88185500D03*
X221880000Y-96601942D03*
X220729000Y-96601942D03*
X168673000Y-88185500D03*
X201982000Y-73464000D03*
X164293000Y-88185500D03*
X200601000Y-100066000D03*
X208099000Y-99358000D03*
X197860000Y-61810000D03*
X209984000Y-93334000D03*
X203400000Y-78650000D03*
X208044000Y-79940000D03*
X141140000Y-57634000D03*
X201806000Y-78811000D03*
X210483114Y-94418548D03*
X211048000Y-80665000D03*
X148660000Y-58785000D03*
X148660000Y-61325000D03*
X170619000Y-90312000D03*
X169262715Y-93099001D03*
X179756000Y-81052000D03*
X177020831Y-94570169D03*
X185460000Y-87259000D03*
X174573000Y-88571000D03*
X179850000Y-89623000D03*
X177234000Y-89899000D03*
X182208870Y-97700000D03*
X181209333Y-97699553D03*
X221053857Y-73679268D03*
X143430500Y-73655500D03*
X153570500Y-73892500D03*
X163398000Y-73771000D03*
X174125000Y-73782500D03*
X184231000Y-73881000D03*
X194506000Y-73931000D03*
X204576500Y-74057619D03*
X214130500Y-74145625D03*
X206249000Y-95830000D03*
X160279000Y-88252000D03*
X166411000Y-92539000D03*
X162779000Y-90151000D03*
X181666000Y-89370000D03*
X168673000Y-86535500D03*
X164318000Y-99593000D03*
X180618000Y-85997000D03*
X173067000Y-94495000D03*
X165753000Y-86535500D03*
X170598000Y-94090000D03*
X174904260Y-91813904D03*
X181407186Y-93829186D03*
X183206000Y-78499000D03*
X167238000Y-99593000D03*
X165778000Y-99593000D03*
X178522000Y-84780000D03*
X182003000Y-95887000D03*
X193035000Y-84848000D03*
X168698000Y-99593000D03*
X164293000Y-86535500D03*
X167213000Y-86535500D03*
X160719000Y-95171000D03*
X146319000Y-60792000D03*
X143290000Y-62817000D03*
X144560000Y-62817000D03*
X150190000Y-55335000D03*
X150190000Y-64595000D03*
X146319000Y-59242000D03*
D50*
X156804500Y-86393000D02*
X156803000Y-86391500D01*
X149469500Y-98652000D02*
X149842000Y-98279500D01*
D51*
X216865000Y-55690000D02*
X218330000Y-55690000D01*
D50*
X157151500Y-85458500D02*
X157151500Y-85066000D01*
D52*
X156978500Y-84893000D02*
X157151500Y-85066000D01*
D50*
X153744000Y-96721000D02*
X153744000Y-98628000D01*
X137575000Y-60720000D02*
X137575000Y-62860000D01*
D51*
X152941500Y-86385500D02*
X153024000Y-86303000D01*
D50*
X157165500Y-85080000D02*
X157151500Y-85066000D01*
X158446000Y-85080000D02*
X157165500Y-85080000D01*
X156803000Y-85807000D02*
X157151500Y-85458500D01*
D51*
X144329000Y-84613000D02*
X145789000Y-84613000D01*
D50*
X137575000Y-62860000D02*
X137560000Y-62875000D01*
X147884000Y-98652000D02*
X149469500Y-98652000D01*
X156803000Y-86391500D02*
X156803000Y-85807000D01*
X147873000Y-98641000D02*
X147884000Y-98652000D01*
D52*
X155201500Y-84893000D02*
X156978500Y-84893000D01*
D53*
X203549000Y-93907000D02*
X205588000Y-93907000D01*
X210751000Y-99070000D02*
X213010000Y-99070000D01*
D54*
X208233000Y-52440000D02*
X213840000Y-52440000D01*
D51*
X215315000Y-55690000D02*
X213890000Y-55690000D01*
X213890000Y-55690000D02*
X213880000Y-55680000D01*
D54*
X206560000Y-56075000D02*
X206560000Y-54113000D01*
D53*
X205588000Y-93907000D02*
X210751000Y-99070000D01*
D54*
X206560000Y-54113000D02*
X208233000Y-52440000D01*
D52*
X183999500Y-102611000D02*
X185674500Y-102611000D01*
D55*
X179893000Y-97259000D02*
X179893000Y-97870000D01*
X180618008Y-98595008D02*
X181434008Y-98595008D01*
D52*
X190562000Y-93699000D02*
X191398000Y-92863000D01*
D50*
X185712000Y-102573500D02*
X185712000Y-103777000D01*
X149464500Y-96352000D02*
X147862000Y-96352000D01*
D52*
X189152000Y-93699000D02*
X190562000Y-93699000D01*
X173887000Y-97259000D02*
X176083000Y-97259000D01*
D50*
X149842000Y-96729500D02*
X149464500Y-96352000D01*
D55*
X179893000Y-97870000D02*
X180618008Y-98595008D01*
D52*
X185674500Y-102611000D02*
X185712000Y-102573500D01*
X189355000Y-92054000D02*
X190589000Y-92054000D01*
D55*
X181434008Y-98595008D02*
X182116000Y-99277000D01*
D52*
X190589000Y-92054000D02*
X191398000Y-92863000D01*
D55*
X189355000Y-87114000D02*
X189355000Y-88244000D01*
D52*
X173192000Y-97954000D02*
X173887000Y-97259000D01*
X189152000Y-97509000D02*
X190482000Y-97509000D01*
D51*
X155201500Y-90483000D02*
X153558500Y-90483000D01*
X153558500Y-90483000D02*
X153073500Y-89998000D01*
D52*
X155201500Y-87433000D02*
X155201500Y-88933000D01*
D50*
X137575000Y-57090000D02*
X137570000Y-57085000D01*
X179129000Y-103777000D02*
X179946000Y-103777000D01*
X179946000Y-103777000D02*
X180412000Y-103311000D01*
X153744000Y-95171000D02*
X153744000Y-93078000D01*
X137575000Y-59170000D02*
X137575000Y-57090000D01*
X151923000Y-81391000D02*
X151923000Y-82491000D01*
X149817000Y-94052000D02*
X147862000Y-94052000D01*
D52*
X149641500Y-86163000D02*
X147849000Y-86163000D01*
X145801000Y-86163000D02*
X145789000Y-86163000D01*
X144329000Y-87224000D02*
X144329000Y-86163000D01*
X147489000Y-83623000D02*
X149641500Y-83623000D01*
D51*
X145789000Y-86163000D02*
X144329000Y-86163000D01*
D52*
X147189000Y-86163000D02*
X147189000Y-83923000D01*
X147849000Y-86163000D02*
X145801000Y-86163000D01*
X147849000Y-86163000D02*
X147189000Y-86163000D01*
X147189000Y-83923000D02*
X147489000Y-83623000D01*
X158443000Y-83623000D02*
X158446000Y-83620000D01*
D50*
X153573000Y-81391000D02*
X153523000Y-81441000D01*
D52*
X155201500Y-83623000D02*
X158443000Y-83623000D01*
X155201500Y-83623000D02*
X154605000Y-83623000D01*
X154605000Y-83623000D02*
X153523000Y-82541000D01*
D50*
X153523000Y-81441000D02*
X153523000Y-82541000D01*
D52*
X179893000Y-92309000D02*
X179893000Y-91023414D01*
D50*
X179507500Y-78215000D02*
X181675000Y-78215000D01*
X220640500Y-76330125D02*
X218690500Y-76330125D01*
D52*
X184405000Y-88244000D02*
X184405000Y-87203000D01*
X185853000Y-93101000D02*
X185255000Y-93699000D01*
D50*
X181675000Y-78215000D02*
X182610000Y-77280000D01*
X158910000Y-78215000D02*
X159950000Y-78215000D01*
D52*
X170416000Y-95915000D02*
X170414000Y-95913000D01*
D50*
X159950000Y-78215000D02*
X160885000Y-77280000D01*
X170790000Y-77280000D02*
X170790000Y-77300250D01*
X151253500Y-78216500D02*
X152190000Y-77280000D01*
D52*
X185255000Y-93699000D02*
X184202000Y-93699000D01*
D50*
X170790000Y-77300250D02*
X169935125Y-78155125D01*
D56*
X161826000Y-88251000D02*
X162779000Y-88251000D01*
D52*
X184405000Y-87203000D02*
X184396000Y-87194000D01*
X185909000Y-93101000D02*
X185853000Y-93101000D01*
D50*
X169935125Y-78155125D02*
X168801000Y-78155125D01*
D56*
X161586000Y-88011000D02*
X161826000Y-88251000D01*
D52*
X179893000Y-91023414D02*
X179614469Y-90744883D01*
D50*
X150344000Y-78216500D02*
X151253500Y-78216500D01*
X170416000Y-95913000D02*
X168753000Y-95913000D01*
D52*
X182124500Y-101661000D02*
X180412000Y-101661000D01*
D50*
X180412000Y-100618000D02*
X180122000Y-100328000D01*
X180412000Y-101661000D02*
X180412000Y-100618000D01*
D57*
X162635000Y-61265000D02*
X162635000Y-61270000D01*
D50*
X151569000Y-58238999D02*
X151569000Y-55293000D01*
D57*
X162635000Y-61270000D02*
X164400000Y-63035000D01*
D50*
X154595001Y-61265000D02*
X151569000Y-58238999D01*
X154393000Y-52469000D02*
X157868000Y-52469000D01*
D57*
X155206000Y-61265000D02*
X162635000Y-61265000D01*
D50*
X151569000Y-55293000D02*
X154393000Y-52469000D01*
X157868000Y-52469000D02*
X158944000Y-53545000D01*
D57*
X155200000Y-61271000D02*
X155206000Y-61265000D01*
X163135000Y-58765000D02*
X164400000Y-60030000D01*
X156037000Y-58748000D02*
X156234000Y-58551000D01*
X155337000Y-58765000D02*
X163135000Y-58765000D01*
X156234000Y-58551000D02*
X156234000Y-56070000D01*
X155320000Y-58748000D02*
X156037000Y-58748000D01*
X155320000Y-58748000D02*
X155337000Y-58765000D01*
X164400000Y-60030000D02*
X164400000Y-60035000D01*
D56*
X196117500Y-83430000D02*
X196117500Y-81530000D01*
D53*
X211264075Y-96896000D02*
X214652659Y-93507416D01*
D50*
X222490000Y-75567000D02*
X222490000Y-74971000D01*
D56*
X226275000Y-74495000D02*
X226275000Y-73770000D01*
D50*
X221948000Y-76109000D02*
X222490000Y-75567000D01*
D53*
X214652659Y-93507416D02*
X214652659Y-88384050D01*
D56*
X196400000Y-56075000D02*
X206243000Y-65918000D01*
X206243000Y-65918000D02*
X219250219Y-65918000D01*
X225799000Y-74971000D02*
X226275000Y-74495000D01*
X222490000Y-74971000D02*
X225799000Y-74971000D01*
D53*
X210189000Y-95622000D02*
X210189000Y-96304000D01*
X210781000Y-96896000D02*
X211264075Y-96896000D01*
D56*
X219250219Y-65918000D02*
X222490000Y-69157781D01*
D53*
X210189000Y-96304000D02*
X210781000Y-96896000D01*
D56*
X222490000Y-69157781D02*
X222490000Y-74971000D01*
X201480000Y-56075000D02*
X206046000Y-60641000D01*
D50*
X227376000Y-74951050D02*
X223752049Y-78575000D01*
D56*
X222675000Y-60641000D02*
X222677000Y-60639000D01*
D50*
X212561000Y-87498397D02*
X212561000Y-94537000D01*
X226562050Y-72500000D02*
X227376000Y-73313950D01*
X223752049Y-78575000D02*
X221502000Y-78575000D01*
D56*
X206046000Y-60641000D02*
X222675000Y-60641000D01*
D50*
X227376000Y-73313950D02*
X227376000Y-74951050D01*
D56*
X222677000Y-60639000D02*
X228711000Y-66673000D01*
X228711000Y-70492471D02*
X226703472Y-72500000D01*
X228711000Y-66673000D02*
X228711000Y-70492471D01*
X226703472Y-72500000D02*
X226275000Y-72500000D01*
D50*
X226275000Y-72500000D02*
X226562050Y-72500000D01*
X221493198Y-78566199D02*
X212561000Y-87498397D01*
X221502000Y-78575000D02*
X221493198Y-78566199D01*
X212561000Y-94537000D02*
X211360000Y-95738000D01*
D52*
X185499500Y-100711000D02*
X185712000Y-100923500D01*
D53*
X192694000Y-92604929D02*
X192694000Y-95225226D01*
X193285274Y-100923500D02*
X185712000Y-100923500D01*
X192694000Y-95225226D02*
X194600000Y-97131226D01*
X194555000Y-90741000D02*
X194555000Y-90743929D01*
D52*
X183999500Y-100711000D02*
X185499500Y-100711000D01*
D53*
X194600000Y-97131226D02*
X194600000Y-99608774D01*
X194555000Y-90743929D02*
X192694000Y-92604929D01*
X194600000Y-99608774D02*
X193285274Y-100923500D01*
D58*
X179419942Y-82830000D02*
X177269942Y-80680000D01*
D50*
X167341000Y-79805125D02*
X168801000Y-79805125D01*
D58*
X175900000Y-80680000D02*
X175025125Y-79805125D01*
X175025125Y-79805125D02*
X168801000Y-79805125D01*
X177269942Y-80680000D02*
X175900000Y-80680000D01*
X181225000Y-82830000D02*
X179419942Y-82830000D01*
D50*
X174220000Y-61390000D02*
X175575000Y-60035000D01*
X172601000Y-61390000D02*
X174220000Y-61390000D01*
X154730000Y-65580000D02*
X168411000Y-65580000D01*
X168411000Y-65580000D02*
X172601000Y-61390000D01*
D53*
X174421000Y-100830000D02*
X178620000Y-105029000D01*
X194589000Y-104735521D02*
X194589000Y-104735520D01*
X207859441Y-100988000D02*
X209187799Y-99659642D01*
X184006520Y-105029000D02*
X193880480Y-105029000D01*
X194295521Y-105029000D02*
X194589000Y-104735521D01*
X178620000Y-105029000D02*
X184006520Y-105029000D01*
X198336520Y-100988000D02*
X207859441Y-100988000D01*
X193880480Y-105029000D02*
X194295520Y-105029000D01*
X194589000Y-104735520D02*
X198336520Y-100988000D01*
X194295520Y-105029000D02*
X194295521Y-105029000D01*
D50*
X153694000Y-56070000D02*
X153983195Y-55780805D01*
X156219000Y-53545000D02*
X153983195Y-55780805D01*
X157294000Y-53545000D02*
X156219000Y-53545000D01*
D53*
X183799000Y-104528000D02*
X181799000Y-102528000D01*
X206363000Y-93157000D02*
X201520925Y-93157000D01*
D50*
X208670000Y-94067926D02*
X208670000Y-93214372D01*
D53*
X198501000Y-96176925D02*
X198501000Y-100115000D01*
X180019226Y-102528000D02*
X178960000Y-101468774D01*
X194088000Y-104528000D02*
X183799000Y-104528000D01*
X201520925Y-93157000D02*
X198501000Y-96176925D01*
D50*
X208670000Y-93214372D02*
X208688000Y-93214372D01*
D53*
X178960000Y-101468774D02*
X178960000Y-100854000D01*
X181799000Y-102528000D02*
X180019226Y-102528000D01*
D50*
X208688000Y-93214372D02*
X209393314Y-92509058D01*
D53*
X206710000Y-92810000D02*
X206363000Y-93157000D01*
X198501000Y-100115000D02*
X194088000Y-104528000D01*
D50*
X146859000Y-68670500D02*
X145710500Y-69819000D01*
X146666500Y-70775000D02*
X145710500Y-69819000D01*
X150003000Y-70775000D02*
X146666500Y-70775000D01*
X147235500Y-71494000D02*
X147235500Y-71764000D01*
X149585500Y-68670500D02*
X146859000Y-68670500D01*
X147235500Y-71764000D02*
X149940500Y-74469000D01*
D58*
X177030000Y-81290000D02*
X165940000Y-81290000D01*
D50*
X157450000Y-79865000D02*
X158910000Y-79865000D01*
D58*
X164515000Y-79865000D02*
X158910000Y-79865000D01*
X165940000Y-81290000D02*
X164515000Y-79865000D01*
X181225000Y-83480000D02*
X179220000Y-83480000D01*
X179220000Y-83480000D02*
X177030000Y-81290000D01*
D50*
X151152000Y-76119000D02*
X149940500Y-76119000D01*
X149940500Y-76119000D02*
X147990500Y-76119000D01*
X150003000Y-72425000D02*
X150003000Y-72755000D01*
X150003000Y-72755000D02*
X150892000Y-73644000D01*
D53*
X196250000Y-97597520D02*
X196250000Y-98349000D01*
X196250000Y-98349000D02*
X195499000Y-99100000D01*
X197502000Y-94981000D02*
X197502000Y-96345521D01*
X199911000Y-92572000D02*
X197502000Y-94981000D01*
X197502000Y-96345521D02*
X196250000Y-97597520D01*
X203975662Y-92572000D02*
X199911000Y-92572000D01*
X205710831Y-90836831D02*
X203975662Y-92572000D01*
D50*
X157375500Y-71494000D02*
X157375500Y-71764000D01*
X156806500Y-70775000D02*
X155850500Y-69819000D01*
X156999000Y-68670500D02*
X155850500Y-69819000D01*
X160143000Y-70775000D02*
X156806500Y-70775000D01*
X159615000Y-68670500D02*
X156999000Y-68670500D01*
X157375500Y-71764000D02*
X160080500Y-74469000D01*
D53*
X203665000Y-91822000D02*
X203246000Y-91403000D01*
X203246000Y-91403000D02*
X198793000Y-91403000D01*
X197001000Y-93195000D02*
X197001000Y-96138000D01*
X197001000Y-96138000D02*
X195499000Y-97640000D01*
X198793000Y-91403000D02*
X197001000Y-93195000D01*
D52*
X177353000Y-97259000D02*
X177353000Y-98233999D01*
X176648999Y-98938000D02*
X174663000Y-98938000D01*
X174663000Y-98938000D02*
X174421000Y-99180000D01*
X177353000Y-98233999D02*
X176648999Y-98938000D01*
D58*
X188150000Y-78309000D02*
X188150000Y-81778792D01*
X188150000Y-81778792D02*
X187748792Y-82180000D01*
D50*
X188040000Y-78199000D02*
X188705000Y-78199000D01*
X187395000Y-78199000D02*
X188040000Y-78199000D01*
D58*
X188040000Y-78199000D02*
X188150000Y-78309000D01*
X187748792Y-82180000D02*
X186950000Y-82180000D01*
D50*
X161139628Y-76119000D02*
X162262500Y-77241872D01*
X162262500Y-77328424D02*
X163998076Y-79064000D01*
X165139875Y-79064000D02*
X165881000Y-79805125D01*
X163998076Y-79064000D02*
X165139875Y-79064000D01*
X162262500Y-77241872D02*
X162262500Y-77328424D01*
X160080500Y-76119000D02*
X161139628Y-76119000D01*
X160080500Y-76119000D02*
X158130500Y-76119000D01*
D52*
X178623000Y-97259000D02*
X178623000Y-98867000D01*
X178623000Y-98867000D02*
X178960000Y-99204000D01*
D50*
X169497000Y-68670000D02*
X166892500Y-68670000D01*
X167268500Y-71764000D02*
X169973500Y-74469000D01*
X167268500Y-71494000D02*
X167268500Y-71764000D01*
X166892500Y-68670000D02*
X165743500Y-69819000D01*
X166699500Y-70775000D02*
X165743500Y-69819000D01*
X170036000Y-70775000D02*
X166699500Y-70775000D01*
D58*
X185900000Y-83480000D02*
X185612500Y-83192500D01*
X186950000Y-83480000D02*
X185900000Y-83480000D01*
X185612500Y-83192500D02*
X185612500Y-82430000D01*
X185612500Y-82430000D02*
X185506084Y-82536416D01*
X191698734Y-79080000D02*
X196554000Y-79080000D01*
X196554000Y-79080000D02*
X197435000Y-78199000D01*
X187948734Y-82830000D02*
X191698734Y-79080000D01*
X186950000Y-82830000D02*
X187948734Y-82830000D01*
D50*
X197435000Y-78199000D02*
X198745000Y-78199000D01*
X169973500Y-76119000D02*
X168023500Y-76119000D01*
X171714576Y-76119000D02*
X174074576Y-78479000D01*
X169973500Y-76119000D02*
X171714576Y-76119000D01*
X174074576Y-78479000D02*
X175201500Y-78479000D01*
X175201500Y-78479000D02*
X176587500Y-79865000D01*
X160143000Y-72918172D02*
X161156500Y-73931672D01*
X160143000Y-72425000D02*
X160143000Y-72918172D01*
D52*
X189152000Y-96239000D02*
X190486207Y-96239000D01*
X193347207Y-99100000D02*
X193849000Y-99100000D01*
X190486207Y-96239000D02*
X193347207Y-99100000D01*
D50*
X177930000Y-71764000D02*
X180635000Y-74469000D01*
X180018000Y-68670500D02*
X177553500Y-68670500D01*
X177930000Y-71494000D02*
X177930000Y-71764000D01*
X177361000Y-70775000D02*
X176405000Y-69819000D01*
X180697500Y-70775000D02*
X177361000Y-70775000D01*
X177553500Y-68670500D02*
X176405000Y-69819000D01*
D58*
X178737000Y-81297116D02*
X178737000Y-79865000D01*
X179619884Y-82180000D02*
X178737000Y-81297116D01*
X181225000Y-82180000D02*
X179619884Y-82180000D01*
D50*
X178047500Y-79865000D02*
X179507500Y-79865000D01*
D53*
X192885000Y-90882000D02*
X194632000Y-89135000D01*
X194632000Y-89135000D02*
X203315000Y-89135000D01*
X203315000Y-89135000D02*
X203890000Y-88560000D01*
D52*
X189152000Y-94969000D02*
X190735000Y-94969000D01*
X193406000Y-97640000D02*
X193849000Y-97640000D01*
X190735000Y-94969000D02*
X193406000Y-97640000D01*
D50*
X182003000Y-76119000D02*
X182100000Y-76022000D01*
X180635000Y-76119000D02*
X178685000Y-76119000D01*
X180635000Y-76119000D02*
X182003000Y-76119000D01*
D53*
X194927000Y-87380000D02*
X192885000Y-89422000D01*
X204689000Y-87799000D02*
X204270000Y-87380000D01*
X204834000Y-87799000D02*
X204689000Y-87799000D01*
X204270000Y-87380000D02*
X194927000Y-87380000D01*
D50*
X170036000Y-72695872D02*
X170036000Y-72425000D01*
X170761128Y-73421000D02*
X170036000Y-72695872D01*
X190353000Y-68670500D02*
X187744000Y-68670500D01*
X190888000Y-70775000D02*
X187551500Y-70775000D01*
X188120500Y-71764000D02*
X190825500Y-74469000D01*
X187744000Y-68670500D02*
X186595500Y-69819000D01*
X187551500Y-70775000D02*
X186595500Y-69819000D01*
X188120500Y-71494000D02*
X188120500Y-71764000D01*
D58*
X206291000Y-78199000D02*
X206305000Y-78199000D01*
X204790000Y-79700000D02*
X206291000Y-78199000D01*
D50*
X206305000Y-78199000D02*
X207615000Y-78199000D01*
D58*
X186950000Y-84130000D02*
X187980000Y-84130000D01*
X192410000Y-79700000D02*
X204790000Y-79700000D01*
X187980000Y-84130000D02*
X192410000Y-79700000D01*
D50*
X181636000Y-73634372D02*
X180697500Y-72695872D01*
X180697500Y-72695872D02*
X180697500Y-72425000D01*
X181575000Y-63225000D02*
X181575000Y-63035000D01*
X190825500Y-76119000D02*
X188875500Y-76119000D01*
X182750000Y-64400000D02*
X181575000Y-63225000D01*
X192234000Y-76119000D02*
X190825500Y-76119000D01*
X197275000Y-64400000D02*
X182750000Y-64400000D01*
X198218500Y-65343500D02*
X197275000Y-64400000D01*
D52*
X191137000Y-90784000D02*
X191235000Y-90882000D01*
X189355000Y-90784000D02*
X191137000Y-90784000D01*
D50*
X191851000Y-73627000D02*
X190888000Y-72664000D01*
X190888000Y-72664000D02*
X190888000Y-72425000D01*
X198336000Y-71494000D02*
X198336000Y-71764000D01*
X200721500Y-68670500D02*
X197959500Y-68670500D01*
X197959500Y-68670500D02*
X196811000Y-69819000D01*
X197767000Y-70775000D02*
X196811000Y-69819000D01*
X201103500Y-70775000D02*
X197767000Y-70775000D01*
X198336000Y-71764000D02*
X201041000Y-74469000D01*
D59*
X148768500Y-78323884D02*
X150228500Y-79783884D01*
X148768500Y-78216500D02*
X148768500Y-78323884D01*
X150228500Y-79783884D02*
X150228500Y-79866500D01*
D58*
X154585000Y-79865000D02*
X155580000Y-80860000D01*
X155580000Y-80860000D02*
X163290000Y-80860000D01*
X150343500Y-79865000D02*
X154585000Y-79865000D01*
X176830000Y-81940000D02*
X179020000Y-84130000D01*
X179020000Y-84130000D02*
X181225000Y-84130000D01*
X163290000Y-80860000D02*
X164370000Y-81940000D01*
X164370000Y-81940000D02*
X176830000Y-81940000D01*
D50*
X201041000Y-76119000D02*
X200496000Y-76119000D01*
X200496000Y-76119000D02*
X200734000Y-76119000D01*
X200496000Y-76119000D02*
X199091000Y-76119000D01*
X200734000Y-76119000D02*
X201842000Y-77227000D01*
D52*
X189355000Y-89514000D02*
X191143000Y-89514000D01*
X191143000Y-89514000D02*
X191235000Y-89422000D01*
D50*
X211149000Y-70775000D02*
X207812500Y-70775000D01*
X208381500Y-71764000D02*
X211086500Y-74469000D01*
X207812500Y-70775000D02*
X206856500Y-69819000D01*
X210708000Y-68667000D02*
X208008500Y-68667000D01*
X208008500Y-68667000D02*
X206856500Y-69819000D01*
X208381500Y-71494000D02*
X208381500Y-71764000D01*
D53*
X195928921Y-92916004D02*
X198207925Y-90637000D01*
X193445000Y-92916004D02*
X195928921Y-92916004D01*
X204359000Y-90637000D02*
X205771000Y-89225000D01*
X205771000Y-89225000D02*
X205771000Y-89025000D01*
X198207925Y-90637000D02*
X204359000Y-90637000D01*
D58*
X192658942Y-80301000D02*
X205038942Y-80301000D01*
D50*
X211086500Y-76119000D02*
X213222500Y-78255000D01*
D58*
X205038942Y-80301000D02*
X206199942Y-79140000D01*
D50*
X209136500Y-76119000D02*
X211086500Y-76119000D01*
D58*
X210401000Y-79140000D02*
X212254250Y-77286750D01*
X186950000Y-84780000D02*
X188179942Y-84780000D01*
X206199942Y-79140000D02*
X210401000Y-79140000D01*
D50*
X213222500Y-78255000D02*
X214945000Y-78255000D01*
D58*
X188179942Y-84780000D02*
X192658942Y-80301000D01*
D50*
X211149000Y-72425000D02*
X211149000Y-72629000D01*
X211149000Y-72629000D02*
X211891000Y-73371000D01*
X220640500Y-74680125D02*
X217935500Y-71975125D01*
X218654500Y-70986125D02*
X217935500Y-71705125D01*
X217935500Y-71975125D02*
X217935500Y-71705125D01*
X220326000Y-68859125D02*
X217581500Y-68859125D01*
X220703000Y-70986125D02*
X218654500Y-70986125D01*
X217581500Y-68859125D02*
X216410500Y-70030125D01*
D58*
X161609000Y-91895000D02*
X163020000Y-91895000D01*
X161575000Y-91861000D02*
X161609000Y-91895000D01*
X163020000Y-91895000D02*
X166153000Y-95028000D01*
X166153000Y-95028000D02*
X166153000Y-95913000D01*
X166153000Y-88585500D02*
X166153000Y-90188000D01*
X165753000Y-88185500D02*
X166153000Y-88585500D01*
X166803000Y-88595500D02*
X166803000Y-90188000D01*
X221880000Y-92090000D02*
X221880000Y-96601942D01*
X167213000Y-88185500D02*
X166803000Y-88595500D01*
X220729000Y-90241000D02*
X220729000Y-96601942D01*
X168656708Y-88185500D02*
X167453000Y-89389208D01*
X167453000Y-89389208D02*
X167453000Y-90188000D01*
X168673000Y-88185500D02*
X168656708Y-88185500D01*
X221880000Y-89090000D02*
X220729000Y-90241000D01*
D50*
X201982000Y-73464000D02*
X201103500Y-72585500D01*
X201103500Y-72585500D02*
X201103500Y-72425000D01*
D58*
X164378500Y-88185500D02*
X165503000Y-89310000D01*
X164293000Y-88185500D02*
X164378500Y-88185500D01*
X165503000Y-89310000D02*
X165503000Y-90188000D01*
D53*
X206231964Y-100066000D02*
X206939964Y-99358000D01*
X206939964Y-99358000D02*
X208099000Y-99358000D01*
X200601000Y-100066000D02*
X206231964Y-100066000D01*
D58*
X168658000Y-97943000D02*
X167453000Y-96738000D01*
X136294000Y-91601000D02*
X136305000Y-91601000D01*
X136844000Y-92140000D02*
X136844000Y-99080826D01*
X140679174Y-102916000D02*
X162283368Y-102916000D01*
X169926000Y-101484000D02*
X170844000Y-100566000D01*
X162283368Y-102916000D02*
X163715368Y-101484000D01*
X170271000Y-97943000D02*
X168658000Y-97943000D01*
X170844000Y-98516000D02*
X170271000Y-97943000D01*
X163715368Y-101484000D02*
X169926000Y-101484000D01*
X170844000Y-100566000D02*
X170844000Y-98516000D01*
X136294000Y-82601000D02*
X136294000Y-91601000D01*
X136305000Y-91601000D02*
X136844000Y-92140000D01*
X137445000Y-81450000D02*
X136294000Y-82601000D01*
X136844000Y-99080826D02*
X140679174Y-102916000D01*
X167453000Y-96738000D02*
X167453000Y-95913000D01*
X166803000Y-97508000D02*
X166803000Y-95913000D01*
X170008000Y-99131000D02*
X170008000Y-100291000D01*
X168168516Y-98744000D02*
X169227484Y-98744000D01*
X168166516Y-98742000D02*
X168168516Y-98744000D01*
X169416000Y-100883000D02*
X163964310Y-100883000D01*
X137445000Y-98831884D02*
X137445000Y-92388942D01*
X137445000Y-91891058D02*
X137445000Y-90450000D01*
X163964310Y-100883000D02*
X163466426Y-100883000D01*
X169229484Y-98742000D02*
X169619000Y-98742000D01*
X167238000Y-97943000D02*
X168037000Y-98742000D01*
X169227484Y-98744000D02*
X169229484Y-98742000D01*
X167238000Y-97943000D02*
X166803000Y-97508000D01*
X163114368Y-101235058D02*
X162034426Y-102315000D01*
X170008000Y-100291000D02*
X169416000Y-100883000D01*
X137445000Y-92388942D02*
X137445000Y-91891058D01*
X163466426Y-100883000D02*
X163114368Y-101235058D01*
X140928116Y-102315000D02*
X137445000Y-98831884D01*
X169619000Y-98742000D02*
X170008000Y-99131000D01*
X162034426Y-102315000D02*
X140928116Y-102315000D01*
X168037000Y-98742000D02*
X168166516Y-98742000D01*
X165778000Y-97943000D02*
X164929000Y-98792000D01*
X161522000Y-101714000D02*
X141177058Y-101714000D01*
X165503000Y-95913000D02*
X165503000Y-96711792D01*
X164929000Y-98792000D02*
X163788516Y-98792000D01*
X165503000Y-96711792D02*
X165778000Y-96986792D01*
X141177058Y-101714000D02*
X138693000Y-99229942D01*
X162987516Y-99593000D02*
X162987516Y-100248484D01*
X165778000Y-96986792D02*
X165778000Y-97943000D01*
X162987516Y-100248484D02*
X161522000Y-101714000D01*
X165503000Y-97943000D02*
X165778000Y-97943000D01*
X138693000Y-88698000D02*
X137445000Y-87450000D01*
X163788516Y-98792000D02*
X162987516Y-99593000D01*
X138693000Y-99229942D02*
X138693000Y-88698000D01*
X163334000Y-97943000D02*
X164318000Y-97943000D01*
X139294000Y-86118000D02*
X139294000Y-98981000D01*
X164853000Y-97408000D02*
X164318000Y-97943000D01*
X141426000Y-101113000D02*
X161201000Y-101113000D01*
X137445000Y-84450000D02*
X137626000Y-84450000D01*
X164853000Y-95913000D02*
X164853000Y-97408000D01*
X162386516Y-99927484D02*
X162386516Y-98890484D01*
X161201000Y-101113000D02*
X162386516Y-99927484D01*
X139294000Y-98981000D02*
X141426000Y-101113000D01*
X162386516Y-98890484D02*
X163334000Y-97943000D01*
X137626000Y-84450000D02*
X139294000Y-86118000D01*
D53*
X203390000Y-78640000D02*
X203390000Y-67340000D01*
X203390000Y-67340000D02*
X197860000Y-61810000D01*
D55*
X208044000Y-88437000D02*
X210346000Y-90739000D01*
X210346000Y-92972000D02*
X209984000Y-93334000D01*
D53*
X203400000Y-78650000D02*
X203390000Y-78640000D01*
X209816538Y-93166538D02*
X209984000Y-93334000D01*
D55*
X208044000Y-79940000D02*
X208044000Y-88437000D01*
X210346000Y-90739000D02*
X210346000Y-92972000D01*
D53*
X208044000Y-79940000D02*
X208044000Y-80318000D01*
D55*
X211058000Y-93843662D02*
X210483114Y-94418548D01*
D53*
X141140000Y-57634000D02*
X141140000Y-63290000D01*
X167856050Y-64136000D02*
X173727050Y-58265000D01*
D55*
X211048000Y-80665000D02*
X211058000Y-80675000D01*
D53*
X202733000Y-68684000D02*
X202733000Y-77884000D01*
X150700000Y-65370000D02*
X153460000Y-62610000D01*
X173727050Y-58265000D02*
X192314000Y-58265000D01*
X202733000Y-77884000D02*
X201806000Y-78811000D01*
X161266000Y-64136000D02*
X167856050Y-64136000D01*
X211048000Y-80665000D02*
X211048000Y-80675000D01*
D55*
X211058000Y-80675000D02*
X211058000Y-93843662D01*
D53*
X141140000Y-63290000D02*
X143220000Y-65370000D01*
X153460000Y-62610000D02*
X159740000Y-62610000D01*
X143220000Y-65370000D02*
X150700000Y-65370000D01*
X211048000Y-80675000D02*
X211045000Y-80678000D01*
X192314000Y-58265000D02*
X202733000Y-68684000D01*
X159740000Y-62610000D02*
X161266000Y-64136000D01*
D60*
X148660000Y-58775000D02*
X148670000Y-58765000D01*
X148660000Y-58785000D02*
X148660000Y-58775000D01*
X148660000Y-61275000D02*
X148670000Y-61265000D01*
X148660000Y-61325000D02*
X148660000Y-61275000D01*
D58*
X182363500Y-86730500D02*
X180785000Y-88309000D01*
X182363500Y-81869708D02*
X182363500Y-86730500D01*
X179144792Y-88309000D02*
X178623000Y-88830792D01*
X181225000Y-81530000D02*
X182023792Y-81530000D01*
X182023792Y-81530000D02*
X182363500Y-81869708D01*
X178623000Y-88830792D02*
X178623000Y-92309000D01*
X180785000Y-88309000D02*
X179144792Y-88309000D01*
X177353000Y-91656000D02*
X177353000Y-92309000D01*
X176630000Y-90933000D02*
X177353000Y-91656000D01*
X168103000Y-91939286D02*
X168103000Y-90188000D01*
X175700612Y-90933000D02*
X176630000Y-90933000D01*
X169262715Y-93099001D02*
X168103000Y-91939286D01*
X170619000Y-90312000D02*
X175079612Y-90312000D01*
X175079612Y-90312000D02*
X175700612Y-90933000D01*
X177252169Y-94570169D02*
X177312186Y-94630186D01*
X182104798Y-94630186D02*
X183713612Y-96239000D01*
X177020831Y-94570169D02*
X177252169Y-94570169D01*
X181225000Y-80880000D02*
X179928000Y-80880000D01*
X183713612Y-96239000D02*
X184202000Y-96239000D01*
X179928000Y-80880000D02*
X179756000Y-81052000D01*
X177312186Y-94630186D02*
X182104798Y-94630186D01*
X183176000Y-80230000D02*
X184735000Y-81789000D01*
X181225000Y-80230000D02*
X183176000Y-80230000D01*
X185176999Y-94969000D02*
X184202000Y-94969000D01*
X186736000Y-93409999D02*
X185176999Y-94969000D01*
X184735000Y-84013792D02*
X186736000Y-86014792D01*
X184735000Y-81789000D02*
X184735000Y-84013792D01*
X186736000Y-86014792D02*
X186736000Y-93409999D01*
D52*
X185935000Y-88958999D02*
X185379999Y-89514000D01*
X185460000Y-87259000D02*
X185935000Y-87734000D01*
X185935000Y-87734000D02*
X185935000Y-88958999D01*
X185379999Y-89514000D02*
X184405000Y-89514000D01*
X184405000Y-90784000D02*
X181011000Y-90784000D01*
X181011000Y-90784000D02*
X179850000Y-89623000D01*
X175906000Y-88571000D02*
X177234000Y-89899000D01*
X174573000Y-88571000D02*
X175906000Y-88571000D01*
D53*
X182208870Y-97699553D02*
X182208870Y-97170870D01*
X176734520Y-95360000D02*
X180413925Y-95360000D01*
X169403000Y-90667000D02*
X169966000Y-91230000D01*
X169966000Y-91230000D02*
X172604521Y-91230000D01*
X172604521Y-91230000D02*
X176734520Y-95360000D01*
X182208870Y-97154945D02*
X182208870Y-97700000D01*
X169403000Y-90188000D02*
X169403000Y-90667000D01*
X180413925Y-95360000D02*
X182208870Y-97154945D01*
X176527000Y-95861000D02*
X172397000Y-91731000D01*
X180182678Y-95861000D02*
X176527000Y-95861000D01*
X168753000Y-91203000D02*
X168753000Y-90188000D01*
X181209333Y-97699553D02*
X181209333Y-96887655D01*
X181209333Y-96887655D02*
X180182678Y-95861000D01*
X169281000Y-91731000D02*
X168753000Y-91203000D01*
X181209333Y-97669061D02*
X181365000Y-97513394D01*
X172397000Y-91731000D02*
X169281000Y-91731000D01*
D50*
X220715857Y-73341268D02*
X220715857Y-72648982D01*
X221053857Y-73679268D02*
X220715857Y-73341268D01*
X220715857Y-72648982D02*
X220703000Y-72636125D01*
X143430500Y-73655500D02*
X143430500Y-76119000D01*
X153570500Y-73892500D02*
X153570500Y-76119000D01*
X163398000Y-73771000D02*
X163398000Y-76053500D01*
X163398000Y-76053500D02*
X163463500Y-76119000D01*
X174125000Y-73782500D02*
X174125000Y-76119000D01*
X184231000Y-76034500D02*
X184315500Y-76119000D01*
X184231000Y-73881000D02*
X184231000Y-76034500D01*
X194506000Y-76094000D02*
X194531000Y-76119000D01*
X194506000Y-73931000D02*
X194506000Y-76094000D01*
X204576500Y-74057619D02*
X204576500Y-76119000D01*
X214130500Y-74145625D02*
X214130500Y-76330125D01*
D52*
X162252998Y-91194000D02*
X161778000Y-90719002D01*
X161778000Y-89659000D02*
X161253000Y-89134000D01*
X166411000Y-92539000D02*
X165081000Y-92539000D01*
X163736000Y-91194000D02*
X162252998Y-91194000D01*
D56*
X160279000Y-89134000D02*
X160279000Y-88252000D01*
X160279000Y-90151000D02*
X160279000Y-89134000D01*
X160279000Y-88252000D02*
X160279000Y-88251000D01*
D52*
X165081000Y-92539000D02*
X163736000Y-91194000D01*
X161253000Y-89134000D02*
X160279000Y-89134000D01*
X161778000Y-90719002D02*
X161778000Y-89659000D01*
D50*
X148767000Y-79865000D02*
X148768500Y-79866500D01*
X147308500Y-79865000D02*
X148767000Y-79865000D01*
D52*
X183182372Y-92054000D02*
X181407186Y-93829186D01*
D58*
X162742000Y-90188000D02*
X164853000Y-90188000D01*
D52*
X175399356Y-92309000D02*
X174904260Y-91813904D01*
X183572190Y-97509000D02*
X182003000Y-95939810D01*
X182003000Y-95939810D02*
X182003000Y-95887000D01*
D50*
X193617500Y-84265500D02*
X193617500Y-83430000D01*
D58*
X181225000Y-84780000D02*
X178522000Y-84780000D01*
D50*
X160719000Y-95171000D02*
X160719000Y-93048000D01*
D52*
X184202000Y-97509000D02*
X183572190Y-97509000D01*
X176083000Y-92309000D02*
X175399356Y-92309000D01*
D58*
X162779000Y-90151000D02*
X162742000Y-90188000D01*
D50*
X193035000Y-84848000D02*
X193617500Y-84265500D01*
D52*
X184405000Y-92054000D02*
X183182372Y-92054000D01*
X162779000Y-90151000D02*
X162806000Y-90124000D01*
D50*
X145893000Y-60792000D02*
X143920000Y-62765000D01*
X146319000Y-60792000D02*
X145893000Y-60792000D01*
X144560000Y-57217000D02*
X144560000Y-57483000D01*
X144560000Y-57483000D02*
X146319000Y-59242000D01*
X160096000Y-83620000D02*
X160096000Y-85080000D01*
X145848500Y-78215000D02*
X147308500Y-78215000D01*
X155988500Y-78215000D02*
X157450000Y-78215000D01*
X165881000Y-78155125D02*
X167341000Y-78155125D01*
X176587500Y-78215000D02*
X178047500Y-78215000D01*
G04 #@! TA.AperFunction,Conductor*
G36*
X186149221Y-79079669D02*
G01*
X186198512Y-79090580D01*
X186670239Y-79302857D01*
X186679544Y-79307524D01*
X187635723Y-79838734D01*
X187684763Y-79888496D01*
X187699500Y-79947127D01*
X187699500Y-81540825D01*
X187690856Y-81570261D01*
X187684333Y-81600251D01*
X187680577Y-81605268D01*
X187679815Y-81607864D01*
X187663182Y-81628506D01*
X187598508Y-81693181D01*
X187537185Y-81726666D01*
X187510826Y-81729500D01*
X186279240Y-81729500D01*
X186250940Y-81733623D01*
X186220787Y-81738016D01*
X186196307Y-81739135D01*
X186048980Y-81731278D01*
X186003230Y-81719860D01*
X184712318Y-81118613D01*
X184676991Y-81093888D01*
X184241097Y-80657994D01*
X184207612Y-80596671D01*
X184204793Y-80568411D01*
X184225000Y-79255000D01*
X184225000Y-79180600D01*
X184244685Y-79113561D01*
X184297489Y-79067806D01*
X184350589Y-79056610D01*
X186149221Y-79079669D01*
G37*
G04 #@! TD.AperFunction*
G04 #@! TA.AperFunction,Conductor*
G36*
X214893039Y-51349685D02*
G01*
X214938794Y-51402489D01*
X214950000Y-51454000D01*
X214950000Y-59766500D01*
X214930315Y-59833539D01*
X214877511Y-59879294D01*
X214826000Y-59890500D01*
X212854000Y-59890500D01*
X212786961Y-59870815D01*
X212741206Y-59818011D01*
X212730000Y-59766500D01*
X212730000Y-51454000D01*
X212749685Y-51386961D01*
X212802489Y-51341206D01*
X212854000Y-51330000D01*
X214826000Y-51330000D01*
X214893039Y-51349685D01*
G37*
G04 #@! TD.AperFunction*
G04 #@! TA.AperFunction,Conductor*
G36*
X150541133Y-86964685D02*
G01*
X150586888Y-87017489D01*
X150588823Y-87021954D01*
X150591223Y-87027808D01*
X150629835Y-87086044D01*
X150678234Y-87140314D01*
X150678242Y-87140322D01*
X150801856Y-87244381D01*
X150840466Y-87302614D01*
X150846000Y-87339244D01*
X150846000Y-88162000D01*
X148413000Y-88162000D01*
X148413000Y-87069000D01*
X148432685Y-87001961D01*
X148485489Y-86956206D01*
X148537000Y-86945000D01*
X150474094Y-86945000D01*
X150541133Y-86964685D01*
G37*
G04 #@! TD.AperFunction*
G04 #@! TA.AperFunction,Conductor*
G36*
X153602407Y-83478890D02*
G01*
X153668680Y-83501015D01*
X153695518Y-83526385D01*
X154034857Y-83959984D01*
X154053060Y-83983244D01*
X154057633Y-84006231D01*
X154101948Y-84072552D01*
X154145977Y-84101972D01*
X154158219Y-84117614D01*
X154174711Y-84138687D01*
X154200000Y-84171000D01*
X154257127Y-84171843D01*
X157113450Y-84214000D01*
X157358974Y-84215677D01*
X157575651Y-84217157D01*
X157642553Y-84237299D01*
X157687947Y-84290414D01*
X157698803Y-84341351D01*
X157696342Y-85890178D01*
X157676551Y-85957186D01*
X157623674Y-86002857D01*
X157571219Y-86013976D01*
X156498360Y-86004260D01*
X156431502Y-85983969D01*
X156386227Y-85930753D01*
X156375486Y-85879458D01*
X156375992Y-85801787D01*
X156378000Y-85493000D01*
X153879999Y-85460999D01*
X153905913Y-86972927D01*
X153905672Y-86983064D01*
X153891820Y-87197012D01*
X153867845Y-87262639D01*
X153812195Y-87304887D01*
X153768079Y-87313000D01*
X151325350Y-87313000D01*
X151258311Y-87293315D01*
X151245493Y-87283863D01*
X150842780Y-86944854D01*
X150804171Y-86886621D01*
X150798639Y-86850773D01*
X150796429Y-86500426D01*
X150797000Y-86488047D01*
X150797000Y-85838250D01*
X150794404Y-85825203D01*
X150792023Y-85801799D01*
X150790000Y-85481000D01*
X150690816Y-85478230D01*
X147904246Y-85400413D01*
X147837782Y-85378864D01*
X147793519Y-85324804D01*
X147783719Y-85274718D01*
X147796336Y-84377351D01*
X147816960Y-84310599D01*
X147870402Y-84265591D01*
X147916301Y-84255163D01*
X150820000Y-84161000D01*
X150914389Y-83491691D01*
X150943242Y-83428059D01*
X151001918Y-83390127D01*
X151041712Y-83385092D01*
X153602407Y-83478890D01*
G37*
G04 #@! TD.AperFunction*
G04 #@! TA.AperFunction,Conductor*
G36*
X154922039Y-97717685D02*
G01*
X154967794Y-97770489D01*
X154979000Y-97822000D01*
X154979000Y-99673000D01*
X154959315Y-99740039D01*
X154906511Y-99785794D01*
X154855000Y-99797000D01*
X152633000Y-99797000D01*
X152565961Y-99777315D01*
X152520206Y-99724511D01*
X152509000Y-99673000D01*
X152509000Y-97822000D01*
X152528685Y-97754961D01*
X152581489Y-97709206D01*
X152633000Y-97698000D01*
X154855000Y-97698000D01*
X154922039Y-97717685D01*
G37*
G04 #@! TD.AperFunction*
G04 #@! TA.AperFunction,Conductor*
G36*
X153685039Y-88181685D02*
G01*
X153730794Y-88234489D01*
X153742000Y-88286000D01*
X153742000Y-90483000D01*
X153722315Y-90550039D01*
X153669511Y-90595794D01*
X153618000Y-90607000D01*
X148537000Y-90607000D01*
X148469961Y-90587315D01*
X148424206Y-90534511D01*
X148413000Y-90483000D01*
X148413000Y-88162000D01*
X150846000Y-88162000D01*
X153618000Y-88162000D01*
X153685039Y-88181685D01*
G37*
G04 #@! TD.AperFunction*
G04 #@! TA.AperFunction,Conductor*
G36*
X169641039Y-95040685D02*
G01*
X169686794Y-95093489D01*
X169698000Y-95145000D01*
X169698000Y-96662000D01*
X169678315Y-96729039D01*
X169625511Y-96774794D01*
X169574000Y-96786000D01*
X168189465Y-96786000D01*
X168160024Y-96777355D01*
X168130038Y-96770832D01*
X168125022Y-96767077D01*
X168122426Y-96766315D01*
X168101784Y-96749681D01*
X167939819Y-96587716D01*
X167906334Y-96526393D01*
X167903500Y-96500035D01*
X167903500Y-95242239D01*
X167892185Y-95164578D01*
X167895641Y-95164074D01*
X167894912Y-95111726D01*
X167931864Y-95052427D01*
X167995009Y-95022520D01*
X168014364Y-95021000D01*
X169574000Y-95021000D01*
X169641039Y-95040685D01*
G37*
G04 #@! TD.AperFunction*
G04 #@! TA.AperFunction,Conductor*
G36*
X161149529Y-96051665D02*
G01*
X161216362Y-96072039D01*
X161261570Y-96125312D01*
X161272073Y-96182291D01*
X161189000Y-97732995D01*
X161189000Y-99457282D01*
X161169315Y-99524321D01*
X161116511Y-99570076D01*
X161063294Y-99581270D01*
X159131294Y-99554682D01*
X159064531Y-99534077D01*
X159019507Y-99480648D01*
X159009000Y-99430694D01*
X159009000Y-97775174D01*
X159028685Y-97708135D01*
X159034715Y-97699570D01*
X160271288Y-96092024D01*
X160327764Y-96050891D01*
X160370846Y-96043637D01*
X161149529Y-96051665D01*
G37*
G04 #@! TD.AperFunction*
G04 #@! TA.AperFunction,Conductor*
G36*
X145103039Y-61774685D02*
G01*
X145148794Y-61827489D01*
X145160000Y-61879000D01*
X145160000Y-63751000D01*
X145140315Y-63818039D01*
X145087511Y-63863794D01*
X145036000Y-63875000D01*
X142814000Y-63875000D01*
X142746961Y-63855315D01*
X142701206Y-63802511D01*
X142690000Y-63751000D01*
X142690000Y-61879000D01*
X142709685Y-61811961D01*
X142762489Y-61766206D01*
X142814000Y-61755000D01*
X145036000Y-61755000D01*
X145103039Y-61774685D01*
G37*
G04 #@! TD.AperFunction*
G04 #@! TA.AperFunction,Conductor*
G36*
X154885039Y-92095685D02*
G01*
X154930794Y-92148489D01*
X154942000Y-92200000D01*
X154942000Y-94076000D01*
X154922315Y-94143039D01*
X154869511Y-94188794D01*
X154818000Y-94200000D01*
X152596000Y-94200000D01*
X152528961Y-94180315D01*
X152483206Y-94127511D01*
X152472000Y-94076000D01*
X152472000Y-92200000D01*
X152491685Y-92132961D01*
X152544489Y-92087206D01*
X152596000Y-92076000D01*
X154818000Y-92076000D01*
X154885039Y-92095685D01*
G37*
G04 #@! TD.AperFunction*
G04 #@! TA.AperFunction,Conductor*
G36*
X167670573Y-99016685D02*
G01*
X167691215Y-99033319D01*
X167760386Y-99102490D01*
X167863114Y-99161799D01*
X167977691Y-99192500D01*
X168085891Y-99192500D01*
X168102079Y-99193561D01*
X168109204Y-99194499D01*
X168109207Y-99194500D01*
X168109210Y-99194500D01*
X169211000Y-99194500D01*
X169278039Y-99214185D01*
X169323794Y-99266989D01*
X169335000Y-99318500D01*
X169335000Y-100073000D01*
X169315315Y-100140039D01*
X169262511Y-100185794D01*
X169211000Y-100197000D01*
X163723000Y-100197000D01*
X163655961Y-100177315D01*
X163610206Y-100124511D01*
X163599000Y-100073000D01*
X163599000Y-99669981D01*
X163618685Y-99602942D01*
X163635319Y-99582300D01*
X163938800Y-99278819D01*
X164000123Y-99245334D01*
X164026481Y-99242500D01*
X164988308Y-99242500D01*
X164988309Y-99242500D01*
X165078673Y-99218286D01*
X165102887Y-99211799D01*
X165205614Y-99152489D01*
X165324784Y-99033319D01*
X165386107Y-98999834D01*
X165412465Y-98997000D01*
X167603534Y-98997000D01*
X167670573Y-99016685D01*
G37*
G04 #@! TD.AperFunction*
G04 #@! TA.AperFunction,Conductor*
G36*
X169296039Y-85950685D02*
G01*
X169341794Y-86003489D01*
X169353000Y-86055000D01*
X169353000Y-87007000D01*
X169333315Y-87074039D01*
X169280511Y-87119794D01*
X169229000Y-87131000D01*
X163741000Y-87131000D01*
X163673961Y-87111315D01*
X163628206Y-87058511D01*
X163617000Y-87007000D01*
X163617000Y-86055000D01*
X163636685Y-85987961D01*
X163689489Y-85942206D01*
X163741000Y-85931000D01*
X169229000Y-85931000D01*
X169296039Y-85950685D01*
G37*
G04 #@! TD.AperFunction*
G04 #@! TA.AperFunction,Conductor*
G36*
X138652539Y-56174685D02*
G01*
X138698294Y-56227489D01*
X138709500Y-56279000D01*
X138709500Y-56299069D01*
X138709500Y-56299071D01*
X138709499Y-56299071D01*
X138734497Y-56424738D01*
X138734499Y-56424744D01*
X138783533Y-56543124D01*
X138789102Y-56551458D01*
X138809980Y-56618135D01*
X138810000Y-56620349D01*
X138810000Y-58151000D01*
X138790315Y-58218039D01*
X138737511Y-58263794D01*
X138686000Y-58275000D01*
X136464000Y-58275000D01*
X136396961Y-58255315D01*
X136351206Y-58202511D01*
X136340000Y-58151000D01*
X136340000Y-56280415D01*
X136359685Y-56213376D01*
X136412489Y-56167621D01*
X136465404Y-56156423D01*
X137332115Y-56166264D01*
X137502953Y-56168204D01*
X137526940Y-56156650D01*
X137547099Y-56155000D01*
X138585500Y-56155000D01*
X138652539Y-56174685D01*
G37*
G04 #@! TD.AperFunction*
G04 #@! TA.AperFunction,Conductor*
G36*
X138753039Y-61794685D02*
G01*
X138798794Y-61847489D01*
X138810000Y-61899000D01*
X138810000Y-63771000D01*
X138790315Y-63838039D01*
X138737511Y-63883794D01*
X138686000Y-63895000D01*
X136464000Y-63895000D01*
X136396961Y-63875315D01*
X136351206Y-63822511D01*
X136340000Y-63771000D01*
X136340000Y-61899000D01*
X136359685Y-61831961D01*
X136412489Y-61786206D01*
X136464000Y-61775000D01*
X138686000Y-61775000D01*
X138753039Y-61794685D01*
G37*
G04 #@! TD.AperFunction*
G04 #@! TA.AperFunction,Conductor*
G36*
X219413039Y-51349685D02*
G01*
X219458794Y-51402489D01*
X219470000Y-51454000D01*
X219470000Y-59766500D01*
X219450315Y-59833539D01*
X219397511Y-59879294D01*
X219346000Y-59890500D01*
X217374000Y-59890500D01*
X217306961Y-59870815D01*
X217261206Y-59818011D01*
X217250000Y-59766500D01*
X217250000Y-51454000D01*
X217269685Y-51386961D01*
X217322489Y-51341206D01*
X217374000Y-51330000D01*
X219346000Y-51330000D01*
X219413039Y-51349685D01*
G37*
G04 #@! TD.AperFunction*
M02*
