G04 #@! TF.GenerationSoftware,KiCad,Pcbnew,9.0.0*
G04 #@! TF.CreationDate,2025-04-21T01:10:44+03:00*
G04 #@! TF.ProjectId,BMS,424d532e-6b69-4636-9164-5f7063625858,rev?*
G04 #@! TF.SameCoordinates,Original*
G04 #@! TF.FileFunction,Legend,Top*
G04 #@! TF.FilePolarity,Positive*
%FSLAX46Y46*%
G04 Gerber Fmt 4.6, Leading zero omitted, Abs format (unit mm)*
G04 Created by KiCad (PCBNEW 9.0.0) date 2025-04-21 01:10:44*
%MOMM*%
%LPD*%
G01*
G04 APERTURE LIST*
G04 Aperture macros list*
%AMRoundRect*
0 Rectangle with rounded corners*
0 $1 Rounding radius*
0 $2 $3 $4 $5 $6 $7 $8 $9 X,Y pos of 4 corners*
0 Add a 4 corners polygon primitive as box body*
4,1,4,$2,$3,$4,$5,$6,$7,$8,$9,$2,$3,0*
0 Add four circle primitives for the rounded corners*
1,1,$1+$1,$2,$3*
1,1,$1+$1,$4,$5*
1,1,$1+$1,$6,$7*
1,1,$1+$1,$8,$9*
0 Add four rect primitives between the rounded corners*
20,1,$1+$1,$2,$3,$4,$5,0*
20,1,$1+$1,$4,$5,$6,$7,0*
20,1,$1+$1,$6,$7,$8,$9,0*
20,1,$1+$1,$8,$9,$2,$3,0*%
G04 Aperture macros list end*
%ADD10C,0.150000*%
%ADD11C,0.100000*%
%ADD12C,0.120000*%
%ADD13C,0.200000*%
%ADD14C,0.350000*%
%ADD15RoundRect,0.200000X-0.275000X0.200000X-0.275000X-0.200000X0.275000X-0.200000X0.275000X0.200000X0*%
%ADD16RoundRect,0.200000X0.275000X-0.200000X0.275000X0.200000X-0.275000X0.200000X-0.275000X-0.200000X0*%
%ADD17RoundRect,0.225000X0.250000X-0.225000X0.250000X0.225000X-0.250000X0.225000X-0.250000X-0.225000X0*%
%ADD18RoundRect,0.150000X0.587500X0.150000X-0.587500X0.150000X-0.587500X-0.150000X0.587500X-0.150000X0*%
%ADD19RoundRect,0.250000X0.350000X-0.850000X0.350000X0.850000X-0.350000X0.850000X-0.350000X-0.850000X0*%
%ADD20RoundRect,0.249997X2.650003X-2.950003X2.650003X2.950003X-2.650003X2.950003X-2.650003X-2.950003X0*%
%ADD21RoundRect,0.200000X0.200000X0.275000X-0.200000X0.275000X-0.200000X-0.275000X0.200000X-0.275000X0*%
%ADD22RoundRect,0.225000X0.225000X0.250000X-0.225000X0.250000X-0.225000X-0.250000X0.225000X-0.250000X0*%
%ADD23C,3.000000*%
%ADD24RoundRect,0.250001X-0.499999X-0.499999X0.499999X-0.499999X0.499999X0.499999X-0.499999X0.499999X0*%
%ADD25C,1.500000*%
%ADD26RoundRect,0.250000X0.250000X0.250000X-0.250000X0.250000X-0.250000X-0.250000X0.250000X-0.250000X0*%
%ADD27RoundRect,0.150000X0.825000X0.150000X-0.825000X0.150000X-0.825000X-0.150000X0.825000X-0.150000X0*%
%ADD28RoundRect,0.375000X0.625000X0.375000X-0.625000X0.375000X-0.625000X-0.375000X0.625000X-0.375000X0*%
%ADD29RoundRect,0.500000X0.500000X1.400000X-0.500000X1.400000X-0.500000X-1.400000X0.500000X-1.400000X0*%
%ADD30RoundRect,0.125984X0.274016X-0.724016X0.274016X0.724016X-0.274016X0.724016X-0.274016X-0.724016X0*%
%ADD31RoundRect,0.225000X-0.250000X0.225000X-0.250000X-0.225000X0.250000X-0.225000X0.250000X0.225000X0*%
%ADD32C,0.800000*%
%ADD33C,6.400000*%
%ADD34RoundRect,0.200000X-0.200000X-0.275000X0.200000X-0.275000X0.200000X0.275000X-0.200000X0.275000X0*%
%ADD35RoundRect,0.250000X-0.250000X-0.250000X0.250000X-0.250000X0.250000X0.250000X-0.250000X0.250000X0*%
%ADD36C,2.000000*%
%ADD37R,1.910000X0.610000*%
%ADD38R,1.205000X1.550000*%
%ADD39RoundRect,0.100000X0.637500X0.100000X-0.637500X0.100000X-0.637500X-0.100000X0.637500X-0.100000X0*%
%ADD40RoundRect,0.250001X0.499999X-0.499999X0.499999X0.499999X-0.499999X0.499999X-0.499999X-0.499999X0*%
%ADD41RoundRect,0.250001X-0.499999X0.499999X-0.499999X-0.499999X0.499999X-0.499999X0.499999X0.499999X0*%
%ADD42RoundRect,0.300000X-1.125000X-0.300000X1.125000X-0.300000X1.125000X0.300000X-1.125000X0.300000X0*%
%ADD43RoundRect,0.150000X0.150000X-0.825000X0.150000X0.825000X-0.150000X0.825000X-0.150000X-0.825000X0*%
%ADD44RoundRect,0.100000X0.100000X-0.637500X0.100000X0.637500X-0.100000X0.637500X-0.100000X-0.637500X0*%
%ADD45RoundRect,0.225000X-0.375000X0.225000X-0.375000X-0.225000X0.375000X-0.225000X0.375000X0.225000X0*%
%ADD46R,1.000000X1.000000*%
%ADD47O,1.000000X1.000000*%
%ADD48R,1.700000X1.700000*%
%ADD49O,1.700000X1.700000*%
%ADD50R,1.600000X1.600000*%
%ADD51C,1.600000*%
G04 APERTURE END LIST*
D10*
X169213819Y-85135857D02*
X168737628Y-85469190D01*
X169213819Y-85707285D02*
X168213819Y-85707285D01*
X168213819Y-85707285D02*
X168213819Y-85326333D01*
X168213819Y-85326333D02*
X168261438Y-85231095D01*
X168261438Y-85231095D02*
X168309057Y-85183476D01*
X168309057Y-85183476D02*
X168404295Y-85135857D01*
X168404295Y-85135857D02*
X168547152Y-85135857D01*
X168547152Y-85135857D02*
X168642390Y-85183476D01*
X168642390Y-85183476D02*
X168690009Y-85231095D01*
X168690009Y-85231095D02*
X168737628Y-85326333D01*
X168737628Y-85326333D02*
X168737628Y-85707285D01*
X168642390Y-84564428D02*
X168594771Y-84659666D01*
X168594771Y-84659666D02*
X168547152Y-84707285D01*
X168547152Y-84707285D02*
X168451914Y-84754904D01*
X168451914Y-84754904D02*
X168404295Y-84754904D01*
X168404295Y-84754904D02*
X168309057Y-84707285D01*
X168309057Y-84707285D02*
X168261438Y-84659666D01*
X168261438Y-84659666D02*
X168213819Y-84564428D01*
X168213819Y-84564428D02*
X168213819Y-84373952D01*
X168213819Y-84373952D02*
X168261438Y-84278714D01*
X168261438Y-84278714D02*
X168309057Y-84231095D01*
X168309057Y-84231095D02*
X168404295Y-84183476D01*
X168404295Y-84183476D02*
X168451914Y-84183476D01*
X168451914Y-84183476D02*
X168547152Y-84231095D01*
X168547152Y-84231095D02*
X168594771Y-84278714D01*
X168594771Y-84278714D02*
X168642390Y-84373952D01*
X168642390Y-84373952D02*
X168642390Y-84564428D01*
X168642390Y-84564428D02*
X168690009Y-84659666D01*
X168690009Y-84659666D02*
X168737628Y-84707285D01*
X168737628Y-84707285D02*
X168832866Y-84754904D01*
X168832866Y-84754904D02*
X169023342Y-84754904D01*
X169023342Y-84754904D02*
X169118580Y-84707285D01*
X169118580Y-84707285D02*
X169166200Y-84659666D01*
X169166200Y-84659666D02*
X169213819Y-84564428D01*
X169213819Y-84564428D02*
X169213819Y-84373952D01*
X169213819Y-84373952D02*
X169166200Y-84278714D01*
X169166200Y-84278714D02*
X169118580Y-84231095D01*
X169118580Y-84231095D02*
X169023342Y-84183476D01*
X169023342Y-84183476D02*
X168832866Y-84183476D01*
X168832866Y-84183476D02*
X168737628Y-84231095D01*
X168737628Y-84231095D02*
X168690009Y-84278714D01*
X168690009Y-84278714D02*
X168642390Y-84373952D01*
X169213819Y-83707285D02*
X169213819Y-83516809D01*
X169213819Y-83516809D02*
X169166200Y-83421571D01*
X169166200Y-83421571D02*
X169118580Y-83373952D01*
X169118580Y-83373952D02*
X168975723Y-83278714D01*
X168975723Y-83278714D02*
X168785247Y-83231095D01*
X168785247Y-83231095D02*
X168404295Y-83231095D01*
X168404295Y-83231095D02*
X168309057Y-83278714D01*
X168309057Y-83278714D02*
X168261438Y-83326333D01*
X168261438Y-83326333D02*
X168213819Y-83421571D01*
X168213819Y-83421571D02*
X168213819Y-83612047D01*
X168213819Y-83612047D02*
X168261438Y-83707285D01*
X168261438Y-83707285D02*
X168309057Y-83754904D01*
X168309057Y-83754904D02*
X168404295Y-83802523D01*
X168404295Y-83802523D02*
X168642390Y-83802523D01*
X168642390Y-83802523D02*
X168737628Y-83754904D01*
X168737628Y-83754904D02*
X168785247Y-83707285D01*
X168785247Y-83707285D02*
X168832866Y-83612047D01*
X168832866Y-83612047D02*
X168832866Y-83421571D01*
X168832866Y-83421571D02*
X168785247Y-83326333D01*
X168785247Y-83326333D02*
X168737628Y-83278714D01*
X168737628Y-83278714D02*
X168642390Y-83231095D01*
X147789819Y-82510857D02*
X147313628Y-82844190D01*
X147789819Y-83082285D02*
X146789819Y-83082285D01*
X146789819Y-83082285D02*
X146789819Y-82701333D01*
X146789819Y-82701333D02*
X146837438Y-82606095D01*
X146837438Y-82606095D02*
X146885057Y-82558476D01*
X146885057Y-82558476D02*
X146980295Y-82510857D01*
X146980295Y-82510857D02*
X147123152Y-82510857D01*
X147123152Y-82510857D02*
X147218390Y-82558476D01*
X147218390Y-82558476D02*
X147266009Y-82606095D01*
X147266009Y-82606095D02*
X147313628Y-82701333D01*
X147313628Y-82701333D02*
X147313628Y-83082285D01*
X147789819Y-81558476D02*
X147789819Y-82129904D01*
X147789819Y-81844190D02*
X146789819Y-81844190D01*
X146789819Y-81844190D02*
X146932676Y-81939428D01*
X146932676Y-81939428D02*
X147027914Y-82034666D01*
X147027914Y-82034666D02*
X147075533Y-82129904D01*
X146789819Y-80939428D02*
X146789819Y-80844190D01*
X146789819Y-80844190D02*
X146837438Y-80748952D01*
X146837438Y-80748952D02*
X146885057Y-80701333D01*
X146885057Y-80701333D02*
X146980295Y-80653714D01*
X146980295Y-80653714D02*
X147170771Y-80606095D01*
X147170771Y-80606095D02*
X147408866Y-80606095D01*
X147408866Y-80606095D02*
X147599342Y-80653714D01*
X147599342Y-80653714D02*
X147694580Y-80701333D01*
X147694580Y-80701333D02*
X147742200Y-80748952D01*
X147742200Y-80748952D02*
X147789819Y-80844190D01*
X147789819Y-80844190D02*
X147789819Y-80939428D01*
X147789819Y-80939428D02*
X147742200Y-81034666D01*
X147742200Y-81034666D02*
X147694580Y-81082285D01*
X147694580Y-81082285D02*
X147599342Y-81129904D01*
X147599342Y-81129904D02*
X147408866Y-81177523D01*
X147408866Y-81177523D02*
X147170771Y-81177523D01*
X147170771Y-81177523D02*
X146980295Y-81129904D01*
X146980295Y-81129904D02*
X146885057Y-81082285D01*
X146885057Y-81082285D02*
X146837438Y-81034666D01*
X146837438Y-81034666D02*
X146789819Y-80939428D01*
X143215580Y-85701857D02*
X143263200Y-85749476D01*
X143263200Y-85749476D02*
X143310819Y-85892333D01*
X143310819Y-85892333D02*
X143310819Y-85987571D01*
X143310819Y-85987571D02*
X143263200Y-86130428D01*
X143263200Y-86130428D02*
X143167961Y-86225666D01*
X143167961Y-86225666D02*
X143072723Y-86273285D01*
X143072723Y-86273285D02*
X142882247Y-86320904D01*
X142882247Y-86320904D02*
X142739390Y-86320904D01*
X142739390Y-86320904D02*
X142548914Y-86273285D01*
X142548914Y-86273285D02*
X142453676Y-86225666D01*
X142453676Y-86225666D02*
X142358438Y-86130428D01*
X142358438Y-86130428D02*
X142310819Y-85987571D01*
X142310819Y-85987571D02*
X142310819Y-85892333D01*
X142310819Y-85892333D02*
X142358438Y-85749476D01*
X142358438Y-85749476D02*
X142406057Y-85701857D01*
X143310819Y-84749476D02*
X143310819Y-85320904D01*
X143310819Y-85035190D02*
X142310819Y-85035190D01*
X142310819Y-85035190D02*
X142453676Y-85130428D01*
X142453676Y-85130428D02*
X142548914Y-85225666D01*
X142548914Y-85225666D02*
X142596533Y-85320904D01*
X143310819Y-84273285D02*
X143310819Y-84082809D01*
X143310819Y-84082809D02*
X143263200Y-83987571D01*
X143263200Y-83987571D02*
X143215580Y-83939952D01*
X143215580Y-83939952D02*
X143072723Y-83844714D01*
X143072723Y-83844714D02*
X142882247Y-83797095D01*
X142882247Y-83797095D02*
X142501295Y-83797095D01*
X142501295Y-83797095D02*
X142406057Y-83844714D01*
X142406057Y-83844714D02*
X142358438Y-83892333D01*
X142358438Y-83892333D02*
X142310819Y-83987571D01*
X142310819Y-83987571D02*
X142310819Y-84178047D01*
X142310819Y-84178047D02*
X142358438Y-84273285D01*
X142358438Y-84273285D02*
X142406057Y-84320904D01*
X142406057Y-84320904D02*
X142501295Y-84368523D01*
X142501295Y-84368523D02*
X142739390Y-84368523D01*
X142739390Y-84368523D02*
X142834628Y-84320904D01*
X142834628Y-84320904D02*
X142882247Y-84273285D01*
X142882247Y-84273285D02*
X142929866Y-84178047D01*
X142929866Y-84178047D02*
X142929866Y-83987571D01*
X142929866Y-83987571D02*
X142882247Y-83892333D01*
X142882247Y-83892333D02*
X142834628Y-83844714D01*
X142834628Y-83844714D02*
X142739390Y-83797095D01*
X181412819Y-79054857D02*
X180936628Y-79388190D01*
X181412819Y-79626285D02*
X180412819Y-79626285D01*
X180412819Y-79626285D02*
X180412819Y-79245333D01*
X180412819Y-79245333D02*
X180460438Y-79150095D01*
X180460438Y-79150095D02*
X180508057Y-79102476D01*
X180508057Y-79102476D02*
X180603295Y-79054857D01*
X180603295Y-79054857D02*
X180746152Y-79054857D01*
X180746152Y-79054857D02*
X180841390Y-79102476D01*
X180841390Y-79102476D02*
X180889009Y-79150095D01*
X180889009Y-79150095D02*
X180936628Y-79245333D01*
X180936628Y-79245333D02*
X180936628Y-79626285D01*
X180746152Y-78197714D02*
X181412819Y-78197714D01*
X180365200Y-78435809D02*
X181079485Y-78673904D01*
X181079485Y-78673904D02*
X181079485Y-78054857D01*
X180412819Y-77245333D02*
X180412819Y-77435809D01*
X180412819Y-77435809D02*
X180460438Y-77531047D01*
X180460438Y-77531047D02*
X180508057Y-77578666D01*
X180508057Y-77578666D02*
X180650914Y-77673904D01*
X180650914Y-77673904D02*
X180841390Y-77721523D01*
X180841390Y-77721523D02*
X181222342Y-77721523D01*
X181222342Y-77721523D02*
X181317580Y-77673904D01*
X181317580Y-77673904D02*
X181365200Y-77626285D01*
X181365200Y-77626285D02*
X181412819Y-77531047D01*
X181412819Y-77531047D02*
X181412819Y-77340571D01*
X181412819Y-77340571D02*
X181365200Y-77245333D01*
X181365200Y-77245333D02*
X181317580Y-77197714D01*
X181317580Y-77197714D02*
X181222342Y-77150095D01*
X181222342Y-77150095D02*
X180984247Y-77150095D01*
X180984247Y-77150095D02*
X180889009Y-77197714D01*
X180889009Y-77197714D02*
X180841390Y-77245333D01*
X180841390Y-77245333D02*
X180793771Y-77340571D01*
X180793771Y-77340571D02*
X180793771Y-77531047D01*
X180793771Y-77531047D02*
X180841390Y-77626285D01*
X180841390Y-77626285D02*
X180889009Y-77673904D01*
X180889009Y-77673904D02*
X180984247Y-77721523D01*
X182588571Y-105769057D02*
X182493333Y-105721438D01*
X182493333Y-105721438D02*
X182398095Y-105626200D01*
X182398095Y-105626200D02*
X182255238Y-105483342D01*
X182255238Y-105483342D02*
X182160000Y-105435723D01*
X182160000Y-105435723D02*
X182064762Y-105435723D01*
X182112381Y-105673819D02*
X182017143Y-105626200D01*
X182017143Y-105626200D02*
X181921905Y-105530961D01*
X181921905Y-105530961D02*
X181874286Y-105340485D01*
X181874286Y-105340485D02*
X181874286Y-105007152D01*
X181874286Y-105007152D02*
X181921905Y-104816676D01*
X181921905Y-104816676D02*
X182017143Y-104721438D01*
X182017143Y-104721438D02*
X182112381Y-104673819D01*
X182112381Y-104673819D02*
X182302857Y-104673819D01*
X182302857Y-104673819D02*
X182398095Y-104721438D01*
X182398095Y-104721438D02*
X182493333Y-104816676D01*
X182493333Y-104816676D02*
X182540952Y-105007152D01*
X182540952Y-105007152D02*
X182540952Y-105340485D01*
X182540952Y-105340485D02*
X182493333Y-105530961D01*
X182493333Y-105530961D02*
X182398095Y-105626200D01*
X182398095Y-105626200D02*
X182302857Y-105673819D01*
X182302857Y-105673819D02*
X182112381Y-105673819D01*
X183493333Y-105673819D02*
X182921905Y-105673819D01*
X183207619Y-105673819D02*
X183207619Y-104673819D01*
X183207619Y-104673819D02*
X183112381Y-104816676D01*
X183112381Y-104816676D02*
X183017143Y-104911914D01*
X183017143Y-104911914D02*
X182921905Y-104959533D01*
X183874286Y-104769057D02*
X183921905Y-104721438D01*
X183921905Y-104721438D02*
X184017143Y-104673819D01*
X184017143Y-104673819D02*
X184255238Y-104673819D01*
X184255238Y-104673819D02*
X184350476Y-104721438D01*
X184350476Y-104721438D02*
X184398095Y-104769057D01*
X184398095Y-104769057D02*
X184445714Y-104864295D01*
X184445714Y-104864295D02*
X184445714Y-104959533D01*
X184445714Y-104959533D02*
X184398095Y-105102390D01*
X184398095Y-105102390D02*
X183826667Y-105673819D01*
X183826667Y-105673819D02*
X184445714Y-105673819D01*
X156690142Y-74536819D02*
X156356809Y-74060628D01*
X156118714Y-74536819D02*
X156118714Y-73536819D01*
X156118714Y-73536819D02*
X156499666Y-73536819D01*
X156499666Y-73536819D02*
X156594904Y-73584438D01*
X156594904Y-73584438D02*
X156642523Y-73632057D01*
X156642523Y-73632057D02*
X156690142Y-73727295D01*
X156690142Y-73727295D02*
X156690142Y-73870152D01*
X156690142Y-73870152D02*
X156642523Y-73965390D01*
X156642523Y-73965390D02*
X156594904Y-74013009D01*
X156594904Y-74013009D02*
X156499666Y-74060628D01*
X156499666Y-74060628D02*
X156118714Y-74060628D01*
X157071095Y-73632057D02*
X157118714Y-73584438D01*
X157118714Y-73584438D02*
X157213952Y-73536819D01*
X157213952Y-73536819D02*
X157452047Y-73536819D01*
X157452047Y-73536819D02*
X157547285Y-73584438D01*
X157547285Y-73584438D02*
X157594904Y-73632057D01*
X157594904Y-73632057D02*
X157642523Y-73727295D01*
X157642523Y-73727295D02*
X157642523Y-73822533D01*
X157642523Y-73822533D02*
X157594904Y-73965390D01*
X157594904Y-73965390D02*
X157023476Y-74536819D01*
X157023476Y-74536819D02*
X157642523Y-74536819D01*
X158118714Y-74536819D02*
X158309190Y-74536819D01*
X158309190Y-74536819D02*
X158404428Y-74489200D01*
X158404428Y-74489200D02*
X158452047Y-74441580D01*
X158452047Y-74441580D02*
X158547285Y-74298723D01*
X158547285Y-74298723D02*
X158594904Y-74108247D01*
X158594904Y-74108247D02*
X158594904Y-73727295D01*
X158594904Y-73727295D02*
X158547285Y-73632057D01*
X158547285Y-73632057D02*
X158499666Y-73584438D01*
X158499666Y-73584438D02*
X158404428Y-73536819D01*
X158404428Y-73536819D02*
X158213952Y-73536819D01*
X158213952Y-73536819D02*
X158118714Y-73584438D01*
X158118714Y-73584438D02*
X158071095Y-73632057D01*
X158071095Y-73632057D02*
X158023476Y-73727295D01*
X158023476Y-73727295D02*
X158023476Y-73965390D01*
X158023476Y-73965390D02*
X158071095Y-74060628D01*
X158071095Y-74060628D02*
X158118714Y-74108247D01*
X158118714Y-74108247D02*
X158213952Y-74155866D01*
X158213952Y-74155866D02*
X158404428Y-74155866D01*
X158404428Y-74155866D02*
X158499666Y-74108247D01*
X158499666Y-74108247D02*
X158547285Y-74060628D01*
X158547285Y-74060628D02*
X158594904Y-73965390D01*
X166232819Y-102302857D02*
X165756628Y-102636190D01*
X166232819Y-102874285D02*
X165232819Y-102874285D01*
X165232819Y-102874285D02*
X165232819Y-102493333D01*
X165232819Y-102493333D02*
X165280438Y-102398095D01*
X165280438Y-102398095D02*
X165328057Y-102350476D01*
X165328057Y-102350476D02*
X165423295Y-102302857D01*
X165423295Y-102302857D02*
X165566152Y-102302857D01*
X165566152Y-102302857D02*
X165661390Y-102350476D01*
X165661390Y-102350476D02*
X165709009Y-102398095D01*
X165709009Y-102398095D02*
X165756628Y-102493333D01*
X165756628Y-102493333D02*
X165756628Y-102874285D01*
X166232819Y-101826666D02*
X166232819Y-101636190D01*
X166232819Y-101636190D02*
X166185200Y-101540952D01*
X166185200Y-101540952D02*
X166137580Y-101493333D01*
X166137580Y-101493333D02*
X165994723Y-101398095D01*
X165994723Y-101398095D02*
X165804247Y-101350476D01*
X165804247Y-101350476D02*
X165423295Y-101350476D01*
X165423295Y-101350476D02*
X165328057Y-101398095D01*
X165328057Y-101398095D02*
X165280438Y-101445714D01*
X165280438Y-101445714D02*
X165232819Y-101540952D01*
X165232819Y-101540952D02*
X165232819Y-101731428D01*
X165232819Y-101731428D02*
X165280438Y-101826666D01*
X165280438Y-101826666D02*
X165328057Y-101874285D01*
X165328057Y-101874285D02*
X165423295Y-101921904D01*
X165423295Y-101921904D02*
X165661390Y-101921904D01*
X165661390Y-101921904D02*
X165756628Y-101874285D01*
X165756628Y-101874285D02*
X165804247Y-101826666D01*
X165804247Y-101826666D02*
X165851866Y-101731428D01*
X165851866Y-101731428D02*
X165851866Y-101540952D01*
X165851866Y-101540952D02*
X165804247Y-101445714D01*
X165804247Y-101445714D02*
X165756628Y-101398095D01*
X165756628Y-101398095D02*
X165661390Y-101350476D01*
X165232819Y-100493333D02*
X165232819Y-100683809D01*
X165232819Y-100683809D02*
X165280438Y-100779047D01*
X165280438Y-100779047D02*
X165328057Y-100826666D01*
X165328057Y-100826666D02*
X165470914Y-100921904D01*
X165470914Y-100921904D02*
X165661390Y-100969523D01*
X165661390Y-100969523D02*
X166042342Y-100969523D01*
X166042342Y-100969523D02*
X166137580Y-100921904D01*
X166137580Y-100921904D02*
X166185200Y-100874285D01*
X166185200Y-100874285D02*
X166232819Y-100779047D01*
X166232819Y-100779047D02*
X166232819Y-100588571D01*
X166232819Y-100588571D02*
X166185200Y-100493333D01*
X166185200Y-100493333D02*
X166137580Y-100445714D01*
X166137580Y-100445714D02*
X166042342Y-100398095D01*
X166042342Y-100398095D02*
X165804247Y-100398095D01*
X165804247Y-100398095D02*
X165709009Y-100445714D01*
X165709009Y-100445714D02*
X165661390Y-100493333D01*
X165661390Y-100493333D02*
X165613771Y-100588571D01*
X165613771Y-100588571D02*
X165613771Y-100779047D01*
X165613771Y-100779047D02*
X165661390Y-100874285D01*
X165661390Y-100874285D02*
X165709009Y-100921904D01*
X165709009Y-100921904D02*
X165804247Y-100969523D01*
X161543761Y-66515057D02*
X161448523Y-66467438D01*
X161448523Y-66467438D02*
X161353285Y-66372200D01*
X161353285Y-66372200D02*
X161210428Y-66229342D01*
X161210428Y-66229342D02*
X161115190Y-66181723D01*
X161115190Y-66181723D02*
X161019952Y-66181723D01*
X161067571Y-66419819D02*
X160972333Y-66372200D01*
X160972333Y-66372200D02*
X160877095Y-66276961D01*
X160877095Y-66276961D02*
X160829476Y-66086485D01*
X160829476Y-66086485D02*
X160829476Y-65753152D01*
X160829476Y-65753152D02*
X160877095Y-65562676D01*
X160877095Y-65562676D02*
X160972333Y-65467438D01*
X160972333Y-65467438D02*
X161067571Y-65419819D01*
X161067571Y-65419819D02*
X161258047Y-65419819D01*
X161258047Y-65419819D02*
X161353285Y-65467438D01*
X161353285Y-65467438D02*
X161448523Y-65562676D01*
X161448523Y-65562676D02*
X161496142Y-65753152D01*
X161496142Y-65753152D02*
X161496142Y-66086485D01*
X161496142Y-66086485D02*
X161448523Y-66276961D01*
X161448523Y-66276961D02*
X161353285Y-66372200D01*
X161353285Y-66372200D02*
X161258047Y-66419819D01*
X161258047Y-66419819D02*
X161067571Y-66419819D01*
X162353285Y-65419819D02*
X162162809Y-65419819D01*
X162162809Y-65419819D02*
X162067571Y-65467438D01*
X162067571Y-65467438D02*
X162019952Y-65515057D01*
X162019952Y-65515057D02*
X161924714Y-65657914D01*
X161924714Y-65657914D02*
X161877095Y-65848390D01*
X161877095Y-65848390D02*
X161877095Y-66229342D01*
X161877095Y-66229342D02*
X161924714Y-66324580D01*
X161924714Y-66324580D02*
X161972333Y-66372200D01*
X161972333Y-66372200D02*
X162067571Y-66419819D01*
X162067571Y-66419819D02*
X162258047Y-66419819D01*
X162258047Y-66419819D02*
X162353285Y-66372200D01*
X162353285Y-66372200D02*
X162400904Y-66324580D01*
X162400904Y-66324580D02*
X162448523Y-66229342D01*
X162448523Y-66229342D02*
X162448523Y-65991247D01*
X162448523Y-65991247D02*
X162400904Y-65896009D01*
X162400904Y-65896009D02*
X162353285Y-65848390D01*
X162353285Y-65848390D02*
X162258047Y-65800771D01*
X162258047Y-65800771D02*
X162067571Y-65800771D01*
X162067571Y-65800771D02*
X161972333Y-65848390D01*
X161972333Y-65848390D02*
X161924714Y-65896009D01*
X161924714Y-65896009D02*
X161877095Y-65991247D01*
X204569142Y-80355819D02*
X204235809Y-79879628D01*
X203997714Y-80355819D02*
X203997714Y-79355819D01*
X203997714Y-79355819D02*
X204378666Y-79355819D01*
X204378666Y-79355819D02*
X204473904Y-79403438D01*
X204473904Y-79403438D02*
X204521523Y-79451057D01*
X204521523Y-79451057D02*
X204569142Y-79546295D01*
X204569142Y-79546295D02*
X204569142Y-79689152D01*
X204569142Y-79689152D02*
X204521523Y-79784390D01*
X204521523Y-79784390D02*
X204473904Y-79832009D01*
X204473904Y-79832009D02*
X204378666Y-79879628D01*
X204378666Y-79879628D02*
X203997714Y-79879628D01*
X204902476Y-79355819D02*
X205569142Y-79355819D01*
X205569142Y-79355819D02*
X205140571Y-80355819D01*
X205902476Y-79451057D02*
X205950095Y-79403438D01*
X205950095Y-79403438D02*
X206045333Y-79355819D01*
X206045333Y-79355819D02*
X206283428Y-79355819D01*
X206283428Y-79355819D02*
X206378666Y-79403438D01*
X206378666Y-79403438D02*
X206426285Y-79451057D01*
X206426285Y-79451057D02*
X206473904Y-79546295D01*
X206473904Y-79546295D02*
X206473904Y-79641533D01*
X206473904Y-79641533D02*
X206426285Y-79784390D01*
X206426285Y-79784390D02*
X205854857Y-80355819D01*
X205854857Y-80355819D02*
X206473904Y-80355819D01*
X158033333Y-52727819D02*
X157700000Y-52251628D01*
X157461905Y-52727819D02*
X157461905Y-51727819D01*
X157461905Y-51727819D02*
X157842857Y-51727819D01*
X157842857Y-51727819D02*
X157938095Y-51775438D01*
X157938095Y-51775438D02*
X157985714Y-51823057D01*
X157985714Y-51823057D02*
X158033333Y-51918295D01*
X158033333Y-51918295D02*
X158033333Y-52061152D01*
X158033333Y-52061152D02*
X157985714Y-52156390D01*
X157985714Y-52156390D02*
X157938095Y-52204009D01*
X157938095Y-52204009D02*
X157842857Y-52251628D01*
X157842857Y-52251628D02*
X157461905Y-52251628D01*
X158366667Y-51727819D02*
X158985714Y-51727819D01*
X158985714Y-51727819D02*
X158652381Y-52108771D01*
X158652381Y-52108771D02*
X158795238Y-52108771D01*
X158795238Y-52108771D02*
X158890476Y-52156390D01*
X158890476Y-52156390D02*
X158938095Y-52204009D01*
X158938095Y-52204009D02*
X158985714Y-52299247D01*
X158985714Y-52299247D02*
X158985714Y-52537342D01*
X158985714Y-52537342D02*
X158938095Y-52632580D01*
X158938095Y-52632580D02*
X158890476Y-52680200D01*
X158890476Y-52680200D02*
X158795238Y-52727819D01*
X158795238Y-52727819D02*
X158509524Y-52727819D01*
X158509524Y-52727819D02*
X158414286Y-52680200D01*
X158414286Y-52680200D02*
X158366667Y-52632580D01*
X170676819Y-79862857D02*
X170200628Y-80196190D01*
X170676819Y-80434285D02*
X169676819Y-80434285D01*
X169676819Y-80434285D02*
X169676819Y-80053333D01*
X169676819Y-80053333D02*
X169724438Y-79958095D01*
X169724438Y-79958095D02*
X169772057Y-79910476D01*
X169772057Y-79910476D02*
X169867295Y-79862857D01*
X169867295Y-79862857D02*
X170010152Y-79862857D01*
X170010152Y-79862857D02*
X170105390Y-79910476D01*
X170105390Y-79910476D02*
X170153009Y-79958095D01*
X170153009Y-79958095D02*
X170200628Y-80053333D01*
X170200628Y-80053333D02*
X170200628Y-80434285D01*
X169676819Y-79529523D02*
X169676819Y-78910476D01*
X169676819Y-78910476D02*
X170057771Y-79243809D01*
X170057771Y-79243809D02*
X170057771Y-79100952D01*
X170057771Y-79100952D02*
X170105390Y-79005714D01*
X170105390Y-79005714D02*
X170153009Y-78958095D01*
X170153009Y-78958095D02*
X170248247Y-78910476D01*
X170248247Y-78910476D02*
X170486342Y-78910476D01*
X170486342Y-78910476D02*
X170581580Y-78958095D01*
X170581580Y-78958095D02*
X170629200Y-79005714D01*
X170629200Y-79005714D02*
X170676819Y-79100952D01*
X170676819Y-79100952D02*
X170676819Y-79386666D01*
X170676819Y-79386666D02*
X170629200Y-79481904D01*
X170629200Y-79481904D02*
X170581580Y-79529523D01*
X169676819Y-78053333D02*
X169676819Y-78243809D01*
X169676819Y-78243809D02*
X169724438Y-78339047D01*
X169724438Y-78339047D02*
X169772057Y-78386666D01*
X169772057Y-78386666D02*
X169914914Y-78481904D01*
X169914914Y-78481904D02*
X170105390Y-78529523D01*
X170105390Y-78529523D02*
X170486342Y-78529523D01*
X170486342Y-78529523D02*
X170581580Y-78481904D01*
X170581580Y-78481904D02*
X170629200Y-78434285D01*
X170629200Y-78434285D02*
X170676819Y-78339047D01*
X170676819Y-78339047D02*
X170676819Y-78148571D01*
X170676819Y-78148571D02*
X170629200Y-78053333D01*
X170629200Y-78053333D02*
X170581580Y-78005714D01*
X170581580Y-78005714D02*
X170486342Y-77958095D01*
X170486342Y-77958095D02*
X170248247Y-77958095D01*
X170248247Y-77958095D02*
X170153009Y-78005714D01*
X170153009Y-78005714D02*
X170105390Y-78053333D01*
X170105390Y-78053333D02*
X170057771Y-78148571D01*
X170057771Y-78148571D02*
X170057771Y-78339047D01*
X170057771Y-78339047D02*
X170105390Y-78434285D01*
X170105390Y-78434285D02*
X170153009Y-78481904D01*
X170153009Y-78481904D02*
X170248247Y-78529523D01*
X194798142Y-92539819D02*
X194464809Y-92063628D01*
X194226714Y-92539819D02*
X194226714Y-91539819D01*
X194226714Y-91539819D02*
X194607666Y-91539819D01*
X194607666Y-91539819D02*
X194702904Y-91587438D01*
X194702904Y-91587438D02*
X194750523Y-91635057D01*
X194750523Y-91635057D02*
X194798142Y-91730295D01*
X194798142Y-91730295D02*
X194798142Y-91873152D01*
X194798142Y-91873152D02*
X194750523Y-91968390D01*
X194750523Y-91968390D02*
X194702904Y-92016009D01*
X194702904Y-92016009D02*
X194607666Y-92063628D01*
X194607666Y-92063628D02*
X194226714Y-92063628D01*
X195702904Y-91539819D02*
X195226714Y-91539819D01*
X195226714Y-91539819D02*
X195179095Y-92016009D01*
X195179095Y-92016009D02*
X195226714Y-91968390D01*
X195226714Y-91968390D02*
X195321952Y-91920771D01*
X195321952Y-91920771D02*
X195560047Y-91920771D01*
X195560047Y-91920771D02*
X195655285Y-91968390D01*
X195655285Y-91968390D02*
X195702904Y-92016009D01*
X195702904Y-92016009D02*
X195750523Y-92111247D01*
X195750523Y-92111247D02*
X195750523Y-92349342D01*
X195750523Y-92349342D02*
X195702904Y-92444580D01*
X195702904Y-92444580D02*
X195655285Y-92492200D01*
X195655285Y-92492200D02*
X195560047Y-92539819D01*
X195560047Y-92539819D02*
X195321952Y-92539819D01*
X195321952Y-92539819D02*
X195226714Y-92492200D01*
X195226714Y-92492200D02*
X195179095Y-92444580D01*
X196083857Y-91539819D02*
X196702904Y-91539819D01*
X196702904Y-91539819D02*
X196369571Y-91920771D01*
X196369571Y-91920771D02*
X196512428Y-91920771D01*
X196512428Y-91920771D02*
X196607666Y-91968390D01*
X196607666Y-91968390D02*
X196655285Y-92016009D01*
X196655285Y-92016009D02*
X196702904Y-92111247D01*
X196702904Y-92111247D02*
X196702904Y-92349342D01*
X196702904Y-92349342D02*
X196655285Y-92444580D01*
X196655285Y-92444580D02*
X196607666Y-92492200D01*
X196607666Y-92492200D02*
X196512428Y-92539819D01*
X196512428Y-92539819D02*
X196226714Y-92539819D01*
X196226714Y-92539819D02*
X196131476Y-92492200D01*
X196131476Y-92492200D02*
X196083857Y-92444580D01*
X207675142Y-74590819D02*
X207341809Y-74114628D01*
X207103714Y-74590819D02*
X207103714Y-73590819D01*
X207103714Y-73590819D02*
X207484666Y-73590819D01*
X207484666Y-73590819D02*
X207579904Y-73638438D01*
X207579904Y-73638438D02*
X207627523Y-73686057D01*
X207627523Y-73686057D02*
X207675142Y-73781295D01*
X207675142Y-73781295D02*
X207675142Y-73924152D01*
X207675142Y-73924152D02*
X207627523Y-74019390D01*
X207627523Y-74019390D02*
X207579904Y-74067009D01*
X207579904Y-74067009D02*
X207484666Y-74114628D01*
X207484666Y-74114628D02*
X207103714Y-74114628D01*
X208246571Y-74019390D02*
X208151333Y-73971771D01*
X208151333Y-73971771D02*
X208103714Y-73924152D01*
X208103714Y-73924152D02*
X208056095Y-73828914D01*
X208056095Y-73828914D02*
X208056095Y-73781295D01*
X208056095Y-73781295D02*
X208103714Y-73686057D01*
X208103714Y-73686057D02*
X208151333Y-73638438D01*
X208151333Y-73638438D02*
X208246571Y-73590819D01*
X208246571Y-73590819D02*
X208437047Y-73590819D01*
X208437047Y-73590819D02*
X208532285Y-73638438D01*
X208532285Y-73638438D02*
X208579904Y-73686057D01*
X208579904Y-73686057D02*
X208627523Y-73781295D01*
X208627523Y-73781295D02*
X208627523Y-73828914D01*
X208627523Y-73828914D02*
X208579904Y-73924152D01*
X208579904Y-73924152D02*
X208532285Y-73971771D01*
X208532285Y-73971771D02*
X208437047Y-74019390D01*
X208437047Y-74019390D02*
X208246571Y-74019390D01*
X208246571Y-74019390D02*
X208151333Y-74067009D01*
X208151333Y-74067009D02*
X208103714Y-74114628D01*
X208103714Y-74114628D02*
X208056095Y-74209866D01*
X208056095Y-74209866D02*
X208056095Y-74400342D01*
X208056095Y-74400342D02*
X208103714Y-74495580D01*
X208103714Y-74495580D02*
X208151333Y-74543200D01*
X208151333Y-74543200D02*
X208246571Y-74590819D01*
X208246571Y-74590819D02*
X208437047Y-74590819D01*
X208437047Y-74590819D02*
X208532285Y-74543200D01*
X208532285Y-74543200D02*
X208579904Y-74495580D01*
X208579904Y-74495580D02*
X208627523Y-74400342D01*
X208627523Y-74400342D02*
X208627523Y-74209866D01*
X208627523Y-74209866D02*
X208579904Y-74114628D01*
X208579904Y-74114628D02*
X208532285Y-74067009D01*
X208532285Y-74067009D02*
X208437047Y-74019390D01*
X209579904Y-74590819D02*
X209008476Y-74590819D01*
X209294190Y-74590819D02*
X209294190Y-73590819D01*
X209294190Y-73590819D02*
X209198952Y-73733676D01*
X209198952Y-73733676D02*
X209103714Y-73828914D01*
X209103714Y-73828914D02*
X209008476Y-73876533D01*
X169152819Y-102302857D02*
X168676628Y-102636190D01*
X169152819Y-102874285D02*
X168152819Y-102874285D01*
X168152819Y-102874285D02*
X168152819Y-102493333D01*
X168152819Y-102493333D02*
X168200438Y-102398095D01*
X168200438Y-102398095D02*
X168248057Y-102350476D01*
X168248057Y-102350476D02*
X168343295Y-102302857D01*
X168343295Y-102302857D02*
X168486152Y-102302857D01*
X168486152Y-102302857D02*
X168581390Y-102350476D01*
X168581390Y-102350476D02*
X168629009Y-102398095D01*
X168629009Y-102398095D02*
X168676628Y-102493333D01*
X168676628Y-102493333D02*
X168676628Y-102874285D01*
X169152819Y-101826666D02*
X169152819Y-101636190D01*
X169152819Y-101636190D02*
X169105200Y-101540952D01*
X169105200Y-101540952D02*
X169057580Y-101493333D01*
X169057580Y-101493333D02*
X168914723Y-101398095D01*
X168914723Y-101398095D02*
X168724247Y-101350476D01*
X168724247Y-101350476D02*
X168343295Y-101350476D01*
X168343295Y-101350476D02*
X168248057Y-101398095D01*
X168248057Y-101398095D02*
X168200438Y-101445714D01*
X168200438Y-101445714D02*
X168152819Y-101540952D01*
X168152819Y-101540952D02*
X168152819Y-101731428D01*
X168152819Y-101731428D02*
X168200438Y-101826666D01*
X168200438Y-101826666D02*
X168248057Y-101874285D01*
X168248057Y-101874285D02*
X168343295Y-101921904D01*
X168343295Y-101921904D02*
X168581390Y-101921904D01*
X168581390Y-101921904D02*
X168676628Y-101874285D01*
X168676628Y-101874285D02*
X168724247Y-101826666D01*
X168724247Y-101826666D02*
X168771866Y-101731428D01*
X168771866Y-101731428D02*
X168771866Y-101540952D01*
X168771866Y-101540952D02*
X168724247Y-101445714D01*
X168724247Y-101445714D02*
X168676628Y-101398095D01*
X168676628Y-101398095D02*
X168581390Y-101350476D01*
X168581390Y-100779047D02*
X168533771Y-100874285D01*
X168533771Y-100874285D02*
X168486152Y-100921904D01*
X168486152Y-100921904D02*
X168390914Y-100969523D01*
X168390914Y-100969523D02*
X168343295Y-100969523D01*
X168343295Y-100969523D02*
X168248057Y-100921904D01*
X168248057Y-100921904D02*
X168200438Y-100874285D01*
X168200438Y-100874285D02*
X168152819Y-100779047D01*
X168152819Y-100779047D02*
X168152819Y-100588571D01*
X168152819Y-100588571D02*
X168200438Y-100493333D01*
X168200438Y-100493333D02*
X168248057Y-100445714D01*
X168248057Y-100445714D02*
X168343295Y-100398095D01*
X168343295Y-100398095D02*
X168390914Y-100398095D01*
X168390914Y-100398095D02*
X168486152Y-100445714D01*
X168486152Y-100445714D02*
X168533771Y-100493333D01*
X168533771Y-100493333D02*
X168581390Y-100588571D01*
X168581390Y-100588571D02*
X168581390Y-100779047D01*
X168581390Y-100779047D02*
X168629009Y-100874285D01*
X168629009Y-100874285D02*
X168676628Y-100921904D01*
X168676628Y-100921904D02*
X168771866Y-100969523D01*
X168771866Y-100969523D02*
X168962342Y-100969523D01*
X168962342Y-100969523D02*
X169057580Y-100921904D01*
X169057580Y-100921904D02*
X169105200Y-100874285D01*
X169105200Y-100874285D02*
X169152819Y-100779047D01*
X169152819Y-100779047D02*
X169152819Y-100588571D01*
X169152819Y-100588571D02*
X169105200Y-100493333D01*
X169105200Y-100493333D02*
X169057580Y-100445714D01*
X169057580Y-100445714D02*
X168962342Y-100398095D01*
X168962342Y-100398095D02*
X168771866Y-100398095D01*
X168771866Y-100398095D02*
X168676628Y-100445714D01*
X168676628Y-100445714D02*
X168629009Y-100493333D01*
X168629009Y-100493333D02*
X168581390Y-100588571D01*
X141568761Y-66515057D02*
X141473523Y-66467438D01*
X141473523Y-66467438D02*
X141378285Y-66372200D01*
X141378285Y-66372200D02*
X141235428Y-66229342D01*
X141235428Y-66229342D02*
X141140190Y-66181723D01*
X141140190Y-66181723D02*
X141044952Y-66181723D01*
X141092571Y-66419819D02*
X140997333Y-66372200D01*
X140997333Y-66372200D02*
X140902095Y-66276961D01*
X140902095Y-66276961D02*
X140854476Y-66086485D01*
X140854476Y-66086485D02*
X140854476Y-65753152D01*
X140854476Y-65753152D02*
X140902095Y-65562676D01*
X140902095Y-65562676D02*
X140997333Y-65467438D01*
X140997333Y-65467438D02*
X141092571Y-65419819D01*
X141092571Y-65419819D02*
X141283047Y-65419819D01*
X141283047Y-65419819D02*
X141378285Y-65467438D01*
X141378285Y-65467438D02*
X141473523Y-65562676D01*
X141473523Y-65562676D02*
X141521142Y-65753152D01*
X141521142Y-65753152D02*
X141521142Y-66086485D01*
X141521142Y-66086485D02*
X141473523Y-66276961D01*
X141473523Y-66276961D02*
X141378285Y-66372200D01*
X141378285Y-66372200D02*
X141283047Y-66419819D01*
X141283047Y-66419819D02*
X141092571Y-66419819D01*
X141902095Y-65515057D02*
X141949714Y-65467438D01*
X141949714Y-65467438D02*
X142044952Y-65419819D01*
X142044952Y-65419819D02*
X142283047Y-65419819D01*
X142283047Y-65419819D02*
X142378285Y-65467438D01*
X142378285Y-65467438D02*
X142425904Y-65515057D01*
X142425904Y-65515057D02*
X142473523Y-65610295D01*
X142473523Y-65610295D02*
X142473523Y-65705533D01*
X142473523Y-65705533D02*
X142425904Y-65848390D01*
X142425904Y-65848390D02*
X141854476Y-66419819D01*
X141854476Y-66419819D02*
X142473523Y-66419819D01*
X156776142Y-81664819D02*
X156442809Y-81188628D01*
X156204714Y-81664819D02*
X156204714Y-80664819D01*
X156204714Y-80664819D02*
X156585666Y-80664819D01*
X156585666Y-80664819D02*
X156680904Y-80712438D01*
X156680904Y-80712438D02*
X156728523Y-80760057D01*
X156728523Y-80760057D02*
X156776142Y-80855295D01*
X156776142Y-80855295D02*
X156776142Y-80998152D01*
X156776142Y-80998152D02*
X156728523Y-81093390D01*
X156728523Y-81093390D02*
X156680904Y-81141009D01*
X156680904Y-81141009D02*
X156585666Y-81188628D01*
X156585666Y-81188628D02*
X156204714Y-81188628D01*
X157157095Y-80760057D02*
X157204714Y-80712438D01*
X157204714Y-80712438D02*
X157299952Y-80664819D01*
X157299952Y-80664819D02*
X157538047Y-80664819D01*
X157538047Y-80664819D02*
X157633285Y-80712438D01*
X157633285Y-80712438D02*
X157680904Y-80760057D01*
X157680904Y-80760057D02*
X157728523Y-80855295D01*
X157728523Y-80855295D02*
X157728523Y-80950533D01*
X157728523Y-80950533D02*
X157680904Y-81093390D01*
X157680904Y-81093390D02*
X157109476Y-81664819D01*
X157109476Y-81664819D02*
X157728523Y-81664819D01*
X158109476Y-80760057D02*
X158157095Y-80712438D01*
X158157095Y-80712438D02*
X158252333Y-80664819D01*
X158252333Y-80664819D02*
X158490428Y-80664819D01*
X158490428Y-80664819D02*
X158585666Y-80712438D01*
X158585666Y-80712438D02*
X158633285Y-80760057D01*
X158633285Y-80760057D02*
X158680904Y-80855295D01*
X158680904Y-80855295D02*
X158680904Y-80950533D01*
X158680904Y-80950533D02*
X158633285Y-81093390D01*
X158633285Y-81093390D02*
X158061857Y-81664819D01*
X158061857Y-81664819D02*
X158680904Y-81664819D01*
X192868819Y-72245857D02*
X192392628Y-72579190D01*
X192868819Y-72817285D02*
X191868819Y-72817285D01*
X191868819Y-72817285D02*
X191868819Y-72436333D01*
X191868819Y-72436333D02*
X191916438Y-72341095D01*
X191916438Y-72341095D02*
X191964057Y-72293476D01*
X191964057Y-72293476D02*
X192059295Y-72245857D01*
X192059295Y-72245857D02*
X192202152Y-72245857D01*
X192202152Y-72245857D02*
X192297390Y-72293476D01*
X192297390Y-72293476D02*
X192345009Y-72341095D01*
X192345009Y-72341095D02*
X192392628Y-72436333D01*
X192392628Y-72436333D02*
X192392628Y-72817285D01*
X191868819Y-71341095D02*
X191868819Y-71817285D01*
X191868819Y-71817285D02*
X192345009Y-71864904D01*
X192345009Y-71864904D02*
X192297390Y-71817285D01*
X192297390Y-71817285D02*
X192249771Y-71722047D01*
X192249771Y-71722047D02*
X192249771Y-71483952D01*
X192249771Y-71483952D02*
X192297390Y-71388714D01*
X192297390Y-71388714D02*
X192345009Y-71341095D01*
X192345009Y-71341095D02*
X192440247Y-71293476D01*
X192440247Y-71293476D02*
X192678342Y-71293476D01*
X192678342Y-71293476D02*
X192773580Y-71341095D01*
X192773580Y-71341095D02*
X192821200Y-71388714D01*
X192821200Y-71388714D02*
X192868819Y-71483952D01*
X192868819Y-71483952D02*
X192868819Y-71722047D01*
X192868819Y-71722047D02*
X192821200Y-71817285D01*
X192821200Y-71817285D02*
X192773580Y-71864904D01*
X191868819Y-70960142D02*
X191868819Y-70293476D01*
X191868819Y-70293476D02*
X192868819Y-70722047D01*
X222531819Y-72453982D02*
X222055628Y-72787315D01*
X222531819Y-73025410D02*
X221531819Y-73025410D01*
X221531819Y-73025410D02*
X221531819Y-72644458D01*
X221531819Y-72644458D02*
X221579438Y-72549220D01*
X221579438Y-72549220D02*
X221627057Y-72501601D01*
X221627057Y-72501601D02*
X221722295Y-72453982D01*
X221722295Y-72453982D02*
X221865152Y-72453982D01*
X221865152Y-72453982D02*
X221960390Y-72501601D01*
X221960390Y-72501601D02*
X222008009Y-72549220D01*
X222008009Y-72549220D02*
X222055628Y-72644458D01*
X222055628Y-72644458D02*
X222055628Y-73025410D01*
X221960390Y-71882553D02*
X221912771Y-71977791D01*
X221912771Y-71977791D02*
X221865152Y-72025410D01*
X221865152Y-72025410D02*
X221769914Y-72073029D01*
X221769914Y-72073029D02*
X221722295Y-72073029D01*
X221722295Y-72073029D02*
X221627057Y-72025410D01*
X221627057Y-72025410D02*
X221579438Y-71977791D01*
X221579438Y-71977791D02*
X221531819Y-71882553D01*
X221531819Y-71882553D02*
X221531819Y-71692077D01*
X221531819Y-71692077D02*
X221579438Y-71596839D01*
X221579438Y-71596839D02*
X221627057Y-71549220D01*
X221627057Y-71549220D02*
X221722295Y-71501601D01*
X221722295Y-71501601D02*
X221769914Y-71501601D01*
X221769914Y-71501601D02*
X221865152Y-71549220D01*
X221865152Y-71549220D02*
X221912771Y-71596839D01*
X221912771Y-71596839D02*
X221960390Y-71692077D01*
X221960390Y-71692077D02*
X221960390Y-71882553D01*
X221960390Y-71882553D02*
X222008009Y-71977791D01*
X222008009Y-71977791D02*
X222055628Y-72025410D01*
X222055628Y-72025410D02*
X222150866Y-72073029D01*
X222150866Y-72073029D02*
X222341342Y-72073029D01*
X222341342Y-72073029D02*
X222436580Y-72025410D01*
X222436580Y-72025410D02*
X222484200Y-71977791D01*
X222484200Y-71977791D02*
X222531819Y-71882553D01*
X222531819Y-71882553D02*
X222531819Y-71692077D01*
X222531819Y-71692077D02*
X222484200Y-71596839D01*
X222484200Y-71596839D02*
X222436580Y-71549220D01*
X222436580Y-71549220D02*
X222341342Y-71501601D01*
X222341342Y-71501601D02*
X222150866Y-71501601D01*
X222150866Y-71501601D02*
X222055628Y-71549220D01*
X222055628Y-71549220D02*
X222008009Y-71596839D01*
X222008009Y-71596839D02*
X221960390Y-71692077D01*
X221531819Y-70596839D02*
X221531819Y-71073029D01*
X221531819Y-71073029D02*
X222008009Y-71120648D01*
X222008009Y-71120648D02*
X221960390Y-71073029D01*
X221960390Y-71073029D02*
X221912771Y-70977791D01*
X221912771Y-70977791D02*
X221912771Y-70739696D01*
X221912771Y-70739696D02*
X221960390Y-70644458D01*
X221960390Y-70644458D02*
X222008009Y-70596839D01*
X222008009Y-70596839D02*
X222103247Y-70549220D01*
X222103247Y-70549220D02*
X222341342Y-70549220D01*
X222341342Y-70549220D02*
X222436580Y-70596839D01*
X222436580Y-70596839D02*
X222484200Y-70644458D01*
X222484200Y-70644458D02*
X222531819Y-70739696D01*
X222531819Y-70739696D02*
X222531819Y-70977791D01*
X222531819Y-70977791D02*
X222484200Y-71073029D01*
X222484200Y-71073029D02*
X222436580Y-71120648D01*
X176524142Y-102605819D02*
X176190809Y-102129628D01*
X175952714Y-102605819D02*
X175952714Y-101605819D01*
X175952714Y-101605819D02*
X176333666Y-101605819D01*
X176333666Y-101605819D02*
X176428904Y-101653438D01*
X176428904Y-101653438D02*
X176476523Y-101701057D01*
X176476523Y-101701057D02*
X176524142Y-101796295D01*
X176524142Y-101796295D02*
X176524142Y-101939152D01*
X176524142Y-101939152D02*
X176476523Y-102034390D01*
X176476523Y-102034390D02*
X176428904Y-102082009D01*
X176428904Y-102082009D02*
X176333666Y-102129628D01*
X176333666Y-102129628D02*
X175952714Y-102129628D01*
X177476523Y-102605819D02*
X176905095Y-102605819D01*
X177190809Y-102605819D02*
X177190809Y-101605819D01*
X177190809Y-101605819D02*
X177095571Y-101748676D01*
X177095571Y-101748676D02*
X177000333Y-101843914D01*
X177000333Y-101843914D02*
X176905095Y-101891533D01*
X177809857Y-101605819D02*
X178476523Y-101605819D01*
X178476523Y-101605819D02*
X178047952Y-102605819D01*
X185958142Y-77341819D02*
X185624809Y-76865628D01*
X185386714Y-77341819D02*
X185386714Y-76341819D01*
X185386714Y-76341819D02*
X185767666Y-76341819D01*
X185767666Y-76341819D02*
X185862904Y-76389438D01*
X185862904Y-76389438D02*
X185910523Y-76437057D01*
X185910523Y-76437057D02*
X185958142Y-76532295D01*
X185958142Y-76532295D02*
X185958142Y-76675152D01*
X185958142Y-76675152D02*
X185910523Y-76770390D01*
X185910523Y-76770390D02*
X185862904Y-76818009D01*
X185862904Y-76818009D02*
X185767666Y-76865628D01*
X185767666Y-76865628D02*
X185386714Y-76865628D01*
X186862904Y-76341819D02*
X186386714Y-76341819D01*
X186386714Y-76341819D02*
X186339095Y-76818009D01*
X186339095Y-76818009D02*
X186386714Y-76770390D01*
X186386714Y-76770390D02*
X186481952Y-76722771D01*
X186481952Y-76722771D02*
X186720047Y-76722771D01*
X186720047Y-76722771D02*
X186815285Y-76770390D01*
X186815285Y-76770390D02*
X186862904Y-76818009D01*
X186862904Y-76818009D02*
X186910523Y-76913247D01*
X186910523Y-76913247D02*
X186910523Y-77151342D01*
X186910523Y-77151342D02*
X186862904Y-77246580D01*
X186862904Y-77246580D02*
X186815285Y-77294200D01*
X186815285Y-77294200D02*
X186720047Y-77341819D01*
X186720047Y-77341819D02*
X186481952Y-77341819D01*
X186481952Y-77341819D02*
X186386714Y-77294200D01*
X186386714Y-77294200D02*
X186339095Y-77246580D01*
X187529571Y-76341819D02*
X187624809Y-76341819D01*
X187624809Y-76341819D02*
X187720047Y-76389438D01*
X187720047Y-76389438D02*
X187767666Y-76437057D01*
X187767666Y-76437057D02*
X187815285Y-76532295D01*
X187815285Y-76532295D02*
X187862904Y-76722771D01*
X187862904Y-76722771D02*
X187862904Y-76960866D01*
X187862904Y-76960866D02*
X187815285Y-77151342D01*
X187815285Y-77151342D02*
X187767666Y-77246580D01*
X187767666Y-77246580D02*
X187720047Y-77294200D01*
X187720047Y-77294200D02*
X187624809Y-77341819D01*
X187624809Y-77341819D02*
X187529571Y-77341819D01*
X187529571Y-77341819D02*
X187434333Y-77294200D01*
X187434333Y-77294200D02*
X187386714Y-77246580D01*
X187386714Y-77246580D02*
X187339095Y-77151342D01*
X187339095Y-77151342D02*
X187291476Y-76960866D01*
X187291476Y-76960866D02*
X187291476Y-76722771D01*
X187291476Y-76722771D02*
X187339095Y-76532295D01*
X187339095Y-76532295D02*
X187386714Y-76437057D01*
X187386714Y-76437057D02*
X187434333Y-76389438D01*
X187434333Y-76389438D02*
X187529571Y-76341819D01*
X149949142Y-95841580D02*
X149901523Y-95889200D01*
X149901523Y-95889200D02*
X149758666Y-95936819D01*
X149758666Y-95936819D02*
X149663428Y-95936819D01*
X149663428Y-95936819D02*
X149520571Y-95889200D01*
X149520571Y-95889200D02*
X149425333Y-95793961D01*
X149425333Y-95793961D02*
X149377714Y-95698723D01*
X149377714Y-95698723D02*
X149330095Y-95508247D01*
X149330095Y-95508247D02*
X149330095Y-95365390D01*
X149330095Y-95365390D02*
X149377714Y-95174914D01*
X149377714Y-95174914D02*
X149425333Y-95079676D01*
X149425333Y-95079676D02*
X149520571Y-94984438D01*
X149520571Y-94984438D02*
X149663428Y-94936819D01*
X149663428Y-94936819D02*
X149758666Y-94936819D01*
X149758666Y-94936819D02*
X149901523Y-94984438D01*
X149901523Y-94984438D02*
X149949142Y-95032057D01*
X150330095Y-95032057D02*
X150377714Y-94984438D01*
X150377714Y-94984438D02*
X150472952Y-94936819D01*
X150472952Y-94936819D02*
X150711047Y-94936819D01*
X150711047Y-94936819D02*
X150806285Y-94984438D01*
X150806285Y-94984438D02*
X150853904Y-95032057D01*
X150853904Y-95032057D02*
X150901523Y-95127295D01*
X150901523Y-95127295D02*
X150901523Y-95222533D01*
X150901523Y-95222533D02*
X150853904Y-95365390D01*
X150853904Y-95365390D02*
X150282476Y-95936819D01*
X150282476Y-95936819D02*
X150901523Y-95936819D01*
X151234857Y-94936819D02*
X151853904Y-94936819D01*
X151853904Y-94936819D02*
X151520571Y-95317771D01*
X151520571Y-95317771D02*
X151663428Y-95317771D01*
X151663428Y-95317771D02*
X151758666Y-95365390D01*
X151758666Y-95365390D02*
X151806285Y-95413009D01*
X151806285Y-95413009D02*
X151853904Y-95508247D01*
X151853904Y-95508247D02*
X151853904Y-95746342D01*
X151853904Y-95746342D02*
X151806285Y-95841580D01*
X151806285Y-95841580D02*
X151758666Y-95889200D01*
X151758666Y-95889200D02*
X151663428Y-95936819D01*
X151663428Y-95936819D02*
X151377714Y-95936819D01*
X151377714Y-95936819D02*
X151282476Y-95889200D01*
X151282476Y-95889200D02*
X151234857Y-95841580D01*
X181241666Y-49369819D02*
X181241666Y-50084104D01*
X181241666Y-50084104D02*
X181194047Y-50226961D01*
X181194047Y-50226961D02*
X181098809Y-50322200D01*
X181098809Y-50322200D02*
X180955952Y-50369819D01*
X180955952Y-50369819D02*
X180860714Y-50369819D01*
X182146428Y-49369819D02*
X181955952Y-49369819D01*
X181955952Y-49369819D02*
X181860714Y-49417438D01*
X181860714Y-49417438D02*
X181813095Y-49465057D01*
X181813095Y-49465057D02*
X181717857Y-49607914D01*
X181717857Y-49607914D02*
X181670238Y-49798390D01*
X181670238Y-49798390D02*
X181670238Y-50179342D01*
X181670238Y-50179342D02*
X181717857Y-50274580D01*
X181717857Y-50274580D02*
X181765476Y-50322200D01*
X181765476Y-50322200D02*
X181860714Y-50369819D01*
X181860714Y-50369819D02*
X182051190Y-50369819D01*
X182051190Y-50369819D02*
X182146428Y-50322200D01*
X182146428Y-50322200D02*
X182194047Y-50274580D01*
X182194047Y-50274580D02*
X182241666Y-50179342D01*
X182241666Y-50179342D02*
X182241666Y-49941247D01*
X182241666Y-49941247D02*
X182194047Y-49846009D01*
X182194047Y-49846009D02*
X182146428Y-49798390D01*
X182146428Y-49798390D02*
X182051190Y-49750771D01*
X182051190Y-49750771D02*
X181860714Y-49750771D01*
X181860714Y-49750771D02*
X181765476Y-49798390D01*
X181765476Y-49798390D02*
X181717857Y-49846009D01*
X181717857Y-49846009D02*
X181670238Y-49941247D01*
X166293819Y-85135857D02*
X165817628Y-85469190D01*
X166293819Y-85707285D02*
X165293819Y-85707285D01*
X165293819Y-85707285D02*
X165293819Y-85326333D01*
X165293819Y-85326333D02*
X165341438Y-85231095D01*
X165341438Y-85231095D02*
X165389057Y-85183476D01*
X165389057Y-85183476D02*
X165484295Y-85135857D01*
X165484295Y-85135857D02*
X165627152Y-85135857D01*
X165627152Y-85135857D02*
X165722390Y-85183476D01*
X165722390Y-85183476D02*
X165770009Y-85231095D01*
X165770009Y-85231095D02*
X165817628Y-85326333D01*
X165817628Y-85326333D02*
X165817628Y-85707285D01*
X166293819Y-84659666D02*
X166293819Y-84469190D01*
X166293819Y-84469190D02*
X166246200Y-84373952D01*
X166246200Y-84373952D02*
X166198580Y-84326333D01*
X166198580Y-84326333D02*
X166055723Y-84231095D01*
X166055723Y-84231095D02*
X165865247Y-84183476D01*
X165865247Y-84183476D02*
X165484295Y-84183476D01*
X165484295Y-84183476D02*
X165389057Y-84231095D01*
X165389057Y-84231095D02*
X165341438Y-84278714D01*
X165341438Y-84278714D02*
X165293819Y-84373952D01*
X165293819Y-84373952D02*
X165293819Y-84564428D01*
X165293819Y-84564428D02*
X165341438Y-84659666D01*
X165341438Y-84659666D02*
X165389057Y-84707285D01*
X165389057Y-84707285D02*
X165484295Y-84754904D01*
X165484295Y-84754904D02*
X165722390Y-84754904D01*
X165722390Y-84754904D02*
X165817628Y-84707285D01*
X165817628Y-84707285D02*
X165865247Y-84659666D01*
X165865247Y-84659666D02*
X165912866Y-84564428D01*
X165912866Y-84564428D02*
X165912866Y-84373952D01*
X165912866Y-84373952D02*
X165865247Y-84278714D01*
X165865247Y-84278714D02*
X165817628Y-84231095D01*
X165817628Y-84231095D02*
X165722390Y-84183476D01*
X166293819Y-83231095D02*
X166293819Y-83802523D01*
X166293819Y-83516809D02*
X165293819Y-83516809D01*
X165293819Y-83516809D02*
X165436676Y-83612047D01*
X165436676Y-83612047D02*
X165531914Y-83707285D01*
X165531914Y-83707285D02*
X165579533Y-83802523D01*
X191760571Y-66515057D02*
X191665333Y-66467438D01*
X191665333Y-66467438D02*
X191570095Y-66372200D01*
X191570095Y-66372200D02*
X191427238Y-66229342D01*
X191427238Y-66229342D02*
X191332000Y-66181723D01*
X191332000Y-66181723D02*
X191236762Y-66181723D01*
X191284381Y-66419819D02*
X191189143Y-66372200D01*
X191189143Y-66372200D02*
X191093905Y-66276961D01*
X191093905Y-66276961D02*
X191046286Y-66086485D01*
X191046286Y-66086485D02*
X191046286Y-65753152D01*
X191046286Y-65753152D02*
X191093905Y-65562676D01*
X191093905Y-65562676D02*
X191189143Y-65467438D01*
X191189143Y-65467438D02*
X191284381Y-65419819D01*
X191284381Y-65419819D02*
X191474857Y-65419819D01*
X191474857Y-65419819D02*
X191570095Y-65467438D01*
X191570095Y-65467438D02*
X191665333Y-65562676D01*
X191665333Y-65562676D02*
X191712952Y-65753152D01*
X191712952Y-65753152D02*
X191712952Y-66086485D01*
X191712952Y-66086485D02*
X191665333Y-66276961D01*
X191665333Y-66276961D02*
X191570095Y-66372200D01*
X191570095Y-66372200D02*
X191474857Y-66419819D01*
X191474857Y-66419819D02*
X191284381Y-66419819D01*
X192665333Y-66419819D02*
X192093905Y-66419819D01*
X192379619Y-66419819D02*
X192379619Y-65419819D01*
X192379619Y-65419819D02*
X192284381Y-65562676D01*
X192284381Y-65562676D02*
X192189143Y-65657914D01*
X192189143Y-65657914D02*
X192093905Y-65705533D01*
X192998667Y-65419819D02*
X193617714Y-65419819D01*
X193617714Y-65419819D02*
X193284381Y-65800771D01*
X193284381Y-65800771D02*
X193427238Y-65800771D01*
X193427238Y-65800771D02*
X193522476Y-65848390D01*
X193522476Y-65848390D02*
X193570095Y-65896009D01*
X193570095Y-65896009D02*
X193617714Y-65991247D01*
X193617714Y-65991247D02*
X193617714Y-66229342D01*
X193617714Y-66229342D02*
X193570095Y-66324580D01*
X193570095Y-66324580D02*
X193522476Y-66372200D01*
X193522476Y-66372200D02*
X193427238Y-66419819D01*
X193427238Y-66419819D02*
X193141524Y-66419819D01*
X193141524Y-66419819D02*
X193046286Y-66372200D01*
X193046286Y-66372200D02*
X192998667Y-66324580D01*
X197451905Y-81984819D02*
X197451905Y-80984819D01*
X197451905Y-80984819D02*
X197690000Y-80984819D01*
X197690000Y-80984819D02*
X197832857Y-81032438D01*
X197832857Y-81032438D02*
X197928095Y-81127676D01*
X197928095Y-81127676D02*
X197975714Y-81222914D01*
X197975714Y-81222914D02*
X198023333Y-81413390D01*
X198023333Y-81413390D02*
X198023333Y-81556247D01*
X198023333Y-81556247D02*
X197975714Y-81746723D01*
X197975714Y-81746723D02*
X197928095Y-81841961D01*
X197928095Y-81841961D02*
X197832857Y-81937200D01*
X197832857Y-81937200D02*
X197690000Y-81984819D01*
X197690000Y-81984819D02*
X197451905Y-81984819D01*
X198880476Y-81318152D02*
X198880476Y-81984819D01*
X198642381Y-80937200D02*
X198404286Y-81651485D01*
X198404286Y-81651485D02*
X199023333Y-81651485D01*
X186334819Y-91452094D02*
X187144342Y-91452094D01*
X187144342Y-91452094D02*
X187239580Y-91404475D01*
X187239580Y-91404475D02*
X187287200Y-91356856D01*
X187287200Y-91356856D02*
X187334819Y-91261618D01*
X187334819Y-91261618D02*
X187334819Y-91071142D01*
X187334819Y-91071142D02*
X187287200Y-90975904D01*
X187287200Y-90975904D02*
X187239580Y-90928285D01*
X187239580Y-90928285D02*
X187144342Y-90880666D01*
X187144342Y-90880666D02*
X186334819Y-90880666D01*
X187334819Y-89880666D02*
X187334819Y-90452094D01*
X187334819Y-90166380D02*
X186334819Y-90166380D01*
X186334819Y-90166380D02*
X186477676Y-90261618D01*
X186477676Y-90261618D02*
X186572914Y-90356856D01*
X186572914Y-90356856D02*
X186620533Y-90452094D01*
X186334819Y-88975904D02*
X186334819Y-89452094D01*
X186334819Y-89452094D02*
X186811009Y-89499713D01*
X186811009Y-89499713D02*
X186763390Y-89452094D01*
X186763390Y-89452094D02*
X186715771Y-89356856D01*
X186715771Y-89356856D02*
X186715771Y-89118761D01*
X186715771Y-89118761D02*
X186763390Y-89023523D01*
X186763390Y-89023523D02*
X186811009Y-88975904D01*
X186811009Y-88975904D02*
X186906247Y-88928285D01*
X186906247Y-88928285D02*
X187144342Y-88928285D01*
X187144342Y-88928285D02*
X187239580Y-88975904D01*
X187239580Y-88975904D02*
X187287200Y-89023523D01*
X187287200Y-89023523D02*
X187334819Y-89118761D01*
X187334819Y-89118761D02*
X187334819Y-89356856D01*
X187334819Y-89356856D02*
X187287200Y-89452094D01*
X187287200Y-89452094D02*
X187239580Y-89499713D01*
X161638333Y-84112819D02*
X161305000Y-83636628D01*
X161066905Y-84112819D02*
X161066905Y-83112819D01*
X161066905Y-83112819D02*
X161447857Y-83112819D01*
X161447857Y-83112819D02*
X161543095Y-83160438D01*
X161543095Y-83160438D02*
X161590714Y-83208057D01*
X161590714Y-83208057D02*
X161638333Y-83303295D01*
X161638333Y-83303295D02*
X161638333Y-83446152D01*
X161638333Y-83446152D02*
X161590714Y-83541390D01*
X161590714Y-83541390D02*
X161543095Y-83589009D01*
X161543095Y-83589009D02*
X161447857Y-83636628D01*
X161447857Y-83636628D02*
X161066905Y-83636628D01*
X162495476Y-83112819D02*
X162305000Y-83112819D01*
X162305000Y-83112819D02*
X162209762Y-83160438D01*
X162209762Y-83160438D02*
X162162143Y-83208057D01*
X162162143Y-83208057D02*
X162066905Y-83350914D01*
X162066905Y-83350914D02*
X162019286Y-83541390D01*
X162019286Y-83541390D02*
X162019286Y-83922342D01*
X162019286Y-83922342D02*
X162066905Y-84017580D01*
X162066905Y-84017580D02*
X162114524Y-84065200D01*
X162114524Y-84065200D02*
X162209762Y-84112819D01*
X162209762Y-84112819D02*
X162400238Y-84112819D01*
X162400238Y-84112819D02*
X162495476Y-84065200D01*
X162495476Y-84065200D02*
X162543095Y-84017580D01*
X162543095Y-84017580D02*
X162590714Y-83922342D01*
X162590714Y-83922342D02*
X162590714Y-83684247D01*
X162590714Y-83684247D02*
X162543095Y-83589009D01*
X162543095Y-83589009D02*
X162495476Y-83541390D01*
X162495476Y-83541390D02*
X162400238Y-83493771D01*
X162400238Y-83493771D02*
X162209762Y-83493771D01*
X162209762Y-83493771D02*
X162114524Y-83541390D01*
X162114524Y-83541390D02*
X162066905Y-83589009D01*
X162066905Y-83589009D02*
X162019286Y-83684247D01*
X146318819Y-81962666D02*
X145842628Y-82295999D01*
X146318819Y-82534094D02*
X145318819Y-82534094D01*
X145318819Y-82534094D02*
X145318819Y-82153142D01*
X145318819Y-82153142D02*
X145366438Y-82057904D01*
X145366438Y-82057904D02*
X145414057Y-82010285D01*
X145414057Y-82010285D02*
X145509295Y-81962666D01*
X145509295Y-81962666D02*
X145652152Y-81962666D01*
X145652152Y-81962666D02*
X145747390Y-82010285D01*
X145747390Y-82010285D02*
X145795009Y-82057904D01*
X145795009Y-82057904D02*
X145842628Y-82153142D01*
X145842628Y-82153142D02*
X145842628Y-82534094D01*
X145747390Y-81391237D02*
X145699771Y-81486475D01*
X145699771Y-81486475D02*
X145652152Y-81534094D01*
X145652152Y-81534094D02*
X145556914Y-81581713D01*
X145556914Y-81581713D02*
X145509295Y-81581713D01*
X145509295Y-81581713D02*
X145414057Y-81534094D01*
X145414057Y-81534094D02*
X145366438Y-81486475D01*
X145366438Y-81486475D02*
X145318819Y-81391237D01*
X145318819Y-81391237D02*
X145318819Y-81200761D01*
X145318819Y-81200761D02*
X145366438Y-81105523D01*
X145366438Y-81105523D02*
X145414057Y-81057904D01*
X145414057Y-81057904D02*
X145509295Y-81010285D01*
X145509295Y-81010285D02*
X145556914Y-81010285D01*
X145556914Y-81010285D02*
X145652152Y-81057904D01*
X145652152Y-81057904D02*
X145699771Y-81105523D01*
X145699771Y-81105523D02*
X145747390Y-81200761D01*
X145747390Y-81200761D02*
X145747390Y-81391237D01*
X145747390Y-81391237D02*
X145795009Y-81486475D01*
X145795009Y-81486475D02*
X145842628Y-81534094D01*
X145842628Y-81534094D02*
X145937866Y-81581713D01*
X145937866Y-81581713D02*
X146128342Y-81581713D01*
X146128342Y-81581713D02*
X146223580Y-81534094D01*
X146223580Y-81534094D02*
X146271200Y-81486475D01*
X146271200Y-81486475D02*
X146318819Y-81391237D01*
X146318819Y-81391237D02*
X146318819Y-81200761D01*
X146318819Y-81200761D02*
X146271200Y-81105523D01*
X146271200Y-81105523D02*
X146223580Y-81057904D01*
X146223580Y-81057904D02*
X146128342Y-81010285D01*
X146128342Y-81010285D02*
X145937866Y-81010285D01*
X145937866Y-81010285D02*
X145842628Y-81057904D01*
X145842628Y-81057904D02*
X145795009Y-81105523D01*
X145795009Y-81105523D02*
X145747390Y-81200761D01*
X144166819Y-97113904D02*
X144976342Y-97113904D01*
X144976342Y-97113904D02*
X145071580Y-97066285D01*
X145071580Y-97066285D02*
X145119200Y-97018666D01*
X145119200Y-97018666D02*
X145166819Y-96923428D01*
X145166819Y-96923428D02*
X145166819Y-96732952D01*
X145166819Y-96732952D02*
X145119200Y-96637714D01*
X145119200Y-96637714D02*
X145071580Y-96590095D01*
X145071580Y-96590095D02*
X144976342Y-96542476D01*
X144976342Y-96542476D02*
X144166819Y-96542476D01*
X144166819Y-95590095D02*
X144166819Y-96066285D01*
X144166819Y-96066285D02*
X144643009Y-96113904D01*
X144643009Y-96113904D02*
X144595390Y-96066285D01*
X144595390Y-96066285D02*
X144547771Y-95971047D01*
X144547771Y-95971047D02*
X144547771Y-95732952D01*
X144547771Y-95732952D02*
X144595390Y-95637714D01*
X144595390Y-95637714D02*
X144643009Y-95590095D01*
X144643009Y-95590095D02*
X144738247Y-95542476D01*
X144738247Y-95542476D02*
X144976342Y-95542476D01*
X144976342Y-95542476D02*
X145071580Y-95590095D01*
X145071580Y-95590095D02*
X145119200Y-95637714D01*
X145119200Y-95637714D02*
X145166819Y-95732952D01*
X145166819Y-95732952D02*
X145166819Y-95971047D01*
X145166819Y-95971047D02*
X145119200Y-96066285D01*
X145119200Y-96066285D02*
X145071580Y-96113904D01*
D11*
X155633905Y-95398419D02*
X155633905Y-96207942D01*
X155633905Y-96207942D02*
X155681524Y-96303180D01*
X155681524Y-96303180D02*
X155729143Y-96350800D01*
X155729143Y-96350800D02*
X155824381Y-96398419D01*
X155824381Y-96398419D02*
X156014857Y-96398419D01*
X156014857Y-96398419D02*
X156110095Y-96350800D01*
X156110095Y-96350800D02*
X156157714Y-96303180D01*
X156157714Y-96303180D02*
X156205333Y-96207942D01*
X156205333Y-96207942D02*
X156205333Y-95398419D01*
X157205333Y-96398419D02*
X156633905Y-96398419D01*
X156919619Y-96398419D02*
X156919619Y-95398419D01*
X156919619Y-95398419D02*
X156824381Y-95541276D01*
X156824381Y-95541276D02*
X156729143Y-95636514D01*
X156729143Y-95636514D02*
X156633905Y-95684133D01*
X157538667Y-95398419D02*
X158157714Y-95398419D01*
X158157714Y-95398419D02*
X157824381Y-95779371D01*
X157824381Y-95779371D02*
X157967238Y-95779371D01*
X157967238Y-95779371D02*
X158062476Y-95826990D01*
X158062476Y-95826990D02*
X158110095Y-95874609D01*
X158110095Y-95874609D02*
X158157714Y-95969847D01*
X158157714Y-95969847D02*
X158157714Y-96207942D01*
X158157714Y-96207942D02*
X158110095Y-96303180D01*
X158110095Y-96303180D02*
X158062476Y-96350800D01*
X158062476Y-96350800D02*
X157967238Y-96398419D01*
X157967238Y-96398419D02*
X157681524Y-96398419D01*
X157681524Y-96398419D02*
X157586286Y-96350800D01*
X157586286Y-96350800D02*
X157538667Y-96303180D01*
D10*
X146769580Y-63688857D02*
X146817200Y-63736476D01*
X146817200Y-63736476D02*
X146864819Y-63879333D01*
X146864819Y-63879333D02*
X146864819Y-63974571D01*
X146864819Y-63974571D02*
X146817200Y-64117428D01*
X146817200Y-64117428D02*
X146721961Y-64212666D01*
X146721961Y-64212666D02*
X146626723Y-64260285D01*
X146626723Y-64260285D02*
X146436247Y-64307904D01*
X146436247Y-64307904D02*
X146293390Y-64307904D01*
X146293390Y-64307904D02*
X146102914Y-64260285D01*
X146102914Y-64260285D02*
X146007676Y-64212666D01*
X146007676Y-64212666D02*
X145912438Y-64117428D01*
X145912438Y-64117428D02*
X145864819Y-63974571D01*
X145864819Y-63974571D02*
X145864819Y-63879333D01*
X145864819Y-63879333D02*
X145912438Y-63736476D01*
X145912438Y-63736476D02*
X145960057Y-63688857D01*
X146864819Y-62736476D02*
X146864819Y-63307904D01*
X146864819Y-63022190D02*
X145864819Y-63022190D01*
X145864819Y-63022190D02*
X146007676Y-63117428D01*
X146007676Y-63117428D02*
X146102914Y-63212666D01*
X146102914Y-63212666D02*
X146150533Y-63307904D01*
X145864819Y-62403142D02*
X145864819Y-61736476D01*
X145864819Y-61736476D02*
X146864819Y-62165047D01*
X155166819Y-79632857D02*
X154690628Y-79966190D01*
X155166819Y-80204285D02*
X154166819Y-80204285D01*
X154166819Y-80204285D02*
X154166819Y-79823333D01*
X154166819Y-79823333D02*
X154214438Y-79728095D01*
X154214438Y-79728095D02*
X154262057Y-79680476D01*
X154262057Y-79680476D02*
X154357295Y-79632857D01*
X154357295Y-79632857D02*
X154500152Y-79632857D01*
X154500152Y-79632857D02*
X154595390Y-79680476D01*
X154595390Y-79680476D02*
X154643009Y-79728095D01*
X154643009Y-79728095D02*
X154690628Y-79823333D01*
X154690628Y-79823333D02*
X154690628Y-80204285D01*
X154262057Y-79251904D02*
X154214438Y-79204285D01*
X154214438Y-79204285D02*
X154166819Y-79109047D01*
X154166819Y-79109047D02*
X154166819Y-78870952D01*
X154166819Y-78870952D02*
X154214438Y-78775714D01*
X154214438Y-78775714D02*
X154262057Y-78728095D01*
X154262057Y-78728095D02*
X154357295Y-78680476D01*
X154357295Y-78680476D02*
X154452533Y-78680476D01*
X154452533Y-78680476D02*
X154595390Y-78728095D01*
X154595390Y-78728095D02*
X155166819Y-79299523D01*
X155166819Y-79299523D02*
X155166819Y-78680476D01*
X155166819Y-77728095D02*
X155166819Y-78299523D01*
X155166819Y-78013809D02*
X154166819Y-78013809D01*
X154166819Y-78013809D02*
X154309676Y-78109047D01*
X154309676Y-78109047D02*
X154404914Y-78204285D01*
X154404914Y-78204285D02*
X154452533Y-78299523D01*
X188926142Y-80057819D02*
X188592809Y-79581628D01*
X188354714Y-80057819D02*
X188354714Y-79057819D01*
X188354714Y-79057819D02*
X188735666Y-79057819D01*
X188735666Y-79057819D02*
X188830904Y-79105438D01*
X188830904Y-79105438D02*
X188878523Y-79153057D01*
X188878523Y-79153057D02*
X188926142Y-79248295D01*
X188926142Y-79248295D02*
X188926142Y-79391152D01*
X188926142Y-79391152D02*
X188878523Y-79486390D01*
X188878523Y-79486390D02*
X188830904Y-79534009D01*
X188830904Y-79534009D02*
X188735666Y-79581628D01*
X188735666Y-79581628D02*
X188354714Y-79581628D01*
X189830904Y-79057819D02*
X189354714Y-79057819D01*
X189354714Y-79057819D02*
X189307095Y-79534009D01*
X189307095Y-79534009D02*
X189354714Y-79486390D01*
X189354714Y-79486390D02*
X189449952Y-79438771D01*
X189449952Y-79438771D02*
X189688047Y-79438771D01*
X189688047Y-79438771D02*
X189783285Y-79486390D01*
X189783285Y-79486390D02*
X189830904Y-79534009D01*
X189830904Y-79534009D02*
X189878523Y-79629247D01*
X189878523Y-79629247D02*
X189878523Y-79867342D01*
X189878523Y-79867342D02*
X189830904Y-79962580D01*
X189830904Y-79962580D02*
X189783285Y-80010200D01*
X189783285Y-80010200D02*
X189688047Y-80057819D01*
X189688047Y-80057819D02*
X189449952Y-80057819D01*
X189449952Y-80057819D02*
X189354714Y-80010200D01*
X189354714Y-80010200D02*
X189307095Y-79962580D01*
X190259476Y-79153057D02*
X190307095Y-79105438D01*
X190307095Y-79105438D02*
X190402333Y-79057819D01*
X190402333Y-79057819D02*
X190640428Y-79057819D01*
X190640428Y-79057819D02*
X190735666Y-79105438D01*
X190735666Y-79105438D02*
X190783285Y-79153057D01*
X190783285Y-79153057D02*
X190830904Y-79248295D01*
X190830904Y-79248295D02*
X190830904Y-79343533D01*
X190830904Y-79343533D02*
X190783285Y-79486390D01*
X190783285Y-79486390D02*
X190211857Y-80057819D01*
X190211857Y-80057819D02*
X190830904Y-80057819D01*
X167753819Y-85135857D02*
X167277628Y-85469190D01*
X167753819Y-85707285D02*
X166753819Y-85707285D01*
X166753819Y-85707285D02*
X166753819Y-85326333D01*
X166753819Y-85326333D02*
X166801438Y-85231095D01*
X166801438Y-85231095D02*
X166849057Y-85183476D01*
X166849057Y-85183476D02*
X166944295Y-85135857D01*
X166944295Y-85135857D02*
X167087152Y-85135857D01*
X167087152Y-85135857D02*
X167182390Y-85183476D01*
X167182390Y-85183476D02*
X167230009Y-85231095D01*
X167230009Y-85231095D02*
X167277628Y-85326333D01*
X167277628Y-85326333D02*
X167277628Y-85707285D01*
X167753819Y-84659666D02*
X167753819Y-84469190D01*
X167753819Y-84469190D02*
X167706200Y-84373952D01*
X167706200Y-84373952D02*
X167658580Y-84326333D01*
X167658580Y-84326333D02*
X167515723Y-84231095D01*
X167515723Y-84231095D02*
X167325247Y-84183476D01*
X167325247Y-84183476D02*
X166944295Y-84183476D01*
X166944295Y-84183476D02*
X166849057Y-84231095D01*
X166849057Y-84231095D02*
X166801438Y-84278714D01*
X166801438Y-84278714D02*
X166753819Y-84373952D01*
X166753819Y-84373952D02*
X166753819Y-84564428D01*
X166753819Y-84564428D02*
X166801438Y-84659666D01*
X166801438Y-84659666D02*
X166849057Y-84707285D01*
X166849057Y-84707285D02*
X166944295Y-84754904D01*
X166944295Y-84754904D02*
X167182390Y-84754904D01*
X167182390Y-84754904D02*
X167277628Y-84707285D01*
X167277628Y-84707285D02*
X167325247Y-84659666D01*
X167325247Y-84659666D02*
X167372866Y-84564428D01*
X167372866Y-84564428D02*
X167372866Y-84373952D01*
X167372866Y-84373952D02*
X167325247Y-84278714D01*
X167325247Y-84278714D02*
X167277628Y-84231095D01*
X167277628Y-84231095D02*
X167182390Y-84183476D01*
X166753819Y-83850142D02*
X166753819Y-83231095D01*
X166753819Y-83231095D02*
X167134771Y-83564428D01*
X167134771Y-83564428D02*
X167134771Y-83421571D01*
X167134771Y-83421571D02*
X167182390Y-83326333D01*
X167182390Y-83326333D02*
X167230009Y-83278714D01*
X167230009Y-83278714D02*
X167325247Y-83231095D01*
X167325247Y-83231095D02*
X167563342Y-83231095D01*
X167563342Y-83231095D02*
X167658580Y-83278714D01*
X167658580Y-83278714D02*
X167706200Y-83326333D01*
X167706200Y-83326333D02*
X167753819Y-83421571D01*
X167753819Y-83421571D02*
X167753819Y-83707285D01*
X167753819Y-83707285D02*
X167706200Y-83802523D01*
X167706200Y-83802523D02*
X167658580Y-83850142D01*
X223624319Y-104212404D02*
X222624319Y-104212404D01*
X223100509Y-104212404D02*
X223100509Y-103640976D01*
X223624319Y-103640976D02*
X222624319Y-103640976D01*
X222624319Y-103260023D02*
X222624319Y-102640976D01*
X222624319Y-102640976D02*
X223005271Y-102974309D01*
X223005271Y-102974309D02*
X223005271Y-102831452D01*
X223005271Y-102831452D02*
X223052890Y-102736214D01*
X223052890Y-102736214D02*
X223100509Y-102688595D01*
X223100509Y-102688595D02*
X223195747Y-102640976D01*
X223195747Y-102640976D02*
X223433842Y-102640976D01*
X223433842Y-102640976D02*
X223529080Y-102688595D01*
X223529080Y-102688595D02*
X223576700Y-102736214D01*
X223576700Y-102736214D02*
X223624319Y-102831452D01*
X223624319Y-102831452D02*
X223624319Y-103117166D01*
X223624319Y-103117166D02*
X223576700Y-103212404D01*
X223576700Y-103212404D02*
X223529080Y-103260023D01*
X203047819Y-72078857D02*
X202571628Y-72412190D01*
X203047819Y-72650285D02*
X202047819Y-72650285D01*
X202047819Y-72650285D02*
X202047819Y-72269333D01*
X202047819Y-72269333D02*
X202095438Y-72174095D01*
X202095438Y-72174095D02*
X202143057Y-72126476D01*
X202143057Y-72126476D02*
X202238295Y-72078857D01*
X202238295Y-72078857D02*
X202381152Y-72078857D01*
X202381152Y-72078857D02*
X202476390Y-72126476D01*
X202476390Y-72126476D02*
X202524009Y-72174095D01*
X202524009Y-72174095D02*
X202571628Y-72269333D01*
X202571628Y-72269333D02*
X202571628Y-72650285D01*
X202047819Y-71221714D02*
X202047819Y-71412190D01*
X202047819Y-71412190D02*
X202095438Y-71507428D01*
X202095438Y-71507428D02*
X202143057Y-71555047D01*
X202143057Y-71555047D02*
X202285914Y-71650285D01*
X202285914Y-71650285D02*
X202476390Y-71697904D01*
X202476390Y-71697904D02*
X202857342Y-71697904D01*
X202857342Y-71697904D02*
X202952580Y-71650285D01*
X202952580Y-71650285D02*
X203000200Y-71602666D01*
X203000200Y-71602666D02*
X203047819Y-71507428D01*
X203047819Y-71507428D02*
X203047819Y-71316952D01*
X203047819Y-71316952D02*
X203000200Y-71221714D01*
X203000200Y-71221714D02*
X202952580Y-71174095D01*
X202952580Y-71174095D02*
X202857342Y-71126476D01*
X202857342Y-71126476D02*
X202619247Y-71126476D01*
X202619247Y-71126476D02*
X202524009Y-71174095D01*
X202524009Y-71174095D02*
X202476390Y-71221714D01*
X202476390Y-71221714D02*
X202428771Y-71316952D01*
X202428771Y-71316952D02*
X202428771Y-71507428D01*
X202428771Y-71507428D02*
X202476390Y-71602666D01*
X202476390Y-71602666D02*
X202524009Y-71650285D01*
X202524009Y-71650285D02*
X202619247Y-71697904D01*
X202476390Y-70555047D02*
X202428771Y-70650285D01*
X202428771Y-70650285D02*
X202381152Y-70697904D01*
X202381152Y-70697904D02*
X202285914Y-70745523D01*
X202285914Y-70745523D02*
X202238295Y-70745523D01*
X202238295Y-70745523D02*
X202143057Y-70697904D01*
X202143057Y-70697904D02*
X202095438Y-70650285D01*
X202095438Y-70650285D02*
X202047819Y-70555047D01*
X202047819Y-70555047D02*
X202047819Y-70364571D01*
X202047819Y-70364571D02*
X202095438Y-70269333D01*
X202095438Y-70269333D02*
X202143057Y-70221714D01*
X202143057Y-70221714D02*
X202238295Y-70174095D01*
X202238295Y-70174095D02*
X202285914Y-70174095D01*
X202285914Y-70174095D02*
X202381152Y-70221714D01*
X202381152Y-70221714D02*
X202428771Y-70269333D01*
X202428771Y-70269333D02*
X202476390Y-70364571D01*
X202476390Y-70364571D02*
X202476390Y-70555047D01*
X202476390Y-70555047D02*
X202524009Y-70650285D01*
X202524009Y-70650285D02*
X202571628Y-70697904D01*
X202571628Y-70697904D02*
X202666866Y-70745523D01*
X202666866Y-70745523D02*
X202857342Y-70745523D01*
X202857342Y-70745523D02*
X202952580Y-70697904D01*
X202952580Y-70697904D02*
X203000200Y-70650285D01*
X203000200Y-70650285D02*
X203047819Y-70555047D01*
X203047819Y-70555047D02*
X203047819Y-70364571D01*
X203047819Y-70364571D02*
X203000200Y-70269333D01*
X203000200Y-70269333D02*
X202952580Y-70221714D01*
X202952580Y-70221714D02*
X202857342Y-70174095D01*
X202857342Y-70174095D02*
X202666866Y-70174095D01*
X202666866Y-70174095D02*
X202571628Y-70221714D01*
X202571628Y-70221714D02*
X202524009Y-70269333D01*
X202524009Y-70269333D02*
X202476390Y-70364571D01*
X146702142Y-74576819D02*
X146368809Y-74100628D01*
X146130714Y-74576819D02*
X146130714Y-73576819D01*
X146130714Y-73576819D02*
X146511666Y-73576819D01*
X146511666Y-73576819D02*
X146606904Y-73624438D01*
X146606904Y-73624438D02*
X146654523Y-73672057D01*
X146654523Y-73672057D02*
X146702142Y-73767295D01*
X146702142Y-73767295D02*
X146702142Y-73910152D01*
X146702142Y-73910152D02*
X146654523Y-74005390D01*
X146654523Y-74005390D02*
X146606904Y-74053009D01*
X146606904Y-74053009D02*
X146511666Y-74100628D01*
X146511666Y-74100628D02*
X146130714Y-74100628D01*
X147654523Y-74576819D02*
X147083095Y-74576819D01*
X147368809Y-74576819D02*
X147368809Y-73576819D01*
X147368809Y-73576819D02*
X147273571Y-73719676D01*
X147273571Y-73719676D02*
X147178333Y-73814914D01*
X147178333Y-73814914D02*
X147083095Y-73862533D01*
X148130714Y-74576819D02*
X148321190Y-74576819D01*
X148321190Y-74576819D02*
X148416428Y-74529200D01*
X148416428Y-74529200D02*
X148464047Y-74481580D01*
X148464047Y-74481580D02*
X148559285Y-74338723D01*
X148559285Y-74338723D02*
X148606904Y-74148247D01*
X148606904Y-74148247D02*
X148606904Y-73767295D01*
X148606904Y-73767295D02*
X148559285Y-73672057D01*
X148559285Y-73672057D02*
X148511666Y-73624438D01*
X148511666Y-73624438D02*
X148416428Y-73576819D01*
X148416428Y-73576819D02*
X148225952Y-73576819D01*
X148225952Y-73576819D02*
X148130714Y-73624438D01*
X148130714Y-73624438D02*
X148083095Y-73672057D01*
X148083095Y-73672057D02*
X148035476Y-73767295D01*
X148035476Y-73767295D02*
X148035476Y-74005390D01*
X148035476Y-74005390D02*
X148083095Y-74100628D01*
X148083095Y-74100628D02*
X148130714Y-74148247D01*
X148130714Y-74148247D02*
X148225952Y-74195866D01*
X148225952Y-74195866D02*
X148416428Y-74195866D01*
X148416428Y-74195866D02*
X148511666Y-74148247D01*
X148511666Y-74148247D02*
X148559285Y-74100628D01*
X148559285Y-74100628D02*
X148606904Y-74005390D01*
X128624319Y-104212404D02*
X127624319Y-104212404D01*
X128100509Y-104212404D02*
X128100509Y-103640976D01*
X128624319Y-103640976D02*
X127624319Y-103640976D01*
X127957652Y-102736214D02*
X128624319Y-102736214D01*
X127576700Y-102974309D02*
X128290985Y-103212404D01*
X128290985Y-103212404D02*
X128290985Y-102593357D01*
X194321142Y-89933819D02*
X193987809Y-89457628D01*
X193749714Y-89933819D02*
X193749714Y-88933819D01*
X193749714Y-88933819D02*
X194130666Y-88933819D01*
X194130666Y-88933819D02*
X194225904Y-88981438D01*
X194225904Y-88981438D02*
X194273523Y-89029057D01*
X194273523Y-89029057D02*
X194321142Y-89124295D01*
X194321142Y-89124295D02*
X194321142Y-89267152D01*
X194321142Y-89267152D02*
X194273523Y-89362390D01*
X194273523Y-89362390D02*
X194225904Y-89410009D01*
X194225904Y-89410009D02*
X194130666Y-89457628D01*
X194130666Y-89457628D02*
X193749714Y-89457628D01*
X195225904Y-88933819D02*
X194749714Y-88933819D01*
X194749714Y-88933819D02*
X194702095Y-89410009D01*
X194702095Y-89410009D02*
X194749714Y-89362390D01*
X194749714Y-89362390D02*
X194844952Y-89314771D01*
X194844952Y-89314771D02*
X195083047Y-89314771D01*
X195083047Y-89314771D02*
X195178285Y-89362390D01*
X195178285Y-89362390D02*
X195225904Y-89410009D01*
X195225904Y-89410009D02*
X195273523Y-89505247D01*
X195273523Y-89505247D02*
X195273523Y-89743342D01*
X195273523Y-89743342D02*
X195225904Y-89838580D01*
X195225904Y-89838580D02*
X195178285Y-89886200D01*
X195178285Y-89886200D02*
X195083047Y-89933819D01*
X195083047Y-89933819D02*
X194844952Y-89933819D01*
X194844952Y-89933819D02*
X194749714Y-89886200D01*
X194749714Y-89886200D02*
X194702095Y-89838580D01*
X196130666Y-88933819D02*
X195940190Y-88933819D01*
X195940190Y-88933819D02*
X195844952Y-88981438D01*
X195844952Y-88981438D02*
X195797333Y-89029057D01*
X195797333Y-89029057D02*
X195702095Y-89171914D01*
X195702095Y-89171914D02*
X195654476Y-89362390D01*
X195654476Y-89362390D02*
X195654476Y-89743342D01*
X195654476Y-89743342D02*
X195702095Y-89838580D01*
X195702095Y-89838580D02*
X195749714Y-89886200D01*
X195749714Y-89886200D02*
X195844952Y-89933819D01*
X195844952Y-89933819D02*
X196035428Y-89933819D01*
X196035428Y-89933819D02*
X196130666Y-89886200D01*
X196130666Y-89886200D02*
X196178285Y-89838580D01*
X196178285Y-89838580D02*
X196225904Y-89743342D01*
X196225904Y-89743342D02*
X196225904Y-89505247D01*
X196225904Y-89505247D02*
X196178285Y-89410009D01*
X196178285Y-89410009D02*
X196130666Y-89362390D01*
X196130666Y-89362390D02*
X196035428Y-89314771D01*
X196035428Y-89314771D02*
X195844952Y-89314771D01*
X195844952Y-89314771D02*
X195749714Y-89362390D01*
X195749714Y-89362390D02*
X195702095Y-89410009D01*
X195702095Y-89410009D02*
X195654476Y-89505247D01*
X187219142Y-74637819D02*
X186885809Y-74161628D01*
X186647714Y-74637819D02*
X186647714Y-73637819D01*
X186647714Y-73637819D02*
X187028666Y-73637819D01*
X187028666Y-73637819D02*
X187123904Y-73685438D01*
X187123904Y-73685438D02*
X187171523Y-73733057D01*
X187171523Y-73733057D02*
X187219142Y-73828295D01*
X187219142Y-73828295D02*
X187219142Y-73971152D01*
X187219142Y-73971152D02*
X187171523Y-74066390D01*
X187171523Y-74066390D02*
X187123904Y-74114009D01*
X187123904Y-74114009D02*
X187028666Y-74161628D01*
X187028666Y-74161628D02*
X186647714Y-74161628D01*
X188123904Y-73637819D02*
X187647714Y-73637819D01*
X187647714Y-73637819D02*
X187600095Y-74114009D01*
X187600095Y-74114009D02*
X187647714Y-74066390D01*
X187647714Y-74066390D02*
X187742952Y-74018771D01*
X187742952Y-74018771D02*
X187981047Y-74018771D01*
X187981047Y-74018771D02*
X188076285Y-74066390D01*
X188076285Y-74066390D02*
X188123904Y-74114009D01*
X188123904Y-74114009D02*
X188171523Y-74209247D01*
X188171523Y-74209247D02*
X188171523Y-74447342D01*
X188171523Y-74447342D02*
X188123904Y-74542580D01*
X188123904Y-74542580D02*
X188076285Y-74590200D01*
X188076285Y-74590200D02*
X187981047Y-74637819D01*
X187981047Y-74637819D02*
X187742952Y-74637819D01*
X187742952Y-74637819D02*
X187647714Y-74590200D01*
X187647714Y-74590200D02*
X187600095Y-74542580D01*
X188647714Y-74637819D02*
X188838190Y-74637819D01*
X188838190Y-74637819D02*
X188933428Y-74590200D01*
X188933428Y-74590200D02*
X188981047Y-74542580D01*
X188981047Y-74542580D02*
X189076285Y-74399723D01*
X189076285Y-74399723D02*
X189123904Y-74209247D01*
X189123904Y-74209247D02*
X189123904Y-73828295D01*
X189123904Y-73828295D02*
X189076285Y-73733057D01*
X189076285Y-73733057D02*
X189028666Y-73685438D01*
X189028666Y-73685438D02*
X188933428Y-73637819D01*
X188933428Y-73637819D02*
X188742952Y-73637819D01*
X188742952Y-73637819D02*
X188647714Y-73685438D01*
X188647714Y-73685438D02*
X188600095Y-73733057D01*
X188600095Y-73733057D02*
X188552476Y-73828295D01*
X188552476Y-73828295D02*
X188552476Y-74066390D01*
X188552476Y-74066390D02*
X188600095Y-74161628D01*
X188600095Y-74161628D02*
X188647714Y-74209247D01*
X188647714Y-74209247D02*
X188742952Y-74256866D01*
X188742952Y-74256866D02*
X188933428Y-74256866D01*
X188933428Y-74256866D02*
X189028666Y-74209247D01*
X189028666Y-74209247D02*
X189076285Y-74161628D01*
X189076285Y-74161628D02*
X189123904Y-74066390D01*
X196837142Y-98094819D02*
X196503809Y-97618628D01*
X196265714Y-98094819D02*
X196265714Y-97094819D01*
X196265714Y-97094819D02*
X196646666Y-97094819D01*
X196646666Y-97094819D02*
X196741904Y-97142438D01*
X196741904Y-97142438D02*
X196789523Y-97190057D01*
X196789523Y-97190057D02*
X196837142Y-97285295D01*
X196837142Y-97285295D02*
X196837142Y-97428152D01*
X196837142Y-97428152D02*
X196789523Y-97523390D01*
X196789523Y-97523390D02*
X196741904Y-97571009D01*
X196741904Y-97571009D02*
X196646666Y-97618628D01*
X196646666Y-97618628D02*
X196265714Y-97618628D01*
X197170476Y-97094819D02*
X197789523Y-97094819D01*
X197789523Y-97094819D02*
X197456190Y-97475771D01*
X197456190Y-97475771D02*
X197599047Y-97475771D01*
X197599047Y-97475771D02*
X197694285Y-97523390D01*
X197694285Y-97523390D02*
X197741904Y-97571009D01*
X197741904Y-97571009D02*
X197789523Y-97666247D01*
X197789523Y-97666247D02*
X197789523Y-97904342D01*
X197789523Y-97904342D02*
X197741904Y-97999580D01*
X197741904Y-97999580D02*
X197694285Y-98047200D01*
X197694285Y-98047200D02*
X197599047Y-98094819D01*
X197599047Y-98094819D02*
X197313333Y-98094819D01*
X197313333Y-98094819D02*
X197218095Y-98047200D01*
X197218095Y-98047200D02*
X197170476Y-97999580D01*
X198408571Y-97094819D02*
X198503809Y-97094819D01*
X198503809Y-97094819D02*
X198599047Y-97142438D01*
X198599047Y-97142438D02*
X198646666Y-97190057D01*
X198646666Y-97190057D02*
X198694285Y-97285295D01*
X198694285Y-97285295D02*
X198741904Y-97475771D01*
X198741904Y-97475771D02*
X198741904Y-97713866D01*
X198741904Y-97713866D02*
X198694285Y-97904342D01*
X198694285Y-97904342D02*
X198646666Y-97999580D01*
X198646666Y-97999580D02*
X198599047Y-98047200D01*
X198599047Y-98047200D02*
X198503809Y-98094819D01*
X198503809Y-98094819D02*
X198408571Y-98094819D01*
X198408571Y-98094819D02*
X198313333Y-98047200D01*
X198313333Y-98047200D02*
X198265714Y-97999580D01*
X198265714Y-97999580D02*
X198218095Y-97904342D01*
X198218095Y-97904342D02*
X198170476Y-97713866D01*
X198170476Y-97713866D02*
X198170476Y-97475771D01*
X198170476Y-97475771D02*
X198218095Y-97285295D01*
X198218095Y-97285295D02*
X198265714Y-97190057D01*
X198265714Y-97190057D02*
X198313333Y-97142438D01*
X198313333Y-97142438D02*
X198408571Y-97094819D01*
X128624319Y-55212404D02*
X127624319Y-55212404D01*
X128100509Y-55212404D02*
X128100509Y-54640976D01*
X128624319Y-54640976D02*
X127624319Y-54640976D01*
X127719557Y-54212404D02*
X127671938Y-54164785D01*
X127671938Y-54164785D02*
X127624319Y-54069547D01*
X127624319Y-54069547D02*
X127624319Y-53831452D01*
X127624319Y-53831452D02*
X127671938Y-53736214D01*
X127671938Y-53736214D02*
X127719557Y-53688595D01*
X127719557Y-53688595D02*
X127814795Y-53640976D01*
X127814795Y-53640976D02*
X127910033Y-53640976D01*
X127910033Y-53640976D02*
X128052890Y-53688595D01*
X128052890Y-53688595D02*
X128624319Y-54260023D01*
X128624319Y-54260023D02*
X128624319Y-53640976D01*
X164833819Y-85135857D02*
X164357628Y-85469190D01*
X164833819Y-85707285D02*
X163833819Y-85707285D01*
X163833819Y-85707285D02*
X163833819Y-85326333D01*
X163833819Y-85326333D02*
X163881438Y-85231095D01*
X163881438Y-85231095D02*
X163929057Y-85183476D01*
X163929057Y-85183476D02*
X164024295Y-85135857D01*
X164024295Y-85135857D02*
X164167152Y-85135857D01*
X164167152Y-85135857D02*
X164262390Y-85183476D01*
X164262390Y-85183476D02*
X164310009Y-85231095D01*
X164310009Y-85231095D02*
X164357628Y-85326333D01*
X164357628Y-85326333D02*
X164357628Y-85707285D01*
X164833819Y-84659666D02*
X164833819Y-84469190D01*
X164833819Y-84469190D02*
X164786200Y-84373952D01*
X164786200Y-84373952D02*
X164738580Y-84326333D01*
X164738580Y-84326333D02*
X164595723Y-84231095D01*
X164595723Y-84231095D02*
X164405247Y-84183476D01*
X164405247Y-84183476D02*
X164024295Y-84183476D01*
X164024295Y-84183476D02*
X163929057Y-84231095D01*
X163929057Y-84231095D02*
X163881438Y-84278714D01*
X163881438Y-84278714D02*
X163833819Y-84373952D01*
X163833819Y-84373952D02*
X163833819Y-84564428D01*
X163833819Y-84564428D02*
X163881438Y-84659666D01*
X163881438Y-84659666D02*
X163929057Y-84707285D01*
X163929057Y-84707285D02*
X164024295Y-84754904D01*
X164024295Y-84754904D02*
X164262390Y-84754904D01*
X164262390Y-84754904D02*
X164357628Y-84707285D01*
X164357628Y-84707285D02*
X164405247Y-84659666D01*
X164405247Y-84659666D02*
X164452866Y-84564428D01*
X164452866Y-84564428D02*
X164452866Y-84373952D01*
X164452866Y-84373952D02*
X164405247Y-84278714D01*
X164405247Y-84278714D02*
X164357628Y-84231095D01*
X164357628Y-84231095D02*
X164262390Y-84183476D01*
X163833819Y-83564428D02*
X163833819Y-83469190D01*
X163833819Y-83469190D02*
X163881438Y-83373952D01*
X163881438Y-83373952D02*
X163929057Y-83326333D01*
X163929057Y-83326333D02*
X164024295Y-83278714D01*
X164024295Y-83278714D02*
X164214771Y-83231095D01*
X164214771Y-83231095D02*
X164452866Y-83231095D01*
X164452866Y-83231095D02*
X164643342Y-83278714D01*
X164643342Y-83278714D02*
X164738580Y-83326333D01*
X164738580Y-83326333D02*
X164786200Y-83373952D01*
X164786200Y-83373952D02*
X164833819Y-83469190D01*
X164833819Y-83469190D02*
X164833819Y-83564428D01*
X164833819Y-83564428D02*
X164786200Y-83659666D01*
X164786200Y-83659666D02*
X164738580Y-83707285D01*
X164738580Y-83707285D02*
X164643342Y-83754904D01*
X164643342Y-83754904D02*
X164452866Y-83802523D01*
X164452866Y-83802523D02*
X164214771Y-83802523D01*
X164214771Y-83802523D02*
X164024295Y-83754904D01*
X164024295Y-83754904D02*
X163929057Y-83707285D01*
X163929057Y-83707285D02*
X163881438Y-83659666D01*
X163881438Y-83659666D02*
X163833819Y-83564428D01*
X172180761Y-66515057D02*
X172085523Y-66467438D01*
X172085523Y-66467438D02*
X171990285Y-66372200D01*
X171990285Y-66372200D02*
X171847428Y-66229342D01*
X171847428Y-66229342D02*
X171752190Y-66181723D01*
X171752190Y-66181723D02*
X171656952Y-66181723D01*
X171704571Y-66419819D02*
X171609333Y-66372200D01*
X171609333Y-66372200D02*
X171514095Y-66276961D01*
X171514095Y-66276961D02*
X171466476Y-66086485D01*
X171466476Y-66086485D02*
X171466476Y-65753152D01*
X171466476Y-65753152D02*
X171514095Y-65562676D01*
X171514095Y-65562676D02*
X171609333Y-65467438D01*
X171609333Y-65467438D02*
X171704571Y-65419819D01*
X171704571Y-65419819D02*
X171895047Y-65419819D01*
X171895047Y-65419819D02*
X171990285Y-65467438D01*
X171990285Y-65467438D02*
X172085523Y-65562676D01*
X172085523Y-65562676D02*
X172133142Y-65753152D01*
X172133142Y-65753152D02*
X172133142Y-66086485D01*
X172133142Y-66086485D02*
X172085523Y-66276961D01*
X172085523Y-66276961D02*
X171990285Y-66372200D01*
X171990285Y-66372200D02*
X171895047Y-66419819D01*
X171895047Y-66419819D02*
X171704571Y-66419819D01*
X172704571Y-65848390D02*
X172609333Y-65800771D01*
X172609333Y-65800771D02*
X172561714Y-65753152D01*
X172561714Y-65753152D02*
X172514095Y-65657914D01*
X172514095Y-65657914D02*
X172514095Y-65610295D01*
X172514095Y-65610295D02*
X172561714Y-65515057D01*
X172561714Y-65515057D02*
X172609333Y-65467438D01*
X172609333Y-65467438D02*
X172704571Y-65419819D01*
X172704571Y-65419819D02*
X172895047Y-65419819D01*
X172895047Y-65419819D02*
X172990285Y-65467438D01*
X172990285Y-65467438D02*
X173037904Y-65515057D01*
X173037904Y-65515057D02*
X173085523Y-65610295D01*
X173085523Y-65610295D02*
X173085523Y-65657914D01*
X173085523Y-65657914D02*
X173037904Y-65753152D01*
X173037904Y-65753152D02*
X172990285Y-65800771D01*
X172990285Y-65800771D02*
X172895047Y-65848390D01*
X172895047Y-65848390D02*
X172704571Y-65848390D01*
X172704571Y-65848390D02*
X172609333Y-65896009D01*
X172609333Y-65896009D02*
X172561714Y-65943628D01*
X172561714Y-65943628D02*
X172514095Y-66038866D01*
X172514095Y-66038866D02*
X172514095Y-66229342D01*
X172514095Y-66229342D02*
X172561714Y-66324580D01*
X172561714Y-66324580D02*
X172609333Y-66372200D01*
X172609333Y-66372200D02*
X172704571Y-66419819D01*
X172704571Y-66419819D02*
X172895047Y-66419819D01*
X172895047Y-66419819D02*
X172990285Y-66372200D01*
X172990285Y-66372200D02*
X173037904Y-66324580D01*
X173037904Y-66324580D02*
X173085523Y-66229342D01*
X173085523Y-66229342D02*
X173085523Y-66038866D01*
X173085523Y-66038866D02*
X173037904Y-65943628D01*
X173037904Y-65943628D02*
X172990285Y-65896009D01*
X172990285Y-65896009D02*
X172895047Y-65848390D01*
X205257333Y-94854819D02*
X204924000Y-94378628D01*
X204685905Y-94854819D02*
X204685905Y-93854819D01*
X204685905Y-93854819D02*
X205066857Y-93854819D01*
X205066857Y-93854819D02*
X205162095Y-93902438D01*
X205162095Y-93902438D02*
X205209714Y-93950057D01*
X205209714Y-93950057D02*
X205257333Y-94045295D01*
X205257333Y-94045295D02*
X205257333Y-94188152D01*
X205257333Y-94188152D02*
X205209714Y-94283390D01*
X205209714Y-94283390D02*
X205162095Y-94331009D01*
X205162095Y-94331009D02*
X205066857Y-94378628D01*
X205066857Y-94378628D02*
X204685905Y-94378628D01*
X205638286Y-93950057D02*
X205685905Y-93902438D01*
X205685905Y-93902438D02*
X205781143Y-93854819D01*
X205781143Y-93854819D02*
X206019238Y-93854819D01*
X206019238Y-93854819D02*
X206114476Y-93902438D01*
X206114476Y-93902438D02*
X206162095Y-93950057D01*
X206162095Y-93950057D02*
X206209714Y-94045295D01*
X206209714Y-94045295D02*
X206209714Y-94140533D01*
X206209714Y-94140533D02*
X206162095Y-94283390D01*
X206162095Y-94283390D02*
X205590667Y-94854819D01*
X205590667Y-94854819D02*
X206209714Y-94854819D01*
X151638580Y-98365857D02*
X151686200Y-98413476D01*
X151686200Y-98413476D02*
X151733819Y-98556333D01*
X151733819Y-98556333D02*
X151733819Y-98651571D01*
X151733819Y-98651571D02*
X151686200Y-98794428D01*
X151686200Y-98794428D02*
X151590961Y-98889666D01*
X151590961Y-98889666D02*
X151495723Y-98937285D01*
X151495723Y-98937285D02*
X151305247Y-98984904D01*
X151305247Y-98984904D02*
X151162390Y-98984904D01*
X151162390Y-98984904D02*
X150971914Y-98937285D01*
X150971914Y-98937285D02*
X150876676Y-98889666D01*
X150876676Y-98889666D02*
X150781438Y-98794428D01*
X150781438Y-98794428D02*
X150733819Y-98651571D01*
X150733819Y-98651571D02*
X150733819Y-98556333D01*
X150733819Y-98556333D02*
X150781438Y-98413476D01*
X150781438Y-98413476D02*
X150829057Y-98365857D01*
X150829057Y-97984904D02*
X150781438Y-97937285D01*
X150781438Y-97937285D02*
X150733819Y-97842047D01*
X150733819Y-97842047D02*
X150733819Y-97603952D01*
X150733819Y-97603952D02*
X150781438Y-97508714D01*
X150781438Y-97508714D02*
X150829057Y-97461095D01*
X150829057Y-97461095D02*
X150924295Y-97413476D01*
X150924295Y-97413476D02*
X151019533Y-97413476D01*
X151019533Y-97413476D02*
X151162390Y-97461095D01*
X151162390Y-97461095D02*
X151733819Y-98032523D01*
X151733819Y-98032523D02*
X151733819Y-97413476D01*
X150829057Y-97032523D02*
X150781438Y-96984904D01*
X150781438Y-96984904D02*
X150733819Y-96889666D01*
X150733819Y-96889666D02*
X150733819Y-96651571D01*
X150733819Y-96651571D02*
X150781438Y-96556333D01*
X150781438Y-96556333D02*
X150829057Y-96508714D01*
X150829057Y-96508714D02*
X150924295Y-96461095D01*
X150924295Y-96461095D02*
X151019533Y-96461095D01*
X151019533Y-96461095D02*
X151162390Y-96508714D01*
X151162390Y-96508714D02*
X151733819Y-97080142D01*
X151733819Y-97080142D02*
X151733819Y-96461095D01*
X177265142Y-74619819D02*
X176931809Y-74143628D01*
X176693714Y-74619819D02*
X176693714Y-73619819D01*
X176693714Y-73619819D02*
X177074666Y-73619819D01*
X177074666Y-73619819D02*
X177169904Y-73667438D01*
X177169904Y-73667438D02*
X177217523Y-73715057D01*
X177217523Y-73715057D02*
X177265142Y-73810295D01*
X177265142Y-73810295D02*
X177265142Y-73953152D01*
X177265142Y-73953152D02*
X177217523Y-74048390D01*
X177217523Y-74048390D02*
X177169904Y-74096009D01*
X177169904Y-74096009D02*
X177074666Y-74143628D01*
X177074666Y-74143628D02*
X176693714Y-74143628D01*
X178122285Y-73953152D02*
X178122285Y-74619819D01*
X177884190Y-73572200D02*
X177646095Y-74286485D01*
X177646095Y-74286485D02*
X178265142Y-74286485D01*
X178693714Y-74619819D02*
X178884190Y-74619819D01*
X178884190Y-74619819D02*
X178979428Y-74572200D01*
X178979428Y-74572200D02*
X179027047Y-74524580D01*
X179027047Y-74524580D02*
X179122285Y-74381723D01*
X179122285Y-74381723D02*
X179169904Y-74191247D01*
X179169904Y-74191247D02*
X179169904Y-73810295D01*
X179169904Y-73810295D02*
X179122285Y-73715057D01*
X179122285Y-73715057D02*
X179074666Y-73667438D01*
X179074666Y-73667438D02*
X178979428Y-73619819D01*
X178979428Y-73619819D02*
X178788952Y-73619819D01*
X178788952Y-73619819D02*
X178693714Y-73667438D01*
X178693714Y-73667438D02*
X178646095Y-73715057D01*
X178646095Y-73715057D02*
X178598476Y-73810295D01*
X178598476Y-73810295D02*
X178598476Y-74048390D01*
X178598476Y-74048390D02*
X178646095Y-74143628D01*
X178646095Y-74143628D02*
X178693714Y-74191247D01*
X178693714Y-74191247D02*
X178788952Y-74238866D01*
X178788952Y-74238866D02*
X178979428Y-74238866D01*
X178979428Y-74238866D02*
X179074666Y-74191247D01*
X179074666Y-74191247D02*
X179122285Y-74143628D01*
X179122285Y-74143628D02*
X179169904Y-74048390D01*
X161974819Y-72236857D02*
X161498628Y-72570190D01*
X161974819Y-72808285D02*
X160974819Y-72808285D01*
X160974819Y-72808285D02*
X160974819Y-72427333D01*
X160974819Y-72427333D02*
X161022438Y-72332095D01*
X161022438Y-72332095D02*
X161070057Y-72284476D01*
X161070057Y-72284476D02*
X161165295Y-72236857D01*
X161165295Y-72236857D02*
X161308152Y-72236857D01*
X161308152Y-72236857D02*
X161403390Y-72284476D01*
X161403390Y-72284476D02*
X161451009Y-72332095D01*
X161451009Y-72332095D02*
X161498628Y-72427333D01*
X161498628Y-72427333D02*
X161498628Y-72808285D01*
X161070057Y-71855904D02*
X161022438Y-71808285D01*
X161022438Y-71808285D02*
X160974819Y-71713047D01*
X160974819Y-71713047D02*
X160974819Y-71474952D01*
X160974819Y-71474952D02*
X161022438Y-71379714D01*
X161022438Y-71379714D02*
X161070057Y-71332095D01*
X161070057Y-71332095D02*
X161165295Y-71284476D01*
X161165295Y-71284476D02*
X161260533Y-71284476D01*
X161260533Y-71284476D02*
X161403390Y-71332095D01*
X161403390Y-71332095D02*
X161974819Y-71903523D01*
X161974819Y-71903523D02*
X161974819Y-71284476D01*
X160974819Y-70427333D02*
X160974819Y-70617809D01*
X160974819Y-70617809D02*
X161022438Y-70713047D01*
X161022438Y-70713047D02*
X161070057Y-70760666D01*
X161070057Y-70760666D02*
X161212914Y-70855904D01*
X161212914Y-70855904D02*
X161403390Y-70903523D01*
X161403390Y-70903523D02*
X161784342Y-70903523D01*
X161784342Y-70903523D02*
X161879580Y-70855904D01*
X161879580Y-70855904D02*
X161927200Y-70808285D01*
X161927200Y-70808285D02*
X161974819Y-70713047D01*
X161974819Y-70713047D02*
X161974819Y-70522571D01*
X161974819Y-70522571D02*
X161927200Y-70427333D01*
X161927200Y-70427333D02*
X161879580Y-70379714D01*
X161879580Y-70379714D02*
X161784342Y-70332095D01*
X161784342Y-70332095D02*
X161546247Y-70332095D01*
X161546247Y-70332095D02*
X161451009Y-70379714D01*
X161451009Y-70379714D02*
X161403390Y-70427333D01*
X161403390Y-70427333D02*
X161355771Y-70522571D01*
X161355771Y-70522571D02*
X161355771Y-70713047D01*
X161355771Y-70713047D02*
X161403390Y-70808285D01*
X161403390Y-70808285D02*
X161451009Y-70855904D01*
X161451009Y-70855904D02*
X161546247Y-70903523D01*
X186131819Y-96907094D02*
X186941342Y-96907094D01*
X186941342Y-96907094D02*
X187036580Y-96859475D01*
X187036580Y-96859475D02*
X187084200Y-96811856D01*
X187084200Y-96811856D02*
X187131819Y-96716618D01*
X187131819Y-96716618D02*
X187131819Y-96526142D01*
X187131819Y-96526142D02*
X187084200Y-96430904D01*
X187084200Y-96430904D02*
X187036580Y-96383285D01*
X187036580Y-96383285D02*
X186941342Y-96335666D01*
X186941342Y-96335666D02*
X186131819Y-96335666D01*
X187131819Y-95335666D02*
X187131819Y-95907094D01*
X187131819Y-95621380D02*
X186131819Y-95621380D01*
X186131819Y-95621380D02*
X186274676Y-95716618D01*
X186274676Y-95716618D02*
X186369914Y-95811856D01*
X186369914Y-95811856D02*
X186417533Y-95907094D01*
X186131819Y-94716618D02*
X186131819Y-94621380D01*
X186131819Y-94621380D02*
X186179438Y-94526142D01*
X186179438Y-94526142D02*
X186227057Y-94478523D01*
X186227057Y-94478523D02*
X186322295Y-94430904D01*
X186322295Y-94430904D02*
X186512771Y-94383285D01*
X186512771Y-94383285D02*
X186750866Y-94383285D01*
X186750866Y-94383285D02*
X186941342Y-94430904D01*
X186941342Y-94430904D02*
X187036580Y-94478523D01*
X187036580Y-94478523D02*
X187084200Y-94526142D01*
X187084200Y-94526142D02*
X187131819Y-94621380D01*
X187131819Y-94621380D02*
X187131819Y-94716618D01*
X187131819Y-94716618D02*
X187084200Y-94811856D01*
X187084200Y-94811856D02*
X187036580Y-94859475D01*
X187036580Y-94859475D02*
X186941342Y-94907094D01*
X186941342Y-94907094D02*
X186750866Y-94954713D01*
X186750866Y-94954713D02*
X186512771Y-94954713D01*
X186512771Y-94954713D02*
X186322295Y-94907094D01*
X186322295Y-94907094D02*
X186227057Y-94859475D01*
X186227057Y-94859475D02*
X186179438Y-94811856D01*
X186179438Y-94811856D02*
X186131819Y-94716618D01*
X160787905Y-86932819D02*
X160787905Y-85932819D01*
X160787905Y-85932819D02*
X161026000Y-85932819D01*
X161026000Y-85932819D02*
X161168857Y-85980438D01*
X161168857Y-85980438D02*
X161264095Y-86075676D01*
X161264095Y-86075676D02*
X161311714Y-86170914D01*
X161311714Y-86170914D02*
X161359333Y-86361390D01*
X161359333Y-86361390D02*
X161359333Y-86504247D01*
X161359333Y-86504247D02*
X161311714Y-86694723D01*
X161311714Y-86694723D02*
X161264095Y-86789961D01*
X161264095Y-86789961D02*
X161168857Y-86885200D01*
X161168857Y-86885200D02*
X161026000Y-86932819D01*
X161026000Y-86932819D02*
X160787905Y-86932819D01*
X162216476Y-85932819D02*
X162026000Y-85932819D01*
X162026000Y-85932819D02*
X161930762Y-85980438D01*
X161930762Y-85980438D02*
X161883143Y-86028057D01*
X161883143Y-86028057D02*
X161787905Y-86170914D01*
X161787905Y-86170914D02*
X161740286Y-86361390D01*
X161740286Y-86361390D02*
X161740286Y-86742342D01*
X161740286Y-86742342D02*
X161787905Y-86837580D01*
X161787905Y-86837580D02*
X161835524Y-86885200D01*
X161835524Y-86885200D02*
X161930762Y-86932819D01*
X161930762Y-86932819D02*
X162121238Y-86932819D01*
X162121238Y-86932819D02*
X162216476Y-86885200D01*
X162216476Y-86885200D02*
X162264095Y-86837580D01*
X162264095Y-86837580D02*
X162311714Y-86742342D01*
X162311714Y-86742342D02*
X162311714Y-86504247D01*
X162311714Y-86504247D02*
X162264095Y-86409009D01*
X162264095Y-86409009D02*
X162216476Y-86361390D01*
X162216476Y-86361390D02*
X162121238Y-86313771D01*
X162121238Y-86313771D02*
X161930762Y-86313771D01*
X161930762Y-86313771D02*
X161835524Y-86361390D01*
X161835524Y-86361390D02*
X161787905Y-86409009D01*
X161787905Y-86409009D02*
X161740286Y-86504247D01*
X207594142Y-80314819D02*
X207260809Y-79838628D01*
X207022714Y-80314819D02*
X207022714Y-79314819D01*
X207022714Y-79314819D02*
X207403666Y-79314819D01*
X207403666Y-79314819D02*
X207498904Y-79362438D01*
X207498904Y-79362438D02*
X207546523Y-79410057D01*
X207546523Y-79410057D02*
X207594142Y-79505295D01*
X207594142Y-79505295D02*
X207594142Y-79648152D01*
X207594142Y-79648152D02*
X207546523Y-79743390D01*
X207546523Y-79743390D02*
X207498904Y-79791009D01*
X207498904Y-79791009D02*
X207403666Y-79838628D01*
X207403666Y-79838628D02*
X207022714Y-79838628D01*
X207927476Y-79314819D02*
X208594142Y-79314819D01*
X208594142Y-79314819D02*
X208165571Y-80314819D01*
X209403666Y-79648152D02*
X209403666Y-80314819D01*
X209165571Y-79267200D02*
X208927476Y-79981485D01*
X208927476Y-79981485D02*
X209546523Y-79981485D01*
X147467580Y-85719857D02*
X147515200Y-85767476D01*
X147515200Y-85767476D02*
X147562819Y-85910333D01*
X147562819Y-85910333D02*
X147562819Y-86005571D01*
X147562819Y-86005571D02*
X147515200Y-86148428D01*
X147515200Y-86148428D02*
X147419961Y-86243666D01*
X147419961Y-86243666D02*
X147324723Y-86291285D01*
X147324723Y-86291285D02*
X147134247Y-86338904D01*
X147134247Y-86338904D02*
X146991390Y-86338904D01*
X146991390Y-86338904D02*
X146800914Y-86291285D01*
X146800914Y-86291285D02*
X146705676Y-86243666D01*
X146705676Y-86243666D02*
X146610438Y-86148428D01*
X146610438Y-86148428D02*
X146562819Y-86005571D01*
X146562819Y-86005571D02*
X146562819Y-85910333D01*
X146562819Y-85910333D02*
X146610438Y-85767476D01*
X146610438Y-85767476D02*
X146658057Y-85719857D01*
X146658057Y-85338904D02*
X146610438Y-85291285D01*
X146610438Y-85291285D02*
X146562819Y-85196047D01*
X146562819Y-85196047D02*
X146562819Y-84957952D01*
X146562819Y-84957952D02*
X146610438Y-84862714D01*
X146610438Y-84862714D02*
X146658057Y-84815095D01*
X146658057Y-84815095D02*
X146753295Y-84767476D01*
X146753295Y-84767476D02*
X146848533Y-84767476D01*
X146848533Y-84767476D02*
X146991390Y-84815095D01*
X146991390Y-84815095D02*
X147562819Y-85386523D01*
X147562819Y-85386523D02*
X147562819Y-84767476D01*
X146562819Y-84148428D02*
X146562819Y-84053190D01*
X146562819Y-84053190D02*
X146610438Y-83957952D01*
X146610438Y-83957952D02*
X146658057Y-83910333D01*
X146658057Y-83910333D02*
X146753295Y-83862714D01*
X146753295Y-83862714D02*
X146943771Y-83815095D01*
X146943771Y-83815095D02*
X147181866Y-83815095D01*
X147181866Y-83815095D02*
X147372342Y-83862714D01*
X147372342Y-83862714D02*
X147467580Y-83910333D01*
X147467580Y-83910333D02*
X147515200Y-83957952D01*
X147515200Y-83957952D02*
X147562819Y-84053190D01*
X147562819Y-84053190D02*
X147562819Y-84148428D01*
X147562819Y-84148428D02*
X147515200Y-84243666D01*
X147515200Y-84243666D02*
X147467580Y-84291285D01*
X147467580Y-84291285D02*
X147372342Y-84338904D01*
X147372342Y-84338904D02*
X147181866Y-84386523D01*
X147181866Y-84386523D02*
X146943771Y-84386523D01*
X146943771Y-84386523D02*
X146753295Y-84338904D01*
X146753295Y-84338904D02*
X146658057Y-84291285D01*
X146658057Y-84291285D02*
X146610438Y-84243666D01*
X146610438Y-84243666D02*
X146562819Y-84148428D01*
X190650905Y-83884819D02*
X190650905Y-82884819D01*
X190650905Y-82884819D02*
X190889000Y-82884819D01*
X190889000Y-82884819D02*
X191031857Y-82932438D01*
X191031857Y-82932438D02*
X191127095Y-83027676D01*
X191127095Y-83027676D02*
X191174714Y-83122914D01*
X191174714Y-83122914D02*
X191222333Y-83313390D01*
X191222333Y-83313390D02*
X191222333Y-83456247D01*
X191222333Y-83456247D02*
X191174714Y-83646723D01*
X191174714Y-83646723D02*
X191127095Y-83741961D01*
X191127095Y-83741961D02*
X191031857Y-83837200D01*
X191031857Y-83837200D02*
X190889000Y-83884819D01*
X190889000Y-83884819D02*
X190650905Y-83884819D01*
X191555667Y-82884819D02*
X192174714Y-82884819D01*
X192174714Y-82884819D02*
X191841381Y-83265771D01*
X191841381Y-83265771D02*
X191984238Y-83265771D01*
X191984238Y-83265771D02*
X192079476Y-83313390D01*
X192079476Y-83313390D02*
X192127095Y-83361009D01*
X192127095Y-83361009D02*
X192174714Y-83456247D01*
X192174714Y-83456247D02*
X192174714Y-83694342D01*
X192174714Y-83694342D02*
X192127095Y-83789580D01*
X192127095Y-83789580D02*
X192079476Y-83837200D01*
X192079476Y-83837200D02*
X191984238Y-83884819D01*
X191984238Y-83884819D02*
X191698524Y-83884819D01*
X191698524Y-83884819D02*
X191603286Y-83837200D01*
X191603286Y-83837200D02*
X191555667Y-83789580D01*
X212101571Y-66515057D02*
X212006333Y-66467438D01*
X212006333Y-66467438D02*
X211911095Y-66372200D01*
X211911095Y-66372200D02*
X211768238Y-66229342D01*
X211768238Y-66229342D02*
X211673000Y-66181723D01*
X211673000Y-66181723D02*
X211577762Y-66181723D01*
X211625381Y-66419819D02*
X211530143Y-66372200D01*
X211530143Y-66372200D02*
X211434905Y-66276961D01*
X211434905Y-66276961D02*
X211387286Y-66086485D01*
X211387286Y-66086485D02*
X211387286Y-65753152D01*
X211387286Y-65753152D02*
X211434905Y-65562676D01*
X211434905Y-65562676D02*
X211530143Y-65467438D01*
X211530143Y-65467438D02*
X211625381Y-65419819D01*
X211625381Y-65419819D02*
X211815857Y-65419819D01*
X211815857Y-65419819D02*
X211911095Y-65467438D01*
X211911095Y-65467438D02*
X212006333Y-65562676D01*
X212006333Y-65562676D02*
X212053952Y-65753152D01*
X212053952Y-65753152D02*
X212053952Y-66086485D01*
X212053952Y-66086485D02*
X212006333Y-66276961D01*
X212006333Y-66276961D02*
X211911095Y-66372200D01*
X211911095Y-66372200D02*
X211815857Y-66419819D01*
X211815857Y-66419819D02*
X211625381Y-66419819D01*
X213006333Y-66419819D02*
X212434905Y-66419819D01*
X212720619Y-66419819D02*
X212720619Y-65419819D01*
X212720619Y-65419819D02*
X212625381Y-65562676D01*
X212625381Y-65562676D02*
X212530143Y-65657914D01*
X212530143Y-65657914D02*
X212434905Y-65705533D01*
X213339667Y-65419819D02*
X214006333Y-65419819D01*
X214006333Y-65419819D02*
X213577762Y-66419819D01*
X223624319Y-55212404D02*
X222624319Y-55212404D01*
X223100509Y-55212404D02*
X223100509Y-54640976D01*
X223624319Y-54640976D02*
X222624319Y-54640976D01*
X223624319Y-53640976D02*
X223624319Y-54212404D01*
X223624319Y-53926690D02*
X222624319Y-53926690D01*
X222624319Y-53926690D02*
X222767176Y-54021928D01*
X222767176Y-54021928D02*
X222862414Y-54117166D01*
X222862414Y-54117166D02*
X222910033Y-54212404D01*
X212247200Y-57023332D02*
X212294819Y-56880475D01*
X212294819Y-56880475D02*
X212294819Y-56642380D01*
X212294819Y-56642380D02*
X212247200Y-56547142D01*
X212247200Y-56547142D02*
X212199580Y-56499523D01*
X212199580Y-56499523D02*
X212104342Y-56451904D01*
X212104342Y-56451904D02*
X212009104Y-56451904D01*
X212009104Y-56451904D02*
X211913866Y-56499523D01*
X211913866Y-56499523D02*
X211866247Y-56547142D01*
X211866247Y-56547142D02*
X211818628Y-56642380D01*
X211818628Y-56642380D02*
X211771009Y-56832856D01*
X211771009Y-56832856D02*
X211723390Y-56928094D01*
X211723390Y-56928094D02*
X211675771Y-56975713D01*
X211675771Y-56975713D02*
X211580533Y-57023332D01*
X211580533Y-57023332D02*
X211485295Y-57023332D01*
X211485295Y-57023332D02*
X211390057Y-56975713D01*
X211390057Y-56975713D02*
X211342438Y-56928094D01*
X211342438Y-56928094D02*
X211294819Y-56832856D01*
X211294819Y-56832856D02*
X211294819Y-56594761D01*
X211294819Y-56594761D02*
X211342438Y-56451904D01*
X211294819Y-56118570D02*
X212294819Y-55880475D01*
X212294819Y-55880475D02*
X211580533Y-55689999D01*
X211580533Y-55689999D02*
X212294819Y-55499523D01*
X212294819Y-55499523D02*
X211294819Y-55261428D01*
X212294819Y-54356666D02*
X212294819Y-54928094D01*
X212294819Y-54642380D02*
X211294819Y-54642380D01*
X211294819Y-54642380D02*
X211437676Y-54737618D01*
X211437676Y-54737618D02*
X211532914Y-54832856D01*
X211532914Y-54832856D02*
X211580533Y-54928094D01*
X150179333Y-81845819D02*
X149846000Y-81369628D01*
X149607905Y-81845819D02*
X149607905Y-80845819D01*
X149607905Y-80845819D02*
X149988857Y-80845819D01*
X149988857Y-80845819D02*
X150084095Y-80893438D01*
X150084095Y-80893438D02*
X150131714Y-80941057D01*
X150131714Y-80941057D02*
X150179333Y-81036295D01*
X150179333Y-81036295D02*
X150179333Y-81179152D01*
X150179333Y-81179152D02*
X150131714Y-81274390D01*
X150131714Y-81274390D02*
X150084095Y-81322009D01*
X150084095Y-81322009D02*
X149988857Y-81369628D01*
X149988857Y-81369628D02*
X149607905Y-81369628D01*
X151036476Y-81179152D02*
X151036476Y-81845819D01*
X150798381Y-80798200D02*
X150560286Y-81512485D01*
X150560286Y-81512485D02*
X151179333Y-81512485D01*
X179329142Y-105754819D02*
X178995809Y-105278628D01*
X178757714Y-105754819D02*
X178757714Y-104754819D01*
X178757714Y-104754819D02*
X179138666Y-104754819D01*
X179138666Y-104754819D02*
X179233904Y-104802438D01*
X179233904Y-104802438D02*
X179281523Y-104850057D01*
X179281523Y-104850057D02*
X179329142Y-104945295D01*
X179329142Y-104945295D02*
X179329142Y-105088152D01*
X179329142Y-105088152D02*
X179281523Y-105183390D01*
X179281523Y-105183390D02*
X179233904Y-105231009D01*
X179233904Y-105231009D02*
X179138666Y-105278628D01*
X179138666Y-105278628D02*
X178757714Y-105278628D01*
X180186285Y-104754819D02*
X179995809Y-104754819D01*
X179995809Y-104754819D02*
X179900571Y-104802438D01*
X179900571Y-104802438D02*
X179852952Y-104850057D01*
X179852952Y-104850057D02*
X179757714Y-104992914D01*
X179757714Y-104992914D02*
X179710095Y-105183390D01*
X179710095Y-105183390D02*
X179710095Y-105564342D01*
X179710095Y-105564342D02*
X179757714Y-105659580D01*
X179757714Y-105659580D02*
X179805333Y-105707200D01*
X179805333Y-105707200D02*
X179900571Y-105754819D01*
X179900571Y-105754819D02*
X180091047Y-105754819D01*
X180091047Y-105754819D02*
X180186285Y-105707200D01*
X180186285Y-105707200D02*
X180233904Y-105659580D01*
X180233904Y-105659580D02*
X180281523Y-105564342D01*
X180281523Y-105564342D02*
X180281523Y-105326247D01*
X180281523Y-105326247D02*
X180233904Y-105231009D01*
X180233904Y-105231009D02*
X180186285Y-105183390D01*
X180186285Y-105183390D02*
X180091047Y-105135771D01*
X180091047Y-105135771D02*
X179900571Y-105135771D01*
X179900571Y-105135771D02*
X179805333Y-105183390D01*
X179805333Y-105183390D02*
X179757714Y-105231009D01*
X179757714Y-105231009D02*
X179710095Y-105326247D01*
X180614857Y-104754819D02*
X181233904Y-104754819D01*
X181233904Y-104754819D02*
X180900571Y-105135771D01*
X180900571Y-105135771D02*
X181043428Y-105135771D01*
X181043428Y-105135771D02*
X181138666Y-105183390D01*
X181138666Y-105183390D02*
X181186285Y-105231009D01*
X181186285Y-105231009D02*
X181233904Y-105326247D01*
X181233904Y-105326247D02*
X181233904Y-105564342D01*
X181233904Y-105564342D02*
X181186285Y-105659580D01*
X181186285Y-105659580D02*
X181138666Y-105707200D01*
X181138666Y-105707200D02*
X181043428Y-105754819D01*
X181043428Y-105754819D02*
X180757714Y-105754819D01*
X180757714Y-105754819D02*
X180662476Y-105707200D01*
X180662476Y-105707200D02*
X180614857Y-105659580D01*
X146713095Y-86756819D02*
X146713095Y-87566342D01*
X146713095Y-87566342D02*
X146760714Y-87661580D01*
X146760714Y-87661580D02*
X146808333Y-87709200D01*
X146808333Y-87709200D02*
X146903571Y-87756819D01*
X146903571Y-87756819D02*
X147094047Y-87756819D01*
X147094047Y-87756819D02*
X147189285Y-87709200D01*
X147189285Y-87709200D02*
X147236904Y-87661580D01*
X147236904Y-87661580D02*
X147284523Y-87566342D01*
X147284523Y-87566342D02*
X147284523Y-86756819D01*
X148189285Y-87090152D02*
X148189285Y-87756819D01*
X147951190Y-86709200D02*
X147713095Y-87423485D01*
X147713095Y-87423485D02*
X148332142Y-87423485D01*
X183325595Y-81959819D02*
X183325595Y-82769342D01*
X183325595Y-82769342D02*
X183373214Y-82864580D01*
X183373214Y-82864580D02*
X183420833Y-82912200D01*
X183420833Y-82912200D02*
X183516071Y-82959819D01*
X183516071Y-82959819D02*
X183706547Y-82959819D01*
X183706547Y-82959819D02*
X183801785Y-82912200D01*
X183801785Y-82912200D02*
X183849404Y-82864580D01*
X183849404Y-82864580D02*
X183897023Y-82769342D01*
X183897023Y-82769342D02*
X183897023Y-81959819D01*
X184516071Y-82388390D02*
X184420833Y-82340771D01*
X184420833Y-82340771D02*
X184373214Y-82293152D01*
X184373214Y-82293152D02*
X184325595Y-82197914D01*
X184325595Y-82197914D02*
X184325595Y-82150295D01*
X184325595Y-82150295D02*
X184373214Y-82055057D01*
X184373214Y-82055057D02*
X184420833Y-82007438D01*
X184420833Y-82007438D02*
X184516071Y-81959819D01*
X184516071Y-81959819D02*
X184706547Y-81959819D01*
X184706547Y-81959819D02*
X184801785Y-82007438D01*
X184801785Y-82007438D02*
X184849404Y-82055057D01*
X184849404Y-82055057D02*
X184897023Y-82150295D01*
X184897023Y-82150295D02*
X184897023Y-82197914D01*
X184897023Y-82197914D02*
X184849404Y-82293152D01*
X184849404Y-82293152D02*
X184801785Y-82340771D01*
X184801785Y-82340771D02*
X184706547Y-82388390D01*
X184706547Y-82388390D02*
X184516071Y-82388390D01*
X184516071Y-82388390D02*
X184420833Y-82436009D01*
X184420833Y-82436009D02*
X184373214Y-82483628D01*
X184373214Y-82483628D02*
X184325595Y-82578866D01*
X184325595Y-82578866D02*
X184325595Y-82769342D01*
X184325595Y-82769342D02*
X184373214Y-82864580D01*
X184373214Y-82864580D02*
X184420833Y-82912200D01*
X184420833Y-82912200D02*
X184516071Y-82959819D01*
X184516071Y-82959819D02*
X184706547Y-82959819D01*
X184706547Y-82959819D02*
X184801785Y-82912200D01*
X184801785Y-82912200D02*
X184849404Y-82864580D01*
X184849404Y-82864580D02*
X184897023Y-82769342D01*
X184897023Y-82769342D02*
X184897023Y-82578866D01*
X184897023Y-82578866D02*
X184849404Y-82483628D01*
X184849404Y-82483628D02*
X184801785Y-82436009D01*
X184801785Y-82436009D02*
X184706547Y-82388390D01*
X151859819Y-72242857D02*
X151383628Y-72576190D01*
X151859819Y-72814285D02*
X150859819Y-72814285D01*
X150859819Y-72814285D02*
X150859819Y-72433333D01*
X150859819Y-72433333D02*
X150907438Y-72338095D01*
X150907438Y-72338095D02*
X150955057Y-72290476D01*
X150955057Y-72290476D02*
X151050295Y-72242857D01*
X151050295Y-72242857D02*
X151193152Y-72242857D01*
X151193152Y-72242857D02*
X151288390Y-72290476D01*
X151288390Y-72290476D02*
X151336009Y-72338095D01*
X151336009Y-72338095D02*
X151383628Y-72433333D01*
X151383628Y-72433333D02*
X151383628Y-72814285D01*
X151859819Y-71290476D02*
X151859819Y-71861904D01*
X151859819Y-71576190D02*
X150859819Y-71576190D01*
X150859819Y-71576190D02*
X151002676Y-71671428D01*
X151002676Y-71671428D02*
X151097914Y-71766666D01*
X151097914Y-71766666D02*
X151145533Y-71861904D01*
X151193152Y-70433333D02*
X151859819Y-70433333D01*
X150812200Y-70671428D02*
X151526485Y-70909523D01*
X151526485Y-70909523D02*
X151526485Y-70290476D01*
X176902142Y-81636819D02*
X176568809Y-81160628D01*
X176330714Y-81636819D02*
X176330714Y-80636819D01*
X176330714Y-80636819D02*
X176711666Y-80636819D01*
X176711666Y-80636819D02*
X176806904Y-80684438D01*
X176806904Y-80684438D02*
X176854523Y-80732057D01*
X176854523Y-80732057D02*
X176902142Y-80827295D01*
X176902142Y-80827295D02*
X176902142Y-80970152D01*
X176902142Y-80970152D02*
X176854523Y-81065390D01*
X176854523Y-81065390D02*
X176806904Y-81113009D01*
X176806904Y-81113009D02*
X176711666Y-81160628D01*
X176711666Y-81160628D02*
X176330714Y-81160628D01*
X177759285Y-80970152D02*
X177759285Y-81636819D01*
X177521190Y-80589200D02*
X177283095Y-81303485D01*
X177283095Y-81303485D02*
X177902142Y-81303485D01*
X178187857Y-80636819D02*
X178806904Y-80636819D01*
X178806904Y-80636819D02*
X178473571Y-81017771D01*
X178473571Y-81017771D02*
X178616428Y-81017771D01*
X178616428Y-81017771D02*
X178711666Y-81065390D01*
X178711666Y-81065390D02*
X178759285Y-81113009D01*
X178759285Y-81113009D02*
X178806904Y-81208247D01*
X178806904Y-81208247D02*
X178806904Y-81446342D01*
X178806904Y-81446342D02*
X178759285Y-81541580D01*
X178759285Y-81541580D02*
X178711666Y-81589200D01*
X178711666Y-81589200D02*
X178616428Y-81636819D01*
X178616428Y-81636819D02*
X178330714Y-81636819D01*
X178330714Y-81636819D02*
X178235476Y-81589200D01*
X178235476Y-81589200D02*
X178187857Y-81541580D01*
X165566666Y-49369819D02*
X165566666Y-50084104D01*
X165566666Y-50084104D02*
X165519047Y-50226961D01*
X165519047Y-50226961D02*
X165423809Y-50322200D01*
X165423809Y-50322200D02*
X165280952Y-50369819D01*
X165280952Y-50369819D02*
X165185714Y-50369819D01*
X165947619Y-49369819D02*
X166566666Y-49369819D01*
X166566666Y-49369819D02*
X166233333Y-49750771D01*
X166233333Y-49750771D02*
X166376190Y-49750771D01*
X166376190Y-49750771D02*
X166471428Y-49798390D01*
X166471428Y-49798390D02*
X166519047Y-49846009D01*
X166519047Y-49846009D02*
X166566666Y-49941247D01*
X166566666Y-49941247D02*
X166566666Y-50179342D01*
X166566666Y-50179342D02*
X166519047Y-50274580D01*
X166519047Y-50274580D02*
X166471428Y-50322200D01*
X166471428Y-50322200D02*
X166376190Y-50369819D01*
X166376190Y-50369819D02*
X166090476Y-50369819D01*
X166090476Y-50369819D02*
X165995238Y-50322200D01*
X165995238Y-50322200D02*
X165947619Y-50274580D01*
X151636761Y-66515057D02*
X151541523Y-66467438D01*
X151541523Y-66467438D02*
X151446285Y-66372200D01*
X151446285Y-66372200D02*
X151303428Y-66229342D01*
X151303428Y-66229342D02*
X151208190Y-66181723D01*
X151208190Y-66181723D02*
X151112952Y-66181723D01*
X151160571Y-66419819D02*
X151065333Y-66372200D01*
X151065333Y-66372200D02*
X150970095Y-66276961D01*
X150970095Y-66276961D02*
X150922476Y-66086485D01*
X150922476Y-66086485D02*
X150922476Y-65753152D01*
X150922476Y-65753152D02*
X150970095Y-65562676D01*
X150970095Y-65562676D02*
X151065333Y-65467438D01*
X151065333Y-65467438D02*
X151160571Y-65419819D01*
X151160571Y-65419819D02*
X151351047Y-65419819D01*
X151351047Y-65419819D02*
X151446285Y-65467438D01*
X151446285Y-65467438D02*
X151541523Y-65562676D01*
X151541523Y-65562676D02*
X151589142Y-65753152D01*
X151589142Y-65753152D02*
X151589142Y-66086485D01*
X151589142Y-66086485D02*
X151541523Y-66276961D01*
X151541523Y-66276961D02*
X151446285Y-66372200D01*
X151446285Y-66372200D02*
X151351047Y-66419819D01*
X151351047Y-66419819D02*
X151160571Y-66419819D01*
X152446285Y-65753152D02*
X152446285Y-66419819D01*
X152208190Y-65372200D02*
X151970095Y-66086485D01*
X151970095Y-66086485D02*
X152589142Y-66086485D01*
X161693333Y-85574819D02*
X161360000Y-85098628D01*
X161121905Y-85574819D02*
X161121905Y-84574819D01*
X161121905Y-84574819D02*
X161502857Y-84574819D01*
X161502857Y-84574819D02*
X161598095Y-84622438D01*
X161598095Y-84622438D02*
X161645714Y-84670057D01*
X161645714Y-84670057D02*
X161693333Y-84765295D01*
X161693333Y-84765295D02*
X161693333Y-84908152D01*
X161693333Y-84908152D02*
X161645714Y-85003390D01*
X161645714Y-85003390D02*
X161598095Y-85051009D01*
X161598095Y-85051009D02*
X161502857Y-85098628D01*
X161502857Y-85098628D02*
X161121905Y-85098628D01*
X162026667Y-84574819D02*
X162693333Y-84574819D01*
X162693333Y-84574819D02*
X162264762Y-85574819D01*
X126779819Y-86283333D02*
X127494104Y-86283333D01*
X127494104Y-86283333D02*
X127636961Y-86330952D01*
X127636961Y-86330952D02*
X127732200Y-86426190D01*
X127732200Y-86426190D02*
X127779819Y-86569047D01*
X127779819Y-86569047D02*
X127779819Y-86664285D01*
X127208390Y-85664285D02*
X127160771Y-85759523D01*
X127160771Y-85759523D02*
X127113152Y-85807142D01*
X127113152Y-85807142D02*
X127017914Y-85854761D01*
X127017914Y-85854761D02*
X126970295Y-85854761D01*
X126970295Y-85854761D02*
X126875057Y-85807142D01*
X126875057Y-85807142D02*
X126827438Y-85759523D01*
X126827438Y-85759523D02*
X126779819Y-85664285D01*
X126779819Y-85664285D02*
X126779819Y-85473809D01*
X126779819Y-85473809D02*
X126827438Y-85378571D01*
X126827438Y-85378571D02*
X126875057Y-85330952D01*
X126875057Y-85330952D02*
X126970295Y-85283333D01*
X126970295Y-85283333D02*
X127017914Y-85283333D01*
X127017914Y-85283333D02*
X127113152Y-85330952D01*
X127113152Y-85330952D02*
X127160771Y-85378571D01*
X127160771Y-85378571D02*
X127208390Y-85473809D01*
X127208390Y-85473809D02*
X127208390Y-85664285D01*
X127208390Y-85664285D02*
X127256009Y-85759523D01*
X127256009Y-85759523D02*
X127303628Y-85807142D01*
X127303628Y-85807142D02*
X127398866Y-85854761D01*
X127398866Y-85854761D02*
X127589342Y-85854761D01*
X127589342Y-85854761D02*
X127684580Y-85807142D01*
X127684580Y-85807142D02*
X127732200Y-85759523D01*
X127732200Y-85759523D02*
X127779819Y-85664285D01*
X127779819Y-85664285D02*
X127779819Y-85473809D01*
X127779819Y-85473809D02*
X127732200Y-85378571D01*
X127732200Y-85378571D02*
X127684580Y-85330952D01*
X127684580Y-85330952D02*
X127589342Y-85283333D01*
X127589342Y-85283333D02*
X127398866Y-85283333D01*
X127398866Y-85283333D02*
X127303628Y-85330952D01*
X127303628Y-85330952D02*
X127256009Y-85378571D01*
X127256009Y-85378571D02*
X127208390Y-85473809D01*
X197667142Y-74549819D02*
X197333809Y-74073628D01*
X197095714Y-74549819D02*
X197095714Y-73549819D01*
X197095714Y-73549819D02*
X197476666Y-73549819D01*
X197476666Y-73549819D02*
X197571904Y-73597438D01*
X197571904Y-73597438D02*
X197619523Y-73645057D01*
X197619523Y-73645057D02*
X197667142Y-73740295D01*
X197667142Y-73740295D02*
X197667142Y-73883152D01*
X197667142Y-73883152D02*
X197619523Y-73978390D01*
X197619523Y-73978390D02*
X197571904Y-74026009D01*
X197571904Y-74026009D02*
X197476666Y-74073628D01*
X197476666Y-74073628D02*
X197095714Y-74073628D01*
X198000476Y-73549819D02*
X198667142Y-73549819D01*
X198667142Y-73549819D02*
X198238571Y-74549819D01*
X199571904Y-74549819D02*
X199000476Y-74549819D01*
X199286190Y-74549819D02*
X199286190Y-73549819D01*
X199286190Y-73549819D02*
X199190952Y-73692676D01*
X199190952Y-73692676D02*
X199095714Y-73787914D01*
X199095714Y-73787914D02*
X199000476Y-73835533D01*
X231454819Y-87923333D02*
X232169104Y-87923333D01*
X232169104Y-87923333D02*
X232311961Y-87970952D01*
X232311961Y-87970952D02*
X232407200Y-88066190D01*
X232407200Y-88066190D02*
X232454819Y-88209047D01*
X232454819Y-88209047D02*
X232454819Y-88304285D01*
X231454819Y-87542380D02*
X231454819Y-86875714D01*
X231454819Y-86875714D02*
X232454819Y-87304285D01*
X165081819Y-79633857D02*
X164605628Y-79967190D01*
X165081819Y-80205285D02*
X164081819Y-80205285D01*
X164081819Y-80205285D02*
X164081819Y-79824333D01*
X164081819Y-79824333D02*
X164129438Y-79729095D01*
X164129438Y-79729095D02*
X164177057Y-79681476D01*
X164177057Y-79681476D02*
X164272295Y-79633857D01*
X164272295Y-79633857D02*
X164415152Y-79633857D01*
X164415152Y-79633857D02*
X164510390Y-79681476D01*
X164510390Y-79681476D02*
X164558009Y-79729095D01*
X164558009Y-79729095D02*
X164605628Y-79824333D01*
X164605628Y-79824333D02*
X164605628Y-80205285D01*
X164081819Y-79300523D02*
X164081819Y-78681476D01*
X164081819Y-78681476D02*
X164462771Y-79014809D01*
X164462771Y-79014809D02*
X164462771Y-78871952D01*
X164462771Y-78871952D02*
X164510390Y-78776714D01*
X164510390Y-78776714D02*
X164558009Y-78729095D01*
X164558009Y-78729095D02*
X164653247Y-78681476D01*
X164653247Y-78681476D02*
X164891342Y-78681476D01*
X164891342Y-78681476D02*
X164986580Y-78729095D01*
X164986580Y-78729095D02*
X165034200Y-78776714D01*
X165034200Y-78776714D02*
X165081819Y-78871952D01*
X165081819Y-78871952D02*
X165081819Y-79157666D01*
X165081819Y-79157666D02*
X165034200Y-79252904D01*
X165034200Y-79252904D02*
X164986580Y-79300523D01*
X164177057Y-78300523D02*
X164129438Y-78252904D01*
X164129438Y-78252904D02*
X164081819Y-78157666D01*
X164081819Y-78157666D02*
X164081819Y-77919571D01*
X164081819Y-77919571D02*
X164129438Y-77824333D01*
X164129438Y-77824333D02*
X164177057Y-77776714D01*
X164177057Y-77776714D02*
X164272295Y-77729095D01*
X164272295Y-77729095D02*
X164367533Y-77729095D01*
X164367533Y-77729095D02*
X164510390Y-77776714D01*
X164510390Y-77776714D02*
X165081819Y-78348142D01*
X165081819Y-78348142D02*
X165081819Y-77729095D01*
D11*
X139969095Y-59475419D02*
X139969095Y-60284942D01*
X139969095Y-60284942D02*
X140016714Y-60380180D01*
X140016714Y-60380180D02*
X140064333Y-60427800D01*
X140064333Y-60427800D02*
X140159571Y-60475419D01*
X140159571Y-60475419D02*
X140350047Y-60475419D01*
X140350047Y-60475419D02*
X140445285Y-60427800D01*
X140445285Y-60427800D02*
X140492904Y-60380180D01*
X140492904Y-60380180D02*
X140540523Y-60284942D01*
X140540523Y-60284942D02*
X140540523Y-59475419D01*
X140921476Y-59475419D02*
X141540523Y-59475419D01*
X141540523Y-59475419D02*
X141207190Y-59856371D01*
X141207190Y-59856371D02*
X141350047Y-59856371D01*
X141350047Y-59856371D02*
X141445285Y-59903990D01*
X141445285Y-59903990D02*
X141492904Y-59951609D01*
X141492904Y-59951609D02*
X141540523Y-60046847D01*
X141540523Y-60046847D02*
X141540523Y-60284942D01*
X141540523Y-60284942D02*
X141492904Y-60380180D01*
X141492904Y-60380180D02*
X141445285Y-60427800D01*
X141445285Y-60427800D02*
X141350047Y-60475419D01*
X141350047Y-60475419D02*
X141064333Y-60475419D01*
X141064333Y-60475419D02*
X140969095Y-60427800D01*
X140969095Y-60427800D02*
X140921476Y-60380180D01*
D10*
X162411905Y-92718819D02*
X162411905Y-91718819D01*
X162411905Y-91718819D02*
X162650000Y-91718819D01*
X162650000Y-91718819D02*
X162792857Y-91766438D01*
X162792857Y-91766438D02*
X162888095Y-91861676D01*
X162888095Y-91861676D02*
X162935714Y-91956914D01*
X162935714Y-91956914D02*
X162983333Y-92147390D01*
X162983333Y-92147390D02*
X162983333Y-92290247D01*
X162983333Y-92290247D02*
X162935714Y-92480723D01*
X162935714Y-92480723D02*
X162888095Y-92575961D01*
X162888095Y-92575961D02*
X162792857Y-92671200D01*
X162792857Y-92671200D02*
X162650000Y-92718819D01*
X162650000Y-92718819D02*
X162411905Y-92718819D01*
X163888095Y-91718819D02*
X163411905Y-91718819D01*
X163411905Y-91718819D02*
X163364286Y-92195009D01*
X163364286Y-92195009D02*
X163411905Y-92147390D01*
X163411905Y-92147390D02*
X163507143Y-92099771D01*
X163507143Y-92099771D02*
X163745238Y-92099771D01*
X163745238Y-92099771D02*
X163840476Y-92147390D01*
X163840476Y-92147390D02*
X163888095Y-92195009D01*
X163888095Y-92195009D02*
X163935714Y-92290247D01*
X163935714Y-92290247D02*
X163935714Y-92528342D01*
X163935714Y-92528342D02*
X163888095Y-92623580D01*
X163888095Y-92623580D02*
X163840476Y-92671200D01*
X163840476Y-92671200D02*
X163745238Y-92718819D01*
X163745238Y-92718819D02*
X163507143Y-92718819D01*
X163507143Y-92718819D02*
X163411905Y-92671200D01*
X163411905Y-92671200D02*
X163364286Y-92623580D01*
X220683142Y-78225819D02*
X220349809Y-77749628D01*
X220111714Y-78225819D02*
X220111714Y-77225819D01*
X220111714Y-77225819D02*
X220492666Y-77225819D01*
X220492666Y-77225819D02*
X220587904Y-77273438D01*
X220587904Y-77273438D02*
X220635523Y-77321057D01*
X220635523Y-77321057D02*
X220683142Y-77416295D01*
X220683142Y-77416295D02*
X220683142Y-77559152D01*
X220683142Y-77559152D02*
X220635523Y-77654390D01*
X220635523Y-77654390D02*
X220587904Y-77702009D01*
X220587904Y-77702009D02*
X220492666Y-77749628D01*
X220492666Y-77749628D02*
X220111714Y-77749628D01*
X221254571Y-77654390D02*
X221159333Y-77606771D01*
X221159333Y-77606771D02*
X221111714Y-77559152D01*
X221111714Y-77559152D02*
X221064095Y-77463914D01*
X221064095Y-77463914D02*
X221064095Y-77416295D01*
X221064095Y-77416295D02*
X221111714Y-77321057D01*
X221111714Y-77321057D02*
X221159333Y-77273438D01*
X221159333Y-77273438D02*
X221254571Y-77225819D01*
X221254571Y-77225819D02*
X221445047Y-77225819D01*
X221445047Y-77225819D02*
X221540285Y-77273438D01*
X221540285Y-77273438D02*
X221587904Y-77321057D01*
X221587904Y-77321057D02*
X221635523Y-77416295D01*
X221635523Y-77416295D02*
X221635523Y-77463914D01*
X221635523Y-77463914D02*
X221587904Y-77559152D01*
X221587904Y-77559152D02*
X221540285Y-77606771D01*
X221540285Y-77606771D02*
X221445047Y-77654390D01*
X221445047Y-77654390D02*
X221254571Y-77654390D01*
X221254571Y-77654390D02*
X221159333Y-77702009D01*
X221159333Y-77702009D02*
X221111714Y-77749628D01*
X221111714Y-77749628D02*
X221064095Y-77844866D01*
X221064095Y-77844866D02*
X221064095Y-78035342D01*
X221064095Y-78035342D02*
X221111714Y-78130580D01*
X221111714Y-78130580D02*
X221159333Y-78178200D01*
X221159333Y-78178200D02*
X221254571Y-78225819D01*
X221254571Y-78225819D02*
X221445047Y-78225819D01*
X221445047Y-78225819D02*
X221540285Y-78178200D01*
X221540285Y-78178200D02*
X221587904Y-78130580D01*
X221587904Y-78130580D02*
X221635523Y-78035342D01*
X221635523Y-78035342D02*
X221635523Y-77844866D01*
X221635523Y-77844866D02*
X221587904Y-77749628D01*
X221587904Y-77749628D02*
X221540285Y-77702009D01*
X221540285Y-77702009D02*
X221445047Y-77654390D01*
X221968857Y-77225819D02*
X222635523Y-77225819D01*
X222635523Y-77225819D02*
X222206952Y-78225819D01*
X151667428Y-79450057D02*
X151367428Y-79021485D01*
X151153142Y-79450057D02*
X151153142Y-78550057D01*
X151153142Y-78550057D02*
X151495999Y-78550057D01*
X151495999Y-78550057D02*
X151581714Y-78592914D01*
X151581714Y-78592914D02*
X151624571Y-78635771D01*
X151624571Y-78635771D02*
X151667428Y-78721485D01*
X151667428Y-78721485D02*
X151667428Y-78850057D01*
X151667428Y-78850057D02*
X151624571Y-78935771D01*
X151624571Y-78935771D02*
X151581714Y-78978628D01*
X151581714Y-78978628D02*
X151495999Y-79021485D01*
X151495999Y-79021485D02*
X151153142Y-79021485D01*
X152524571Y-79450057D02*
X152010285Y-79450057D01*
X152267428Y-79450057D02*
X152267428Y-78550057D01*
X152267428Y-78550057D02*
X152181714Y-78678628D01*
X152181714Y-78678628D02*
X152095999Y-78764342D01*
X152095999Y-78764342D02*
X152010285Y-78807200D01*
X153296000Y-78550057D02*
X153124571Y-78550057D01*
X153124571Y-78550057D02*
X153038857Y-78592914D01*
X153038857Y-78592914D02*
X152996000Y-78635771D01*
X152996000Y-78635771D02*
X152910285Y-78764342D01*
X152910285Y-78764342D02*
X152867428Y-78935771D01*
X152867428Y-78935771D02*
X152867428Y-79278628D01*
X152867428Y-79278628D02*
X152910285Y-79364342D01*
X152910285Y-79364342D02*
X152953142Y-79407200D01*
X152953142Y-79407200D02*
X153038857Y-79450057D01*
X153038857Y-79450057D02*
X153210285Y-79450057D01*
X153210285Y-79450057D02*
X153296000Y-79407200D01*
X153296000Y-79407200D02*
X153338857Y-79364342D01*
X153338857Y-79364342D02*
X153381714Y-79278628D01*
X153381714Y-79278628D02*
X153381714Y-79064342D01*
X153381714Y-79064342D02*
X153338857Y-78978628D01*
X153338857Y-78978628D02*
X153296000Y-78935771D01*
X153296000Y-78935771D02*
X153210285Y-78892914D01*
X153210285Y-78892914D02*
X153038857Y-78892914D01*
X153038857Y-78892914D02*
X152953142Y-78935771D01*
X152953142Y-78935771D02*
X152910285Y-78978628D01*
X152910285Y-78978628D02*
X152867428Y-79064342D01*
X181509571Y-66515057D02*
X181414333Y-66467438D01*
X181414333Y-66467438D02*
X181319095Y-66372200D01*
X181319095Y-66372200D02*
X181176238Y-66229342D01*
X181176238Y-66229342D02*
X181081000Y-66181723D01*
X181081000Y-66181723D02*
X180985762Y-66181723D01*
X181033381Y-66419819D02*
X180938143Y-66372200D01*
X180938143Y-66372200D02*
X180842905Y-66276961D01*
X180842905Y-66276961D02*
X180795286Y-66086485D01*
X180795286Y-66086485D02*
X180795286Y-65753152D01*
X180795286Y-65753152D02*
X180842905Y-65562676D01*
X180842905Y-65562676D02*
X180938143Y-65467438D01*
X180938143Y-65467438D02*
X181033381Y-65419819D01*
X181033381Y-65419819D02*
X181223857Y-65419819D01*
X181223857Y-65419819D02*
X181319095Y-65467438D01*
X181319095Y-65467438D02*
X181414333Y-65562676D01*
X181414333Y-65562676D02*
X181461952Y-65753152D01*
X181461952Y-65753152D02*
X181461952Y-66086485D01*
X181461952Y-66086485D02*
X181414333Y-66276961D01*
X181414333Y-66276961D02*
X181319095Y-66372200D01*
X181319095Y-66372200D02*
X181223857Y-66419819D01*
X181223857Y-66419819D02*
X181033381Y-66419819D01*
X182414333Y-66419819D02*
X181842905Y-66419819D01*
X182128619Y-66419819D02*
X182128619Y-65419819D01*
X182128619Y-65419819D02*
X182033381Y-65562676D01*
X182033381Y-65562676D02*
X181938143Y-65657914D01*
X181938143Y-65657914D02*
X181842905Y-65705533D01*
X183033381Y-65419819D02*
X183128619Y-65419819D01*
X183128619Y-65419819D02*
X183223857Y-65467438D01*
X183223857Y-65467438D02*
X183271476Y-65515057D01*
X183271476Y-65515057D02*
X183319095Y-65610295D01*
X183319095Y-65610295D02*
X183366714Y-65800771D01*
X183366714Y-65800771D02*
X183366714Y-66038866D01*
X183366714Y-66038866D02*
X183319095Y-66229342D01*
X183319095Y-66229342D02*
X183271476Y-66324580D01*
X183271476Y-66324580D02*
X183223857Y-66372200D01*
X183223857Y-66372200D02*
X183128619Y-66419819D01*
X183128619Y-66419819D02*
X183033381Y-66419819D01*
X183033381Y-66419819D02*
X182938143Y-66372200D01*
X182938143Y-66372200D02*
X182890524Y-66324580D01*
X182890524Y-66324580D02*
X182842905Y-66229342D01*
X182842905Y-66229342D02*
X182795286Y-66038866D01*
X182795286Y-66038866D02*
X182795286Y-65800771D01*
X182795286Y-65800771D02*
X182842905Y-65610295D01*
X182842905Y-65610295D02*
X182890524Y-65515057D01*
X182890524Y-65515057D02*
X182938143Y-65467438D01*
X182938143Y-65467438D02*
X183033381Y-65419819D01*
X196837142Y-99554819D02*
X196503809Y-99078628D01*
X196265714Y-99554819D02*
X196265714Y-98554819D01*
X196265714Y-98554819D02*
X196646666Y-98554819D01*
X196646666Y-98554819D02*
X196741904Y-98602438D01*
X196741904Y-98602438D02*
X196789523Y-98650057D01*
X196789523Y-98650057D02*
X196837142Y-98745295D01*
X196837142Y-98745295D02*
X196837142Y-98888152D01*
X196837142Y-98888152D02*
X196789523Y-98983390D01*
X196789523Y-98983390D02*
X196741904Y-99031009D01*
X196741904Y-99031009D02*
X196646666Y-99078628D01*
X196646666Y-99078628D02*
X196265714Y-99078628D01*
X197218095Y-98650057D02*
X197265714Y-98602438D01*
X197265714Y-98602438D02*
X197360952Y-98554819D01*
X197360952Y-98554819D02*
X197599047Y-98554819D01*
X197599047Y-98554819D02*
X197694285Y-98602438D01*
X197694285Y-98602438D02*
X197741904Y-98650057D01*
X197741904Y-98650057D02*
X197789523Y-98745295D01*
X197789523Y-98745295D02*
X197789523Y-98840533D01*
X197789523Y-98840533D02*
X197741904Y-98983390D01*
X197741904Y-98983390D02*
X197170476Y-99554819D01*
X197170476Y-99554819D02*
X197789523Y-99554819D01*
X198122857Y-98554819D02*
X198789523Y-98554819D01*
X198789523Y-98554819D02*
X198360952Y-99554819D01*
X149242819Y-82393857D02*
X148766628Y-82727190D01*
X149242819Y-82965285D02*
X148242819Y-82965285D01*
X148242819Y-82965285D02*
X148242819Y-82584333D01*
X148242819Y-82584333D02*
X148290438Y-82489095D01*
X148290438Y-82489095D02*
X148338057Y-82441476D01*
X148338057Y-82441476D02*
X148433295Y-82393857D01*
X148433295Y-82393857D02*
X148576152Y-82393857D01*
X148576152Y-82393857D02*
X148671390Y-82441476D01*
X148671390Y-82441476D02*
X148719009Y-82489095D01*
X148719009Y-82489095D02*
X148766628Y-82584333D01*
X148766628Y-82584333D02*
X148766628Y-82965285D01*
X149242819Y-81441476D02*
X149242819Y-82012904D01*
X149242819Y-81727190D02*
X148242819Y-81727190D01*
X148242819Y-81727190D02*
X148385676Y-81822428D01*
X148385676Y-81822428D02*
X148480914Y-81917666D01*
X148480914Y-81917666D02*
X148528533Y-82012904D01*
X149242819Y-80489095D02*
X149242819Y-81060523D01*
X149242819Y-80774809D02*
X148242819Y-80774809D01*
X148242819Y-80774809D02*
X148385676Y-80870047D01*
X148385676Y-80870047D02*
X148480914Y-80965285D01*
X148480914Y-80965285D02*
X148528533Y-81060523D01*
X187596819Y-102391357D02*
X187120628Y-102724690D01*
X187596819Y-102962785D02*
X186596819Y-102962785D01*
X186596819Y-102962785D02*
X186596819Y-102581833D01*
X186596819Y-102581833D02*
X186644438Y-102486595D01*
X186644438Y-102486595D02*
X186692057Y-102438976D01*
X186692057Y-102438976D02*
X186787295Y-102391357D01*
X186787295Y-102391357D02*
X186930152Y-102391357D01*
X186930152Y-102391357D02*
X187025390Y-102438976D01*
X187025390Y-102438976D02*
X187073009Y-102486595D01*
X187073009Y-102486595D02*
X187120628Y-102581833D01*
X187120628Y-102581833D02*
X187120628Y-102962785D01*
X186596819Y-101534214D02*
X186596819Y-101724690D01*
X186596819Y-101724690D02*
X186644438Y-101819928D01*
X186644438Y-101819928D02*
X186692057Y-101867547D01*
X186692057Y-101867547D02*
X186834914Y-101962785D01*
X186834914Y-101962785D02*
X187025390Y-102010404D01*
X187025390Y-102010404D02*
X187406342Y-102010404D01*
X187406342Y-102010404D02*
X187501580Y-101962785D01*
X187501580Y-101962785D02*
X187549200Y-101915166D01*
X187549200Y-101915166D02*
X187596819Y-101819928D01*
X187596819Y-101819928D02*
X187596819Y-101629452D01*
X187596819Y-101629452D02*
X187549200Y-101534214D01*
X187549200Y-101534214D02*
X187501580Y-101486595D01*
X187501580Y-101486595D02*
X187406342Y-101438976D01*
X187406342Y-101438976D02*
X187168247Y-101438976D01*
X187168247Y-101438976D02*
X187073009Y-101486595D01*
X187073009Y-101486595D02*
X187025390Y-101534214D01*
X187025390Y-101534214D02*
X186977771Y-101629452D01*
X186977771Y-101629452D02*
X186977771Y-101819928D01*
X186977771Y-101819928D02*
X187025390Y-101915166D01*
X187025390Y-101915166D02*
X187073009Y-101962785D01*
X187073009Y-101962785D02*
X187168247Y-102010404D01*
X186692057Y-101058023D02*
X186644438Y-101010404D01*
X186644438Y-101010404D02*
X186596819Y-100915166D01*
X186596819Y-100915166D02*
X186596819Y-100677071D01*
X186596819Y-100677071D02*
X186644438Y-100581833D01*
X186644438Y-100581833D02*
X186692057Y-100534214D01*
X186692057Y-100534214D02*
X186787295Y-100486595D01*
X186787295Y-100486595D02*
X186882533Y-100486595D01*
X186882533Y-100486595D02*
X187025390Y-100534214D01*
X187025390Y-100534214D02*
X187596819Y-101105642D01*
X187596819Y-101105642D02*
X187596819Y-100486595D01*
X158475580Y-90259857D02*
X158523200Y-90307476D01*
X158523200Y-90307476D02*
X158570819Y-90450333D01*
X158570819Y-90450333D02*
X158570819Y-90545571D01*
X158570819Y-90545571D02*
X158523200Y-90688428D01*
X158523200Y-90688428D02*
X158427961Y-90783666D01*
X158427961Y-90783666D02*
X158332723Y-90831285D01*
X158332723Y-90831285D02*
X158142247Y-90878904D01*
X158142247Y-90878904D02*
X157999390Y-90878904D01*
X157999390Y-90878904D02*
X157808914Y-90831285D01*
X157808914Y-90831285D02*
X157713676Y-90783666D01*
X157713676Y-90783666D02*
X157618438Y-90688428D01*
X157618438Y-90688428D02*
X157570819Y-90545571D01*
X157570819Y-90545571D02*
X157570819Y-90450333D01*
X157570819Y-90450333D02*
X157618438Y-90307476D01*
X157618438Y-90307476D02*
X157666057Y-90259857D01*
X158570819Y-89307476D02*
X158570819Y-89878904D01*
X158570819Y-89593190D02*
X157570819Y-89593190D01*
X157570819Y-89593190D02*
X157713676Y-89688428D01*
X157713676Y-89688428D02*
X157808914Y-89783666D01*
X157808914Y-89783666D02*
X157856533Y-89878904D01*
X157999390Y-88736047D02*
X157951771Y-88831285D01*
X157951771Y-88831285D02*
X157904152Y-88878904D01*
X157904152Y-88878904D02*
X157808914Y-88926523D01*
X157808914Y-88926523D02*
X157761295Y-88926523D01*
X157761295Y-88926523D02*
X157666057Y-88878904D01*
X157666057Y-88878904D02*
X157618438Y-88831285D01*
X157618438Y-88831285D02*
X157570819Y-88736047D01*
X157570819Y-88736047D02*
X157570819Y-88545571D01*
X157570819Y-88545571D02*
X157618438Y-88450333D01*
X157618438Y-88450333D02*
X157666057Y-88402714D01*
X157666057Y-88402714D02*
X157761295Y-88355095D01*
X157761295Y-88355095D02*
X157808914Y-88355095D01*
X157808914Y-88355095D02*
X157904152Y-88402714D01*
X157904152Y-88402714D02*
X157951771Y-88450333D01*
X157951771Y-88450333D02*
X157999390Y-88545571D01*
X157999390Y-88545571D02*
X157999390Y-88736047D01*
X157999390Y-88736047D02*
X158047009Y-88831285D01*
X158047009Y-88831285D02*
X158094628Y-88878904D01*
X158094628Y-88878904D02*
X158189866Y-88926523D01*
X158189866Y-88926523D02*
X158380342Y-88926523D01*
X158380342Y-88926523D02*
X158475580Y-88878904D01*
X158475580Y-88878904D02*
X158523200Y-88831285D01*
X158523200Y-88831285D02*
X158570819Y-88736047D01*
X158570819Y-88736047D02*
X158570819Y-88545571D01*
X158570819Y-88545571D02*
X158523200Y-88450333D01*
X158523200Y-88450333D02*
X158475580Y-88402714D01*
X158475580Y-88402714D02*
X158380342Y-88355095D01*
X158380342Y-88355095D02*
X158189866Y-88355095D01*
X158189866Y-88355095D02*
X158094628Y-88402714D01*
X158094628Y-88402714D02*
X158047009Y-88450333D01*
X158047009Y-88450333D02*
X157999390Y-88545571D01*
D11*
X152178333Y-60472419D02*
X151702143Y-60472419D01*
X151702143Y-60472419D02*
X151702143Y-59472419D01*
X153035476Y-60472419D02*
X152464048Y-60472419D01*
X152749762Y-60472419D02*
X152749762Y-59472419D01*
X152749762Y-59472419D02*
X152654524Y-59615276D01*
X152654524Y-59615276D02*
X152559286Y-59710514D01*
X152559286Y-59710514D02*
X152464048Y-59758133D01*
D10*
X166619142Y-74594819D02*
X166285809Y-74118628D01*
X166047714Y-74594819D02*
X166047714Y-73594819D01*
X166047714Y-73594819D02*
X166428666Y-73594819D01*
X166428666Y-73594819D02*
X166523904Y-73642438D01*
X166523904Y-73642438D02*
X166571523Y-73690057D01*
X166571523Y-73690057D02*
X166619142Y-73785295D01*
X166619142Y-73785295D02*
X166619142Y-73928152D01*
X166619142Y-73928152D02*
X166571523Y-74023390D01*
X166571523Y-74023390D02*
X166523904Y-74071009D01*
X166523904Y-74071009D02*
X166428666Y-74118628D01*
X166428666Y-74118628D02*
X166047714Y-74118628D01*
X166952476Y-73594819D02*
X167571523Y-73594819D01*
X167571523Y-73594819D02*
X167238190Y-73975771D01*
X167238190Y-73975771D02*
X167381047Y-73975771D01*
X167381047Y-73975771D02*
X167476285Y-74023390D01*
X167476285Y-74023390D02*
X167523904Y-74071009D01*
X167523904Y-74071009D02*
X167571523Y-74166247D01*
X167571523Y-74166247D02*
X167571523Y-74404342D01*
X167571523Y-74404342D02*
X167523904Y-74499580D01*
X167523904Y-74499580D02*
X167476285Y-74547200D01*
X167476285Y-74547200D02*
X167381047Y-74594819D01*
X167381047Y-74594819D02*
X167095333Y-74594819D01*
X167095333Y-74594819D02*
X167000095Y-74547200D01*
X167000095Y-74547200D02*
X166952476Y-74499580D01*
X168047714Y-74594819D02*
X168238190Y-74594819D01*
X168238190Y-74594819D02*
X168333428Y-74547200D01*
X168333428Y-74547200D02*
X168381047Y-74499580D01*
X168381047Y-74499580D02*
X168476285Y-74356723D01*
X168476285Y-74356723D02*
X168523904Y-74166247D01*
X168523904Y-74166247D02*
X168523904Y-73785295D01*
X168523904Y-73785295D02*
X168476285Y-73690057D01*
X168476285Y-73690057D02*
X168428666Y-73642438D01*
X168428666Y-73642438D02*
X168333428Y-73594819D01*
X168333428Y-73594819D02*
X168142952Y-73594819D01*
X168142952Y-73594819D02*
X168047714Y-73642438D01*
X168047714Y-73642438D02*
X168000095Y-73690057D01*
X168000095Y-73690057D02*
X167952476Y-73785295D01*
X167952476Y-73785295D02*
X167952476Y-74023390D01*
X167952476Y-74023390D02*
X168000095Y-74118628D01*
X168000095Y-74118628D02*
X168047714Y-74166247D01*
X168047714Y-74166247D02*
X168142952Y-74213866D01*
X168142952Y-74213866D02*
X168333428Y-74213866D01*
X168333428Y-74213866D02*
X168428666Y-74166247D01*
X168428666Y-74166247D02*
X168476285Y-74118628D01*
X168476285Y-74118628D02*
X168523904Y-74023390D01*
X212416557Y-69425571D02*
X211987985Y-69725571D01*
X212416557Y-69939857D02*
X211516557Y-69939857D01*
X211516557Y-69939857D02*
X211516557Y-69597000D01*
X211516557Y-69597000D02*
X211559414Y-69511285D01*
X211559414Y-69511285D02*
X211602271Y-69468428D01*
X211602271Y-69468428D02*
X211687985Y-69425571D01*
X211687985Y-69425571D02*
X211816557Y-69425571D01*
X211816557Y-69425571D02*
X211902271Y-69468428D01*
X211902271Y-69468428D02*
X211945128Y-69511285D01*
X211945128Y-69511285D02*
X211987985Y-69597000D01*
X211987985Y-69597000D02*
X211987985Y-69939857D01*
X211516557Y-69125571D02*
X211516557Y-68525571D01*
X211516557Y-68525571D02*
X212416557Y-68911285D01*
X211902271Y-68054142D02*
X211859414Y-68139857D01*
X211859414Y-68139857D02*
X211816557Y-68182714D01*
X211816557Y-68182714D02*
X211730842Y-68225571D01*
X211730842Y-68225571D02*
X211687985Y-68225571D01*
X211687985Y-68225571D02*
X211602271Y-68182714D01*
X211602271Y-68182714D02*
X211559414Y-68139857D01*
X211559414Y-68139857D02*
X211516557Y-68054142D01*
X211516557Y-68054142D02*
X211516557Y-67882714D01*
X211516557Y-67882714D02*
X211559414Y-67797000D01*
X211559414Y-67797000D02*
X211602271Y-67754142D01*
X211602271Y-67754142D02*
X211687985Y-67711285D01*
X211687985Y-67711285D02*
X211730842Y-67711285D01*
X211730842Y-67711285D02*
X211816557Y-67754142D01*
X211816557Y-67754142D02*
X211859414Y-67797000D01*
X211859414Y-67797000D02*
X211902271Y-67882714D01*
X211902271Y-67882714D02*
X211902271Y-68054142D01*
X211902271Y-68054142D02*
X211945128Y-68139857D01*
X211945128Y-68139857D02*
X211987985Y-68182714D01*
X211987985Y-68182714D02*
X212073700Y-68225571D01*
X212073700Y-68225571D02*
X212245128Y-68225571D01*
X212245128Y-68225571D02*
X212330842Y-68182714D01*
X212330842Y-68182714D02*
X212373700Y-68139857D01*
X212373700Y-68139857D02*
X212416557Y-68054142D01*
X212416557Y-68054142D02*
X212416557Y-67882714D01*
X212416557Y-67882714D02*
X212373700Y-67797000D01*
X212373700Y-67797000D02*
X212330842Y-67754142D01*
X212330842Y-67754142D02*
X212245128Y-67711285D01*
X212245128Y-67711285D02*
X212073700Y-67711285D01*
X212073700Y-67711285D02*
X211987985Y-67754142D01*
X211987985Y-67754142D02*
X211945128Y-67797000D01*
X211945128Y-67797000D02*
X211902271Y-67882714D01*
X160756819Y-79835857D02*
X160280628Y-80169190D01*
X160756819Y-80407285D02*
X159756819Y-80407285D01*
X159756819Y-80407285D02*
X159756819Y-80026333D01*
X159756819Y-80026333D02*
X159804438Y-79931095D01*
X159804438Y-79931095D02*
X159852057Y-79883476D01*
X159852057Y-79883476D02*
X159947295Y-79835857D01*
X159947295Y-79835857D02*
X160090152Y-79835857D01*
X160090152Y-79835857D02*
X160185390Y-79883476D01*
X160185390Y-79883476D02*
X160233009Y-79931095D01*
X160233009Y-79931095D02*
X160280628Y-80026333D01*
X160280628Y-80026333D02*
X160280628Y-80407285D01*
X159852057Y-79454904D02*
X159804438Y-79407285D01*
X159804438Y-79407285D02*
X159756819Y-79312047D01*
X159756819Y-79312047D02*
X159756819Y-79073952D01*
X159756819Y-79073952D02*
X159804438Y-78978714D01*
X159804438Y-78978714D02*
X159852057Y-78931095D01*
X159852057Y-78931095D02*
X159947295Y-78883476D01*
X159947295Y-78883476D02*
X160042533Y-78883476D01*
X160042533Y-78883476D02*
X160185390Y-78931095D01*
X160185390Y-78931095D02*
X160756819Y-79502523D01*
X160756819Y-79502523D02*
X160756819Y-78883476D01*
X159756819Y-77978714D02*
X159756819Y-78454904D01*
X159756819Y-78454904D02*
X160233009Y-78502523D01*
X160233009Y-78502523D02*
X160185390Y-78454904D01*
X160185390Y-78454904D02*
X160137771Y-78359666D01*
X160137771Y-78359666D02*
X160137771Y-78121571D01*
X160137771Y-78121571D02*
X160185390Y-78026333D01*
X160185390Y-78026333D02*
X160233009Y-77978714D01*
X160233009Y-77978714D02*
X160328247Y-77931095D01*
X160328247Y-77931095D02*
X160566342Y-77931095D01*
X160566342Y-77931095D02*
X160661580Y-77978714D01*
X160661580Y-77978714D02*
X160709200Y-78026333D01*
X160709200Y-78026333D02*
X160756819Y-78121571D01*
X160756819Y-78121571D02*
X160756819Y-78359666D01*
X160756819Y-78359666D02*
X160709200Y-78454904D01*
X160709200Y-78454904D02*
X160661580Y-78502523D01*
X195967142Y-80083819D02*
X195633809Y-79607628D01*
X195395714Y-80083819D02*
X195395714Y-79083819D01*
X195395714Y-79083819D02*
X195776666Y-79083819D01*
X195776666Y-79083819D02*
X195871904Y-79131438D01*
X195871904Y-79131438D02*
X195919523Y-79179057D01*
X195919523Y-79179057D02*
X195967142Y-79274295D01*
X195967142Y-79274295D02*
X195967142Y-79417152D01*
X195967142Y-79417152D02*
X195919523Y-79512390D01*
X195919523Y-79512390D02*
X195871904Y-79560009D01*
X195871904Y-79560009D02*
X195776666Y-79607628D01*
X195776666Y-79607628D02*
X195395714Y-79607628D01*
X196824285Y-79083819D02*
X196633809Y-79083819D01*
X196633809Y-79083819D02*
X196538571Y-79131438D01*
X196538571Y-79131438D02*
X196490952Y-79179057D01*
X196490952Y-79179057D02*
X196395714Y-79321914D01*
X196395714Y-79321914D02*
X196348095Y-79512390D01*
X196348095Y-79512390D02*
X196348095Y-79893342D01*
X196348095Y-79893342D02*
X196395714Y-79988580D01*
X196395714Y-79988580D02*
X196443333Y-80036200D01*
X196443333Y-80036200D02*
X196538571Y-80083819D01*
X196538571Y-80083819D02*
X196729047Y-80083819D01*
X196729047Y-80083819D02*
X196824285Y-80036200D01*
X196824285Y-80036200D02*
X196871904Y-79988580D01*
X196871904Y-79988580D02*
X196919523Y-79893342D01*
X196919523Y-79893342D02*
X196919523Y-79655247D01*
X196919523Y-79655247D02*
X196871904Y-79560009D01*
X196871904Y-79560009D02*
X196824285Y-79512390D01*
X196824285Y-79512390D02*
X196729047Y-79464771D01*
X196729047Y-79464771D02*
X196538571Y-79464771D01*
X196538571Y-79464771D02*
X196443333Y-79512390D01*
X196443333Y-79512390D02*
X196395714Y-79560009D01*
X196395714Y-79560009D02*
X196348095Y-79655247D01*
X197538571Y-79083819D02*
X197633809Y-79083819D01*
X197633809Y-79083819D02*
X197729047Y-79131438D01*
X197729047Y-79131438D02*
X197776666Y-79179057D01*
X197776666Y-79179057D02*
X197824285Y-79274295D01*
X197824285Y-79274295D02*
X197871904Y-79464771D01*
X197871904Y-79464771D02*
X197871904Y-79702866D01*
X197871904Y-79702866D02*
X197824285Y-79893342D01*
X197824285Y-79893342D02*
X197776666Y-79988580D01*
X197776666Y-79988580D02*
X197729047Y-80036200D01*
X197729047Y-80036200D02*
X197633809Y-80083819D01*
X197633809Y-80083819D02*
X197538571Y-80083819D01*
X197538571Y-80083819D02*
X197443333Y-80036200D01*
X197443333Y-80036200D02*
X197395714Y-79988580D01*
X197395714Y-79988580D02*
X197348095Y-79893342D01*
X197348095Y-79893342D02*
X197300476Y-79702866D01*
X197300476Y-79702866D02*
X197300476Y-79464771D01*
X197300476Y-79464771D02*
X197348095Y-79274295D01*
X197348095Y-79274295D02*
X197395714Y-79179057D01*
X197395714Y-79179057D02*
X197443333Y-79131438D01*
X197443333Y-79131438D02*
X197538571Y-79083819D01*
X172254819Y-72251857D02*
X171778628Y-72585190D01*
X172254819Y-72823285D02*
X171254819Y-72823285D01*
X171254819Y-72823285D02*
X171254819Y-72442333D01*
X171254819Y-72442333D02*
X171302438Y-72347095D01*
X171302438Y-72347095D02*
X171350057Y-72299476D01*
X171350057Y-72299476D02*
X171445295Y-72251857D01*
X171445295Y-72251857D02*
X171588152Y-72251857D01*
X171588152Y-72251857D02*
X171683390Y-72299476D01*
X171683390Y-72299476D02*
X171731009Y-72347095D01*
X171731009Y-72347095D02*
X171778628Y-72442333D01*
X171778628Y-72442333D02*
X171778628Y-72823285D01*
X171254819Y-71918523D02*
X171254819Y-71299476D01*
X171254819Y-71299476D02*
X171635771Y-71632809D01*
X171635771Y-71632809D02*
X171635771Y-71489952D01*
X171635771Y-71489952D02*
X171683390Y-71394714D01*
X171683390Y-71394714D02*
X171731009Y-71347095D01*
X171731009Y-71347095D02*
X171826247Y-71299476D01*
X171826247Y-71299476D02*
X172064342Y-71299476D01*
X172064342Y-71299476D02*
X172159580Y-71347095D01*
X172159580Y-71347095D02*
X172207200Y-71394714D01*
X172207200Y-71394714D02*
X172254819Y-71489952D01*
X172254819Y-71489952D02*
X172254819Y-71775666D01*
X172254819Y-71775666D02*
X172207200Y-71870904D01*
X172207200Y-71870904D02*
X172159580Y-71918523D01*
X171254819Y-70966142D02*
X171254819Y-70299476D01*
X171254819Y-70299476D02*
X172254819Y-70728047D01*
X175780819Y-79663857D02*
X175304628Y-79997190D01*
X175780819Y-80235285D02*
X174780819Y-80235285D01*
X174780819Y-80235285D02*
X174780819Y-79854333D01*
X174780819Y-79854333D02*
X174828438Y-79759095D01*
X174828438Y-79759095D02*
X174876057Y-79711476D01*
X174876057Y-79711476D02*
X174971295Y-79663857D01*
X174971295Y-79663857D02*
X175114152Y-79663857D01*
X175114152Y-79663857D02*
X175209390Y-79711476D01*
X175209390Y-79711476D02*
X175257009Y-79759095D01*
X175257009Y-79759095D02*
X175304628Y-79854333D01*
X175304628Y-79854333D02*
X175304628Y-80235285D01*
X175114152Y-78806714D02*
X175780819Y-78806714D01*
X174733200Y-79044809D02*
X175447485Y-79282904D01*
X175447485Y-79282904D02*
X175447485Y-78663857D01*
X174876057Y-78330523D02*
X174828438Y-78282904D01*
X174828438Y-78282904D02*
X174780819Y-78187666D01*
X174780819Y-78187666D02*
X174780819Y-77949571D01*
X174780819Y-77949571D02*
X174828438Y-77854333D01*
X174828438Y-77854333D02*
X174876057Y-77806714D01*
X174876057Y-77806714D02*
X174971295Y-77759095D01*
X174971295Y-77759095D02*
X175066533Y-77759095D01*
X175066533Y-77759095D02*
X175209390Y-77806714D01*
X175209390Y-77806714D02*
X175780819Y-78378142D01*
X175780819Y-78378142D02*
X175780819Y-77759095D01*
X164772819Y-102302857D02*
X164296628Y-102636190D01*
X164772819Y-102874285D02*
X163772819Y-102874285D01*
X163772819Y-102874285D02*
X163772819Y-102493333D01*
X163772819Y-102493333D02*
X163820438Y-102398095D01*
X163820438Y-102398095D02*
X163868057Y-102350476D01*
X163868057Y-102350476D02*
X163963295Y-102302857D01*
X163963295Y-102302857D02*
X164106152Y-102302857D01*
X164106152Y-102302857D02*
X164201390Y-102350476D01*
X164201390Y-102350476D02*
X164249009Y-102398095D01*
X164249009Y-102398095D02*
X164296628Y-102493333D01*
X164296628Y-102493333D02*
X164296628Y-102874285D01*
X164772819Y-101826666D02*
X164772819Y-101636190D01*
X164772819Y-101636190D02*
X164725200Y-101540952D01*
X164725200Y-101540952D02*
X164677580Y-101493333D01*
X164677580Y-101493333D02*
X164534723Y-101398095D01*
X164534723Y-101398095D02*
X164344247Y-101350476D01*
X164344247Y-101350476D02*
X163963295Y-101350476D01*
X163963295Y-101350476D02*
X163868057Y-101398095D01*
X163868057Y-101398095D02*
X163820438Y-101445714D01*
X163820438Y-101445714D02*
X163772819Y-101540952D01*
X163772819Y-101540952D02*
X163772819Y-101731428D01*
X163772819Y-101731428D02*
X163820438Y-101826666D01*
X163820438Y-101826666D02*
X163868057Y-101874285D01*
X163868057Y-101874285D02*
X163963295Y-101921904D01*
X163963295Y-101921904D02*
X164201390Y-101921904D01*
X164201390Y-101921904D02*
X164296628Y-101874285D01*
X164296628Y-101874285D02*
X164344247Y-101826666D01*
X164344247Y-101826666D02*
X164391866Y-101731428D01*
X164391866Y-101731428D02*
X164391866Y-101540952D01*
X164391866Y-101540952D02*
X164344247Y-101445714D01*
X164344247Y-101445714D02*
X164296628Y-101398095D01*
X164296628Y-101398095D02*
X164201390Y-101350476D01*
X163772819Y-101017142D02*
X163772819Y-100350476D01*
X163772819Y-100350476D02*
X164772819Y-100779047D01*
X173445819Y-100647857D02*
X172969628Y-100981190D01*
X173445819Y-101219285D02*
X172445819Y-101219285D01*
X172445819Y-101219285D02*
X172445819Y-100838333D01*
X172445819Y-100838333D02*
X172493438Y-100743095D01*
X172493438Y-100743095D02*
X172541057Y-100695476D01*
X172541057Y-100695476D02*
X172636295Y-100647857D01*
X172636295Y-100647857D02*
X172779152Y-100647857D01*
X172779152Y-100647857D02*
X172874390Y-100695476D01*
X172874390Y-100695476D02*
X172922009Y-100743095D01*
X172922009Y-100743095D02*
X172969628Y-100838333D01*
X172969628Y-100838333D02*
X172969628Y-101219285D01*
X173445819Y-99695476D02*
X173445819Y-100266904D01*
X173445819Y-99981190D02*
X172445819Y-99981190D01*
X172445819Y-99981190D02*
X172588676Y-100076428D01*
X172588676Y-100076428D02*
X172683914Y-100171666D01*
X172683914Y-100171666D02*
X172731533Y-100266904D01*
X172445819Y-98790714D02*
X172445819Y-99266904D01*
X172445819Y-99266904D02*
X172922009Y-99314523D01*
X172922009Y-99314523D02*
X172874390Y-99266904D01*
X172874390Y-99266904D02*
X172826771Y-99171666D01*
X172826771Y-99171666D02*
X172826771Y-98933571D01*
X172826771Y-98933571D02*
X172874390Y-98838333D01*
X172874390Y-98838333D02*
X172922009Y-98790714D01*
X172922009Y-98790714D02*
X173017247Y-98743095D01*
X173017247Y-98743095D02*
X173255342Y-98743095D01*
X173255342Y-98743095D02*
X173350580Y-98790714D01*
X173350580Y-98790714D02*
X173398200Y-98838333D01*
X173398200Y-98838333D02*
X173445819Y-98933571D01*
X173445819Y-98933571D02*
X173445819Y-99171666D01*
X173445819Y-99171666D02*
X173398200Y-99266904D01*
X173398200Y-99266904D02*
X173350580Y-99314523D01*
X178088095Y-94238819D02*
X178088095Y-95048342D01*
X178088095Y-95048342D02*
X178135714Y-95143580D01*
X178135714Y-95143580D02*
X178183333Y-95191200D01*
X178183333Y-95191200D02*
X178278571Y-95238819D01*
X178278571Y-95238819D02*
X178469047Y-95238819D01*
X178469047Y-95238819D02*
X178564285Y-95191200D01*
X178564285Y-95191200D02*
X178611904Y-95143580D01*
X178611904Y-95143580D02*
X178659523Y-95048342D01*
X178659523Y-95048342D02*
X178659523Y-94238819D01*
X179040476Y-94238819D02*
X179707142Y-94238819D01*
X179707142Y-94238819D02*
X179278571Y-95238819D01*
X198927142Y-80083819D02*
X198593809Y-79607628D01*
X198355714Y-80083819D02*
X198355714Y-79083819D01*
X198355714Y-79083819D02*
X198736666Y-79083819D01*
X198736666Y-79083819D02*
X198831904Y-79131438D01*
X198831904Y-79131438D02*
X198879523Y-79179057D01*
X198879523Y-79179057D02*
X198927142Y-79274295D01*
X198927142Y-79274295D02*
X198927142Y-79417152D01*
X198927142Y-79417152D02*
X198879523Y-79512390D01*
X198879523Y-79512390D02*
X198831904Y-79560009D01*
X198831904Y-79560009D02*
X198736666Y-79607628D01*
X198736666Y-79607628D02*
X198355714Y-79607628D01*
X199784285Y-79083819D02*
X199593809Y-79083819D01*
X199593809Y-79083819D02*
X199498571Y-79131438D01*
X199498571Y-79131438D02*
X199450952Y-79179057D01*
X199450952Y-79179057D02*
X199355714Y-79321914D01*
X199355714Y-79321914D02*
X199308095Y-79512390D01*
X199308095Y-79512390D02*
X199308095Y-79893342D01*
X199308095Y-79893342D02*
X199355714Y-79988580D01*
X199355714Y-79988580D02*
X199403333Y-80036200D01*
X199403333Y-80036200D02*
X199498571Y-80083819D01*
X199498571Y-80083819D02*
X199689047Y-80083819D01*
X199689047Y-80083819D02*
X199784285Y-80036200D01*
X199784285Y-80036200D02*
X199831904Y-79988580D01*
X199831904Y-79988580D02*
X199879523Y-79893342D01*
X199879523Y-79893342D02*
X199879523Y-79655247D01*
X199879523Y-79655247D02*
X199831904Y-79560009D01*
X199831904Y-79560009D02*
X199784285Y-79512390D01*
X199784285Y-79512390D02*
X199689047Y-79464771D01*
X199689047Y-79464771D02*
X199498571Y-79464771D01*
X199498571Y-79464771D02*
X199403333Y-79512390D01*
X199403333Y-79512390D02*
X199355714Y-79560009D01*
X199355714Y-79560009D02*
X199308095Y-79655247D01*
X200784285Y-79083819D02*
X200308095Y-79083819D01*
X200308095Y-79083819D02*
X200260476Y-79560009D01*
X200260476Y-79560009D02*
X200308095Y-79512390D01*
X200308095Y-79512390D02*
X200403333Y-79464771D01*
X200403333Y-79464771D02*
X200641428Y-79464771D01*
X200641428Y-79464771D02*
X200736666Y-79512390D01*
X200736666Y-79512390D02*
X200784285Y-79560009D01*
X200784285Y-79560009D02*
X200831904Y-79655247D01*
X200831904Y-79655247D02*
X200831904Y-79893342D01*
X200831904Y-79893342D02*
X200784285Y-79988580D01*
X200784285Y-79988580D02*
X200736666Y-80036200D01*
X200736666Y-80036200D02*
X200641428Y-80083819D01*
X200641428Y-80083819D02*
X200403333Y-80083819D01*
X200403333Y-80083819D02*
X200308095Y-80036200D01*
X200308095Y-80036200D02*
X200260476Y-79988580D01*
X201647571Y-66515057D02*
X201552333Y-66467438D01*
X201552333Y-66467438D02*
X201457095Y-66372200D01*
X201457095Y-66372200D02*
X201314238Y-66229342D01*
X201314238Y-66229342D02*
X201219000Y-66181723D01*
X201219000Y-66181723D02*
X201123762Y-66181723D01*
X201171381Y-66419819D02*
X201076143Y-66372200D01*
X201076143Y-66372200D02*
X200980905Y-66276961D01*
X200980905Y-66276961D02*
X200933286Y-66086485D01*
X200933286Y-66086485D02*
X200933286Y-65753152D01*
X200933286Y-65753152D02*
X200980905Y-65562676D01*
X200980905Y-65562676D02*
X201076143Y-65467438D01*
X201076143Y-65467438D02*
X201171381Y-65419819D01*
X201171381Y-65419819D02*
X201361857Y-65419819D01*
X201361857Y-65419819D02*
X201457095Y-65467438D01*
X201457095Y-65467438D02*
X201552333Y-65562676D01*
X201552333Y-65562676D02*
X201599952Y-65753152D01*
X201599952Y-65753152D02*
X201599952Y-66086485D01*
X201599952Y-66086485D02*
X201552333Y-66276961D01*
X201552333Y-66276961D02*
X201457095Y-66372200D01*
X201457095Y-66372200D02*
X201361857Y-66419819D01*
X201361857Y-66419819D02*
X201171381Y-66419819D01*
X202552333Y-66419819D02*
X201980905Y-66419819D01*
X202266619Y-66419819D02*
X202266619Y-65419819D01*
X202266619Y-65419819D02*
X202171381Y-65562676D01*
X202171381Y-65562676D02*
X202076143Y-65657914D01*
X202076143Y-65657914D02*
X201980905Y-65705533D01*
X203457095Y-65419819D02*
X202980905Y-65419819D01*
X202980905Y-65419819D02*
X202933286Y-65896009D01*
X202933286Y-65896009D02*
X202980905Y-65848390D01*
X202980905Y-65848390D02*
X203076143Y-65800771D01*
X203076143Y-65800771D02*
X203314238Y-65800771D01*
X203314238Y-65800771D02*
X203409476Y-65848390D01*
X203409476Y-65848390D02*
X203457095Y-65896009D01*
X203457095Y-65896009D02*
X203504714Y-65991247D01*
X203504714Y-65991247D02*
X203504714Y-66229342D01*
X203504714Y-66229342D02*
X203457095Y-66324580D01*
X203457095Y-66324580D02*
X203409476Y-66372200D01*
X203409476Y-66372200D02*
X203314238Y-66419819D01*
X203314238Y-66419819D02*
X203076143Y-66419819D01*
X203076143Y-66419819D02*
X202980905Y-66372200D01*
X202980905Y-66372200D02*
X202933286Y-66324580D01*
X167692819Y-102302857D02*
X167216628Y-102636190D01*
X167692819Y-102874285D02*
X166692819Y-102874285D01*
X166692819Y-102874285D02*
X166692819Y-102493333D01*
X166692819Y-102493333D02*
X166740438Y-102398095D01*
X166740438Y-102398095D02*
X166788057Y-102350476D01*
X166788057Y-102350476D02*
X166883295Y-102302857D01*
X166883295Y-102302857D02*
X167026152Y-102302857D01*
X167026152Y-102302857D02*
X167121390Y-102350476D01*
X167121390Y-102350476D02*
X167169009Y-102398095D01*
X167169009Y-102398095D02*
X167216628Y-102493333D01*
X167216628Y-102493333D02*
X167216628Y-102874285D01*
X167692819Y-101826666D02*
X167692819Y-101636190D01*
X167692819Y-101636190D02*
X167645200Y-101540952D01*
X167645200Y-101540952D02*
X167597580Y-101493333D01*
X167597580Y-101493333D02*
X167454723Y-101398095D01*
X167454723Y-101398095D02*
X167264247Y-101350476D01*
X167264247Y-101350476D02*
X166883295Y-101350476D01*
X166883295Y-101350476D02*
X166788057Y-101398095D01*
X166788057Y-101398095D02*
X166740438Y-101445714D01*
X166740438Y-101445714D02*
X166692819Y-101540952D01*
X166692819Y-101540952D02*
X166692819Y-101731428D01*
X166692819Y-101731428D02*
X166740438Y-101826666D01*
X166740438Y-101826666D02*
X166788057Y-101874285D01*
X166788057Y-101874285D02*
X166883295Y-101921904D01*
X166883295Y-101921904D02*
X167121390Y-101921904D01*
X167121390Y-101921904D02*
X167216628Y-101874285D01*
X167216628Y-101874285D02*
X167264247Y-101826666D01*
X167264247Y-101826666D02*
X167311866Y-101731428D01*
X167311866Y-101731428D02*
X167311866Y-101540952D01*
X167311866Y-101540952D02*
X167264247Y-101445714D01*
X167264247Y-101445714D02*
X167216628Y-101398095D01*
X167216628Y-101398095D02*
X167121390Y-101350476D01*
X166692819Y-100445714D02*
X166692819Y-100921904D01*
X166692819Y-100921904D02*
X167169009Y-100969523D01*
X167169009Y-100969523D02*
X167121390Y-100921904D01*
X167121390Y-100921904D02*
X167073771Y-100826666D01*
X167073771Y-100826666D02*
X167073771Y-100588571D01*
X167073771Y-100588571D02*
X167121390Y-100493333D01*
X167121390Y-100493333D02*
X167169009Y-100445714D01*
X167169009Y-100445714D02*
X167264247Y-100398095D01*
X167264247Y-100398095D02*
X167502342Y-100398095D01*
X167502342Y-100398095D02*
X167597580Y-100445714D01*
X167597580Y-100445714D02*
X167645200Y-100493333D01*
X167645200Y-100493333D02*
X167692819Y-100588571D01*
X167692819Y-100588571D02*
X167692819Y-100826666D01*
X167692819Y-100826666D02*
X167645200Y-100921904D01*
X167645200Y-100921904D02*
X167597580Y-100969523D01*
X166707142Y-81589819D02*
X166373809Y-81113628D01*
X166135714Y-81589819D02*
X166135714Y-80589819D01*
X166135714Y-80589819D02*
X166516666Y-80589819D01*
X166516666Y-80589819D02*
X166611904Y-80637438D01*
X166611904Y-80637438D02*
X166659523Y-80685057D01*
X166659523Y-80685057D02*
X166707142Y-80780295D01*
X166707142Y-80780295D02*
X166707142Y-80923152D01*
X166707142Y-80923152D02*
X166659523Y-81018390D01*
X166659523Y-81018390D02*
X166611904Y-81066009D01*
X166611904Y-81066009D02*
X166516666Y-81113628D01*
X166516666Y-81113628D02*
X166135714Y-81113628D01*
X167040476Y-80589819D02*
X167659523Y-80589819D01*
X167659523Y-80589819D02*
X167326190Y-80970771D01*
X167326190Y-80970771D02*
X167469047Y-80970771D01*
X167469047Y-80970771D02*
X167564285Y-81018390D01*
X167564285Y-81018390D02*
X167611904Y-81066009D01*
X167611904Y-81066009D02*
X167659523Y-81161247D01*
X167659523Y-81161247D02*
X167659523Y-81399342D01*
X167659523Y-81399342D02*
X167611904Y-81494580D01*
X167611904Y-81494580D02*
X167564285Y-81542200D01*
X167564285Y-81542200D02*
X167469047Y-81589819D01*
X167469047Y-81589819D02*
X167183333Y-81589819D01*
X167183333Y-81589819D02*
X167088095Y-81542200D01*
X167088095Y-81542200D02*
X167040476Y-81494580D01*
X167992857Y-80589819D02*
X168611904Y-80589819D01*
X168611904Y-80589819D02*
X168278571Y-80970771D01*
X168278571Y-80970771D02*
X168421428Y-80970771D01*
X168421428Y-80970771D02*
X168516666Y-81018390D01*
X168516666Y-81018390D02*
X168564285Y-81066009D01*
X168564285Y-81066009D02*
X168611904Y-81161247D01*
X168611904Y-81161247D02*
X168611904Y-81399342D01*
X168611904Y-81399342D02*
X168564285Y-81494580D01*
X168564285Y-81494580D02*
X168516666Y-81542200D01*
X168516666Y-81542200D02*
X168421428Y-81589819D01*
X168421428Y-81589819D02*
X168135714Y-81589819D01*
X168135714Y-81589819D02*
X168040476Y-81542200D01*
X168040476Y-81542200D02*
X167992857Y-81494580D01*
X165484905Y-93443819D02*
X165484905Y-94253342D01*
X165484905Y-94253342D02*
X165532524Y-94348580D01*
X165532524Y-94348580D02*
X165580143Y-94396200D01*
X165580143Y-94396200D02*
X165675381Y-94443819D01*
X165675381Y-94443819D02*
X165865857Y-94443819D01*
X165865857Y-94443819D02*
X165961095Y-94396200D01*
X165961095Y-94396200D02*
X166008714Y-94348580D01*
X166008714Y-94348580D02*
X166056333Y-94253342D01*
X166056333Y-94253342D02*
X166056333Y-93443819D01*
X166484905Y-93539057D02*
X166532524Y-93491438D01*
X166532524Y-93491438D02*
X166627762Y-93443819D01*
X166627762Y-93443819D02*
X166865857Y-93443819D01*
X166865857Y-93443819D02*
X166961095Y-93491438D01*
X166961095Y-93491438D02*
X167008714Y-93539057D01*
X167008714Y-93539057D02*
X167056333Y-93634295D01*
X167056333Y-93634295D02*
X167056333Y-93729533D01*
X167056333Y-93729533D02*
X167008714Y-93872390D01*
X167008714Y-93872390D02*
X166437286Y-94443819D01*
X166437286Y-94443819D02*
X167056333Y-94443819D01*
X167389667Y-93443819D02*
X168008714Y-93443819D01*
X168008714Y-93443819D02*
X167675381Y-93824771D01*
X167675381Y-93824771D02*
X167818238Y-93824771D01*
X167818238Y-93824771D02*
X167913476Y-93872390D01*
X167913476Y-93872390D02*
X167961095Y-93920009D01*
X167961095Y-93920009D02*
X168008714Y-94015247D01*
X168008714Y-94015247D02*
X168008714Y-94253342D01*
X168008714Y-94253342D02*
X167961095Y-94348580D01*
X167961095Y-94348580D02*
X167913476Y-94396200D01*
X167913476Y-94396200D02*
X167818238Y-94443819D01*
X167818238Y-94443819D02*
X167532524Y-94443819D01*
X167532524Y-94443819D02*
X167437286Y-94396200D01*
X167437286Y-94396200D02*
X167389667Y-94348580D01*
X126779819Y-71163333D02*
X127494104Y-71163333D01*
X127494104Y-71163333D02*
X127636961Y-71210952D01*
X127636961Y-71210952D02*
X127732200Y-71306190D01*
X127732200Y-71306190D02*
X127779819Y-71449047D01*
X127779819Y-71449047D02*
X127779819Y-71544285D01*
X126779819Y-70210952D02*
X126779819Y-70687142D01*
X126779819Y-70687142D02*
X127256009Y-70734761D01*
X127256009Y-70734761D02*
X127208390Y-70687142D01*
X127208390Y-70687142D02*
X127160771Y-70591904D01*
X127160771Y-70591904D02*
X127160771Y-70353809D01*
X127160771Y-70353809D02*
X127208390Y-70258571D01*
X127208390Y-70258571D02*
X127256009Y-70210952D01*
X127256009Y-70210952D02*
X127351247Y-70163333D01*
X127351247Y-70163333D02*
X127589342Y-70163333D01*
X127589342Y-70163333D02*
X127684580Y-70210952D01*
X127684580Y-70210952D02*
X127732200Y-70258571D01*
X127732200Y-70258571D02*
X127779819Y-70353809D01*
X127779819Y-70353809D02*
X127779819Y-70591904D01*
X127779819Y-70591904D02*
X127732200Y-70687142D01*
X127732200Y-70687142D02*
X127684580Y-70734761D01*
X182580819Y-72242857D02*
X182104628Y-72576190D01*
X182580819Y-72814285D02*
X181580819Y-72814285D01*
X181580819Y-72814285D02*
X181580819Y-72433333D01*
X181580819Y-72433333D02*
X181628438Y-72338095D01*
X181628438Y-72338095D02*
X181676057Y-72290476D01*
X181676057Y-72290476D02*
X181771295Y-72242857D01*
X181771295Y-72242857D02*
X181914152Y-72242857D01*
X181914152Y-72242857D02*
X182009390Y-72290476D01*
X182009390Y-72290476D02*
X182057009Y-72338095D01*
X182057009Y-72338095D02*
X182104628Y-72433333D01*
X182104628Y-72433333D02*
X182104628Y-72814285D01*
X181914152Y-71385714D02*
X182580819Y-71385714D01*
X181533200Y-71623809D02*
X182247485Y-71861904D01*
X182247485Y-71861904D02*
X182247485Y-71242857D01*
X181580819Y-70957142D02*
X181580819Y-70290476D01*
X181580819Y-70290476D02*
X182580819Y-70719047D01*
X147287905Y-91594819D02*
X147287905Y-90594819D01*
X147287905Y-90594819D02*
X147526000Y-90594819D01*
X147526000Y-90594819D02*
X147668857Y-90642438D01*
X147668857Y-90642438D02*
X147764095Y-90737676D01*
X147764095Y-90737676D02*
X147811714Y-90832914D01*
X147811714Y-90832914D02*
X147859333Y-91023390D01*
X147859333Y-91023390D02*
X147859333Y-91166247D01*
X147859333Y-91166247D02*
X147811714Y-91356723D01*
X147811714Y-91356723D02*
X147764095Y-91451961D01*
X147764095Y-91451961D02*
X147668857Y-91547200D01*
X147668857Y-91547200D02*
X147526000Y-91594819D01*
X147526000Y-91594819D02*
X147287905Y-91594819D01*
X148240286Y-90690057D02*
X148287905Y-90642438D01*
X148287905Y-90642438D02*
X148383143Y-90594819D01*
X148383143Y-90594819D02*
X148621238Y-90594819D01*
X148621238Y-90594819D02*
X148716476Y-90642438D01*
X148716476Y-90642438D02*
X148764095Y-90690057D01*
X148764095Y-90690057D02*
X148811714Y-90785295D01*
X148811714Y-90785295D02*
X148811714Y-90880533D01*
X148811714Y-90880533D02*
X148764095Y-91023390D01*
X148764095Y-91023390D02*
X148192667Y-91594819D01*
X148192667Y-91594819D02*
X148811714Y-91594819D01*
D12*
X168150500Y-87123242D02*
X168150500Y-87597758D01*
X169195500Y-87123242D02*
X169195500Y-87597758D01*
X146786000Y-79277258D02*
X146786000Y-78802742D01*
X147831000Y-79277258D02*
X147831000Y-78802742D01*
X143819000Y-85528580D02*
X143819000Y-85247420D01*
X144839000Y-85528580D02*
X144839000Y-85247420D01*
X178985000Y-78802742D02*
X178985000Y-79277258D01*
X180030000Y-78802742D02*
X180030000Y-79277258D01*
X183062000Y-100101000D02*
X182412000Y-100101000D01*
X183062000Y-100101000D02*
X183712000Y-100101000D01*
X183062000Y-103221000D02*
X182412000Y-103221000D01*
X183062000Y-103221000D02*
X183712000Y-103221000D01*
X184464500Y-103501000D02*
X183984500Y-103501000D01*
X184224500Y-103171000D01*
X184464500Y-103501000D01*
G36*
X184464500Y-103501000D02*
G01*
X183984500Y-103501000D01*
X184224500Y-103171000D01*
X184464500Y-103501000D01*
G37*
X159558000Y-75531258D02*
X159558000Y-75056742D01*
X160603000Y-75531258D02*
X160603000Y-75056742D01*
X165255500Y-99005258D02*
X165255500Y-98530742D01*
X166300500Y-99005258D02*
X166300500Y-98530742D01*
X162293500Y-67969000D02*
X162293500Y-74389000D01*
X162293500Y-74389000D02*
X162563500Y-74389000D01*
X169193500Y-67969000D02*
X169193500Y-74389000D01*
X169193500Y-74389000D02*
X168923500Y-74389000D01*
X162603500Y-76119000D02*
X162133500Y-76459000D01*
X162133500Y-75779000D01*
X162603500Y-76119000D01*
G36*
X162603500Y-76119000D02*
G01*
X162133500Y-76459000D01*
X162133500Y-75779000D01*
X162603500Y-76119000D01*
G37*
X205717258Y-77676500D02*
X205242742Y-77676500D01*
X205717258Y-78721500D02*
X205242742Y-78721500D01*
X158356258Y-53022500D02*
X157881742Y-53022500D01*
X158356258Y-54067500D02*
X157881742Y-54067500D01*
X168278500Y-78742867D02*
X168278500Y-79217383D01*
X169323500Y-78742867D02*
X169323500Y-79217383D01*
X192297258Y-90359500D02*
X191822742Y-90359500D01*
X192297258Y-91404500D02*
X191822742Y-91404500D01*
X210564000Y-75531258D02*
X210564000Y-75056742D01*
X211609000Y-75531258D02*
X211609000Y-75056742D01*
X168175500Y-99005258D02*
X168175500Y-98530742D01*
X169220500Y-99005258D02*
X169220500Y-98530742D01*
X142260500Y-67969000D02*
X142260500Y-74389000D01*
X142260500Y-74389000D02*
X142530500Y-74389000D01*
X149160500Y-67969000D02*
X149160500Y-74389000D01*
X149160500Y-74389000D02*
X148890500Y-74389000D01*
X142570500Y-76119000D02*
X142100500Y-76459000D01*
X142100500Y-75779000D01*
X142570500Y-76119000D01*
G36*
X142570500Y-76119000D02*
G01*
X142100500Y-76459000D01*
X142100500Y-75779000D01*
X142570500Y-76119000D01*
G37*
X156927500Y-78802742D02*
X156927500Y-79277258D01*
X157972500Y-78802742D02*
X157972500Y-79277258D01*
X190365500Y-71837258D02*
X190365500Y-71362742D01*
X191410500Y-71837258D02*
X191410500Y-71362742D01*
X220180500Y-72048383D02*
X220180500Y-71573867D01*
X221225500Y-72048383D02*
X221225500Y-71573867D01*
X178437500Y-100266258D02*
X178437500Y-99791742D01*
X179482500Y-100266258D02*
X179482500Y-99791742D01*
X186807258Y-77676500D02*
X186332742Y-77676500D01*
X186807258Y-78721500D02*
X186332742Y-78721500D01*
X150732580Y-93542000D02*
X150451420Y-93542000D01*
X150732580Y-94562000D02*
X150451420Y-94562000D01*
X171890000Y-52005000D02*
X172890000Y-51005000D01*
X171890000Y-61135000D02*
X171890000Y-52005000D01*
X172890000Y-51005000D02*
X190260000Y-51005000D01*
X190260000Y-51005000D02*
X191260000Y-52005000D01*
X191260000Y-52005000D02*
X191260000Y-61135000D01*
X191260000Y-61135000D02*
X171890000Y-61135000D01*
X165230500Y-87123242D02*
X165230500Y-87597758D01*
X166275500Y-87123242D02*
X166275500Y-87597758D01*
X193361000Y-67969000D02*
X193361000Y-74389000D01*
X193361000Y-74389000D02*
X193631000Y-74389000D01*
X200261000Y-67969000D02*
X200261000Y-74389000D01*
X200261000Y-74389000D02*
X199991000Y-74389000D01*
X193671000Y-76119000D02*
X193201000Y-76459000D01*
X193201000Y-75779000D01*
X193671000Y-76119000D01*
G36*
X193671000Y-76119000D02*
G01*
X193201000Y-76459000D01*
X193201000Y-75779000D01*
X193671000Y-76119000D01*
G37*
X196877500Y-80680000D02*
X193617500Y-80680000D01*
X196877500Y-82380000D02*
X193617500Y-82380000D01*
X196877500Y-82380000D02*
X196877500Y-80680000D01*
X186880000Y-87589000D02*
X184930000Y-87589000D01*
X186880000Y-87589000D02*
X188830000Y-87589000D01*
X186880000Y-92709000D02*
X184930000Y-92709000D01*
X186880000Y-92709000D02*
X188830000Y-92709000D01*
X189820000Y-92944000D02*
X189340000Y-92944000D01*
X189580000Y-92614000D01*
X189820000Y-92944000D01*
G36*
X189820000Y-92944000D02*
G01*
X189340000Y-92944000D01*
X189580000Y-92614000D01*
X189820000Y-92944000D01*
G37*
X159508258Y-83097500D02*
X159033742Y-83097500D01*
X159508258Y-84142500D02*
X159033742Y-84142500D01*
X145326000Y-79277258D02*
X145326000Y-78802742D01*
X146371000Y-79277258D02*
X146371000Y-78802742D01*
X142802000Y-92942000D02*
X142802000Y-94202000D01*
X142802000Y-99762000D02*
X142802000Y-98502000D01*
X146562000Y-92942000D02*
X142802000Y-92942000D01*
X146562000Y-99762000D02*
X142802000Y-99762000D01*
X148082000Y-99992000D02*
X147602000Y-99992000D01*
X147842000Y-99662000D01*
X148082000Y-99992000D01*
G36*
X148082000Y-99992000D02*
G01*
X147602000Y-99992000D01*
X147842000Y-99662000D01*
X148082000Y-99992000D01*
G37*
D13*
X152202000Y-99931000D02*
X152202000Y-96240946D01*
X152202000Y-99931000D02*
X155892067Y-99931000D01*
X161532000Y-91961000D02*
X157841933Y-91961000D01*
X161532000Y-91961000D02*
X161532000Y-95661054D01*
D14*
X153237000Y-97271000D02*
G75*
G02*
X152887000Y-97271000I-175000J0D01*
G01*
X152887000Y-97271000D02*
G75*
G02*
X153237000Y-97271000I175000J0D01*
G01*
D12*
X145809000Y-59876420D02*
X145809000Y-60157580D01*
X146829000Y-59876420D02*
X146829000Y-60157580D01*
X155466000Y-78802742D02*
X155466000Y-79277258D01*
X156511000Y-78802742D02*
X156511000Y-79277258D01*
X189767258Y-77676500D02*
X189292742Y-77676500D01*
X189767258Y-78721500D02*
X189292742Y-78721500D01*
X166690500Y-87123242D02*
X166690500Y-87597758D01*
X167735500Y-87123242D02*
X167735500Y-87597758D01*
X200581000Y-71837258D02*
X200581000Y-71362742D01*
X201626000Y-71837258D02*
X201626000Y-71362742D01*
X149418000Y-75531258D02*
X149418000Y-75056742D01*
X150463000Y-75531258D02*
X150463000Y-75056742D01*
X192297258Y-88899500D02*
X191822742Y-88899500D01*
X192297258Y-89944500D02*
X191822742Y-89944500D01*
X190303000Y-75531258D02*
X190303000Y-75056742D01*
X191348000Y-75531258D02*
X191348000Y-75056742D01*
X194911258Y-97117500D02*
X194436742Y-97117500D01*
X194911258Y-98162500D02*
X194436742Y-98162500D01*
X163770500Y-87123242D02*
X163770500Y-87597758D01*
X164815500Y-87123242D02*
X164815500Y-87597758D01*
X172955000Y-67969000D02*
X172955000Y-74389000D01*
X172955000Y-74389000D02*
X173225000Y-74389000D01*
X179855000Y-67969000D02*
X179855000Y-74389000D01*
X179855000Y-74389000D02*
X179585000Y-74389000D01*
X173265000Y-76119000D02*
X172795000Y-76459000D01*
X172795000Y-75779000D01*
X173265000Y-76119000D01*
G36*
X173265000Y-76119000D02*
G01*
X172795000Y-76459000D01*
X172795000Y-75779000D01*
X173265000Y-76119000D01*
G37*
X205186742Y-95307500D02*
X205661258Y-95307500D01*
X205186742Y-96352500D02*
X205661258Y-96352500D01*
X149332000Y-97645080D02*
X149332000Y-97363920D01*
X150352000Y-97645080D02*
X150352000Y-97363920D01*
X180112500Y-75531258D02*
X180112500Y-75056742D01*
X181157500Y-75531258D02*
X181157500Y-75056742D01*
X159620500Y-71837258D02*
X159620500Y-71362742D01*
X160665500Y-71837258D02*
X160665500Y-71362742D01*
X186677000Y-93044000D02*
X184727000Y-93044000D01*
X186677000Y-93044000D02*
X188627000Y-93044000D01*
X186677000Y-98164000D02*
X184727000Y-98164000D01*
X186677000Y-98164000D02*
X188627000Y-98164000D01*
X189617000Y-98399000D02*
X189137000Y-98399000D01*
X189377000Y-98069000D01*
X189617000Y-98399000D01*
G36*
X189617000Y-98399000D02*
G01*
X189137000Y-98399000D01*
X189377000Y-98069000D01*
X189617000Y-98399000D01*
G37*
X159519000Y-87401000D02*
X159519000Y-89101000D01*
X159519000Y-87401000D02*
X162779000Y-87401000D01*
X159519000Y-89101000D02*
X162779000Y-89101000D01*
X208677258Y-77676500D02*
X208202742Y-77676500D01*
X208677258Y-78721500D02*
X208202742Y-78721500D01*
X145279000Y-85528580D02*
X145279000Y-85247420D01*
X146299000Y-85528580D02*
X146299000Y-85247420D01*
X192857500Y-82580000D02*
X192857500Y-84280000D01*
X192857500Y-82580000D02*
X196117500Y-82580000D01*
X192857500Y-84280000D02*
X196117500Y-84280000D01*
X212960500Y-68180125D02*
X212960500Y-74600125D01*
X212960500Y-74600125D02*
X213230500Y-74600125D01*
X219860500Y-68180125D02*
X219860500Y-74600125D01*
X219860500Y-74600125D02*
X219590500Y-74600125D01*
X213270500Y-76330125D02*
X212800500Y-76670125D01*
X212800500Y-75990125D01*
X213270500Y-76330125D01*
G36*
X213270500Y-76330125D02*
G01*
X212800500Y-76670125D01*
X212800500Y-75990125D01*
X213270500Y-76330125D01*
G37*
X212840000Y-53440000D02*
X212840000Y-57940000D01*
X215340000Y-59190000D02*
X216840000Y-59190000D01*
X216840000Y-52190000D02*
X215340000Y-52190000D01*
X219340000Y-57940000D02*
X219340000Y-53440000D01*
X152985258Y-80868500D02*
X152510742Y-80868500D01*
X152985258Y-81913500D02*
X152510742Y-81913500D01*
X179889500Y-102248742D02*
X179889500Y-102723258D01*
X180934500Y-102248742D02*
X180934500Y-102723258D01*
D10*
X154496500Y-82953000D02*
X150346500Y-82953000D01*
X154496500Y-88103000D02*
X150346500Y-88103000D01*
D12*
X155161500Y-88358000D02*
X154681500Y-88358000D01*
X154921500Y-88028000D01*
X155161500Y-88358000D01*
G36*
X155161500Y-88358000D02*
G01*
X154681500Y-88358000D01*
X154921500Y-88028000D01*
X155161500Y-88358000D01*
G37*
X184087500Y-79770000D02*
X181887500Y-79770000D01*
X184087500Y-79770000D02*
X186287500Y-79770000D01*
X184087500Y-85240000D02*
X181887500Y-85240000D01*
X184087500Y-85240000D02*
X186287500Y-85240000D01*
X188277500Y-85020000D02*
X187947500Y-84780000D01*
X188277500Y-84540000D01*
X188277500Y-85020000D01*
G36*
X188277500Y-85020000D02*
G01*
X187947500Y-84780000D01*
X188277500Y-84540000D01*
X188277500Y-85020000D01*
G37*
X149480500Y-71837258D02*
X149480500Y-71362742D01*
X150525500Y-71837258D02*
X150525500Y-71362742D01*
X177525000Y-78802742D02*
X177525000Y-79277258D01*
X178570000Y-78802742D02*
X178570000Y-79277258D01*
X160715000Y-52005000D02*
X161715000Y-51005000D01*
X160715000Y-61135000D02*
X160715000Y-52005000D01*
X161715000Y-51005000D02*
X170085000Y-51005000D01*
X170085000Y-51005000D02*
X171085000Y-52005000D01*
X171085000Y-52005000D02*
X171085000Y-61135000D01*
X171085000Y-61135000D02*
X160715000Y-61135000D01*
X152400500Y-67969000D02*
X152400500Y-74389000D01*
X152400500Y-74389000D02*
X152670500Y-74389000D01*
X159300500Y-67969000D02*
X159300500Y-74389000D01*
X159300500Y-74389000D02*
X159030500Y-74389000D01*
X152710500Y-76119000D02*
X152240500Y-76459000D01*
X152240500Y-75779000D01*
X152710500Y-76119000D01*
G36*
X152710500Y-76119000D02*
G01*
X152240500Y-76459000D01*
X152240500Y-75779000D01*
X152710500Y-76119000D01*
G37*
X159033742Y-84557500D02*
X159508258Y-84557500D01*
X159033742Y-85602500D02*
X159508258Y-85602500D01*
X128415000Y-78765000D02*
X129415000Y-77765000D01*
X128415000Y-93135000D02*
X128415000Y-78765000D01*
X129415000Y-77765000D02*
X138545000Y-77765000D01*
X129415000Y-94135000D02*
X128415000Y-93135000D01*
X138545000Y-77765000D02*
X138545000Y-94135000D01*
X138545000Y-94135000D02*
X129415000Y-94135000D01*
X200518500Y-75531258D02*
X200518500Y-75056742D01*
X201563500Y-75531258D02*
X201563500Y-75056742D01*
X220780000Y-79405000D02*
X229910000Y-79405000D01*
X220780000Y-95775000D02*
X220780000Y-79405000D01*
X229910000Y-79405000D02*
X230910000Y-80405000D01*
X229910000Y-95775000D02*
X220780000Y-95775000D01*
X230910000Y-80405000D02*
X230910000Y-94775000D01*
X230910000Y-94775000D02*
X229910000Y-95775000D01*
X165358500Y-78742867D02*
X165358500Y-79217383D01*
X166403500Y-78742867D02*
X166403500Y-79217383D01*
D13*
X136080000Y-64002000D02*
X136080000Y-60311946D01*
X136080000Y-64002000D02*
X139770067Y-64002000D01*
X145410000Y-56032000D02*
X141719933Y-56032000D01*
X145410000Y-56032000D02*
X145410000Y-59732054D01*
D14*
X137115000Y-61342000D02*
G75*
G02*
X136765000Y-61342000I-175000J0D01*
G01*
X136765000Y-61342000D02*
G75*
G02*
X137115000Y-61342000I175000J0D01*
G01*
D12*
X163539000Y-89301000D02*
X160279000Y-89301000D01*
X163539000Y-91001000D02*
X160279000Y-91001000D01*
X163539000Y-91001000D02*
X163539000Y-89301000D01*
X220118000Y-75742383D02*
X220118000Y-75267867D01*
X221163000Y-75742383D02*
X221163000Y-75267867D01*
X149706000Y-78804242D02*
X149706000Y-79278758D01*
X150751000Y-78804242D02*
X150751000Y-79278758D01*
X183145500Y-67969000D02*
X183145500Y-74389000D01*
X183145500Y-74389000D02*
X183415500Y-74389000D01*
X190045500Y-67969000D02*
X190045500Y-74389000D01*
X190045500Y-74389000D02*
X189775500Y-74389000D01*
X183455500Y-76119000D02*
X182985500Y-76459000D01*
X182985500Y-75779000D01*
X183455500Y-76119000D01*
G36*
X183455500Y-76119000D02*
G01*
X182985500Y-76459000D01*
X182985500Y-75779000D01*
X183455500Y-76119000D01*
G37*
X194911258Y-98577500D02*
X194436742Y-98577500D01*
X194911258Y-99622500D02*
X194436742Y-99622500D01*
X148246000Y-79278758D02*
X148246000Y-78804242D01*
X149291000Y-79278758D02*
X149291000Y-78804242D01*
X185189500Y-101511242D02*
X185189500Y-101985758D01*
X186234500Y-101511242D02*
X186234500Y-101985758D01*
X154691500Y-89567420D02*
X154691500Y-89848580D01*
X155711500Y-89567420D02*
X155711500Y-89848580D01*
D11*
X148795000Y-57015000D02*
X155895000Y-57015000D01*
X148795000Y-57965000D02*
X148795000Y-57015000D01*
X148795000Y-60465000D02*
X148795000Y-59565000D01*
X148795000Y-63015000D02*
X148794000Y-62065000D01*
X155895000Y-57015000D02*
X155895000Y-57965000D01*
X155895000Y-60465000D02*
X155895000Y-59565000D01*
X155895000Y-63015000D02*
X148795000Y-63015000D01*
X155895000Y-63015000D02*
X155894000Y-62065000D01*
D14*
X150920000Y-57715000D02*
G75*
G02*
X150570000Y-57715000I-175000J0D01*
G01*
X150570000Y-57715000D02*
G75*
G02*
X150920000Y-57715000I175000J0D01*
G01*
D12*
X169451000Y-75531258D02*
X169451000Y-75056742D01*
X170496000Y-75531258D02*
X170496000Y-75056742D01*
X210626500Y-71837258D02*
X210626500Y-71362742D01*
X211671500Y-71837258D02*
X211671500Y-71362742D01*
X158387500Y-78802742D02*
X158387500Y-79277258D01*
X159432500Y-78802742D02*
X159432500Y-79277258D01*
X196847258Y-77676500D02*
X196372742Y-77676500D01*
X196847258Y-78721500D02*
X196372742Y-78721500D01*
X169513500Y-71837258D02*
X169513500Y-71362742D01*
X170558500Y-71837258D02*
X170558500Y-71362742D01*
X176065000Y-78802742D02*
X176065000Y-79277258D01*
X177110000Y-78802742D02*
X177110000Y-79277258D01*
X163795500Y-99005258D02*
X163795500Y-98530742D01*
X164840500Y-99005258D02*
X164840500Y-98530742D01*
X173898500Y-100242258D02*
X173898500Y-99767742D01*
X174943500Y-100242258D02*
X174943500Y-99767742D01*
X175428000Y-94784000D02*
X175428000Y-92834000D01*
X175428000Y-94784000D02*
X175428000Y-96734000D01*
X180548000Y-94784000D02*
X180548000Y-92834000D01*
X180548000Y-94784000D02*
X180548000Y-96734000D01*
X175523000Y-97484000D02*
X175193000Y-97724000D01*
X175193000Y-97244000D01*
X175523000Y-97484000D01*
G36*
X175523000Y-97484000D02*
G01*
X175193000Y-97724000D01*
X175193000Y-97244000D01*
X175523000Y-97484000D01*
G37*
X199807258Y-77676500D02*
X199332742Y-77676500D01*
X199807258Y-78721500D02*
X199332742Y-78721500D01*
X203406500Y-67969000D02*
X203406500Y-74389000D01*
X203406500Y-74389000D02*
X203676500Y-74389000D01*
X210306500Y-67969000D02*
X210306500Y-74389000D01*
X210306500Y-74389000D02*
X210036500Y-74389000D01*
X203716500Y-76119000D02*
X203246500Y-76459000D01*
X203246500Y-75779000D01*
X203716500Y-76119000D01*
G36*
X203716500Y-76119000D02*
G01*
X203246500Y-76459000D01*
X203246500Y-75779000D01*
X203716500Y-76119000D01*
G37*
X166715500Y-99005258D02*
X166715500Y-98530742D01*
X167760500Y-99005258D02*
X167760500Y-98530742D01*
X166818500Y-78742867D02*
X166818500Y-79217383D01*
X167863500Y-78742867D02*
X167863500Y-79217383D01*
X164393000Y-93050500D02*
X164393000Y-90850500D01*
X164393000Y-93050500D02*
X164393000Y-95250500D01*
X169863000Y-93050500D02*
X169863000Y-90850500D01*
X169863000Y-93050500D02*
X169863000Y-95250500D01*
X165093000Y-97240500D02*
X164613000Y-97240500D01*
X164853000Y-96910500D01*
X165093000Y-97240500D01*
G36*
X165093000Y-97240500D02*
G01*
X164613000Y-97240500D01*
X164853000Y-96910500D01*
X165093000Y-97240500D01*
G37*
X128415000Y-66645000D02*
X129415000Y-65645000D01*
X128415000Y-75015000D02*
X128415000Y-66645000D01*
X129415000Y-65645000D02*
X138545000Y-65645000D01*
X129415000Y-76015000D02*
X128415000Y-75015000D01*
X138545000Y-65645000D02*
X138545000Y-76015000D01*
X138545000Y-76015000D02*
X129415000Y-76015000D01*
X180175000Y-71837258D02*
X180175000Y-71362742D01*
X181220000Y-71837258D02*
X181220000Y-71362742D01*
X149562000Y-88367000D02*
X149562000Y-92377000D01*
X151562000Y-88367000D02*
X149562000Y-88367000D01*
X151562000Y-88367000D02*
X151562000Y-92377000D01*
%LPC*%
D15*
X168673000Y-86535500D03*
X168673000Y-88185500D03*
D16*
X147308500Y-79865000D03*
X147308500Y-78215000D03*
D17*
X144329000Y-86163000D03*
X144329000Y-84613000D03*
D15*
X179507500Y-78215000D03*
X179507500Y-79865000D03*
D18*
X183999500Y-102611000D03*
X183999500Y-100711000D03*
X182124500Y-101661000D03*
D16*
X160080500Y-76119000D03*
X160080500Y-74469000D03*
X165778000Y-99593000D03*
X165778000Y-97943000D03*
D19*
X163463500Y-76119000D03*
D20*
X165743500Y-69819000D03*
D19*
X168023500Y-76119000D03*
D21*
X206305000Y-78199000D03*
X204655000Y-78199000D03*
X158944000Y-53545000D03*
X157294000Y-53545000D03*
D15*
X168801000Y-78155125D03*
X168801000Y-79805125D03*
D21*
X192885000Y-90882000D03*
X191235000Y-90882000D03*
D16*
X211086500Y-76119000D03*
X211086500Y-74469000D03*
X168698000Y-99593000D03*
X168698000Y-97943000D03*
D19*
X143430500Y-76119000D03*
D20*
X145710500Y-69819000D03*
D19*
X147990500Y-76119000D03*
D15*
X157450000Y-78215000D03*
X157450000Y-79865000D03*
D16*
X190888000Y-72425000D03*
X190888000Y-70775000D03*
X220703000Y-72636125D03*
X220703000Y-70986125D03*
X178960000Y-100854000D03*
X178960000Y-99204000D03*
D21*
X187395000Y-78199000D03*
X185745000Y-78199000D03*
D22*
X151367000Y-94052000D03*
X149817000Y-94052000D03*
D23*
X177735000Y-55715000D03*
X185435000Y-55715000D03*
D24*
X175575000Y-60035000D03*
D25*
X178575000Y-60035000D03*
X181575000Y-60035000D03*
X184575000Y-60035000D03*
X187575000Y-60035000D03*
X175575000Y-63035000D03*
X178575000Y-63035000D03*
X181575000Y-63035000D03*
X184575000Y-63035000D03*
X187575000Y-63035000D03*
D15*
X165753000Y-86535500D03*
X165753000Y-88185500D03*
D19*
X194531000Y-76119000D03*
D20*
X196811000Y-69819000D03*
D19*
X199091000Y-76119000D03*
D26*
X196117500Y-81530000D03*
X193617500Y-81530000D03*
D27*
X189355000Y-92054000D03*
X189355000Y-90784000D03*
X189355000Y-89514000D03*
X189355000Y-88244000D03*
X184405000Y-88244000D03*
X184405000Y-89514000D03*
X184405000Y-90784000D03*
X184405000Y-92054000D03*
D21*
X160096000Y-83620000D03*
X158446000Y-83620000D03*
D16*
X145848500Y-79865000D03*
X145848500Y-78215000D03*
D28*
X147862000Y-98652000D03*
X147862000Y-96352000D03*
D29*
X141562000Y-96352000D03*
D28*
X147862000Y-94052000D03*
D30*
X153062000Y-98746000D03*
X154332000Y-98746000D03*
X159412000Y-98746000D03*
X160682000Y-98746000D03*
X160682000Y-93146000D03*
X154332000Y-93146000D03*
X153062000Y-93146000D03*
D31*
X146319000Y-59242000D03*
X146319000Y-60792000D03*
D15*
X155988500Y-78215000D03*
X155988500Y-79865000D03*
D21*
X190355000Y-78199000D03*
X188705000Y-78199000D03*
D15*
X167213000Y-86535500D03*
X167213000Y-88185500D03*
D32*
X227369500Y-105850500D03*
X225672444Y-105147556D03*
X229066556Y-105147556D03*
X224969500Y-103450500D03*
D33*
X227369500Y-103450500D03*
D32*
X229769500Y-103450500D03*
X225672444Y-101753444D03*
X229066556Y-101753444D03*
X227369500Y-101050500D03*
D16*
X201103500Y-72425000D03*
X201103500Y-70775000D03*
X149940500Y-76119000D03*
X149940500Y-74469000D03*
D32*
X132369500Y-105850500D03*
X130672444Y-105147556D03*
X134066556Y-105147556D03*
X129969500Y-103450500D03*
D33*
X132369500Y-103450500D03*
D32*
X134769500Y-103450500D03*
X130672444Y-101753444D03*
X134066556Y-101753444D03*
X132369500Y-101050500D03*
D21*
X192885000Y-89422000D03*
X191235000Y-89422000D03*
D16*
X190825500Y-76119000D03*
X190825500Y-74469000D03*
D21*
X195499000Y-97640000D03*
X193849000Y-97640000D03*
D32*
X132369500Y-56850500D03*
X130672444Y-56147556D03*
X134066556Y-56147556D03*
X129969500Y-54450500D03*
D33*
X132369500Y-54450500D03*
D32*
X134769500Y-54450500D03*
X130672444Y-52753444D03*
X134066556Y-52753444D03*
X132369500Y-52050500D03*
D15*
X164293000Y-86535500D03*
X164293000Y-88185500D03*
D19*
X174125000Y-76119000D03*
D20*
X176405000Y-69819000D03*
D19*
X178685000Y-76119000D03*
D34*
X204599000Y-95830000D03*
X206249000Y-95830000D03*
D17*
X149842000Y-98279500D03*
X149842000Y-96729500D03*
D16*
X180635000Y-76119000D03*
X180635000Y-74469000D03*
X160143000Y-72425000D03*
X160143000Y-70775000D03*
D27*
X189152000Y-97509000D03*
X189152000Y-96239000D03*
X189152000Y-94969000D03*
X189152000Y-93699000D03*
X184202000Y-93699000D03*
X184202000Y-94969000D03*
X184202000Y-96239000D03*
X184202000Y-97509000D03*
D35*
X160279000Y-88251000D03*
X162779000Y-88251000D03*
D21*
X209265000Y-78199000D03*
X207615000Y-78199000D03*
D17*
X145789000Y-86163000D03*
X145789000Y-84613000D03*
D35*
X193617500Y-83430000D03*
X196117500Y-83430000D03*
D19*
X214130500Y-76330125D03*
D20*
X216410500Y-70030125D03*
D19*
X218690500Y-76330125D03*
D32*
X227369500Y-56850500D03*
X225672444Y-56147556D03*
X229066556Y-56147556D03*
X224969500Y-54450500D03*
D33*
X227369500Y-54450500D03*
D32*
X229769500Y-54450500D03*
X225672444Y-52753444D03*
X229066556Y-52753444D03*
X227369500Y-52050500D03*
D36*
X213840000Y-58940000D03*
X213840000Y-52440000D03*
X218340000Y-58940000D03*
X218340000Y-52440000D03*
D21*
X153573000Y-81391000D03*
X151923000Y-81391000D03*
D15*
X180412000Y-101661000D03*
X180412000Y-103311000D03*
D37*
X155201500Y-87433000D03*
X155201500Y-86163000D03*
X155201500Y-84893000D03*
X155201500Y-83623000D03*
X149641500Y-83623000D03*
X149641500Y-84893000D03*
X149641500Y-86163000D03*
X149641500Y-87433000D03*
D38*
X153024000Y-86303000D03*
X153024000Y-84753000D03*
X151819000Y-86303000D03*
X151819000Y-84753000D03*
D39*
X186950000Y-84780000D03*
X186950000Y-84130000D03*
X186950000Y-83480000D03*
X186950000Y-82830000D03*
X186950000Y-82180000D03*
X186950000Y-81530000D03*
X186950000Y-80880000D03*
X186950000Y-80230000D03*
X181225000Y-80230000D03*
X181225000Y-80880000D03*
X181225000Y-81530000D03*
X181225000Y-82180000D03*
X181225000Y-82830000D03*
X181225000Y-83480000D03*
X181225000Y-84130000D03*
X181225000Y-84780000D03*
D16*
X150003000Y-72425000D03*
X150003000Y-70775000D03*
D15*
X178047500Y-78215000D03*
X178047500Y-79865000D03*
D23*
X165900000Y-55715000D03*
D24*
X164400000Y-60035000D03*
D25*
X167400000Y-60035000D03*
X164400000Y-63035000D03*
X167400000Y-63035000D03*
D19*
X153570500Y-76119000D03*
D20*
X155850500Y-69819000D03*
D19*
X158130500Y-76119000D03*
D34*
X158446000Y-85080000D03*
X160096000Y-85080000D03*
D23*
X133125000Y-88290000D03*
X133125000Y-83590000D03*
D40*
X137445000Y-90450000D03*
D25*
X137445000Y-87450000D03*
X137445000Y-84450000D03*
X137445000Y-81450000D03*
X140445000Y-90450000D03*
X140445000Y-87450000D03*
X140445000Y-84450000D03*
X140445000Y-81450000D03*
D16*
X201041000Y-76119000D03*
X201041000Y-74469000D03*
D23*
X226200000Y-85250000D03*
X226200000Y-89950000D03*
D41*
X221880000Y-83090000D03*
D25*
X221880000Y-86090000D03*
X221880000Y-89090000D03*
X221880000Y-92090000D03*
X218880000Y-83090000D03*
X218880000Y-86090000D03*
X218880000Y-89090000D03*
X218880000Y-92090000D03*
D15*
X165881000Y-78155125D03*
X165881000Y-79805125D03*
D30*
X136940000Y-62817000D03*
X138210000Y-62817000D03*
X143290000Y-62817000D03*
X144560000Y-62817000D03*
X144560000Y-57217000D03*
X138210000Y-57217000D03*
X136940000Y-57217000D03*
D26*
X162779000Y-90151000D03*
X160279000Y-90151000D03*
D16*
X220640500Y-76330125D03*
X220640500Y-74680125D03*
D15*
X150228500Y-78216500D03*
X150228500Y-79866500D03*
D19*
X184315500Y-76119000D03*
D20*
X186595500Y-69819000D03*
D19*
X188875500Y-76119000D03*
D21*
X195499000Y-99100000D03*
X193849000Y-99100000D03*
D16*
X148768500Y-79866500D03*
X148768500Y-78216500D03*
D15*
X185712000Y-100923500D03*
X185712000Y-102573500D03*
D31*
X155201500Y-88933000D03*
X155201500Y-90483000D03*
D42*
X148670000Y-58765000D03*
X156020000Y-58765000D03*
X156020000Y-61265000D03*
X148670000Y-61265000D03*
D16*
X169973500Y-76119000D03*
X169973500Y-74469000D03*
X211149000Y-72425000D03*
X211149000Y-70775000D03*
D15*
X158910000Y-78215000D03*
X158910000Y-79865000D03*
D21*
X197435000Y-78199000D03*
X195785000Y-78199000D03*
D16*
X170036000Y-72425000D03*
X170036000Y-70775000D03*
D15*
X176587500Y-78215000D03*
X176587500Y-79865000D03*
D16*
X164318000Y-99593000D03*
X164318000Y-97943000D03*
X174421000Y-100830000D03*
X174421000Y-99180000D03*
D43*
X176083000Y-97259000D03*
X177353000Y-97259000D03*
X178623000Y-97259000D03*
X179893000Y-97259000D03*
X179893000Y-92309000D03*
X178623000Y-92309000D03*
X177353000Y-92309000D03*
X176083000Y-92309000D03*
D21*
X200395000Y-78199000D03*
X198745000Y-78199000D03*
D19*
X204576500Y-76119000D03*
D20*
X206856500Y-69819000D03*
D19*
X209136500Y-76119000D03*
D16*
X167238000Y-99593000D03*
X167238000Y-97943000D03*
D15*
X167341000Y-78155125D03*
X167341000Y-79805125D03*
D44*
X164853000Y-95913000D03*
X165503000Y-95913000D03*
X166153000Y-95913000D03*
X166803000Y-95913000D03*
X167453000Y-95913000D03*
X168103000Y-95913000D03*
X168753000Y-95913000D03*
X169403000Y-95913000D03*
X169403000Y-90188000D03*
X168753000Y-90188000D03*
X168103000Y-90188000D03*
X167453000Y-90188000D03*
X166803000Y-90188000D03*
X166153000Y-90188000D03*
X165503000Y-90188000D03*
X164853000Y-90188000D03*
D23*
X133125000Y-70830000D03*
D40*
X137445000Y-72330000D03*
D25*
X137445000Y-69330000D03*
X140445000Y-72330000D03*
X140445000Y-69330000D03*
D16*
X180697500Y-72425000D03*
X180697500Y-70775000D03*
D45*
X150562000Y-89077000D03*
X150562000Y-92377000D03*
D46*
X225005000Y-73770000D03*
D47*
X226275000Y-73770000D03*
X225005000Y-72500000D03*
X226275000Y-72500000D03*
X225005000Y-71230000D03*
X226275000Y-71230000D03*
X225005000Y-69960000D03*
X226275000Y-69960000D03*
X225005000Y-68690000D03*
X226275000Y-68690000D03*
D48*
X153694000Y-56070000D03*
D49*
X156234000Y-56070000D03*
X158774000Y-56070000D03*
D50*
X147040379Y-88928000D03*
D51*
X144540379Y-88928000D03*
D48*
X196400000Y-56075000D03*
D49*
X198940000Y-56075000D03*
X201480000Y-56075000D03*
X204020000Y-56075000D03*
X206560000Y-56075000D03*
X209100000Y-56075000D03*
%LPD*%
M02*
