%TF.GenerationSoftware,KiCad,Pcbnew,8.0.1*%
%TF.CreationDate,2024-06-07T19:27:23+03:00*%
%TF.ProjectId,impeller18,696d7065-6c6c-4657-9231-382e6b696361,rev?*%
%TF.SameCoordinates,Original*%
%TF.FileFunction,Drillmap*%
%TF.FilePolarity,Positive*%
%FSLAX45Y45*%
G04 Gerber Fmt 4.5, Leading zero omitted, Abs format (unit mm)*
G04 Created by KiCad (PCBNEW 8.0.1) date 2024-06-07 19:27:23*
%MOMM*%
%LPD*%
G01*
G04 APERTURE LIST*
%ADD10C,0.050000*%
%ADD11C,0.200000*%
%ADD12C,0.100000*%
%ADD13C,0.240000*%
%ADD14C,0.241000*%
%ADD15C,0.300000*%
%ADD16C,0.350000*%
G04 APERTURE END LIST*
D10*
X29767600Y-5910600D02*
X29767600Y-10860600D01*
X30067600Y-11160600D02*
X31477800Y-11160600D01*
X29187600Y-5330600D02*
G75*
G02*
X29767600Y-5910600I0J-580000D01*
G01*
X31477800Y-11160600D02*
G75*
G02*
X32017600Y-11700400I0J-539800D01*
G01*
X8410300Y-20480800D02*
X8410300Y-5870400D01*
X32017600Y-11700400D02*
X32017600Y-20480800D01*
X31477800Y-21020600D02*
X8950100Y-21020600D01*
X32017600Y-20480800D02*
G75*
G02*
X31477800Y-21020600I-539800J0D01*
G01*
X8410300Y-5870400D02*
G75*
G02*
X8950100Y-5330600I539800J0D01*
G01*
X30067600Y-11160600D02*
G75*
G02*
X29767600Y-10860600I0J300000D01*
G01*
X8950100Y-21020600D02*
G75*
G02*
X8410300Y-20480800I0J539800D01*
G01*
X8950100Y-5330600D02*
X29187600Y-5330600D01*
D11*
D12*
X18055600Y-20533300D02*
X18105600Y-20583300D01*
X18105600Y-20533300D02*
X18055600Y-20583300D01*
X18455600Y-20533300D02*
X18505600Y-20583300D01*
X18505600Y-20533300D02*
X18455600Y-20583300D01*
X16745800Y-20617700D02*
G75*
G02*
X16645800Y-20617700I-50000J0D01*
G01*
X16645800Y-20617700D02*
G75*
G02*
X16745800Y-20617700I50000J0D01*
G01*
X17545800Y-20617700D02*
G75*
G02*
X17445800Y-20617700I-50000J0D01*
G01*
X17445800Y-20617700D02*
G75*
G02*
X17545800Y-20617700I50000J0D01*
G01*
D13*
X27767500Y-13535300D02*
X27767500Y-13775300D01*
X27647500Y-13655300D02*
X27887500Y-13655300D01*
X27767500Y-15735300D02*
X27767500Y-15975300D01*
X27647500Y-15855300D02*
X27887500Y-15855300D01*
D14*
X21117707Y-5689807D02*
X21117707Y-5519393D01*
X20947293Y-5519393D01*
X20947293Y-5689807D01*
X21117707Y-5689807D01*
X21117707Y-6419807D02*
X21117707Y-6249393D01*
X20947293Y-6249393D01*
X20947293Y-6419807D01*
X21117707Y-6419807D01*
D15*
X8919900Y-7192600D02*
X9069900Y-7042600D01*
X8919900Y-6892600D01*
X8769900Y-7042600D01*
X8919900Y-7192600D01*
X8919900Y-7962600D02*
X9069900Y-7812600D01*
X8919900Y-7662600D01*
X8769900Y-7812600D01*
X8919900Y-7962600D01*
X8919900Y-9293600D02*
X9069900Y-9143600D01*
X8919900Y-8993600D01*
X8769900Y-9143600D01*
X8919900Y-9293600D01*
X8919900Y-10708600D02*
X9069900Y-10558600D01*
X8919900Y-10408600D01*
X8769900Y-10558600D01*
X8919900Y-10708600D01*
X8919900Y-11974600D02*
X9069900Y-11824600D01*
X8919900Y-11674600D01*
X8769900Y-11824600D01*
X8919900Y-11974600D01*
X8919900Y-13090600D02*
X9069900Y-12940600D01*
X8919900Y-12790600D01*
X8769900Y-12940600D01*
X8919900Y-13090600D01*
X8919900Y-14270600D02*
X9069900Y-14120600D01*
X8919900Y-13970600D01*
X8769900Y-14120600D01*
X8919900Y-14270600D01*
X8919900Y-16240600D02*
X9069900Y-16090600D01*
X8919900Y-15940600D01*
X8769900Y-16090600D01*
X8919900Y-16240600D01*
X8919900Y-17486600D02*
X9069900Y-17336600D01*
X8919900Y-17186600D01*
X8769900Y-17336600D01*
X8919900Y-17486600D01*
X8919900Y-19456600D02*
X9069900Y-19306600D01*
X8919900Y-19156600D01*
X8769900Y-19306600D01*
X8919900Y-19456600D01*
X10122900Y-20661600D02*
X10272900Y-20511600D01*
X10122900Y-20361600D01*
X9972900Y-20511600D01*
X10122900Y-20661600D01*
X10124900Y-5990600D02*
X10274900Y-5840600D01*
X10124900Y-5690600D01*
X9974900Y-5840600D01*
X10124900Y-5990600D01*
X10594900Y-5990600D02*
X10744900Y-5840600D01*
X10594900Y-5690600D01*
X10444900Y-5840600D01*
X10594900Y-5990600D01*
X12092900Y-20661600D02*
X12242900Y-20511600D01*
X12092900Y-20361600D01*
X11942900Y-20511600D01*
X12092900Y-20661600D01*
X12942600Y-5990600D02*
X13092600Y-5840600D01*
X12942600Y-5690600D01*
X12792600Y-5840600D01*
X12942600Y-5990600D01*
X14912600Y-5990600D02*
X15062600Y-5840600D01*
X14912600Y-5690600D01*
X14762600Y-5840600D01*
X14912600Y-5990600D01*
X16158600Y-5990600D02*
X16308600Y-5840600D01*
X16158600Y-5690600D01*
X16008600Y-5840600D01*
X16158600Y-5990600D01*
X18128600Y-5990600D02*
X18278600Y-5840600D01*
X18128600Y-5690600D01*
X17978600Y-5840600D01*
X18128600Y-5990600D01*
X19458600Y-5990600D02*
X19608600Y-5840600D01*
X19458600Y-5690600D01*
X19308600Y-5840600D01*
X19458600Y-5990600D01*
X24359700Y-20663100D02*
X24509700Y-20513100D01*
X24359700Y-20363100D01*
X24209700Y-20513100D01*
X24359700Y-20663100D01*
X26947150Y-20663100D02*
X27097150Y-20513100D01*
X26947150Y-20363100D01*
X26797150Y-20513100D01*
X26947150Y-20663100D01*
X28636300Y-20663100D02*
X28786300Y-20513100D01*
X28636300Y-20363100D01*
X28486300Y-20513100D01*
X28636300Y-20663100D01*
X30306300Y-20663100D02*
X30456300Y-20513100D01*
X30306300Y-20363100D01*
X30156300Y-20513100D01*
X30306300Y-20663100D01*
X31509800Y-17129800D02*
X31659800Y-16979800D01*
X31509800Y-16829800D01*
X31359800Y-16979800D01*
X31509800Y-17129800D01*
X31510100Y-13021900D02*
X31660100Y-12871900D01*
X31510100Y-12721900D01*
X31360100Y-12871900D01*
X31510100Y-13021900D01*
X31510100Y-14691900D02*
X31660100Y-14541900D01*
X31510100Y-14391900D01*
X31360100Y-14541900D01*
X31510100Y-14691900D01*
D16*
X24132500Y-13480300D02*
X24482500Y-13830300D01*
X24482500Y-13480300D02*
X24132500Y-13830300D01*
X24482500Y-13655300D02*
G75*
G02*
X24132500Y-13655300I-175000J0D01*
G01*
X24132500Y-13655300D02*
G75*
G02*
X24482500Y-13655300I175000J0D01*
G01*
X24132500Y-15680300D02*
X24482500Y-16030300D01*
X24482500Y-15680300D02*
X24132500Y-16030300D01*
X24482500Y-15855300D02*
G75*
G02*
X24132500Y-15855300I-175000J0D01*
G01*
X24132500Y-15855300D02*
G75*
G02*
X24482500Y-15855300I175000J0D01*
G01*
X27182500Y-11880300D02*
X27532500Y-12230300D01*
X27532500Y-11880300D02*
X27182500Y-12230300D01*
X27532500Y-12055300D02*
G75*
G02*
X27182500Y-12055300I-175000J0D01*
G01*
X27182500Y-12055300D02*
G75*
G02*
X27532500Y-12055300I175000J0D01*
G01*
X27182500Y-14080300D02*
X27532500Y-14430300D01*
X27532500Y-14080300D02*
X27182500Y-14430300D01*
X27532500Y-14255300D02*
G75*
G02*
X27182500Y-14255300I-175000J0D01*
G01*
X27182500Y-14255300D02*
G75*
G02*
X27532500Y-14255300I175000J0D01*
G01*
D11*
X8668577Y-21334584D02*
X8668577Y-21134584D01*
X8668577Y-21134584D02*
X8716196Y-21134584D01*
X8716196Y-21134584D02*
X8744767Y-21144108D01*
X8744767Y-21144108D02*
X8763815Y-21163155D01*
X8763815Y-21163155D02*
X8773339Y-21182203D01*
X8773339Y-21182203D02*
X8782862Y-21220298D01*
X8782862Y-21220298D02*
X8782862Y-21248870D01*
X8782862Y-21248870D02*
X8773339Y-21286965D01*
X8773339Y-21286965D02*
X8763815Y-21306012D01*
X8763815Y-21306012D02*
X8744767Y-21325060D01*
X8744767Y-21325060D02*
X8716196Y-21334584D01*
X8716196Y-21334584D02*
X8668577Y-21334584D01*
X8868577Y-21334584D02*
X8868577Y-21201251D01*
X8868577Y-21239346D02*
X8878100Y-21220298D01*
X8878100Y-21220298D02*
X8887624Y-21210774D01*
X8887624Y-21210774D02*
X8906672Y-21201251D01*
X8906672Y-21201251D02*
X8925720Y-21201251D01*
X8992386Y-21334584D02*
X8992386Y-21201251D01*
X8992386Y-21134584D02*
X8982862Y-21144108D01*
X8982862Y-21144108D02*
X8992386Y-21153632D01*
X8992386Y-21153632D02*
X9001910Y-21144108D01*
X9001910Y-21144108D02*
X8992386Y-21134584D01*
X8992386Y-21134584D02*
X8992386Y-21153632D01*
X9116196Y-21334584D02*
X9097148Y-21325060D01*
X9097148Y-21325060D02*
X9087624Y-21306012D01*
X9087624Y-21306012D02*
X9087624Y-21134584D01*
X9220958Y-21334584D02*
X9201910Y-21325060D01*
X9201910Y-21325060D02*
X9192386Y-21306012D01*
X9192386Y-21306012D02*
X9192386Y-21134584D01*
X9449529Y-21334584D02*
X9449529Y-21134584D01*
X9449529Y-21134584D02*
X9516196Y-21277441D01*
X9516196Y-21277441D02*
X9582862Y-21134584D01*
X9582862Y-21134584D02*
X9582862Y-21334584D01*
X9763815Y-21334584D02*
X9763815Y-21229822D01*
X9763815Y-21229822D02*
X9754291Y-21210774D01*
X9754291Y-21210774D02*
X9735243Y-21201251D01*
X9735243Y-21201251D02*
X9697148Y-21201251D01*
X9697148Y-21201251D02*
X9678100Y-21210774D01*
X9763815Y-21325060D02*
X9744767Y-21334584D01*
X9744767Y-21334584D02*
X9697148Y-21334584D01*
X9697148Y-21334584D02*
X9678100Y-21325060D01*
X9678100Y-21325060D02*
X9668577Y-21306012D01*
X9668577Y-21306012D02*
X9668577Y-21286965D01*
X9668577Y-21286965D02*
X9678100Y-21267917D01*
X9678100Y-21267917D02*
X9697148Y-21258393D01*
X9697148Y-21258393D02*
X9744767Y-21258393D01*
X9744767Y-21258393D02*
X9763815Y-21248870D01*
X9859053Y-21201251D02*
X9859053Y-21401251D01*
X9859053Y-21210774D02*
X9878100Y-21201251D01*
X9878100Y-21201251D02*
X9916196Y-21201251D01*
X9916196Y-21201251D02*
X9935243Y-21210774D01*
X9935243Y-21210774D02*
X9944767Y-21220298D01*
X9944767Y-21220298D02*
X9954291Y-21239346D01*
X9954291Y-21239346D02*
X9954291Y-21296489D01*
X9954291Y-21296489D02*
X9944767Y-21315536D01*
X9944767Y-21315536D02*
X9935243Y-21325060D01*
X9935243Y-21325060D02*
X9916196Y-21334584D01*
X9916196Y-21334584D02*
X9878100Y-21334584D01*
X9878100Y-21334584D02*
X9859053Y-21325060D01*
X10040005Y-21315536D02*
X10049529Y-21325060D01*
X10049529Y-21325060D02*
X10040005Y-21334584D01*
X10040005Y-21334584D02*
X10030481Y-21325060D01*
X10030481Y-21325060D02*
X10040005Y-21315536D01*
X10040005Y-21315536D02*
X10040005Y-21334584D01*
X10040005Y-21210774D02*
X10049529Y-21220298D01*
X10049529Y-21220298D02*
X10040005Y-21229822D01*
X10040005Y-21229822D02*
X10030481Y-21220298D01*
X10030481Y-21220298D02*
X10040005Y-21210774D01*
X10040005Y-21210774D02*
X10040005Y-21229822D01*
D12*
X8357800Y-21638100D02*
X8407800Y-21688100D01*
X8407800Y-21638100D02*
X8357800Y-21688100D01*
D11*
X8706672Y-21554584D02*
X8725720Y-21554584D01*
X8725720Y-21554584D02*
X8744767Y-21564108D01*
X8744767Y-21564108D02*
X8754291Y-21573632D01*
X8754291Y-21573632D02*
X8763815Y-21592679D01*
X8763815Y-21592679D02*
X8773339Y-21630774D01*
X8773339Y-21630774D02*
X8773339Y-21678393D01*
X8773339Y-21678393D02*
X8763815Y-21716489D01*
X8763815Y-21716489D02*
X8754291Y-21735536D01*
X8754291Y-21735536D02*
X8744767Y-21745060D01*
X8744767Y-21745060D02*
X8725720Y-21754584D01*
X8725720Y-21754584D02*
X8706672Y-21754584D01*
X8706672Y-21754584D02*
X8687624Y-21745060D01*
X8687624Y-21745060D02*
X8678100Y-21735536D01*
X8678100Y-21735536D02*
X8668577Y-21716489D01*
X8668577Y-21716489D02*
X8659053Y-21678393D01*
X8659053Y-21678393D02*
X8659053Y-21630774D01*
X8659053Y-21630774D02*
X8668577Y-21592679D01*
X8668577Y-21592679D02*
X8678100Y-21573632D01*
X8678100Y-21573632D02*
X8687624Y-21564108D01*
X8687624Y-21564108D02*
X8706672Y-21554584D01*
X8859053Y-21735536D02*
X8868577Y-21745060D01*
X8868577Y-21745060D02*
X8859053Y-21754584D01*
X8859053Y-21754584D02*
X8849529Y-21745060D01*
X8849529Y-21745060D02*
X8859053Y-21735536D01*
X8859053Y-21735536D02*
X8859053Y-21754584D01*
X9049529Y-21554584D02*
X8954291Y-21554584D01*
X8954291Y-21554584D02*
X8944767Y-21649822D01*
X8944767Y-21649822D02*
X8954291Y-21640298D01*
X8954291Y-21640298D02*
X8973339Y-21630774D01*
X8973339Y-21630774D02*
X9020958Y-21630774D01*
X9020958Y-21630774D02*
X9040005Y-21640298D01*
X9040005Y-21640298D02*
X9049529Y-21649822D01*
X9049529Y-21649822D02*
X9059053Y-21668870D01*
X9059053Y-21668870D02*
X9059053Y-21716489D01*
X9059053Y-21716489D02*
X9049529Y-21735536D01*
X9049529Y-21735536D02*
X9040005Y-21745060D01*
X9040005Y-21745060D02*
X9020958Y-21754584D01*
X9020958Y-21754584D02*
X8973339Y-21754584D01*
X8973339Y-21754584D02*
X8954291Y-21745060D01*
X8954291Y-21745060D02*
X8944767Y-21735536D01*
X9182862Y-21554584D02*
X9201910Y-21554584D01*
X9201910Y-21554584D02*
X9220958Y-21564108D01*
X9220958Y-21564108D02*
X9230481Y-21573632D01*
X9230481Y-21573632D02*
X9240005Y-21592679D01*
X9240005Y-21592679D02*
X9249529Y-21630774D01*
X9249529Y-21630774D02*
X9249529Y-21678393D01*
X9249529Y-21678393D02*
X9240005Y-21716489D01*
X9240005Y-21716489D02*
X9230481Y-21735536D01*
X9230481Y-21735536D02*
X9220958Y-21745060D01*
X9220958Y-21745060D02*
X9201910Y-21754584D01*
X9201910Y-21754584D02*
X9182862Y-21754584D01*
X9182862Y-21754584D02*
X9163815Y-21745060D01*
X9163815Y-21745060D02*
X9154291Y-21735536D01*
X9154291Y-21735536D02*
X9144767Y-21716489D01*
X9144767Y-21716489D02*
X9135243Y-21678393D01*
X9135243Y-21678393D02*
X9135243Y-21630774D01*
X9135243Y-21630774D02*
X9144767Y-21592679D01*
X9144767Y-21592679D02*
X9154291Y-21573632D01*
X9154291Y-21573632D02*
X9163815Y-21564108D01*
X9163815Y-21564108D02*
X9182862Y-21554584D01*
X9373339Y-21554584D02*
X9392386Y-21554584D01*
X9392386Y-21554584D02*
X9411434Y-21564108D01*
X9411434Y-21564108D02*
X9420958Y-21573632D01*
X9420958Y-21573632D02*
X9430481Y-21592679D01*
X9430481Y-21592679D02*
X9440005Y-21630774D01*
X9440005Y-21630774D02*
X9440005Y-21678393D01*
X9440005Y-21678393D02*
X9430481Y-21716489D01*
X9430481Y-21716489D02*
X9420958Y-21735536D01*
X9420958Y-21735536D02*
X9411434Y-21745060D01*
X9411434Y-21745060D02*
X9392386Y-21754584D01*
X9392386Y-21754584D02*
X9373339Y-21754584D01*
X9373339Y-21754584D02*
X9354291Y-21745060D01*
X9354291Y-21745060D02*
X9344767Y-21735536D01*
X9344767Y-21735536D02*
X9335243Y-21716489D01*
X9335243Y-21716489D02*
X9325720Y-21678393D01*
X9325720Y-21678393D02*
X9325720Y-21630774D01*
X9325720Y-21630774D02*
X9335243Y-21592679D01*
X9335243Y-21592679D02*
X9344767Y-21573632D01*
X9344767Y-21573632D02*
X9354291Y-21564108D01*
X9354291Y-21564108D02*
X9373339Y-21554584D01*
X9525720Y-21754584D02*
X9525720Y-21621251D01*
X9525720Y-21640298D02*
X9535243Y-21630774D01*
X9535243Y-21630774D02*
X9554291Y-21621251D01*
X9554291Y-21621251D02*
X9582862Y-21621251D01*
X9582862Y-21621251D02*
X9601910Y-21630774D01*
X9601910Y-21630774D02*
X9611434Y-21649822D01*
X9611434Y-21649822D02*
X9611434Y-21754584D01*
X9611434Y-21649822D02*
X9620958Y-21630774D01*
X9620958Y-21630774D02*
X9640005Y-21621251D01*
X9640005Y-21621251D02*
X9668577Y-21621251D01*
X9668577Y-21621251D02*
X9687624Y-21630774D01*
X9687624Y-21630774D02*
X9697148Y-21649822D01*
X9697148Y-21649822D02*
X9697148Y-21754584D01*
X9792386Y-21754584D02*
X9792386Y-21621251D01*
X9792386Y-21640298D02*
X9801910Y-21630774D01*
X9801910Y-21630774D02*
X9820958Y-21621251D01*
X9820958Y-21621251D02*
X9849529Y-21621251D01*
X9849529Y-21621251D02*
X9868577Y-21630774D01*
X9868577Y-21630774D02*
X9878101Y-21649822D01*
X9878101Y-21649822D02*
X9878101Y-21754584D01*
X9878101Y-21649822D02*
X9887624Y-21630774D01*
X9887624Y-21630774D02*
X9906672Y-21621251D01*
X9906672Y-21621251D02*
X9935243Y-21621251D01*
X9935243Y-21621251D02*
X9954291Y-21630774D01*
X9954291Y-21630774D02*
X9963815Y-21649822D01*
X9963815Y-21649822D02*
X9963815Y-21754584D01*
X10354291Y-21545060D02*
X10182863Y-21802203D01*
X10611434Y-21554584D02*
X10630482Y-21554584D01*
X10630482Y-21554584D02*
X10649529Y-21564108D01*
X10649529Y-21564108D02*
X10659053Y-21573632D01*
X10659053Y-21573632D02*
X10668577Y-21592679D01*
X10668577Y-21592679D02*
X10678101Y-21630774D01*
X10678101Y-21630774D02*
X10678101Y-21678393D01*
X10678101Y-21678393D02*
X10668577Y-21716489D01*
X10668577Y-21716489D02*
X10659053Y-21735536D01*
X10659053Y-21735536D02*
X10649529Y-21745060D01*
X10649529Y-21745060D02*
X10630482Y-21754584D01*
X10630482Y-21754584D02*
X10611434Y-21754584D01*
X10611434Y-21754584D02*
X10592386Y-21745060D01*
X10592386Y-21745060D02*
X10582863Y-21735536D01*
X10582863Y-21735536D02*
X10573339Y-21716489D01*
X10573339Y-21716489D02*
X10563815Y-21678393D01*
X10563815Y-21678393D02*
X10563815Y-21630774D01*
X10563815Y-21630774D02*
X10573339Y-21592679D01*
X10573339Y-21592679D02*
X10582863Y-21573632D01*
X10582863Y-21573632D02*
X10592386Y-21564108D01*
X10592386Y-21564108D02*
X10611434Y-21554584D01*
X10763815Y-21735536D02*
X10773339Y-21745060D01*
X10773339Y-21745060D02*
X10763815Y-21754584D01*
X10763815Y-21754584D02*
X10754291Y-21745060D01*
X10754291Y-21745060D02*
X10763815Y-21735536D01*
X10763815Y-21735536D02*
X10763815Y-21754584D01*
X10897148Y-21554584D02*
X10916196Y-21554584D01*
X10916196Y-21554584D02*
X10935244Y-21564108D01*
X10935244Y-21564108D02*
X10944767Y-21573632D01*
X10944767Y-21573632D02*
X10954291Y-21592679D01*
X10954291Y-21592679D02*
X10963815Y-21630774D01*
X10963815Y-21630774D02*
X10963815Y-21678393D01*
X10963815Y-21678393D02*
X10954291Y-21716489D01*
X10954291Y-21716489D02*
X10944767Y-21735536D01*
X10944767Y-21735536D02*
X10935244Y-21745060D01*
X10935244Y-21745060D02*
X10916196Y-21754584D01*
X10916196Y-21754584D02*
X10897148Y-21754584D01*
X10897148Y-21754584D02*
X10878101Y-21745060D01*
X10878101Y-21745060D02*
X10868577Y-21735536D01*
X10868577Y-21735536D02*
X10859053Y-21716489D01*
X10859053Y-21716489D02*
X10849529Y-21678393D01*
X10849529Y-21678393D02*
X10849529Y-21630774D01*
X10849529Y-21630774D02*
X10859053Y-21592679D01*
X10859053Y-21592679D02*
X10868577Y-21573632D01*
X10868577Y-21573632D02*
X10878101Y-21564108D01*
X10878101Y-21564108D02*
X10897148Y-21554584D01*
X11154291Y-21754584D02*
X11040005Y-21754584D01*
X11097148Y-21754584D02*
X11097148Y-21554584D01*
X11097148Y-21554584D02*
X11078101Y-21583155D01*
X11078101Y-21583155D02*
X11059053Y-21602203D01*
X11059053Y-21602203D02*
X11040005Y-21611727D01*
X11249529Y-21754584D02*
X11287624Y-21754584D01*
X11287624Y-21754584D02*
X11306672Y-21745060D01*
X11306672Y-21745060D02*
X11316196Y-21735536D01*
X11316196Y-21735536D02*
X11335243Y-21706965D01*
X11335243Y-21706965D02*
X11344767Y-21668870D01*
X11344767Y-21668870D02*
X11344767Y-21592679D01*
X11344767Y-21592679D02*
X11335243Y-21573632D01*
X11335243Y-21573632D02*
X11325720Y-21564108D01*
X11325720Y-21564108D02*
X11306672Y-21554584D01*
X11306672Y-21554584D02*
X11268577Y-21554584D01*
X11268577Y-21554584D02*
X11249529Y-21564108D01*
X11249529Y-21564108D02*
X11240005Y-21573632D01*
X11240005Y-21573632D02*
X11230482Y-21592679D01*
X11230482Y-21592679D02*
X11230482Y-21640298D01*
X11230482Y-21640298D02*
X11240005Y-21659346D01*
X11240005Y-21659346D02*
X11249529Y-21668870D01*
X11249529Y-21668870D02*
X11268577Y-21678393D01*
X11268577Y-21678393D02*
X11306672Y-21678393D01*
X11306672Y-21678393D02*
X11325720Y-21668870D01*
X11325720Y-21668870D02*
X11335243Y-21659346D01*
X11335243Y-21659346D02*
X11344767Y-21640298D01*
X11411434Y-21554584D02*
X11544767Y-21554584D01*
X11544767Y-21554584D02*
X11459053Y-21754584D01*
X11611434Y-21554584D02*
X11611434Y-21592679D01*
X11687624Y-21554584D02*
X11687624Y-21592679D01*
X11982863Y-21830774D02*
X11973339Y-21821251D01*
X11973339Y-21821251D02*
X11954291Y-21792679D01*
X11954291Y-21792679D02*
X11944767Y-21773632D01*
X11944767Y-21773632D02*
X11935244Y-21745060D01*
X11935244Y-21745060D02*
X11925720Y-21697441D01*
X11925720Y-21697441D02*
X11925720Y-21659346D01*
X11925720Y-21659346D02*
X11935244Y-21611727D01*
X11935244Y-21611727D02*
X11944767Y-21583155D01*
X11944767Y-21583155D02*
X11954291Y-21564108D01*
X11954291Y-21564108D02*
X11973339Y-21535536D01*
X11973339Y-21535536D02*
X11982863Y-21526012D01*
X12049529Y-21573632D02*
X12059053Y-21564108D01*
X12059053Y-21564108D02*
X12078101Y-21554584D01*
X12078101Y-21554584D02*
X12125720Y-21554584D01*
X12125720Y-21554584D02*
X12144767Y-21564108D01*
X12144767Y-21564108D02*
X12154291Y-21573632D01*
X12154291Y-21573632D02*
X12163815Y-21592679D01*
X12163815Y-21592679D02*
X12163815Y-21611727D01*
X12163815Y-21611727D02*
X12154291Y-21640298D01*
X12154291Y-21640298D02*
X12040005Y-21754584D01*
X12040005Y-21754584D02*
X12163815Y-21754584D01*
X12401910Y-21754584D02*
X12401910Y-21554584D01*
X12487625Y-21754584D02*
X12487625Y-21649822D01*
X12487625Y-21649822D02*
X12478101Y-21630774D01*
X12478101Y-21630774D02*
X12459053Y-21621251D01*
X12459053Y-21621251D02*
X12430482Y-21621251D01*
X12430482Y-21621251D02*
X12411434Y-21630774D01*
X12411434Y-21630774D02*
X12401910Y-21640298D01*
X12611434Y-21754584D02*
X12592386Y-21745060D01*
X12592386Y-21745060D02*
X12582863Y-21735536D01*
X12582863Y-21735536D02*
X12573339Y-21716489D01*
X12573339Y-21716489D02*
X12573339Y-21659346D01*
X12573339Y-21659346D02*
X12582863Y-21640298D01*
X12582863Y-21640298D02*
X12592386Y-21630774D01*
X12592386Y-21630774D02*
X12611434Y-21621251D01*
X12611434Y-21621251D02*
X12640006Y-21621251D01*
X12640006Y-21621251D02*
X12659053Y-21630774D01*
X12659053Y-21630774D02*
X12668577Y-21640298D01*
X12668577Y-21640298D02*
X12678101Y-21659346D01*
X12678101Y-21659346D02*
X12678101Y-21716489D01*
X12678101Y-21716489D02*
X12668577Y-21735536D01*
X12668577Y-21735536D02*
X12659053Y-21745060D01*
X12659053Y-21745060D02*
X12640006Y-21754584D01*
X12640006Y-21754584D02*
X12611434Y-21754584D01*
X12792386Y-21754584D02*
X12773339Y-21745060D01*
X12773339Y-21745060D02*
X12763815Y-21726012D01*
X12763815Y-21726012D02*
X12763815Y-21554584D01*
X12944767Y-21745060D02*
X12925720Y-21754584D01*
X12925720Y-21754584D02*
X12887625Y-21754584D01*
X12887625Y-21754584D02*
X12868577Y-21745060D01*
X12868577Y-21745060D02*
X12859053Y-21726012D01*
X12859053Y-21726012D02*
X12859053Y-21649822D01*
X12859053Y-21649822D02*
X12868577Y-21630774D01*
X12868577Y-21630774D02*
X12887625Y-21621251D01*
X12887625Y-21621251D02*
X12925720Y-21621251D01*
X12925720Y-21621251D02*
X12944767Y-21630774D01*
X12944767Y-21630774D02*
X12954291Y-21649822D01*
X12954291Y-21649822D02*
X12954291Y-21668870D01*
X12954291Y-21668870D02*
X12859053Y-21687917D01*
X13030482Y-21745060D02*
X13049529Y-21754584D01*
X13049529Y-21754584D02*
X13087625Y-21754584D01*
X13087625Y-21754584D02*
X13106672Y-21745060D01*
X13106672Y-21745060D02*
X13116196Y-21726012D01*
X13116196Y-21726012D02*
X13116196Y-21716489D01*
X13116196Y-21716489D02*
X13106672Y-21697441D01*
X13106672Y-21697441D02*
X13087625Y-21687917D01*
X13087625Y-21687917D02*
X13059053Y-21687917D01*
X13059053Y-21687917D02*
X13040006Y-21678393D01*
X13040006Y-21678393D02*
X13030482Y-21659346D01*
X13030482Y-21659346D02*
X13030482Y-21649822D01*
X13030482Y-21649822D02*
X13040006Y-21630774D01*
X13040006Y-21630774D02*
X13059053Y-21621251D01*
X13059053Y-21621251D02*
X13087625Y-21621251D01*
X13087625Y-21621251D02*
X13106672Y-21630774D01*
X13182863Y-21830774D02*
X13192387Y-21821251D01*
X13192387Y-21821251D02*
X13211434Y-21792679D01*
X13211434Y-21792679D02*
X13220958Y-21773632D01*
X13220958Y-21773632D02*
X13230482Y-21745060D01*
X13230482Y-21745060D02*
X13240006Y-21697441D01*
X13240006Y-21697441D02*
X13240006Y-21659346D01*
X13240006Y-21659346D02*
X13230482Y-21611727D01*
X13230482Y-21611727D02*
X13220958Y-21583155D01*
X13220958Y-21583155D02*
X13211434Y-21564108D01*
X13211434Y-21564108D02*
X13192387Y-21535536D01*
X13192387Y-21535536D02*
X13182863Y-21526012D01*
X13544768Y-21830774D02*
X13535244Y-21821251D01*
X13535244Y-21821251D02*
X13516196Y-21792679D01*
X13516196Y-21792679D02*
X13506672Y-21773632D01*
X13506672Y-21773632D02*
X13497148Y-21745060D01*
X13497148Y-21745060D02*
X13487625Y-21697441D01*
X13487625Y-21697441D02*
X13487625Y-21659346D01*
X13487625Y-21659346D02*
X13497148Y-21611727D01*
X13497148Y-21611727D02*
X13506672Y-21583155D01*
X13506672Y-21583155D02*
X13516196Y-21564108D01*
X13516196Y-21564108D02*
X13535244Y-21535536D01*
X13535244Y-21535536D02*
X13544768Y-21526012D01*
X13620958Y-21621251D02*
X13620958Y-21754584D01*
X13620958Y-21640298D02*
X13630482Y-21630774D01*
X13630482Y-21630774D02*
X13649529Y-21621251D01*
X13649529Y-21621251D02*
X13678101Y-21621251D01*
X13678101Y-21621251D02*
X13697148Y-21630774D01*
X13697148Y-21630774D02*
X13706672Y-21649822D01*
X13706672Y-21649822D02*
X13706672Y-21754584D01*
X13830482Y-21754584D02*
X13811434Y-21745060D01*
X13811434Y-21745060D02*
X13801910Y-21735536D01*
X13801910Y-21735536D02*
X13792387Y-21716489D01*
X13792387Y-21716489D02*
X13792387Y-21659346D01*
X13792387Y-21659346D02*
X13801910Y-21640298D01*
X13801910Y-21640298D02*
X13811434Y-21630774D01*
X13811434Y-21630774D02*
X13830482Y-21621251D01*
X13830482Y-21621251D02*
X13859053Y-21621251D01*
X13859053Y-21621251D02*
X13878101Y-21630774D01*
X13878101Y-21630774D02*
X13887625Y-21640298D01*
X13887625Y-21640298D02*
X13897148Y-21659346D01*
X13897148Y-21659346D02*
X13897148Y-21716489D01*
X13897148Y-21716489D02*
X13887625Y-21735536D01*
X13887625Y-21735536D02*
X13878101Y-21745060D01*
X13878101Y-21745060D02*
X13859053Y-21754584D01*
X13859053Y-21754584D02*
X13830482Y-21754584D01*
X13954291Y-21621251D02*
X14030482Y-21621251D01*
X13982863Y-21554584D02*
X13982863Y-21726012D01*
X13982863Y-21726012D02*
X13992387Y-21745060D01*
X13992387Y-21745060D02*
X14011434Y-21754584D01*
X14011434Y-21754584D02*
X14030482Y-21754584D01*
X14249529Y-21621251D02*
X14249529Y-21821251D01*
X14249529Y-21630774D02*
X14268577Y-21621251D01*
X14268577Y-21621251D02*
X14306672Y-21621251D01*
X14306672Y-21621251D02*
X14325720Y-21630774D01*
X14325720Y-21630774D02*
X14335244Y-21640298D01*
X14335244Y-21640298D02*
X14344768Y-21659346D01*
X14344768Y-21659346D02*
X14344768Y-21716489D01*
X14344768Y-21716489D02*
X14335244Y-21735536D01*
X14335244Y-21735536D02*
X14325720Y-21745060D01*
X14325720Y-21745060D02*
X14306672Y-21754584D01*
X14306672Y-21754584D02*
X14268577Y-21754584D01*
X14268577Y-21754584D02*
X14249529Y-21745060D01*
X14459053Y-21754584D02*
X14440006Y-21745060D01*
X14440006Y-21745060D02*
X14430482Y-21726012D01*
X14430482Y-21726012D02*
X14430482Y-21554584D01*
X14620958Y-21754584D02*
X14620958Y-21649822D01*
X14620958Y-21649822D02*
X14611434Y-21630774D01*
X14611434Y-21630774D02*
X14592387Y-21621251D01*
X14592387Y-21621251D02*
X14554291Y-21621251D01*
X14554291Y-21621251D02*
X14535244Y-21630774D01*
X14620958Y-21745060D02*
X14601910Y-21754584D01*
X14601910Y-21754584D02*
X14554291Y-21754584D01*
X14554291Y-21754584D02*
X14535244Y-21745060D01*
X14535244Y-21745060D02*
X14525720Y-21726012D01*
X14525720Y-21726012D02*
X14525720Y-21706965D01*
X14525720Y-21706965D02*
X14535244Y-21687917D01*
X14535244Y-21687917D02*
X14554291Y-21678393D01*
X14554291Y-21678393D02*
X14601910Y-21678393D01*
X14601910Y-21678393D02*
X14620958Y-21668870D01*
X14687625Y-21621251D02*
X14763815Y-21621251D01*
X14716196Y-21554584D02*
X14716196Y-21726012D01*
X14716196Y-21726012D02*
X14725720Y-21745060D01*
X14725720Y-21745060D02*
X14744768Y-21754584D01*
X14744768Y-21754584D02*
X14763815Y-21754584D01*
X14906672Y-21745060D02*
X14887625Y-21754584D01*
X14887625Y-21754584D02*
X14849529Y-21754584D01*
X14849529Y-21754584D02*
X14830482Y-21745060D01*
X14830482Y-21745060D02*
X14820958Y-21726012D01*
X14820958Y-21726012D02*
X14820958Y-21649822D01*
X14820958Y-21649822D02*
X14830482Y-21630774D01*
X14830482Y-21630774D02*
X14849529Y-21621251D01*
X14849529Y-21621251D02*
X14887625Y-21621251D01*
X14887625Y-21621251D02*
X14906672Y-21630774D01*
X14906672Y-21630774D02*
X14916196Y-21649822D01*
X14916196Y-21649822D02*
X14916196Y-21668870D01*
X14916196Y-21668870D02*
X14820958Y-21687917D01*
X15087625Y-21754584D02*
X15087625Y-21554584D01*
X15087625Y-21745060D02*
X15068577Y-21754584D01*
X15068577Y-21754584D02*
X15030482Y-21754584D01*
X15030482Y-21754584D02*
X15011434Y-21745060D01*
X15011434Y-21745060D02*
X15001910Y-21735536D01*
X15001910Y-21735536D02*
X14992387Y-21716489D01*
X14992387Y-21716489D02*
X14992387Y-21659346D01*
X14992387Y-21659346D02*
X15001910Y-21640298D01*
X15001910Y-21640298D02*
X15011434Y-21630774D01*
X15011434Y-21630774D02*
X15030482Y-21621251D01*
X15030482Y-21621251D02*
X15068577Y-21621251D01*
X15068577Y-21621251D02*
X15087625Y-21630774D01*
X15163815Y-21830774D02*
X15173339Y-21821251D01*
X15173339Y-21821251D02*
X15192387Y-21792679D01*
X15192387Y-21792679D02*
X15201910Y-21773632D01*
X15201910Y-21773632D02*
X15211434Y-21745060D01*
X15211434Y-21745060D02*
X15220958Y-21697441D01*
X15220958Y-21697441D02*
X15220958Y-21659346D01*
X15220958Y-21659346D02*
X15211434Y-21611727D01*
X15211434Y-21611727D02*
X15201910Y-21583155D01*
X15201910Y-21583155D02*
X15192387Y-21564108D01*
X15192387Y-21564108D02*
X15173339Y-21535536D01*
X15173339Y-21535536D02*
X15163815Y-21526012D01*
D12*
X8407800Y-21927100D02*
G75*
G02*
X8307800Y-21927100I-50000J0D01*
G01*
X8307800Y-21927100D02*
G75*
G02*
X8407800Y-21927100I50000J0D01*
G01*
D11*
X8773339Y-22018584D02*
X8659053Y-22018584D01*
X8716196Y-22018584D02*
X8716196Y-21818584D01*
X8716196Y-21818584D02*
X8697148Y-21847155D01*
X8697148Y-21847155D02*
X8678100Y-21866203D01*
X8678100Y-21866203D02*
X8659053Y-21875727D01*
X8859053Y-21999536D02*
X8868577Y-22009060D01*
X8868577Y-22009060D02*
X8859053Y-22018584D01*
X8859053Y-22018584D02*
X8849529Y-22009060D01*
X8849529Y-22009060D02*
X8859053Y-21999536D01*
X8859053Y-21999536D02*
X8859053Y-22018584D01*
X8992386Y-21818584D02*
X9011434Y-21818584D01*
X9011434Y-21818584D02*
X9030481Y-21828108D01*
X9030481Y-21828108D02*
X9040005Y-21837632D01*
X9040005Y-21837632D02*
X9049529Y-21856679D01*
X9049529Y-21856679D02*
X9059053Y-21894774D01*
X9059053Y-21894774D02*
X9059053Y-21942393D01*
X9059053Y-21942393D02*
X9049529Y-21980489D01*
X9049529Y-21980489D02*
X9040005Y-21999536D01*
X9040005Y-21999536D02*
X9030481Y-22009060D01*
X9030481Y-22009060D02*
X9011434Y-22018584D01*
X9011434Y-22018584D02*
X8992386Y-22018584D01*
X8992386Y-22018584D02*
X8973339Y-22009060D01*
X8973339Y-22009060D02*
X8963815Y-21999536D01*
X8963815Y-21999536D02*
X8954291Y-21980489D01*
X8954291Y-21980489D02*
X8944767Y-21942393D01*
X8944767Y-21942393D02*
X8944767Y-21894774D01*
X8944767Y-21894774D02*
X8954291Y-21856679D01*
X8954291Y-21856679D02*
X8963815Y-21837632D01*
X8963815Y-21837632D02*
X8973339Y-21828108D01*
X8973339Y-21828108D02*
X8992386Y-21818584D01*
X9182862Y-21818584D02*
X9201910Y-21818584D01*
X9201910Y-21818584D02*
X9220958Y-21828108D01*
X9220958Y-21828108D02*
X9230481Y-21837632D01*
X9230481Y-21837632D02*
X9240005Y-21856679D01*
X9240005Y-21856679D02*
X9249529Y-21894774D01*
X9249529Y-21894774D02*
X9249529Y-21942393D01*
X9249529Y-21942393D02*
X9240005Y-21980489D01*
X9240005Y-21980489D02*
X9230481Y-21999536D01*
X9230481Y-21999536D02*
X9220958Y-22009060D01*
X9220958Y-22009060D02*
X9201910Y-22018584D01*
X9201910Y-22018584D02*
X9182862Y-22018584D01*
X9182862Y-22018584D02*
X9163815Y-22009060D01*
X9163815Y-22009060D02*
X9154291Y-21999536D01*
X9154291Y-21999536D02*
X9144767Y-21980489D01*
X9144767Y-21980489D02*
X9135243Y-21942393D01*
X9135243Y-21942393D02*
X9135243Y-21894774D01*
X9135243Y-21894774D02*
X9144767Y-21856679D01*
X9144767Y-21856679D02*
X9154291Y-21837632D01*
X9154291Y-21837632D02*
X9163815Y-21828108D01*
X9163815Y-21828108D02*
X9182862Y-21818584D01*
X9373339Y-21818584D02*
X9392386Y-21818584D01*
X9392386Y-21818584D02*
X9411434Y-21828108D01*
X9411434Y-21828108D02*
X9420958Y-21837632D01*
X9420958Y-21837632D02*
X9430481Y-21856679D01*
X9430481Y-21856679D02*
X9440005Y-21894774D01*
X9440005Y-21894774D02*
X9440005Y-21942393D01*
X9440005Y-21942393D02*
X9430481Y-21980489D01*
X9430481Y-21980489D02*
X9420958Y-21999536D01*
X9420958Y-21999536D02*
X9411434Y-22009060D01*
X9411434Y-22009060D02*
X9392386Y-22018584D01*
X9392386Y-22018584D02*
X9373339Y-22018584D01*
X9373339Y-22018584D02*
X9354291Y-22009060D01*
X9354291Y-22009060D02*
X9344767Y-21999536D01*
X9344767Y-21999536D02*
X9335243Y-21980489D01*
X9335243Y-21980489D02*
X9325720Y-21942393D01*
X9325720Y-21942393D02*
X9325720Y-21894774D01*
X9325720Y-21894774D02*
X9335243Y-21856679D01*
X9335243Y-21856679D02*
X9344767Y-21837632D01*
X9344767Y-21837632D02*
X9354291Y-21828108D01*
X9354291Y-21828108D02*
X9373339Y-21818584D01*
X9525720Y-22018584D02*
X9525720Y-21885251D01*
X9525720Y-21904298D02*
X9535243Y-21894774D01*
X9535243Y-21894774D02*
X9554291Y-21885251D01*
X9554291Y-21885251D02*
X9582862Y-21885251D01*
X9582862Y-21885251D02*
X9601910Y-21894774D01*
X9601910Y-21894774D02*
X9611434Y-21913822D01*
X9611434Y-21913822D02*
X9611434Y-22018584D01*
X9611434Y-21913822D02*
X9620958Y-21894774D01*
X9620958Y-21894774D02*
X9640005Y-21885251D01*
X9640005Y-21885251D02*
X9668577Y-21885251D01*
X9668577Y-21885251D02*
X9687624Y-21894774D01*
X9687624Y-21894774D02*
X9697148Y-21913822D01*
X9697148Y-21913822D02*
X9697148Y-22018584D01*
X9792386Y-22018584D02*
X9792386Y-21885251D01*
X9792386Y-21904298D02*
X9801910Y-21894774D01*
X9801910Y-21894774D02*
X9820958Y-21885251D01*
X9820958Y-21885251D02*
X9849529Y-21885251D01*
X9849529Y-21885251D02*
X9868577Y-21894774D01*
X9868577Y-21894774D02*
X9878101Y-21913822D01*
X9878101Y-21913822D02*
X9878101Y-22018584D01*
X9878101Y-21913822D02*
X9887624Y-21894774D01*
X9887624Y-21894774D02*
X9906672Y-21885251D01*
X9906672Y-21885251D02*
X9935243Y-21885251D01*
X9935243Y-21885251D02*
X9954291Y-21894774D01*
X9954291Y-21894774D02*
X9963815Y-21913822D01*
X9963815Y-21913822D02*
X9963815Y-22018584D01*
X10354291Y-21809060D02*
X10182863Y-22066203D01*
X10611434Y-21818584D02*
X10630482Y-21818584D01*
X10630482Y-21818584D02*
X10649529Y-21828108D01*
X10649529Y-21828108D02*
X10659053Y-21837632D01*
X10659053Y-21837632D02*
X10668577Y-21856679D01*
X10668577Y-21856679D02*
X10678101Y-21894774D01*
X10678101Y-21894774D02*
X10678101Y-21942393D01*
X10678101Y-21942393D02*
X10668577Y-21980489D01*
X10668577Y-21980489D02*
X10659053Y-21999536D01*
X10659053Y-21999536D02*
X10649529Y-22009060D01*
X10649529Y-22009060D02*
X10630482Y-22018584D01*
X10630482Y-22018584D02*
X10611434Y-22018584D01*
X10611434Y-22018584D02*
X10592386Y-22009060D01*
X10592386Y-22009060D02*
X10582863Y-21999536D01*
X10582863Y-21999536D02*
X10573339Y-21980489D01*
X10573339Y-21980489D02*
X10563815Y-21942393D01*
X10563815Y-21942393D02*
X10563815Y-21894774D01*
X10563815Y-21894774D02*
X10573339Y-21856679D01*
X10573339Y-21856679D02*
X10582863Y-21837632D01*
X10582863Y-21837632D02*
X10592386Y-21828108D01*
X10592386Y-21828108D02*
X10611434Y-21818584D01*
X10763815Y-21999536D02*
X10773339Y-22009060D01*
X10773339Y-22009060D02*
X10763815Y-22018584D01*
X10763815Y-22018584D02*
X10754291Y-22009060D01*
X10754291Y-22009060D02*
X10763815Y-21999536D01*
X10763815Y-21999536D02*
X10763815Y-22018584D01*
X10897148Y-21818584D02*
X10916196Y-21818584D01*
X10916196Y-21818584D02*
X10935244Y-21828108D01*
X10935244Y-21828108D02*
X10944767Y-21837632D01*
X10944767Y-21837632D02*
X10954291Y-21856679D01*
X10954291Y-21856679D02*
X10963815Y-21894774D01*
X10963815Y-21894774D02*
X10963815Y-21942393D01*
X10963815Y-21942393D02*
X10954291Y-21980489D01*
X10954291Y-21980489D02*
X10944767Y-21999536D01*
X10944767Y-21999536D02*
X10935244Y-22009060D01*
X10935244Y-22009060D02*
X10916196Y-22018584D01*
X10916196Y-22018584D02*
X10897148Y-22018584D01*
X10897148Y-22018584D02*
X10878101Y-22009060D01*
X10878101Y-22009060D02*
X10868577Y-21999536D01*
X10868577Y-21999536D02*
X10859053Y-21980489D01*
X10859053Y-21980489D02*
X10849529Y-21942393D01*
X10849529Y-21942393D02*
X10849529Y-21894774D01*
X10849529Y-21894774D02*
X10859053Y-21856679D01*
X10859053Y-21856679D02*
X10868577Y-21837632D01*
X10868577Y-21837632D02*
X10878101Y-21828108D01*
X10878101Y-21828108D02*
X10897148Y-21818584D01*
X11030482Y-21818584D02*
X11154291Y-21818584D01*
X11154291Y-21818584D02*
X11087624Y-21894774D01*
X11087624Y-21894774D02*
X11116196Y-21894774D01*
X11116196Y-21894774D02*
X11135244Y-21904298D01*
X11135244Y-21904298D02*
X11144767Y-21913822D01*
X11144767Y-21913822D02*
X11154291Y-21932870D01*
X11154291Y-21932870D02*
X11154291Y-21980489D01*
X11154291Y-21980489D02*
X11144767Y-21999536D01*
X11144767Y-21999536D02*
X11135244Y-22009060D01*
X11135244Y-22009060D02*
X11116196Y-22018584D01*
X11116196Y-22018584D02*
X11059053Y-22018584D01*
X11059053Y-22018584D02*
X11040005Y-22009060D01*
X11040005Y-22009060D02*
X11030482Y-21999536D01*
X11249529Y-22018584D02*
X11287624Y-22018584D01*
X11287624Y-22018584D02*
X11306672Y-22009060D01*
X11306672Y-22009060D02*
X11316196Y-21999536D01*
X11316196Y-21999536D02*
X11335243Y-21970965D01*
X11335243Y-21970965D02*
X11344767Y-21932870D01*
X11344767Y-21932870D02*
X11344767Y-21856679D01*
X11344767Y-21856679D02*
X11335243Y-21837632D01*
X11335243Y-21837632D02*
X11325720Y-21828108D01*
X11325720Y-21828108D02*
X11306672Y-21818584D01*
X11306672Y-21818584D02*
X11268577Y-21818584D01*
X11268577Y-21818584D02*
X11249529Y-21828108D01*
X11249529Y-21828108D02*
X11240005Y-21837632D01*
X11240005Y-21837632D02*
X11230482Y-21856679D01*
X11230482Y-21856679D02*
X11230482Y-21904298D01*
X11230482Y-21904298D02*
X11240005Y-21923346D01*
X11240005Y-21923346D02*
X11249529Y-21932870D01*
X11249529Y-21932870D02*
X11268577Y-21942393D01*
X11268577Y-21942393D02*
X11306672Y-21942393D01*
X11306672Y-21942393D02*
X11325720Y-21932870D01*
X11325720Y-21932870D02*
X11335243Y-21923346D01*
X11335243Y-21923346D02*
X11344767Y-21904298D01*
X11516196Y-21885251D02*
X11516196Y-22018584D01*
X11468577Y-21809060D02*
X11420958Y-21951917D01*
X11420958Y-21951917D02*
X11544767Y-21951917D01*
X11611434Y-21818584D02*
X11611434Y-21856679D01*
X11687624Y-21818584D02*
X11687624Y-21856679D01*
X11982863Y-22094774D02*
X11973339Y-22085251D01*
X11973339Y-22085251D02*
X11954291Y-22056679D01*
X11954291Y-22056679D02*
X11944767Y-22037632D01*
X11944767Y-22037632D02*
X11935244Y-22009060D01*
X11935244Y-22009060D02*
X11925720Y-21961441D01*
X11925720Y-21961441D02*
X11925720Y-21923346D01*
X11925720Y-21923346D02*
X11935244Y-21875727D01*
X11935244Y-21875727D02*
X11944767Y-21847155D01*
X11944767Y-21847155D02*
X11954291Y-21828108D01*
X11954291Y-21828108D02*
X11973339Y-21799536D01*
X11973339Y-21799536D02*
X11982863Y-21790012D01*
X12049529Y-21837632D02*
X12059053Y-21828108D01*
X12059053Y-21828108D02*
X12078101Y-21818584D01*
X12078101Y-21818584D02*
X12125720Y-21818584D01*
X12125720Y-21818584D02*
X12144767Y-21828108D01*
X12144767Y-21828108D02*
X12154291Y-21837632D01*
X12154291Y-21837632D02*
X12163815Y-21856679D01*
X12163815Y-21856679D02*
X12163815Y-21875727D01*
X12163815Y-21875727D02*
X12154291Y-21904298D01*
X12154291Y-21904298D02*
X12040005Y-22018584D01*
X12040005Y-22018584D02*
X12163815Y-22018584D01*
X12401910Y-22018584D02*
X12401910Y-21818584D01*
X12487625Y-22018584D02*
X12487625Y-21913822D01*
X12487625Y-21913822D02*
X12478101Y-21894774D01*
X12478101Y-21894774D02*
X12459053Y-21885251D01*
X12459053Y-21885251D02*
X12430482Y-21885251D01*
X12430482Y-21885251D02*
X12411434Y-21894774D01*
X12411434Y-21894774D02*
X12401910Y-21904298D01*
X12611434Y-22018584D02*
X12592386Y-22009060D01*
X12592386Y-22009060D02*
X12582863Y-21999536D01*
X12582863Y-21999536D02*
X12573339Y-21980489D01*
X12573339Y-21980489D02*
X12573339Y-21923346D01*
X12573339Y-21923346D02*
X12582863Y-21904298D01*
X12582863Y-21904298D02*
X12592386Y-21894774D01*
X12592386Y-21894774D02*
X12611434Y-21885251D01*
X12611434Y-21885251D02*
X12640006Y-21885251D01*
X12640006Y-21885251D02*
X12659053Y-21894774D01*
X12659053Y-21894774D02*
X12668577Y-21904298D01*
X12668577Y-21904298D02*
X12678101Y-21923346D01*
X12678101Y-21923346D02*
X12678101Y-21980489D01*
X12678101Y-21980489D02*
X12668577Y-21999536D01*
X12668577Y-21999536D02*
X12659053Y-22009060D01*
X12659053Y-22009060D02*
X12640006Y-22018584D01*
X12640006Y-22018584D02*
X12611434Y-22018584D01*
X12792386Y-22018584D02*
X12773339Y-22009060D01*
X12773339Y-22009060D02*
X12763815Y-21990012D01*
X12763815Y-21990012D02*
X12763815Y-21818584D01*
X12944767Y-22009060D02*
X12925720Y-22018584D01*
X12925720Y-22018584D02*
X12887625Y-22018584D01*
X12887625Y-22018584D02*
X12868577Y-22009060D01*
X12868577Y-22009060D02*
X12859053Y-21990012D01*
X12859053Y-21990012D02*
X12859053Y-21913822D01*
X12859053Y-21913822D02*
X12868577Y-21894774D01*
X12868577Y-21894774D02*
X12887625Y-21885251D01*
X12887625Y-21885251D02*
X12925720Y-21885251D01*
X12925720Y-21885251D02*
X12944767Y-21894774D01*
X12944767Y-21894774D02*
X12954291Y-21913822D01*
X12954291Y-21913822D02*
X12954291Y-21932870D01*
X12954291Y-21932870D02*
X12859053Y-21951917D01*
X13030482Y-22009060D02*
X13049529Y-22018584D01*
X13049529Y-22018584D02*
X13087625Y-22018584D01*
X13087625Y-22018584D02*
X13106672Y-22009060D01*
X13106672Y-22009060D02*
X13116196Y-21990012D01*
X13116196Y-21990012D02*
X13116196Y-21980489D01*
X13116196Y-21980489D02*
X13106672Y-21961441D01*
X13106672Y-21961441D02*
X13087625Y-21951917D01*
X13087625Y-21951917D02*
X13059053Y-21951917D01*
X13059053Y-21951917D02*
X13040006Y-21942393D01*
X13040006Y-21942393D02*
X13030482Y-21923346D01*
X13030482Y-21923346D02*
X13030482Y-21913822D01*
X13030482Y-21913822D02*
X13040006Y-21894774D01*
X13040006Y-21894774D02*
X13059053Y-21885251D01*
X13059053Y-21885251D02*
X13087625Y-21885251D01*
X13087625Y-21885251D02*
X13106672Y-21894774D01*
X13182863Y-22094774D02*
X13192387Y-22085251D01*
X13192387Y-22085251D02*
X13211434Y-22056679D01*
X13211434Y-22056679D02*
X13220958Y-22037632D01*
X13220958Y-22037632D02*
X13230482Y-22009060D01*
X13230482Y-22009060D02*
X13240006Y-21961441D01*
X13240006Y-21961441D02*
X13240006Y-21923346D01*
X13240006Y-21923346D02*
X13230482Y-21875727D01*
X13230482Y-21875727D02*
X13220958Y-21847155D01*
X13220958Y-21847155D02*
X13211434Y-21828108D01*
X13211434Y-21828108D02*
X13192387Y-21799536D01*
X13192387Y-21799536D02*
X13182863Y-21790012D01*
X13544768Y-22094774D02*
X13535244Y-22085251D01*
X13535244Y-22085251D02*
X13516196Y-22056679D01*
X13516196Y-22056679D02*
X13506672Y-22037632D01*
X13506672Y-22037632D02*
X13497148Y-22009060D01*
X13497148Y-22009060D02*
X13487625Y-21961441D01*
X13487625Y-21961441D02*
X13487625Y-21923346D01*
X13487625Y-21923346D02*
X13497148Y-21875727D01*
X13497148Y-21875727D02*
X13506672Y-21847155D01*
X13506672Y-21847155D02*
X13516196Y-21828108D01*
X13516196Y-21828108D02*
X13535244Y-21799536D01*
X13535244Y-21799536D02*
X13544768Y-21790012D01*
X13620958Y-21885251D02*
X13620958Y-22018584D01*
X13620958Y-21904298D02*
X13630482Y-21894774D01*
X13630482Y-21894774D02*
X13649529Y-21885251D01*
X13649529Y-21885251D02*
X13678101Y-21885251D01*
X13678101Y-21885251D02*
X13697148Y-21894774D01*
X13697148Y-21894774D02*
X13706672Y-21913822D01*
X13706672Y-21913822D02*
X13706672Y-22018584D01*
X13830482Y-22018584D02*
X13811434Y-22009060D01*
X13811434Y-22009060D02*
X13801910Y-21999536D01*
X13801910Y-21999536D02*
X13792387Y-21980489D01*
X13792387Y-21980489D02*
X13792387Y-21923346D01*
X13792387Y-21923346D02*
X13801910Y-21904298D01*
X13801910Y-21904298D02*
X13811434Y-21894774D01*
X13811434Y-21894774D02*
X13830482Y-21885251D01*
X13830482Y-21885251D02*
X13859053Y-21885251D01*
X13859053Y-21885251D02*
X13878101Y-21894774D01*
X13878101Y-21894774D02*
X13887625Y-21904298D01*
X13887625Y-21904298D02*
X13897148Y-21923346D01*
X13897148Y-21923346D02*
X13897148Y-21980489D01*
X13897148Y-21980489D02*
X13887625Y-21999536D01*
X13887625Y-21999536D02*
X13878101Y-22009060D01*
X13878101Y-22009060D02*
X13859053Y-22018584D01*
X13859053Y-22018584D02*
X13830482Y-22018584D01*
X13954291Y-21885251D02*
X14030482Y-21885251D01*
X13982863Y-21818584D02*
X13982863Y-21990012D01*
X13982863Y-21990012D02*
X13992387Y-22009060D01*
X13992387Y-22009060D02*
X14011434Y-22018584D01*
X14011434Y-22018584D02*
X14030482Y-22018584D01*
X14249529Y-21885251D02*
X14249529Y-22085251D01*
X14249529Y-21894774D02*
X14268577Y-21885251D01*
X14268577Y-21885251D02*
X14306672Y-21885251D01*
X14306672Y-21885251D02*
X14325720Y-21894774D01*
X14325720Y-21894774D02*
X14335244Y-21904298D01*
X14335244Y-21904298D02*
X14344768Y-21923346D01*
X14344768Y-21923346D02*
X14344768Y-21980489D01*
X14344768Y-21980489D02*
X14335244Y-21999536D01*
X14335244Y-21999536D02*
X14325720Y-22009060D01*
X14325720Y-22009060D02*
X14306672Y-22018584D01*
X14306672Y-22018584D02*
X14268577Y-22018584D01*
X14268577Y-22018584D02*
X14249529Y-22009060D01*
X14459053Y-22018584D02*
X14440006Y-22009060D01*
X14440006Y-22009060D02*
X14430482Y-21990012D01*
X14430482Y-21990012D02*
X14430482Y-21818584D01*
X14620958Y-22018584D02*
X14620958Y-21913822D01*
X14620958Y-21913822D02*
X14611434Y-21894774D01*
X14611434Y-21894774D02*
X14592387Y-21885251D01*
X14592387Y-21885251D02*
X14554291Y-21885251D01*
X14554291Y-21885251D02*
X14535244Y-21894774D01*
X14620958Y-22009060D02*
X14601910Y-22018584D01*
X14601910Y-22018584D02*
X14554291Y-22018584D01*
X14554291Y-22018584D02*
X14535244Y-22009060D01*
X14535244Y-22009060D02*
X14525720Y-21990012D01*
X14525720Y-21990012D02*
X14525720Y-21970965D01*
X14525720Y-21970965D02*
X14535244Y-21951917D01*
X14535244Y-21951917D02*
X14554291Y-21942393D01*
X14554291Y-21942393D02*
X14601910Y-21942393D01*
X14601910Y-21942393D02*
X14620958Y-21932870D01*
X14687625Y-21885251D02*
X14763815Y-21885251D01*
X14716196Y-21818584D02*
X14716196Y-21990012D01*
X14716196Y-21990012D02*
X14725720Y-22009060D01*
X14725720Y-22009060D02*
X14744768Y-22018584D01*
X14744768Y-22018584D02*
X14763815Y-22018584D01*
X14906672Y-22009060D02*
X14887625Y-22018584D01*
X14887625Y-22018584D02*
X14849529Y-22018584D01*
X14849529Y-22018584D02*
X14830482Y-22009060D01*
X14830482Y-22009060D02*
X14820958Y-21990012D01*
X14820958Y-21990012D02*
X14820958Y-21913822D01*
X14820958Y-21913822D02*
X14830482Y-21894774D01*
X14830482Y-21894774D02*
X14849529Y-21885251D01*
X14849529Y-21885251D02*
X14887625Y-21885251D01*
X14887625Y-21885251D02*
X14906672Y-21894774D01*
X14906672Y-21894774D02*
X14916196Y-21913822D01*
X14916196Y-21913822D02*
X14916196Y-21932870D01*
X14916196Y-21932870D02*
X14820958Y-21951917D01*
X15087625Y-22018584D02*
X15087625Y-21818584D01*
X15087625Y-22009060D02*
X15068577Y-22018584D01*
X15068577Y-22018584D02*
X15030482Y-22018584D01*
X15030482Y-22018584D02*
X15011434Y-22009060D01*
X15011434Y-22009060D02*
X15001910Y-21999536D01*
X15001910Y-21999536D02*
X14992387Y-21980489D01*
X14992387Y-21980489D02*
X14992387Y-21923346D01*
X14992387Y-21923346D02*
X15001910Y-21904298D01*
X15001910Y-21904298D02*
X15011434Y-21894774D01*
X15011434Y-21894774D02*
X15030482Y-21885251D01*
X15030482Y-21885251D02*
X15068577Y-21885251D01*
X15068577Y-21885251D02*
X15087625Y-21894774D01*
X15163815Y-22094774D02*
X15173339Y-22085251D01*
X15173339Y-22085251D02*
X15192387Y-22056679D01*
X15192387Y-22056679D02*
X15201910Y-22037632D01*
X15201910Y-22037632D02*
X15211434Y-22009060D01*
X15211434Y-22009060D02*
X15220958Y-21961441D01*
X15220958Y-21961441D02*
X15220958Y-21923346D01*
X15220958Y-21923346D02*
X15211434Y-21875727D01*
X15211434Y-21875727D02*
X15201910Y-21847155D01*
X15201910Y-21847155D02*
X15192387Y-21828108D01*
X15192387Y-21828108D02*
X15173339Y-21799536D01*
X15173339Y-21799536D02*
X15163815Y-21790012D01*
X8307800Y-22091100D02*
X8307800Y-22291100D01*
X8207800Y-22191100D02*
X8407800Y-22191100D01*
X8659053Y-22101632D02*
X8668577Y-22092108D01*
X8668577Y-22092108D02*
X8687624Y-22082584D01*
X8687624Y-22082584D02*
X8735243Y-22082584D01*
X8735243Y-22082584D02*
X8754291Y-22092108D01*
X8754291Y-22092108D02*
X8763815Y-22101632D01*
X8763815Y-22101632D02*
X8773339Y-22120679D01*
X8773339Y-22120679D02*
X8773339Y-22139727D01*
X8773339Y-22139727D02*
X8763815Y-22168298D01*
X8763815Y-22168298D02*
X8649529Y-22282584D01*
X8649529Y-22282584D02*
X8773339Y-22282584D01*
X8859053Y-22263536D02*
X8868577Y-22273060D01*
X8868577Y-22273060D02*
X8859053Y-22282584D01*
X8859053Y-22282584D02*
X8849529Y-22273060D01*
X8849529Y-22273060D02*
X8859053Y-22263536D01*
X8859053Y-22263536D02*
X8859053Y-22282584D01*
X9040005Y-22149251D02*
X9040005Y-22282584D01*
X8992386Y-22073060D02*
X8944767Y-22215917D01*
X8944767Y-22215917D02*
X9068577Y-22215917D01*
X9182862Y-22082584D02*
X9201910Y-22082584D01*
X9201910Y-22082584D02*
X9220958Y-22092108D01*
X9220958Y-22092108D02*
X9230481Y-22101632D01*
X9230481Y-22101632D02*
X9240005Y-22120679D01*
X9240005Y-22120679D02*
X9249529Y-22158774D01*
X9249529Y-22158774D02*
X9249529Y-22206393D01*
X9249529Y-22206393D02*
X9240005Y-22244489D01*
X9240005Y-22244489D02*
X9230481Y-22263536D01*
X9230481Y-22263536D02*
X9220958Y-22273060D01*
X9220958Y-22273060D02*
X9201910Y-22282584D01*
X9201910Y-22282584D02*
X9182862Y-22282584D01*
X9182862Y-22282584D02*
X9163815Y-22273060D01*
X9163815Y-22273060D02*
X9154291Y-22263536D01*
X9154291Y-22263536D02*
X9144767Y-22244489D01*
X9144767Y-22244489D02*
X9135243Y-22206393D01*
X9135243Y-22206393D02*
X9135243Y-22158774D01*
X9135243Y-22158774D02*
X9144767Y-22120679D01*
X9144767Y-22120679D02*
X9154291Y-22101632D01*
X9154291Y-22101632D02*
X9163815Y-22092108D01*
X9163815Y-22092108D02*
X9182862Y-22082584D01*
X9373339Y-22082584D02*
X9392386Y-22082584D01*
X9392386Y-22082584D02*
X9411434Y-22092108D01*
X9411434Y-22092108D02*
X9420958Y-22101632D01*
X9420958Y-22101632D02*
X9430481Y-22120679D01*
X9430481Y-22120679D02*
X9440005Y-22158774D01*
X9440005Y-22158774D02*
X9440005Y-22206393D01*
X9440005Y-22206393D02*
X9430481Y-22244489D01*
X9430481Y-22244489D02*
X9420958Y-22263536D01*
X9420958Y-22263536D02*
X9411434Y-22273060D01*
X9411434Y-22273060D02*
X9392386Y-22282584D01*
X9392386Y-22282584D02*
X9373339Y-22282584D01*
X9373339Y-22282584D02*
X9354291Y-22273060D01*
X9354291Y-22273060D02*
X9344767Y-22263536D01*
X9344767Y-22263536D02*
X9335243Y-22244489D01*
X9335243Y-22244489D02*
X9325720Y-22206393D01*
X9325720Y-22206393D02*
X9325720Y-22158774D01*
X9325720Y-22158774D02*
X9335243Y-22120679D01*
X9335243Y-22120679D02*
X9344767Y-22101632D01*
X9344767Y-22101632D02*
X9354291Y-22092108D01*
X9354291Y-22092108D02*
X9373339Y-22082584D01*
X9525720Y-22282584D02*
X9525720Y-22149251D01*
X9525720Y-22168298D02*
X9535243Y-22158774D01*
X9535243Y-22158774D02*
X9554291Y-22149251D01*
X9554291Y-22149251D02*
X9582862Y-22149251D01*
X9582862Y-22149251D02*
X9601910Y-22158774D01*
X9601910Y-22158774D02*
X9611434Y-22177822D01*
X9611434Y-22177822D02*
X9611434Y-22282584D01*
X9611434Y-22177822D02*
X9620958Y-22158774D01*
X9620958Y-22158774D02*
X9640005Y-22149251D01*
X9640005Y-22149251D02*
X9668577Y-22149251D01*
X9668577Y-22149251D02*
X9687624Y-22158774D01*
X9687624Y-22158774D02*
X9697148Y-22177822D01*
X9697148Y-22177822D02*
X9697148Y-22282584D01*
X9792386Y-22282584D02*
X9792386Y-22149251D01*
X9792386Y-22168298D02*
X9801910Y-22158774D01*
X9801910Y-22158774D02*
X9820958Y-22149251D01*
X9820958Y-22149251D02*
X9849529Y-22149251D01*
X9849529Y-22149251D02*
X9868577Y-22158774D01*
X9868577Y-22158774D02*
X9878101Y-22177822D01*
X9878101Y-22177822D02*
X9878101Y-22282584D01*
X9878101Y-22177822D02*
X9887624Y-22158774D01*
X9887624Y-22158774D02*
X9906672Y-22149251D01*
X9906672Y-22149251D02*
X9935243Y-22149251D01*
X9935243Y-22149251D02*
X9954291Y-22158774D01*
X9954291Y-22158774D02*
X9963815Y-22177822D01*
X9963815Y-22177822D02*
X9963815Y-22282584D01*
X10354291Y-22073060D02*
X10182863Y-22330203D01*
X10611434Y-22082584D02*
X10630482Y-22082584D01*
X10630482Y-22082584D02*
X10649529Y-22092108D01*
X10649529Y-22092108D02*
X10659053Y-22101632D01*
X10659053Y-22101632D02*
X10668577Y-22120679D01*
X10668577Y-22120679D02*
X10678101Y-22158774D01*
X10678101Y-22158774D02*
X10678101Y-22206393D01*
X10678101Y-22206393D02*
X10668577Y-22244489D01*
X10668577Y-22244489D02*
X10659053Y-22263536D01*
X10659053Y-22263536D02*
X10649529Y-22273060D01*
X10649529Y-22273060D02*
X10630482Y-22282584D01*
X10630482Y-22282584D02*
X10611434Y-22282584D01*
X10611434Y-22282584D02*
X10592386Y-22273060D01*
X10592386Y-22273060D02*
X10582863Y-22263536D01*
X10582863Y-22263536D02*
X10573339Y-22244489D01*
X10573339Y-22244489D02*
X10563815Y-22206393D01*
X10563815Y-22206393D02*
X10563815Y-22158774D01*
X10563815Y-22158774D02*
X10573339Y-22120679D01*
X10573339Y-22120679D02*
X10582863Y-22101632D01*
X10582863Y-22101632D02*
X10592386Y-22092108D01*
X10592386Y-22092108D02*
X10611434Y-22082584D01*
X10763815Y-22263536D02*
X10773339Y-22273060D01*
X10773339Y-22273060D02*
X10763815Y-22282584D01*
X10763815Y-22282584D02*
X10754291Y-22273060D01*
X10754291Y-22273060D02*
X10763815Y-22263536D01*
X10763815Y-22263536D02*
X10763815Y-22282584D01*
X10897148Y-22082584D02*
X10916196Y-22082584D01*
X10916196Y-22082584D02*
X10935244Y-22092108D01*
X10935244Y-22092108D02*
X10944767Y-22101632D01*
X10944767Y-22101632D02*
X10954291Y-22120679D01*
X10954291Y-22120679D02*
X10963815Y-22158774D01*
X10963815Y-22158774D02*
X10963815Y-22206393D01*
X10963815Y-22206393D02*
X10954291Y-22244489D01*
X10954291Y-22244489D02*
X10944767Y-22263536D01*
X10944767Y-22263536D02*
X10935244Y-22273060D01*
X10935244Y-22273060D02*
X10916196Y-22282584D01*
X10916196Y-22282584D02*
X10897148Y-22282584D01*
X10897148Y-22282584D02*
X10878101Y-22273060D01*
X10878101Y-22273060D02*
X10868577Y-22263536D01*
X10868577Y-22263536D02*
X10859053Y-22244489D01*
X10859053Y-22244489D02*
X10849529Y-22206393D01*
X10849529Y-22206393D02*
X10849529Y-22158774D01*
X10849529Y-22158774D02*
X10859053Y-22120679D01*
X10859053Y-22120679D02*
X10868577Y-22101632D01*
X10868577Y-22101632D02*
X10878101Y-22092108D01*
X10878101Y-22092108D02*
X10897148Y-22082584D01*
X11059053Y-22282584D02*
X11097148Y-22282584D01*
X11097148Y-22282584D02*
X11116196Y-22273060D01*
X11116196Y-22273060D02*
X11125720Y-22263536D01*
X11125720Y-22263536D02*
X11144767Y-22234965D01*
X11144767Y-22234965D02*
X11154291Y-22196870D01*
X11154291Y-22196870D02*
X11154291Y-22120679D01*
X11154291Y-22120679D02*
X11144767Y-22101632D01*
X11144767Y-22101632D02*
X11135244Y-22092108D01*
X11135244Y-22092108D02*
X11116196Y-22082584D01*
X11116196Y-22082584D02*
X11078101Y-22082584D01*
X11078101Y-22082584D02*
X11059053Y-22092108D01*
X11059053Y-22092108D02*
X11049529Y-22101632D01*
X11049529Y-22101632D02*
X11040005Y-22120679D01*
X11040005Y-22120679D02*
X11040005Y-22168298D01*
X11040005Y-22168298D02*
X11049529Y-22187346D01*
X11049529Y-22187346D02*
X11059053Y-22196870D01*
X11059053Y-22196870D02*
X11078101Y-22206393D01*
X11078101Y-22206393D02*
X11116196Y-22206393D01*
X11116196Y-22206393D02*
X11135244Y-22196870D01*
X11135244Y-22196870D02*
X11144767Y-22187346D01*
X11144767Y-22187346D02*
X11154291Y-22168298D01*
X11325720Y-22149251D02*
X11325720Y-22282584D01*
X11278101Y-22073060D02*
X11230482Y-22215917D01*
X11230482Y-22215917D02*
X11354291Y-22215917D01*
X11525720Y-22082584D02*
X11430482Y-22082584D01*
X11430482Y-22082584D02*
X11420958Y-22177822D01*
X11420958Y-22177822D02*
X11430482Y-22168298D01*
X11430482Y-22168298D02*
X11449529Y-22158774D01*
X11449529Y-22158774D02*
X11497148Y-22158774D01*
X11497148Y-22158774D02*
X11516196Y-22168298D01*
X11516196Y-22168298D02*
X11525720Y-22177822D01*
X11525720Y-22177822D02*
X11535243Y-22196870D01*
X11535243Y-22196870D02*
X11535243Y-22244489D01*
X11535243Y-22244489D02*
X11525720Y-22263536D01*
X11525720Y-22263536D02*
X11516196Y-22273060D01*
X11516196Y-22273060D02*
X11497148Y-22282584D01*
X11497148Y-22282584D02*
X11449529Y-22282584D01*
X11449529Y-22282584D02*
X11430482Y-22273060D01*
X11430482Y-22273060D02*
X11420958Y-22263536D01*
X11611434Y-22082584D02*
X11611434Y-22120679D01*
X11687624Y-22082584D02*
X11687624Y-22120679D01*
X11982863Y-22358774D02*
X11973339Y-22349251D01*
X11973339Y-22349251D02*
X11954291Y-22320679D01*
X11954291Y-22320679D02*
X11944767Y-22301632D01*
X11944767Y-22301632D02*
X11935244Y-22273060D01*
X11935244Y-22273060D02*
X11925720Y-22225441D01*
X11925720Y-22225441D02*
X11925720Y-22187346D01*
X11925720Y-22187346D02*
X11935244Y-22139727D01*
X11935244Y-22139727D02*
X11944767Y-22111155D01*
X11944767Y-22111155D02*
X11954291Y-22092108D01*
X11954291Y-22092108D02*
X11973339Y-22063536D01*
X11973339Y-22063536D02*
X11982863Y-22054012D01*
X12049529Y-22101632D02*
X12059053Y-22092108D01*
X12059053Y-22092108D02*
X12078101Y-22082584D01*
X12078101Y-22082584D02*
X12125720Y-22082584D01*
X12125720Y-22082584D02*
X12144767Y-22092108D01*
X12144767Y-22092108D02*
X12154291Y-22101632D01*
X12154291Y-22101632D02*
X12163815Y-22120679D01*
X12163815Y-22120679D02*
X12163815Y-22139727D01*
X12163815Y-22139727D02*
X12154291Y-22168298D01*
X12154291Y-22168298D02*
X12040005Y-22282584D01*
X12040005Y-22282584D02*
X12163815Y-22282584D01*
X12401910Y-22282584D02*
X12401910Y-22082584D01*
X12487625Y-22282584D02*
X12487625Y-22177822D01*
X12487625Y-22177822D02*
X12478101Y-22158774D01*
X12478101Y-22158774D02*
X12459053Y-22149251D01*
X12459053Y-22149251D02*
X12430482Y-22149251D01*
X12430482Y-22149251D02*
X12411434Y-22158774D01*
X12411434Y-22158774D02*
X12401910Y-22168298D01*
X12611434Y-22282584D02*
X12592386Y-22273060D01*
X12592386Y-22273060D02*
X12582863Y-22263536D01*
X12582863Y-22263536D02*
X12573339Y-22244489D01*
X12573339Y-22244489D02*
X12573339Y-22187346D01*
X12573339Y-22187346D02*
X12582863Y-22168298D01*
X12582863Y-22168298D02*
X12592386Y-22158774D01*
X12592386Y-22158774D02*
X12611434Y-22149251D01*
X12611434Y-22149251D02*
X12640006Y-22149251D01*
X12640006Y-22149251D02*
X12659053Y-22158774D01*
X12659053Y-22158774D02*
X12668577Y-22168298D01*
X12668577Y-22168298D02*
X12678101Y-22187346D01*
X12678101Y-22187346D02*
X12678101Y-22244489D01*
X12678101Y-22244489D02*
X12668577Y-22263536D01*
X12668577Y-22263536D02*
X12659053Y-22273060D01*
X12659053Y-22273060D02*
X12640006Y-22282584D01*
X12640006Y-22282584D02*
X12611434Y-22282584D01*
X12792386Y-22282584D02*
X12773339Y-22273060D01*
X12773339Y-22273060D02*
X12763815Y-22254012D01*
X12763815Y-22254012D02*
X12763815Y-22082584D01*
X12944767Y-22273060D02*
X12925720Y-22282584D01*
X12925720Y-22282584D02*
X12887625Y-22282584D01*
X12887625Y-22282584D02*
X12868577Y-22273060D01*
X12868577Y-22273060D02*
X12859053Y-22254012D01*
X12859053Y-22254012D02*
X12859053Y-22177822D01*
X12859053Y-22177822D02*
X12868577Y-22158774D01*
X12868577Y-22158774D02*
X12887625Y-22149251D01*
X12887625Y-22149251D02*
X12925720Y-22149251D01*
X12925720Y-22149251D02*
X12944767Y-22158774D01*
X12944767Y-22158774D02*
X12954291Y-22177822D01*
X12954291Y-22177822D02*
X12954291Y-22196870D01*
X12954291Y-22196870D02*
X12859053Y-22215917D01*
X13030482Y-22273060D02*
X13049529Y-22282584D01*
X13049529Y-22282584D02*
X13087625Y-22282584D01*
X13087625Y-22282584D02*
X13106672Y-22273060D01*
X13106672Y-22273060D02*
X13116196Y-22254012D01*
X13116196Y-22254012D02*
X13116196Y-22244489D01*
X13116196Y-22244489D02*
X13106672Y-22225441D01*
X13106672Y-22225441D02*
X13087625Y-22215917D01*
X13087625Y-22215917D02*
X13059053Y-22215917D01*
X13059053Y-22215917D02*
X13040006Y-22206393D01*
X13040006Y-22206393D02*
X13030482Y-22187346D01*
X13030482Y-22187346D02*
X13030482Y-22177822D01*
X13030482Y-22177822D02*
X13040006Y-22158774D01*
X13040006Y-22158774D02*
X13059053Y-22149251D01*
X13059053Y-22149251D02*
X13087625Y-22149251D01*
X13087625Y-22149251D02*
X13106672Y-22158774D01*
X13182863Y-22358774D02*
X13192387Y-22349251D01*
X13192387Y-22349251D02*
X13211434Y-22320679D01*
X13211434Y-22320679D02*
X13220958Y-22301632D01*
X13220958Y-22301632D02*
X13230482Y-22273060D01*
X13230482Y-22273060D02*
X13240006Y-22225441D01*
X13240006Y-22225441D02*
X13240006Y-22187346D01*
X13240006Y-22187346D02*
X13230482Y-22139727D01*
X13230482Y-22139727D02*
X13220958Y-22111155D01*
X13220958Y-22111155D02*
X13211434Y-22092108D01*
X13211434Y-22092108D02*
X13192387Y-22063536D01*
X13192387Y-22063536D02*
X13182863Y-22054012D01*
X13544768Y-22358774D02*
X13535244Y-22349251D01*
X13535244Y-22349251D02*
X13516196Y-22320679D01*
X13516196Y-22320679D02*
X13506672Y-22301632D01*
X13506672Y-22301632D02*
X13497148Y-22273060D01*
X13497148Y-22273060D02*
X13487625Y-22225441D01*
X13487625Y-22225441D02*
X13487625Y-22187346D01*
X13487625Y-22187346D02*
X13497148Y-22139727D01*
X13497148Y-22139727D02*
X13506672Y-22111155D01*
X13506672Y-22111155D02*
X13516196Y-22092108D01*
X13516196Y-22092108D02*
X13535244Y-22063536D01*
X13535244Y-22063536D02*
X13544768Y-22054012D01*
X13620958Y-22149251D02*
X13620958Y-22282584D01*
X13620958Y-22168298D02*
X13630482Y-22158774D01*
X13630482Y-22158774D02*
X13649529Y-22149251D01*
X13649529Y-22149251D02*
X13678101Y-22149251D01*
X13678101Y-22149251D02*
X13697148Y-22158774D01*
X13697148Y-22158774D02*
X13706672Y-22177822D01*
X13706672Y-22177822D02*
X13706672Y-22282584D01*
X13830482Y-22282584D02*
X13811434Y-22273060D01*
X13811434Y-22273060D02*
X13801910Y-22263536D01*
X13801910Y-22263536D02*
X13792387Y-22244489D01*
X13792387Y-22244489D02*
X13792387Y-22187346D01*
X13792387Y-22187346D02*
X13801910Y-22168298D01*
X13801910Y-22168298D02*
X13811434Y-22158774D01*
X13811434Y-22158774D02*
X13830482Y-22149251D01*
X13830482Y-22149251D02*
X13859053Y-22149251D01*
X13859053Y-22149251D02*
X13878101Y-22158774D01*
X13878101Y-22158774D02*
X13887625Y-22168298D01*
X13887625Y-22168298D02*
X13897148Y-22187346D01*
X13897148Y-22187346D02*
X13897148Y-22244489D01*
X13897148Y-22244489D02*
X13887625Y-22263536D01*
X13887625Y-22263536D02*
X13878101Y-22273060D01*
X13878101Y-22273060D02*
X13859053Y-22282584D01*
X13859053Y-22282584D02*
X13830482Y-22282584D01*
X13954291Y-22149251D02*
X14030482Y-22149251D01*
X13982863Y-22082584D02*
X13982863Y-22254012D01*
X13982863Y-22254012D02*
X13992387Y-22273060D01*
X13992387Y-22273060D02*
X14011434Y-22282584D01*
X14011434Y-22282584D02*
X14030482Y-22282584D01*
X14249529Y-22149251D02*
X14249529Y-22349251D01*
X14249529Y-22158774D02*
X14268577Y-22149251D01*
X14268577Y-22149251D02*
X14306672Y-22149251D01*
X14306672Y-22149251D02*
X14325720Y-22158774D01*
X14325720Y-22158774D02*
X14335244Y-22168298D01*
X14335244Y-22168298D02*
X14344768Y-22187346D01*
X14344768Y-22187346D02*
X14344768Y-22244489D01*
X14344768Y-22244489D02*
X14335244Y-22263536D01*
X14335244Y-22263536D02*
X14325720Y-22273060D01*
X14325720Y-22273060D02*
X14306672Y-22282584D01*
X14306672Y-22282584D02*
X14268577Y-22282584D01*
X14268577Y-22282584D02*
X14249529Y-22273060D01*
X14459053Y-22282584D02*
X14440006Y-22273060D01*
X14440006Y-22273060D02*
X14430482Y-22254012D01*
X14430482Y-22254012D02*
X14430482Y-22082584D01*
X14620958Y-22282584D02*
X14620958Y-22177822D01*
X14620958Y-22177822D02*
X14611434Y-22158774D01*
X14611434Y-22158774D02*
X14592387Y-22149251D01*
X14592387Y-22149251D02*
X14554291Y-22149251D01*
X14554291Y-22149251D02*
X14535244Y-22158774D01*
X14620958Y-22273060D02*
X14601910Y-22282584D01*
X14601910Y-22282584D02*
X14554291Y-22282584D01*
X14554291Y-22282584D02*
X14535244Y-22273060D01*
X14535244Y-22273060D02*
X14525720Y-22254012D01*
X14525720Y-22254012D02*
X14525720Y-22234965D01*
X14525720Y-22234965D02*
X14535244Y-22215917D01*
X14535244Y-22215917D02*
X14554291Y-22206393D01*
X14554291Y-22206393D02*
X14601910Y-22206393D01*
X14601910Y-22206393D02*
X14620958Y-22196870D01*
X14687625Y-22149251D02*
X14763815Y-22149251D01*
X14716196Y-22082584D02*
X14716196Y-22254012D01*
X14716196Y-22254012D02*
X14725720Y-22273060D01*
X14725720Y-22273060D02*
X14744768Y-22282584D01*
X14744768Y-22282584D02*
X14763815Y-22282584D01*
X14906672Y-22273060D02*
X14887625Y-22282584D01*
X14887625Y-22282584D02*
X14849529Y-22282584D01*
X14849529Y-22282584D02*
X14830482Y-22273060D01*
X14830482Y-22273060D02*
X14820958Y-22254012D01*
X14820958Y-22254012D02*
X14820958Y-22177822D01*
X14820958Y-22177822D02*
X14830482Y-22158774D01*
X14830482Y-22158774D02*
X14849529Y-22149251D01*
X14849529Y-22149251D02*
X14887625Y-22149251D01*
X14887625Y-22149251D02*
X14906672Y-22158774D01*
X14906672Y-22158774D02*
X14916196Y-22177822D01*
X14916196Y-22177822D02*
X14916196Y-22196870D01*
X14916196Y-22196870D02*
X14820958Y-22215917D01*
X15087625Y-22282584D02*
X15087625Y-22082584D01*
X15087625Y-22273060D02*
X15068577Y-22282584D01*
X15068577Y-22282584D02*
X15030482Y-22282584D01*
X15030482Y-22282584D02*
X15011434Y-22273060D01*
X15011434Y-22273060D02*
X15001910Y-22263536D01*
X15001910Y-22263536D02*
X14992387Y-22244489D01*
X14992387Y-22244489D02*
X14992387Y-22187346D01*
X14992387Y-22187346D02*
X15001910Y-22168298D01*
X15001910Y-22168298D02*
X15011434Y-22158774D01*
X15011434Y-22158774D02*
X15030482Y-22149251D01*
X15030482Y-22149251D02*
X15068577Y-22149251D01*
X15068577Y-22149251D02*
X15087625Y-22158774D01*
X15163815Y-22358774D02*
X15173339Y-22349251D01*
X15173339Y-22349251D02*
X15192387Y-22320679D01*
X15192387Y-22320679D02*
X15201910Y-22301632D01*
X15201910Y-22301632D02*
X15211434Y-22273060D01*
X15211434Y-22273060D02*
X15220958Y-22225441D01*
X15220958Y-22225441D02*
X15220958Y-22187346D01*
X15220958Y-22187346D02*
X15211434Y-22139727D01*
X15211434Y-22139727D02*
X15201910Y-22111155D01*
X15201910Y-22111155D02*
X15192387Y-22092108D01*
X15192387Y-22092108D02*
X15173339Y-22063536D01*
X15173339Y-22063536D02*
X15163815Y-22054012D01*
X8378511Y-22581811D02*
X8378511Y-22440389D01*
X8237088Y-22440389D01*
X8237088Y-22581811D01*
X8378511Y-22581811D01*
X8659053Y-22421631D02*
X8668577Y-22412108D01*
X8668577Y-22412108D02*
X8687624Y-22402584D01*
X8687624Y-22402584D02*
X8735243Y-22402584D01*
X8735243Y-22402584D02*
X8754291Y-22412108D01*
X8754291Y-22412108D02*
X8763815Y-22421631D01*
X8763815Y-22421631D02*
X8773339Y-22440679D01*
X8773339Y-22440679D02*
X8773339Y-22459727D01*
X8773339Y-22459727D02*
X8763815Y-22488298D01*
X8763815Y-22488298D02*
X8649529Y-22602584D01*
X8649529Y-22602584D02*
X8773339Y-22602584D01*
X8859053Y-22583536D02*
X8868577Y-22593060D01*
X8868577Y-22593060D02*
X8859053Y-22602584D01*
X8859053Y-22602584D02*
X8849529Y-22593060D01*
X8849529Y-22593060D02*
X8859053Y-22583536D01*
X8859053Y-22583536D02*
X8859053Y-22602584D01*
X9040005Y-22469250D02*
X9040005Y-22602584D01*
X8992386Y-22393060D02*
X8944767Y-22535917D01*
X8944767Y-22535917D02*
X9068577Y-22535917D01*
X9249529Y-22602584D02*
X9135243Y-22602584D01*
X9192386Y-22602584D02*
X9192386Y-22402584D01*
X9192386Y-22402584D02*
X9173339Y-22431155D01*
X9173339Y-22431155D02*
X9154291Y-22450203D01*
X9154291Y-22450203D02*
X9135243Y-22459727D01*
X9373339Y-22402584D02*
X9392386Y-22402584D01*
X9392386Y-22402584D02*
X9411434Y-22412108D01*
X9411434Y-22412108D02*
X9420958Y-22421631D01*
X9420958Y-22421631D02*
X9430481Y-22440679D01*
X9430481Y-22440679D02*
X9440005Y-22478774D01*
X9440005Y-22478774D02*
X9440005Y-22526393D01*
X9440005Y-22526393D02*
X9430481Y-22564489D01*
X9430481Y-22564489D02*
X9420958Y-22583536D01*
X9420958Y-22583536D02*
X9411434Y-22593060D01*
X9411434Y-22593060D02*
X9392386Y-22602584D01*
X9392386Y-22602584D02*
X9373339Y-22602584D01*
X9373339Y-22602584D02*
X9354291Y-22593060D01*
X9354291Y-22593060D02*
X9344767Y-22583536D01*
X9344767Y-22583536D02*
X9335243Y-22564489D01*
X9335243Y-22564489D02*
X9325720Y-22526393D01*
X9325720Y-22526393D02*
X9325720Y-22478774D01*
X9325720Y-22478774D02*
X9335243Y-22440679D01*
X9335243Y-22440679D02*
X9344767Y-22421631D01*
X9344767Y-22421631D02*
X9354291Y-22412108D01*
X9354291Y-22412108D02*
X9373339Y-22402584D01*
X9525720Y-22602584D02*
X9525720Y-22469250D01*
X9525720Y-22488298D02*
X9535243Y-22478774D01*
X9535243Y-22478774D02*
X9554291Y-22469250D01*
X9554291Y-22469250D02*
X9582862Y-22469250D01*
X9582862Y-22469250D02*
X9601910Y-22478774D01*
X9601910Y-22478774D02*
X9611434Y-22497822D01*
X9611434Y-22497822D02*
X9611434Y-22602584D01*
X9611434Y-22497822D02*
X9620958Y-22478774D01*
X9620958Y-22478774D02*
X9640005Y-22469250D01*
X9640005Y-22469250D02*
X9668577Y-22469250D01*
X9668577Y-22469250D02*
X9687624Y-22478774D01*
X9687624Y-22478774D02*
X9697148Y-22497822D01*
X9697148Y-22497822D02*
X9697148Y-22602584D01*
X9792386Y-22602584D02*
X9792386Y-22469250D01*
X9792386Y-22488298D02*
X9801910Y-22478774D01*
X9801910Y-22478774D02*
X9820958Y-22469250D01*
X9820958Y-22469250D02*
X9849529Y-22469250D01*
X9849529Y-22469250D02*
X9868577Y-22478774D01*
X9868577Y-22478774D02*
X9878101Y-22497822D01*
X9878101Y-22497822D02*
X9878101Y-22602584D01*
X9878101Y-22497822D02*
X9887624Y-22478774D01*
X9887624Y-22478774D02*
X9906672Y-22469250D01*
X9906672Y-22469250D02*
X9935243Y-22469250D01*
X9935243Y-22469250D02*
X9954291Y-22478774D01*
X9954291Y-22478774D02*
X9963815Y-22497822D01*
X9963815Y-22497822D02*
X9963815Y-22602584D01*
X10354291Y-22393060D02*
X10182863Y-22650203D01*
X10611434Y-22402584D02*
X10630482Y-22402584D01*
X10630482Y-22402584D02*
X10649529Y-22412108D01*
X10649529Y-22412108D02*
X10659053Y-22421631D01*
X10659053Y-22421631D02*
X10668577Y-22440679D01*
X10668577Y-22440679D02*
X10678101Y-22478774D01*
X10678101Y-22478774D02*
X10678101Y-22526393D01*
X10678101Y-22526393D02*
X10668577Y-22564489D01*
X10668577Y-22564489D02*
X10659053Y-22583536D01*
X10659053Y-22583536D02*
X10649529Y-22593060D01*
X10649529Y-22593060D02*
X10630482Y-22602584D01*
X10630482Y-22602584D02*
X10611434Y-22602584D01*
X10611434Y-22602584D02*
X10592386Y-22593060D01*
X10592386Y-22593060D02*
X10582863Y-22583536D01*
X10582863Y-22583536D02*
X10573339Y-22564489D01*
X10573339Y-22564489D02*
X10563815Y-22526393D01*
X10563815Y-22526393D02*
X10563815Y-22478774D01*
X10563815Y-22478774D02*
X10573339Y-22440679D01*
X10573339Y-22440679D02*
X10582863Y-22421631D01*
X10582863Y-22421631D02*
X10592386Y-22412108D01*
X10592386Y-22412108D02*
X10611434Y-22402584D01*
X10763815Y-22583536D02*
X10773339Y-22593060D01*
X10773339Y-22593060D02*
X10763815Y-22602584D01*
X10763815Y-22602584D02*
X10754291Y-22593060D01*
X10754291Y-22593060D02*
X10763815Y-22583536D01*
X10763815Y-22583536D02*
X10763815Y-22602584D01*
X10897148Y-22402584D02*
X10916196Y-22402584D01*
X10916196Y-22402584D02*
X10935244Y-22412108D01*
X10935244Y-22412108D02*
X10944767Y-22421631D01*
X10944767Y-22421631D02*
X10954291Y-22440679D01*
X10954291Y-22440679D02*
X10963815Y-22478774D01*
X10963815Y-22478774D02*
X10963815Y-22526393D01*
X10963815Y-22526393D02*
X10954291Y-22564489D01*
X10954291Y-22564489D02*
X10944767Y-22583536D01*
X10944767Y-22583536D02*
X10935244Y-22593060D01*
X10935244Y-22593060D02*
X10916196Y-22602584D01*
X10916196Y-22602584D02*
X10897148Y-22602584D01*
X10897148Y-22602584D02*
X10878101Y-22593060D01*
X10878101Y-22593060D02*
X10868577Y-22583536D01*
X10868577Y-22583536D02*
X10859053Y-22564489D01*
X10859053Y-22564489D02*
X10849529Y-22526393D01*
X10849529Y-22526393D02*
X10849529Y-22478774D01*
X10849529Y-22478774D02*
X10859053Y-22440679D01*
X10859053Y-22440679D02*
X10868577Y-22421631D01*
X10868577Y-22421631D02*
X10878101Y-22412108D01*
X10878101Y-22412108D02*
X10897148Y-22402584D01*
X11059053Y-22602584D02*
X11097148Y-22602584D01*
X11097148Y-22602584D02*
X11116196Y-22593060D01*
X11116196Y-22593060D02*
X11125720Y-22583536D01*
X11125720Y-22583536D02*
X11144767Y-22554965D01*
X11144767Y-22554965D02*
X11154291Y-22516870D01*
X11154291Y-22516870D02*
X11154291Y-22440679D01*
X11154291Y-22440679D02*
X11144767Y-22421631D01*
X11144767Y-22421631D02*
X11135244Y-22412108D01*
X11135244Y-22412108D02*
X11116196Y-22402584D01*
X11116196Y-22402584D02*
X11078101Y-22402584D01*
X11078101Y-22402584D02*
X11059053Y-22412108D01*
X11059053Y-22412108D02*
X11049529Y-22421631D01*
X11049529Y-22421631D02*
X11040005Y-22440679D01*
X11040005Y-22440679D02*
X11040005Y-22488298D01*
X11040005Y-22488298D02*
X11049529Y-22507346D01*
X11049529Y-22507346D02*
X11059053Y-22516870D01*
X11059053Y-22516870D02*
X11078101Y-22526393D01*
X11078101Y-22526393D02*
X11116196Y-22526393D01*
X11116196Y-22526393D02*
X11135244Y-22516870D01*
X11135244Y-22516870D02*
X11144767Y-22507346D01*
X11144767Y-22507346D02*
X11154291Y-22488298D01*
X11325720Y-22469250D02*
X11325720Y-22602584D01*
X11278101Y-22393060D02*
X11230482Y-22535917D01*
X11230482Y-22535917D02*
X11354291Y-22535917D01*
X11440005Y-22602584D02*
X11478101Y-22602584D01*
X11478101Y-22602584D02*
X11497148Y-22593060D01*
X11497148Y-22593060D02*
X11506672Y-22583536D01*
X11506672Y-22583536D02*
X11525720Y-22554965D01*
X11525720Y-22554965D02*
X11535243Y-22516870D01*
X11535243Y-22516870D02*
X11535243Y-22440679D01*
X11535243Y-22440679D02*
X11525720Y-22421631D01*
X11525720Y-22421631D02*
X11516196Y-22412108D01*
X11516196Y-22412108D02*
X11497148Y-22402584D01*
X11497148Y-22402584D02*
X11459053Y-22402584D01*
X11459053Y-22402584D02*
X11440005Y-22412108D01*
X11440005Y-22412108D02*
X11430482Y-22421631D01*
X11430482Y-22421631D02*
X11420958Y-22440679D01*
X11420958Y-22440679D02*
X11420958Y-22488298D01*
X11420958Y-22488298D02*
X11430482Y-22507346D01*
X11430482Y-22507346D02*
X11440005Y-22516870D01*
X11440005Y-22516870D02*
X11459053Y-22526393D01*
X11459053Y-22526393D02*
X11497148Y-22526393D01*
X11497148Y-22526393D02*
X11516196Y-22516870D01*
X11516196Y-22516870D02*
X11525720Y-22507346D01*
X11525720Y-22507346D02*
X11535243Y-22488298D01*
X11611434Y-22402584D02*
X11611434Y-22440679D01*
X11687624Y-22402584D02*
X11687624Y-22440679D01*
X11982863Y-22678774D02*
X11973339Y-22669250D01*
X11973339Y-22669250D02*
X11954291Y-22640679D01*
X11954291Y-22640679D02*
X11944767Y-22621631D01*
X11944767Y-22621631D02*
X11935244Y-22593060D01*
X11935244Y-22593060D02*
X11925720Y-22545441D01*
X11925720Y-22545441D02*
X11925720Y-22507346D01*
X11925720Y-22507346D02*
X11935244Y-22459727D01*
X11935244Y-22459727D02*
X11944767Y-22431155D01*
X11944767Y-22431155D02*
X11954291Y-22412108D01*
X11954291Y-22412108D02*
X11973339Y-22383536D01*
X11973339Y-22383536D02*
X11982863Y-22374012D01*
X12049529Y-22421631D02*
X12059053Y-22412108D01*
X12059053Y-22412108D02*
X12078101Y-22402584D01*
X12078101Y-22402584D02*
X12125720Y-22402584D01*
X12125720Y-22402584D02*
X12144767Y-22412108D01*
X12144767Y-22412108D02*
X12154291Y-22421631D01*
X12154291Y-22421631D02*
X12163815Y-22440679D01*
X12163815Y-22440679D02*
X12163815Y-22459727D01*
X12163815Y-22459727D02*
X12154291Y-22488298D01*
X12154291Y-22488298D02*
X12040005Y-22602584D01*
X12040005Y-22602584D02*
X12163815Y-22602584D01*
X12401910Y-22602584D02*
X12401910Y-22402584D01*
X12487625Y-22602584D02*
X12487625Y-22497822D01*
X12487625Y-22497822D02*
X12478101Y-22478774D01*
X12478101Y-22478774D02*
X12459053Y-22469250D01*
X12459053Y-22469250D02*
X12430482Y-22469250D01*
X12430482Y-22469250D02*
X12411434Y-22478774D01*
X12411434Y-22478774D02*
X12401910Y-22488298D01*
X12611434Y-22602584D02*
X12592386Y-22593060D01*
X12592386Y-22593060D02*
X12582863Y-22583536D01*
X12582863Y-22583536D02*
X12573339Y-22564489D01*
X12573339Y-22564489D02*
X12573339Y-22507346D01*
X12573339Y-22507346D02*
X12582863Y-22488298D01*
X12582863Y-22488298D02*
X12592386Y-22478774D01*
X12592386Y-22478774D02*
X12611434Y-22469250D01*
X12611434Y-22469250D02*
X12640006Y-22469250D01*
X12640006Y-22469250D02*
X12659053Y-22478774D01*
X12659053Y-22478774D02*
X12668577Y-22488298D01*
X12668577Y-22488298D02*
X12678101Y-22507346D01*
X12678101Y-22507346D02*
X12678101Y-22564489D01*
X12678101Y-22564489D02*
X12668577Y-22583536D01*
X12668577Y-22583536D02*
X12659053Y-22593060D01*
X12659053Y-22593060D02*
X12640006Y-22602584D01*
X12640006Y-22602584D02*
X12611434Y-22602584D01*
X12792386Y-22602584D02*
X12773339Y-22593060D01*
X12773339Y-22593060D02*
X12763815Y-22574012D01*
X12763815Y-22574012D02*
X12763815Y-22402584D01*
X12944767Y-22593060D02*
X12925720Y-22602584D01*
X12925720Y-22602584D02*
X12887625Y-22602584D01*
X12887625Y-22602584D02*
X12868577Y-22593060D01*
X12868577Y-22593060D02*
X12859053Y-22574012D01*
X12859053Y-22574012D02*
X12859053Y-22497822D01*
X12859053Y-22497822D02*
X12868577Y-22478774D01*
X12868577Y-22478774D02*
X12887625Y-22469250D01*
X12887625Y-22469250D02*
X12925720Y-22469250D01*
X12925720Y-22469250D02*
X12944767Y-22478774D01*
X12944767Y-22478774D02*
X12954291Y-22497822D01*
X12954291Y-22497822D02*
X12954291Y-22516870D01*
X12954291Y-22516870D02*
X12859053Y-22535917D01*
X13030482Y-22593060D02*
X13049529Y-22602584D01*
X13049529Y-22602584D02*
X13087625Y-22602584D01*
X13087625Y-22602584D02*
X13106672Y-22593060D01*
X13106672Y-22593060D02*
X13116196Y-22574012D01*
X13116196Y-22574012D02*
X13116196Y-22564489D01*
X13116196Y-22564489D02*
X13106672Y-22545441D01*
X13106672Y-22545441D02*
X13087625Y-22535917D01*
X13087625Y-22535917D02*
X13059053Y-22535917D01*
X13059053Y-22535917D02*
X13040006Y-22526393D01*
X13040006Y-22526393D02*
X13030482Y-22507346D01*
X13030482Y-22507346D02*
X13030482Y-22497822D01*
X13030482Y-22497822D02*
X13040006Y-22478774D01*
X13040006Y-22478774D02*
X13059053Y-22469250D01*
X13059053Y-22469250D02*
X13087625Y-22469250D01*
X13087625Y-22469250D02*
X13106672Y-22478774D01*
X13182863Y-22678774D02*
X13192387Y-22669250D01*
X13192387Y-22669250D02*
X13211434Y-22640679D01*
X13211434Y-22640679D02*
X13220958Y-22621631D01*
X13220958Y-22621631D02*
X13230482Y-22593060D01*
X13230482Y-22593060D02*
X13240006Y-22545441D01*
X13240006Y-22545441D02*
X13240006Y-22507346D01*
X13240006Y-22507346D02*
X13230482Y-22459727D01*
X13230482Y-22459727D02*
X13220958Y-22431155D01*
X13220958Y-22431155D02*
X13211434Y-22412108D01*
X13211434Y-22412108D02*
X13192387Y-22383536D01*
X13192387Y-22383536D02*
X13182863Y-22374012D01*
X13544768Y-22678774D02*
X13535244Y-22669250D01*
X13535244Y-22669250D02*
X13516196Y-22640679D01*
X13516196Y-22640679D02*
X13506672Y-22621631D01*
X13506672Y-22621631D02*
X13497148Y-22593060D01*
X13497148Y-22593060D02*
X13487625Y-22545441D01*
X13487625Y-22545441D02*
X13487625Y-22507346D01*
X13487625Y-22507346D02*
X13497148Y-22459727D01*
X13497148Y-22459727D02*
X13506672Y-22431155D01*
X13506672Y-22431155D02*
X13516196Y-22412108D01*
X13516196Y-22412108D02*
X13535244Y-22383536D01*
X13535244Y-22383536D02*
X13544768Y-22374012D01*
X13620958Y-22469250D02*
X13620958Y-22602584D01*
X13620958Y-22488298D02*
X13630482Y-22478774D01*
X13630482Y-22478774D02*
X13649529Y-22469250D01*
X13649529Y-22469250D02*
X13678101Y-22469250D01*
X13678101Y-22469250D02*
X13697148Y-22478774D01*
X13697148Y-22478774D02*
X13706672Y-22497822D01*
X13706672Y-22497822D02*
X13706672Y-22602584D01*
X13830482Y-22602584D02*
X13811434Y-22593060D01*
X13811434Y-22593060D02*
X13801910Y-22583536D01*
X13801910Y-22583536D02*
X13792387Y-22564489D01*
X13792387Y-22564489D02*
X13792387Y-22507346D01*
X13792387Y-22507346D02*
X13801910Y-22488298D01*
X13801910Y-22488298D02*
X13811434Y-22478774D01*
X13811434Y-22478774D02*
X13830482Y-22469250D01*
X13830482Y-22469250D02*
X13859053Y-22469250D01*
X13859053Y-22469250D02*
X13878101Y-22478774D01*
X13878101Y-22478774D02*
X13887625Y-22488298D01*
X13887625Y-22488298D02*
X13897148Y-22507346D01*
X13897148Y-22507346D02*
X13897148Y-22564489D01*
X13897148Y-22564489D02*
X13887625Y-22583536D01*
X13887625Y-22583536D02*
X13878101Y-22593060D01*
X13878101Y-22593060D02*
X13859053Y-22602584D01*
X13859053Y-22602584D02*
X13830482Y-22602584D01*
X13954291Y-22469250D02*
X14030482Y-22469250D01*
X13982863Y-22402584D02*
X13982863Y-22574012D01*
X13982863Y-22574012D02*
X13992387Y-22593060D01*
X13992387Y-22593060D02*
X14011434Y-22602584D01*
X14011434Y-22602584D02*
X14030482Y-22602584D01*
X14249529Y-22469250D02*
X14249529Y-22669250D01*
X14249529Y-22478774D02*
X14268577Y-22469250D01*
X14268577Y-22469250D02*
X14306672Y-22469250D01*
X14306672Y-22469250D02*
X14325720Y-22478774D01*
X14325720Y-22478774D02*
X14335244Y-22488298D01*
X14335244Y-22488298D02*
X14344768Y-22507346D01*
X14344768Y-22507346D02*
X14344768Y-22564489D01*
X14344768Y-22564489D02*
X14335244Y-22583536D01*
X14335244Y-22583536D02*
X14325720Y-22593060D01*
X14325720Y-22593060D02*
X14306672Y-22602584D01*
X14306672Y-22602584D02*
X14268577Y-22602584D01*
X14268577Y-22602584D02*
X14249529Y-22593060D01*
X14459053Y-22602584D02*
X14440006Y-22593060D01*
X14440006Y-22593060D02*
X14430482Y-22574012D01*
X14430482Y-22574012D02*
X14430482Y-22402584D01*
X14620958Y-22602584D02*
X14620958Y-22497822D01*
X14620958Y-22497822D02*
X14611434Y-22478774D01*
X14611434Y-22478774D02*
X14592387Y-22469250D01*
X14592387Y-22469250D02*
X14554291Y-22469250D01*
X14554291Y-22469250D02*
X14535244Y-22478774D01*
X14620958Y-22593060D02*
X14601910Y-22602584D01*
X14601910Y-22602584D02*
X14554291Y-22602584D01*
X14554291Y-22602584D02*
X14535244Y-22593060D01*
X14535244Y-22593060D02*
X14525720Y-22574012D01*
X14525720Y-22574012D02*
X14525720Y-22554965D01*
X14525720Y-22554965D02*
X14535244Y-22535917D01*
X14535244Y-22535917D02*
X14554291Y-22526393D01*
X14554291Y-22526393D02*
X14601910Y-22526393D01*
X14601910Y-22526393D02*
X14620958Y-22516870D01*
X14687625Y-22469250D02*
X14763815Y-22469250D01*
X14716196Y-22402584D02*
X14716196Y-22574012D01*
X14716196Y-22574012D02*
X14725720Y-22593060D01*
X14725720Y-22593060D02*
X14744768Y-22602584D01*
X14744768Y-22602584D02*
X14763815Y-22602584D01*
X14906672Y-22593060D02*
X14887625Y-22602584D01*
X14887625Y-22602584D02*
X14849529Y-22602584D01*
X14849529Y-22602584D02*
X14830482Y-22593060D01*
X14830482Y-22593060D02*
X14820958Y-22574012D01*
X14820958Y-22574012D02*
X14820958Y-22497822D01*
X14820958Y-22497822D02*
X14830482Y-22478774D01*
X14830482Y-22478774D02*
X14849529Y-22469250D01*
X14849529Y-22469250D02*
X14887625Y-22469250D01*
X14887625Y-22469250D02*
X14906672Y-22478774D01*
X14906672Y-22478774D02*
X14916196Y-22497822D01*
X14916196Y-22497822D02*
X14916196Y-22516870D01*
X14916196Y-22516870D02*
X14820958Y-22535917D01*
X15087625Y-22602584D02*
X15087625Y-22402584D01*
X15087625Y-22593060D02*
X15068577Y-22602584D01*
X15068577Y-22602584D02*
X15030482Y-22602584D01*
X15030482Y-22602584D02*
X15011434Y-22593060D01*
X15011434Y-22593060D02*
X15001910Y-22583536D01*
X15001910Y-22583536D02*
X14992387Y-22564489D01*
X14992387Y-22564489D02*
X14992387Y-22507346D01*
X14992387Y-22507346D02*
X15001910Y-22488298D01*
X15001910Y-22488298D02*
X15011434Y-22478774D01*
X15011434Y-22478774D02*
X15030482Y-22469250D01*
X15030482Y-22469250D02*
X15068577Y-22469250D01*
X15068577Y-22469250D02*
X15087625Y-22478774D01*
X15163815Y-22678774D02*
X15173339Y-22669250D01*
X15173339Y-22669250D02*
X15192387Y-22640679D01*
X15192387Y-22640679D02*
X15201910Y-22621631D01*
X15201910Y-22621631D02*
X15211434Y-22593060D01*
X15211434Y-22593060D02*
X15220958Y-22545441D01*
X15220958Y-22545441D02*
X15220958Y-22507346D01*
X15220958Y-22507346D02*
X15211434Y-22459727D01*
X15211434Y-22459727D02*
X15201910Y-22431155D01*
X15201910Y-22431155D02*
X15192387Y-22412108D01*
X15192387Y-22412108D02*
X15173339Y-22383536D01*
X15173339Y-22383536D02*
X15163815Y-22374012D01*
X8307800Y-22931100D02*
X8407800Y-22831100D01*
X8307800Y-22731100D01*
X8207800Y-22831100D01*
X8307800Y-22931100D01*
X8649529Y-22722584D02*
X8773339Y-22722584D01*
X8773339Y-22722584D02*
X8706672Y-22798774D01*
X8706672Y-22798774D02*
X8735243Y-22798774D01*
X8735243Y-22798774D02*
X8754291Y-22808298D01*
X8754291Y-22808298D02*
X8763815Y-22817822D01*
X8763815Y-22817822D02*
X8773339Y-22836870D01*
X8773339Y-22836870D02*
X8773339Y-22884489D01*
X8773339Y-22884489D02*
X8763815Y-22903536D01*
X8763815Y-22903536D02*
X8754291Y-22913060D01*
X8754291Y-22913060D02*
X8735243Y-22922584D01*
X8735243Y-22922584D02*
X8678100Y-22922584D01*
X8678100Y-22922584D02*
X8659053Y-22913060D01*
X8659053Y-22913060D02*
X8649529Y-22903536D01*
X8859053Y-22903536D02*
X8868577Y-22913060D01*
X8868577Y-22913060D02*
X8859053Y-22922584D01*
X8859053Y-22922584D02*
X8849529Y-22913060D01*
X8849529Y-22913060D02*
X8859053Y-22903536D01*
X8859053Y-22903536D02*
X8859053Y-22922584D01*
X8992386Y-22722584D02*
X9011434Y-22722584D01*
X9011434Y-22722584D02*
X9030481Y-22732108D01*
X9030481Y-22732108D02*
X9040005Y-22741631D01*
X9040005Y-22741631D02*
X9049529Y-22760679D01*
X9049529Y-22760679D02*
X9059053Y-22798774D01*
X9059053Y-22798774D02*
X9059053Y-22846393D01*
X9059053Y-22846393D02*
X9049529Y-22884489D01*
X9049529Y-22884489D02*
X9040005Y-22903536D01*
X9040005Y-22903536D02*
X9030481Y-22913060D01*
X9030481Y-22913060D02*
X9011434Y-22922584D01*
X9011434Y-22922584D02*
X8992386Y-22922584D01*
X8992386Y-22922584D02*
X8973339Y-22913060D01*
X8973339Y-22913060D02*
X8963815Y-22903536D01*
X8963815Y-22903536D02*
X8954291Y-22884489D01*
X8954291Y-22884489D02*
X8944767Y-22846393D01*
X8944767Y-22846393D02*
X8944767Y-22798774D01*
X8944767Y-22798774D02*
X8954291Y-22760679D01*
X8954291Y-22760679D02*
X8963815Y-22741631D01*
X8963815Y-22741631D02*
X8973339Y-22732108D01*
X8973339Y-22732108D02*
X8992386Y-22722584D01*
X9182862Y-22722584D02*
X9201910Y-22722584D01*
X9201910Y-22722584D02*
X9220958Y-22732108D01*
X9220958Y-22732108D02*
X9230481Y-22741631D01*
X9230481Y-22741631D02*
X9240005Y-22760679D01*
X9240005Y-22760679D02*
X9249529Y-22798774D01*
X9249529Y-22798774D02*
X9249529Y-22846393D01*
X9249529Y-22846393D02*
X9240005Y-22884489D01*
X9240005Y-22884489D02*
X9230481Y-22903536D01*
X9230481Y-22903536D02*
X9220958Y-22913060D01*
X9220958Y-22913060D02*
X9201910Y-22922584D01*
X9201910Y-22922584D02*
X9182862Y-22922584D01*
X9182862Y-22922584D02*
X9163815Y-22913060D01*
X9163815Y-22913060D02*
X9154291Y-22903536D01*
X9154291Y-22903536D02*
X9144767Y-22884489D01*
X9144767Y-22884489D02*
X9135243Y-22846393D01*
X9135243Y-22846393D02*
X9135243Y-22798774D01*
X9135243Y-22798774D02*
X9144767Y-22760679D01*
X9144767Y-22760679D02*
X9154291Y-22741631D01*
X9154291Y-22741631D02*
X9163815Y-22732108D01*
X9163815Y-22732108D02*
X9182862Y-22722584D01*
X9373339Y-22722584D02*
X9392386Y-22722584D01*
X9392386Y-22722584D02*
X9411434Y-22732108D01*
X9411434Y-22732108D02*
X9420958Y-22741631D01*
X9420958Y-22741631D02*
X9430481Y-22760679D01*
X9430481Y-22760679D02*
X9440005Y-22798774D01*
X9440005Y-22798774D02*
X9440005Y-22846393D01*
X9440005Y-22846393D02*
X9430481Y-22884489D01*
X9430481Y-22884489D02*
X9420958Y-22903536D01*
X9420958Y-22903536D02*
X9411434Y-22913060D01*
X9411434Y-22913060D02*
X9392386Y-22922584D01*
X9392386Y-22922584D02*
X9373339Y-22922584D01*
X9373339Y-22922584D02*
X9354291Y-22913060D01*
X9354291Y-22913060D02*
X9344767Y-22903536D01*
X9344767Y-22903536D02*
X9335243Y-22884489D01*
X9335243Y-22884489D02*
X9325720Y-22846393D01*
X9325720Y-22846393D02*
X9325720Y-22798774D01*
X9325720Y-22798774D02*
X9335243Y-22760679D01*
X9335243Y-22760679D02*
X9344767Y-22741631D01*
X9344767Y-22741631D02*
X9354291Y-22732108D01*
X9354291Y-22732108D02*
X9373339Y-22722584D01*
X9525720Y-22922584D02*
X9525720Y-22789250D01*
X9525720Y-22808298D02*
X9535243Y-22798774D01*
X9535243Y-22798774D02*
X9554291Y-22789250D01*
X9554291Y-22789250D02*
X9582862Y-22789250D01*
X9582862Y-22789250D02*
X9601910Y-22798774D01*
X9601910Y-22798774D02*
X9611434Y-22817822D01*
X9611434Y-22817822D02*
X9611434Y-22922584D01*
X9611434Y-22817822D02*
X9620958Y-22798774D01*
X9620958Y-22798774D02*
X9640005Y-22789250D01*
X9640005Y-22789250D02*
X9668577Y-22789250D01*
X9668577Y-22789250D02*
X9687624Y-22798774D01*
X9687624Y-22798774D02*
X9697148Y-22817822D01*
X9697148Y-22817822D02*
X9697148Y-22922584D01*
X9792386Y-22922584D02*
X9792386Y-22789250D01*
X9792386Y-22808298D02*
X9801910Y-22798774D01*
X9801910Y-22798774D02*
X9820958Y-22789250D01*
X9820958Y-22789250D02*
X9849529Y-22789250D01*
X9849529Y-22789250D02*
X9868577Y-22798774D01*
X9868577Y-22798774D02*
X9878101Y-22817822D01*
X9878101Y-22817822D02*
X9878101Y-22922584D01*
X9878101Y-22817822D02*
X9887624Y-22798774D01*
X9887624Y-22798774D02*
X9906672Y-22789250D01*
X9906672Y-22789250D02*
X9935243Y-22789250D01*
X9935243Y-22789250D02*
X9954291Y-22798774D01*
X9954291Y-22798774D02*
X9963815Y-22817822D01*
X9963815Y-22817822D02*
X9963815Y-22922584D01*
X10354291Y-22713060D02*
X10182863Y-22970203D01*
X10611434Y-22722584D02*
X10630482Y-22722584D01*
X10630482Y-22722584D02*
X10649529Y-22732108D01*
X10649529Y-22732108D02*
X10659053Y-22741631D01*
X10659053Y-22741631D02*
X10668577Y-22760679D01*
X10668577Y-22760679D02*
X10678101Y-22798774D01*
X10678101Y-22798774D02*
X10678101Y-22846393D01*
X10678101Y-22846393D02*
X10668577Y-22884489D01*
X10668577Y-22884489D02*
X10659053Y-22903536D01*
X10659053Y-22903536D02*
X10649529Y-22913060D01*
X10649529Y-22913060D02*
X10630482Y-22922584D01*
X10630482Y-22922584D02*
X10611434Y-22922584D01*
X10611434Y-22922584D02*
X10592386Y-22913060D01*
X10592386Y-22913060D02*
X10582863Y-22903536D01*
X10582863Y-22903536D02*
X10573339Y-22884489D01*
X10573339Y-22884489D02*
X10563815Y-22846393D01*
X10563815Y-22846393D02*
X10563815Y-22798774D01*
X10563815Y-22798774D02*
X10573339Y-22760679D01*
X10573339Y-22760679D02*
X10582863Y-22741631D01*
X10582863Y-22741631D02*
X10592386Y-22732108D01*
X10592386Y-22732108D02*
X10611434Y-22722584D01*
X10763815Y-22903536D02*
X10773339Y-22913060D01*
X10773339Y-22913060D02*
X10763815Y-22922584D01*
X10763815Y-22922584D02*
X10754291Y-22913060D01*
X10754291Y-22913060D02*
X10763815Y-22903536D01*
X10763815Y-22903536D02*
X10763815Y-22922584D01*
X10963815Y-22922584D02*
X10849529Y-22922584D01*
X10906672Y-22922584D02*
X10906672Y-22722584D01*
X10906672Y-22722584D02*
X10887624Y-22751155D01*
X10887624Y-22751155D02*
X10868577Y-22770203D01*
X10868577Y-22770203D02*
X10849529Y-22779727D01*
X11154291Y-22922584D02*
X11040005Y-22922584D01*
X11097148Y-22922584D02*
X11097148Y-22722584D01*
X11097148Y-22722584D02*
X11078101Y-22751155D01*
X11078101Y-22751155D02*
X11059053Y-22770203D01*
X11059053Y-22770203D02*
X11040005Y-22779727D01*
X11268577Y-22808298D02*
X11249529Y-22798774D01*
X11249529Y-22798774D02*
X11240005Y-22789250D01*
X11240005Y-22789250D02*
X11230482Y-22770203D01*
X11230482Y-22770203D02*
X11230482Y-22760679D01*
X11230482Y-22760679D02*
X11240005Y-22741631D01*
X11240005Y-22741631D02*
X11249529Y-22732108D01*
X11249529Y-22732108D02*
X11268577Y-22722584D01*
X11268577Y-22722584D02*
X11306672Y-22722584D01*
X11306672Y-22722584D02*
X11325720Y-22732108D01*
X11325720Y-22732108D02*
X11335243Y-22741631D01*
X11335243Y-22741631D02*
X11344767Y-22760679D01*
X11344767Y-22760679D02*
X11344767Y-22770203D01*
X11344767Y-22770203D02*
X11335243Y-22789250D01*
X11335243Y-22789250D02*
X11325720Y-22798774D01*
X11325720Y-22798774D02*
X11306672Y-22808298D01*
X11306672Y-22808298D02*
X11268577Y-22808298D01*
X11268577Y-22808298D02*
X11249529Y-22817822D01*
X11249529Y-22817822D02*
X11240005Y-22827346D01*
X11240005Y-22827346D02*
X11230482Y-22846393D01*
X11230482Y-22846393D02*
X11230482Y-22884489D01*
X11230482Y-22884489D02*
X11240005Y-22903536D01*
X11240005Y-22903536D02*
X11249529Y-22913060D01*
X11249529Y-22913060D02*
X11268577Y-22922584D01*
X11268577Y-22922584D02*
X11306672Y-22922584D01*
X11306672Y-22922584D02*
X11325720Y-22913060D01*
X11325720Y-22913060D02*
X11335243Y-22903536D01*
X11335243Y-22903536D02*
X11344767Y-22884489D01*
X11344767Y-22884489D02*
X11344767Y-22846393D01*
X11344767Y-22846393D02*
X11335243Y-22827346D01*
X11335243Y-22827346D02*
X11325720Y-22817822D01*
X11325720Y-22817822D02*
X11306672Y-22808298D01*
X11535243Y-22922584D02*
X11420958Y-22922584D01*
X11478101Y-22922584D02*
X11478101Y-22722584D01*
X11478101Y-22722584D02*
X11459053Y-22751155D01*
X11459053Y-22751155D02*
X11440005Y-22770203D01*
X11440005Y-22770203D02*
X11420958Y-22779727D01*
X11611434Y-22722584D02*
X11611434Y-22760679D01*
X11687624Y-22722584D02*
X11687624Y-22760679D01*
X11982863Y-22998774D02*
X11973339Y-22989250D01*
X11973339Y-22989250D02*
X11954291Y-22960679D01*
X11954291Y-22960679D02*
X11944767Y-22941631D01*
X11944767Y-22941631D02*
X11935244Y-22913060D01*
X11935244Y-22913060D02*
X11925720Y-22865441D01*
X11925720Y-22865441D02*
X11925720Y-22827346D01*
X11925720Y-22827346D02*
X11935244Y-22779727D01*
X11935244Y-22779727D02*
X11944767Y-22751155D01*
X11944767Y-22751155D02*
X11954291Y-22732108D01*
X11954291Y-22732108D02*
X11973339Y-22703536D01*
X11973339Y-22703536D02*
X11982863Y-22694012D01*
X12049529Y-22741631D02*
X12059053Y-22732108D01*
X12059053Y-22732108D02*
X12078101Y-22722584D01*
X12078101Y-22722584D02*
X12125720Y-22722584D01*
X12125720Y-22722584D02*
X12144767Y-22732108D01*
X12144767Y-22732108D02*
X12154291Y-22741631D01*
X12154291Y-22741631D02*
X12163815Y-22760679D01*
X12163815Y-22760679D02*
X12163815Y-22779727D01*
X12163815Y-22779727D02*
X12154291Y-22808298D01*
X12154291Y-22808298D02*
X12040005Y-22922584D01*
X12040005Y-22922584D02*
X12163815Y-22922584D01*
X12335244Y-22722584D02*
X12297148Y-22722584D01*
X12297148Y-22722584D02*
X12278101Y-22732108D01*
X12278101Y-22732108D02*
X12268577Y-22741631D01*
X12268577Y-22741631D02*
X12249529Y-22770203D01*
X12249529Y-22770203D02*
X12240005Y-22808298D01*
X12240005Y-22808298D02*
X12240005Y-22884489D01*
X12240005Y-22884489D02*
X12249529Y-22903536D01*
X12249529Y-22903536D02*
X12259053Y-22913060D01*
X12259053Y-22913060D02*
X12278101Y-22922584D01*
X12278101Y-22922584D02*
X12316196Y-22922584D01*
X12316196Y-22922584D02*
X12335244Y-22913060D01*
X12335244Y-22913060D02*
X12344767Y-22903536D01*
X12344767Y-22903536D02*
X12354291Y-22884489D01*
X12354291Y-22884489D02*
X12354291Y-22836870D01*
X12354291Y-22836870D02*
X12344767Y-22817822D01*
X12344767Y-22817822D02*
X12335244Y-22808298D01*
X12335244Y-22808298D02*
X12316196Y-22798774D01*
X12316196Y-22798774D02*
X12278101Y-22798774D01*
X12278101Y-22798774D02*
X12259053Y-22808298D01*
X12259053Y-22808298D02*
X12249529Y-22817822D01*
X12249529Y-22817822D02*
X12240005Y-22836870D01*
X12592386Y-22922584D02*
X12592386Y-22722584D01*
X12678101Y-22922584D02*
X12678101Y-22817822D01*
X12678101Y-22817822D02*
X12668577Y-22798774D01*
X12668577Y-22798774D02*
X12649529Y-22789250D01*
X12649529Y-22789250D02*
X12620958Y-22789250D01*
X12620958Y-22789250D02*
X12601910Y-22798774D01*
X12601910Y-22798774D02*
X12592386Y-22808298D01*
X12801910Y-22922584D02*
X12782863Y-22913060D01*
X12782863Y-22913060D02*
X12773339Y-22903536D01*
X12773339Y-22903536D02*
X12763815Y-22884489D01*
X12763815Y-22884489D02*
X12763815Y-22827346D01*
X12763815Y-22827346D02*
X12773339Y-22808298D01*
X12773339Y-22808298D02*
X12782863Y-22798774D01*
X12782863Y-22798774D02*
X12801910Y-22789250D01*
X12801910Y-22789250D02*
X12830482Y-22789250D01*
X12830482Y-22789250D02*
X12849529Y-22798774D01*
X12849529Y-22798774D02*
X12859053Y-22808298D01*
X12859053Y-22808298D02*
X12868577Y-22827346D01*
X12868577Y-22827346D02*
X12868577Y-22884489D01*
X12868577Y-22884489D02*
X12859053Y-22903536D01*
X12859053Y-22903536D02*
X12849529Y-22913060D01*
X12849529Y-22913060D02*
X12830482Y-22922584D01*
X12830482Y-22922584D02*
X12801910Y-22922584D01*
X12982863Y-22922584D02*
X12963815Y-22913060D01*
X12963815Y-22913060D02*
X12954291Y-22894012D01*
X12954291Y-22894012D02*
X12954291Y-22722584D01*
X13135244Y-22913060D02*
X13116196Y-22922584D01*
X13116196Y-22922584D02*
X13078101Y-22922584D01*
X13078101Y-22922584D02*
X13059053Y-22913060D01*
X13059053Y-22913060D02*
X13049529Y-22894012D01*
X13049529Y-22894012D02*
X13049529Y-22817822D01*
X13049529Y-22817822D02*
X13059053Y-22798774D01*
X13059053Y-22798774D02*
X13078101Y-22789250D01*
X13078101Y-22789250D02*
X13116196Y-22789250D01*
X13116196Y-22789250D02*
X13135244Y-22798774D01*
X13135244Y-22798774D02*
X13144767Y-22817822D01*
X13144767Y-22817822D02*
X13144767Y-22836870D01*
X13144767Y-22836870D02*
X13049529Y-22855917D01*
X13220958Y-22913060D02*
X13240006Y-22922584D01*
X13240006Y-22922584D02*
X13278101Y-22922584D01*
X13278101Y-22922584D02*
X13297148Y-22913060D01*
X13297148Y-22913060D02*
X13306672Y-22894012D01*
X13306672Y-22894012D02*
X13306672Y-22884489D01*
X13306672Y-22884489D02*
X13297148Y-22865441D01*
X13297148Y-22865441D02*
X13278101Y-22855917D01*
X13278101Y-22855917D02*
X13249529Y-22855917D01*
X13249529Y-22855917D02*
X13230482Y-22846393D01*
X13230482Y-22846393D02*
X13220958Y-22827346D01*
X13220958Y-22827346D02*
X13220958Y-22817822D01*
X13220958Y-22817822D02*
X13230482Y-22798774D01*
X13230482Y-22798774D02*
X13249529Y-22789250D01*
X13249529Y-22789250D02*
X13278101Y-22789250D01*
X13278101Y-22789250D02*
X13297148Y-22798774D01*
X13373339Y-22998774D02*
X13382863Y-22989250D01*
X13382863Y-22989250D02*
X13401910Y-22960679D01*
X13401910Y-22960679D02*
X13411434Y-22941631D01*
X13411434Y-22941631D02*
X13420958Y-22913060D01*
X13420958Y-22913060D02*
X13430482Y-22865441D01*
X13430482Y-22865441D02*
X13430482Y-22827346D01*
X13430482Y-22827346D02*
X13420958Y-22779727D01*
X13420958Y-22779727D02*
X13411434Y-22751155D01*
X13411434Y-22751155D02*
X13401910Y-22732108D01*
X13401910Y-22732108D02*
X13382863Y-22703536D01*
X13382863Y-22703536D02*
X13373339Y-22694012D01*
X13735244Y-22998774D02*
X13725720Y-22989250D01*
X13725720Y-22989250D02*
X13706672Y-22960679D01*
X13706672Y-22960679D02*
X13697148Y-22941631D01*
X13697148Y-22941631D02*
X13687625Y-22913060D01*
X13687625Y-22913060D02*
X13678101Y-22865441D01*
X13678101Y-22865441D02*
X13678101Y-22827346D01*
X13678101Y-22827346D02*
X13687625Y-22779727D01*
X13687625Y-22779727D02*
X13697148Y-22751155D01*
X13697148Y-22751155D02*
X13706672Y-22732108D01*
X13706672Y-22732108D02*
X13725720Y-22703536D01*
X13725720Y-22703536D02*
X13735244Y-22694012D01*
X13811434Y-22789250D02*
X13811434Y-22922584D01*
X13811434Y-22808298D02*
X13820958Y-22798774D01*
X13820958Y-22798774D02*
X13840006Y-22789250D01*
X13840006Y-22789250D02*
X13868577Y-22789250D01*
X13868577Y-22789250D02*
X13887625Y-22798774D01*
X13887625Y-22798774D02*
X13897148Y-22817822D01*
X13897148Y-22817822D02*
X13897148Y-22922584D01*
X14020958Y-22922584D02*
X14001910Y-22913060D01*
X14001910Y-22913060D02*
X13992387Y-22903536D01*
X13992387Y-22903536D02*
X13982863Y-22884489D01*
X13982863Y-22884489D02*
X13982863Y-22827346D01*
X13982863Y-22827346D02*
X13992387Y-22808298D01*
X13992387Y-22808298D02*
X14001910Y-22798774D01*
X14001910Y-22798774D02*
X14020958Y-22789250D01*
X14020958Y-22789250D02*
X14049529Y-22789250D01*
X14049529Y-22789250D02*
X14068577Y-22798774D01*
X14068577Y-22798774D02*
X14078101Y-22808298D01*
X14078101Y-22808298D02*
X14087625Y-22827346D01*
X14087625Y-22827346D02*
X14087625Y-22884489D01*
X14087625Y-22884489D02*
X14078101Y-22903536D01*
X14078101Y-22903536D02*
X14068577Y-22913060D01*
X14068577Y-22913060D02*
X14049529Y-22922584D01*
X14049529Y-22922584D02*
X14020958Y-22922584D01*
X14144768Y-22789250D02*
X14220958Y-22789250D01*
X14173339Y-22722584D02*
X14173339Y-22894012D01*
X14173339Y-22894012D02*
X14182863Y-22913060D01*
X14182863Y-22913060D02*
X14201910Y-22922584D01*
X14201910Y-22922584D02*
X14220958Y-22922584D01*
X14440006Y-22789250D02*
X14440006Y-22989250D01*
X14440006Y-22798774D02*
X14459053Y-22789250D01*
X14459053Y-22789250D02*
X14497149Y-22789250D01*
X14497149Y-22789250D02*
X14516196Y-22798774D01*
X14516196Y-22798774D02*
X14525720Y-22808298D01*
X14525720Y-22808298D02*
X14535244Y-22827346D01*
X14535244Y-22827346D02*
X14535244Y-22884489D01*
X14535244Y-22884489D02*
X14525720Y-22903536D01*
X14525720Y-22903536D02*
X14516196Y-22913060D01*
X14516196Y-22913060D02*
X14497149Y-22922584D01*
X14497149Y-22922584D02*
X14459053Y-22922584D01*
X14459053Y-22922584D02*
X14440006Y-22913060D01*
X14649529Y-22922584D02*
X14630482Y-22913060D01*
X14630482Y-22913060D02*
X14620958Y-22894012D01*
X14620958Y-22894012D02*
X14620958Y-22722584D01*
X14811434Y-22922584D02*
X14811434Y-22817822D01*
X14811434Y-22817822D02*
X14801910Y-22798774D01*
X14801910Y-22798774D02*
X14782863Y-22789250D01*
X14782863Y-22789250D02*
X14744768Y-22789250D01*
X14744768Y-22789250D02*
X14725720Y-22798774D01*
X14811434Y-22913060D02*
X14792387Y-22922584D01*
X14792387Y-22922584D02*
X14744768Y-22922584D01*
X14744768Y-22922584D02*
X14725720Y-22913060D01*
X14725720Y-22913060D02*
X14716196Y-22894012D01*
X14716196Y-22894012D02*
X14716196Y-22874965D01*
X14716196Y-22874965D02*
X14725720Y-22855917D01*
X14725720Y-22855917D02*
X14744768Y-22846393D01*
X14744768Y-22846393D02*
X14792387Y-22846393D01*
X14792387Y-22846393D02*
X14811434Y-22836870D01*
X14878101Y-22789250D02*
X14954291Y-22789250D01*
X14906672Y-22722584D02*
X14906672Y-22894012D01*
X14906672Y-22894012D02*
X14916196Y-22913060D01*
X14916196Y-22913060D02*
X14935244Y-22922584D01*
X14935244Y-22922584D02*
X14954291Y-22922584D01*
X15097149Y-22913060D02*
X15078101Y-22922584D01*
X15078101Y-22922584D02*
X15040006Y-22922584D01*
X15040006Y-22922584D02*
X15020958Y-22913060D01*
X15020958Y-22913060D02*
X15011434Y-22894012D01*
X15011434Y-22894012D02*
X15011434Y-22817822D01*
X15011434Y-22817822D02*
X15020958Y-22798774D01*
X15020958Y-22798774D02*
X15040006Y-22789250D01*
X15040006Y-22789250D02*
X15078101Y-22789250D01*
X15078101Y-22789250D02*
X15097149Y-22798774D01*
X15097149Y-22798774D02*
X15106672Y-22817822D01*
X15106672Y-22817822D02*
X15106672Y-22836870D01*
X15106672Y-22836870D02*
X15011434Y-22855917D01*
X15278101Y-22922584D02*
X15278101Y-22722584D01*
X15278101Y-22913060D02*
X15259053Y-22922584D01*
X15259053Y-22922584D02*
X15220958Y-22922584D01*
X15220958Y-22922584D02*
X15201910Y-22913060D01*
X15201910Y-22913060D02*
X15192387Y-22903536D01*
X15192387Y-22903536D02*
X15182863Y-22884489D01*
X15182863Y-22884489D02*
X15182863Y-22827346D01*
X15182863Y-22827346D02*
X15192387Y-22808298D01*
X15192387Y-22808298D02*
X15201910Y-22798774D01*
X15201910Y-22798774D02*
X15220958Y-22789250D01*
X15220958Y-22789250D02*
X15259053Y-22789250D01*
X15259053Y-22789250D02*
X15278101Y-22798774D01*
X15354291Y-22998774D02*
X15363815Y-22989250D01*
X15363815Y-22989250D02*
X15382863Y-22960679D01*
X15382863Y-22960679D02*
X15392387Y-22941631D01*
X15392387Y-22941631D02*
X15401910Y-22913060D01*
X15401910Y-22913060D02*
X15411434Y-22865441D01*
X15411434Y-22865441D02*
X15411434Y-22827346D01*
X15411434Y-22827346D02*
X15401910Y-22779727D01*
X15401910Y-22779727D02*
X15392387Y-22751155D01*
X15392387Y-22751155D02*
X15382863Y-22732108D01*
X15382863Y-22732108D02*
X15363815Y-22703536D01*
X15363815Y-22703536D02*
X15354291Y-22694012D01*
X8207800Y-23051100D02*
X8407800Y-23251100D01*
X8407800Y-23051100D02*
X8207800Y-23251100D01*
X8407800Y-23151100D02*
G75*
G02*
X8207800Y-23151100I-100000J0D01*
G01*
X8207800Y-23151100D02*
G75*
G02*
X8407800Y-23151100I100000J0D01*
G01*
X8649529Y-23042584D02*
X8773339Y-23042584D01*
X8773339Y-23042584D02*
X8706672Y-23118774D01*
X8706672Y-23118774D02*
X8735243Y-23118774D01*
X8735243Y-23118774D02*
X8754291Y-23128298D01*
X8754291Y-23128298D02*
X8763815Y-23137822D01*
X8763815Y-23137822D02*
X8773339Y-23156870D01*
X8773339Y-23156870D02*
X8773339Y-23204489D01*
X8773339Y-23204489D02*
X8763815Y-23223536D01*
X8763815Y-23223536D02*
X8754291Y-23233060D01*
X8754291Y-23233060D02*
X8735243Y-23242584D01*
X8735243Y-23242584D02*
X8678100Y-23242584D01*
X8678100Y-23242584D02*
X8659053Y-23233060D01*
X8659053Y-23233060D02*
X8649529Y-23223536D01*
X8859053Y-23223536D02*
X8868577Y-23233060D01*
X8868577Y-23233060D02*
X8859053Y-23242584D01*
X8859053Y-23242584D02*
X8849529Y-23233060D01*
X8849529Y-23233060D02*
X8859053Y-23223536D01*
X8859053Y-23223536D02*
X8859053Y-23242584D01*
X9049529Y-23042584D02*
X8954291Y-23042584D01*
X8954291Y-23042584D02*
X8944767Y-23137822D01*
X8944767Y-23137822D02*
X8954291Y-23128298D01*
X8954291Y-23128298D02*
X8973339Y-23118774D01*
X8973339Y-23118774D02*
X9020958Y-23118774D01*
X9020958Y-23118774D02*
X9040005Y-23128298D01*
X9040005Y-23128298D02*
X9049529Y-23137822D01*
X9049529Y-23137822D02*
X9059053Y-23156870D01*
X9059053Y-23156870D02*
X9059053Y-23204489D01*
X9059053Y-23204489D02*
X9049529Y-23223536D01*
X9049529Y-23223536D02*
X9040005Y-23233060D01*
X9040005Y-23233060D02*
X9020958Y-23242584D01*
X9020958Y-23242584D02*
X8973339Y-23242584D01*
X8973339Y-23242584D02*
X8954291Y-23233060D01*
X8954291Y-23233060D02*
X8944767Y-23223536D01*
X9182862Y-23042584D02*
X9201910Y-23042584D01*
X9201910Y-23042584D02*
X9220958Y-23052108D01*
X9220958Y-23052108D02*
X9230481Y-23061631D01*
X9230481Y-23061631D02*
X9240005Y-23080679D01*
X9240005Y-23080679D02*
X9249529Y-23118774D01*
X9249529Y-23118774D02*
X9249529Y-23166393D01*
X9249529Y-23166393D02*
X9240005Y-23204489D01*
X9240005Y-23204489D02*
X9230481Y-23223536D01*
X9230481Y-23223536D02*
X9220958Y-23233060D01*
X9220958Y-23233060D02*
X9201910Y-23242584D01*
X9201910Y-23242584D02*
X9182862Y-23242584D01*
X9182862Y-23242584D02*
X9163815Y-23233060D01*
X9163815Y-23233060D02*
X9154291Y-23223536D01*
X9154291Y-23223536D02*
X9144767Y-23204489D01*
X9144767Y-23204489D02*
X9135243Y-23166393D01*
X9135243Y-23166393D02*
X9135243Y-23118774D01*
X9135243Y-23118774D02*
X9144767Y-23080679D01*
X9144767Y-23080679D02*
X9154291Y-23061631D01*
X9154291Y-23061631D02*
X9163815Y-23052108D01*
X9163815Y-23052108D02*
X9182862Y-23042584D01*
X9373339Y-23042584D02*
X9392386Y-23042584D01*
X9392386Y-23042584D02*
X9411434Y-23052108D01*
X9411434Y-23052108D02*
X9420958Y-23061631D01*
X9420958Y-23061631D02*
X9430481Y-23080679D01*
X9430481Y-23080679D02*
X9440005Y-23118774D01*
X9440005Y-23118774D02*
X9440005Y-23166393D01*
X9440005Y-23166393D02*
X9430481Y-23204489D01*
X9430481Y-23204489D02*
X9420958Y-23223536D01*
X9420958Y-23223536D02*
X9411434Y-23233060D01*
X9411434Y-23233060D02*
X9392386Y-23242584D01*
X9392386Y-23242584D02*
X9373339Y-23242584D01*
X9373339Y-23242584D02*
X9354291Y-23233060D01*
X9354291Y-23233060D02*
X9344767Y-23223536D01*
X9344767Y-23223536D02*
X9335243Y-23204489D01*
X9335243Y-23204489D02*
X9325720Y-23166393D01*
X9325720Y-23166393D02*
X9325720Y-23118774D01*
X9325720Y-23118774D02*
X9335243Y-23080679D01*
X9335243Y-23080679D02*
X9344767Y-23061631D01*
X9344767Y-23061631D02*
X9354291Y-23052108D01*
X9354291Y-23052108D02*
X9373339Y-23042584D01*
X9525720Y-23242584D02*
X9525720Y-23109250D01*
X9525720Y-23128298D02*
X9535243Y-23118774D01*
X9535243Y-23118774D02*
X9554291Y-23109250D01*
X9554291Y-23109250D02*
X9582862Y-23109250D01*
X9582862Y-23109250D02*
X9601910Y-23118774D01*
X9601910Y-23118774D02*
X9611434Y-23137822D01*
X9611434Y-23137822D02*
X9611434Y-23242584D01*
X9611434Y-23137822D02*
X9620958Y-23118774D01*
X9620958Y-23118774D02*
X9640005Y-23109250D01*
X9640005Y-23109250D02*
X9668577Y-23109250D01*
X9668577Y-23109250D02*
X9687624Y-23118774D01*
X9687624Y-23118774D02*
X9697148Y-23137822D01*
X9697148Y-23137822D02*
X9697148Y-23242584D01*
X9792386Y-23242584D02*
X9792386Y-23109250D01*
X9792386Y-23128298D02*
X9801910Y-23118774D01*
X9801910Y-23118774D02*
X9820958Y-23109250D01*
X9820958Y-23109250D02*
X9849529Y-23109250D01*
X9849529Y-23109250D02*
X9868577Y-23118774D01*
X9868577Y-23118774D02*
X9878101Y-23137822D01*
X9878101Y-23137822D02*
X9878101Y-23242584D01*
X9878101Y-23137822D02*
X9887624Y-23118774D01*
X9887624Y-23118774D02*
X9906672Y-23109250D01*
X9906672Y-23109250D02*
X9935243Y-23109250D01*
X9935243Y-23109250D02*
X9954291Y-23118774D01*
X9954291Y-23118774D02*
X9963815Y-23137822D01*
X9963815Y-23137822D02*
X9963815Y-23242584D01*
X10354291Y-23033060D02*
X10182863Y-23290203D01*
X10611434Y-23042584D02*
X10630482Y-23042584D01*
X10630482Y-23042584D02*
X10649529Y-23052108D01*
X10649529Y-23052108D02*
X10659053Y-23061631D01*
X10659053Y-23061631D02*
X10668577Y-23080679D01*
X10668577Y-23080679D02*
X10678101Y-23118774D01*
X10678101Y-23118774D02*
X10678101Y-23166393D01*
X10678101Y-23166393D02*
X10668577Y-23204489D01*
X10668577Y-23204489D02*
X10659053Y-23223536D01*
X10659053Y-23223536D02*
X10649529Y-23233060D01*
X10649529Y-23233060D02*
X10630482Y-23242584D01*
X10630482Y-23242584D02*
X10611434Y-23242584D01*
X10611434Y-23242584D02*
X10592386Y-23233060D01*
X10592386Y-23233060D02*
X10582863Y-23223536D01*
X10582863Y-23223536D02*
X10573339Y-23204489D01*
X10573339Y-23204489D02*
X10563815Y-23166393D01*
X10563815Y-23166393D02*
X10563815Y-23118774D01*
X10563815Y-23118774D02*
X10573339Y-23080679D01*
X10573339Y-23080679D02*
X10582863Y-23061631D01*
X10582863Y-23061631D02*
X10592386Y-23052108D01*
X10592386Y-23052108D02*
X10611434Y-23042584D01*
X10763815Y-23223536D02*
X10773339Y-23233060D01*
X10773339Y-23233060D02*
X10763815Y-23242584D01*
X10763815Y-23242584D02*
X10754291Y-23233060D01*
X10754291Y-23233060D02*
X10763815Y-23223536D01*
X10763815Y-23223536D02*
X10763815Y-23242584D01*
X10963815Y-23242584D02*
X10849529Y-23242584D01*
X10906672Y-23242584D02*
X10906672Y-23042584D01*
X10906672Y-23042584D02*
X10887624Y-23071155D01*
X10887624Y-23071155D02*
X10868577Y-23090203D01*
X10868577Y-23090203D02*
X10849529Y-23099727D01*
X11030482Y-23042584D02*
X11154291Y-23042584D01*
X11154291Y-23042584D02*
X11087624Y-23118774D01*
X11087624Y-23118774D02*
X11116196Y-23118774D01*
X11116196Y-23118774D02*
X11135244Y-23128298D01*
X11135244Y-23128298D02*
X11144767Y-23137822D01*
X11144767Y-23137822D02*
X11154291Y-23156870D01*
X11154291Y-23156870D02*
X11154291Y-23204489D01*
X11154291Y-23204489D02*
X11144767Y-23223536D01*
X11144767Y-23223536D02*
X11135244Y-23233060D01*
X11135244Y-23233060D02*
X11116196Y-23242584D01*
X11116196Y-23242584D02*
X11059053Y-23242584D01*
X11059053Y-23242584D02*
X11040005Y-23233060D01*
X11040005Y-23233060D02*
X11030482Y-23223536D01*
X11220958Y-23042584D02*
X11354291Y-23042584D01*
X11354291Y-23042584D02*
X11268577Y-23242584D01*
X11459053Y-23128298D02*
X11440005Y-23118774D01*
X11440005Y-23118774D02*
X11430482Y-23109250D01*
X11430482Y-23109250D02*
X11420958Y-23090203D01*
X11420958Y-23090203D02*
X11420958Y-23080679D01*
X11420958Y-23080679D02*
X11430482Y-23061631D01*
X11430482Y-23061631D02*
X11440005Y-23052108D01*
X11440005Y-23052108D02*
X11459053Y-23042584D01*
X11459053Y-23042584D02*
X11497148Y-23042584D01*
X11497148Y-23042584D02*
X11516196Y-23052108D01*
X11516196Y-23052108D02*
X11525720Y-23061631D01*
X11525720Y-23061631D02*
X11535243Y-23080679D01*
X11535243Y-23080679D02*
X11535243Y-23090203D01*
X11535243Y-23090203D02*
X11525720Y-23109250D01*
X11525720Y-23109250D02*
X11516196Y-23118774D01*
X11516196Y-23118774D02*
X11497148Y-23128298D01*
X11497148Y-23128298D02*
X11459053Y-23128298D01*
X11459053Y-23128298D02*
X11440005Y-23137822D01*
X11440005Y-23137822D02*
X11430482Y-23147346D01*
X11430482Y-23147346D02*
X11420958Y-23166393D01*
X11420958Y-23166393D02*
X11420958Y-23204489D01*
X11420958Y-23204489D02*
X11430482Y-23223536D01*
X11430482Y-23223536D02*
X11440005Y-23233060D01*
X11440005Y-23233060D02*
X11459053Y-23242584D01*
X11459053Y-23242584D02*
X11497148Y-23242584D01*
X11497148Y-23242584D02*
X11516196Y-23233060D01*
X11516196Y-23233060D02*
X11525720Y-23223536D01*
X11525720Y-23223536D02*
X11535243Y-23204489D01*
X11535243Y-23204489D02*
X11535243Y-23166393D01*
X11535243Y-23166393D02*
X11525720Y-23147346D01*
X11525720Y-23147346D02*
X11516196Y-23137822D01*
X11516196Y-23137822D02*
X11497148Y-23128298D01*
X11611434Y-23042584D02*
X11611434Y-23080679D01*
X11687624Y-23042584D02*
X11687624Y-23080679D01*
X11982863Y-23318774D02*
X11973339Y-23309250D01*
X11973339Y-23309250D02*
X11954291Y-23280679D01*
X11954291Y-23280679D02*
X11944767Y-23261631D01*
X11944767Y-23261631D02*
X11935244Y-23233060D01*
X11935244Y-23233060D02*
X11925720Y-23185441D01*
X11925720Y-23185441D02*
X11925720Y-23147346D01*
X11925720Y-23147346D02*
X11935244Y-23099727D01*
X11935244Y-23099727D02*
X11944767Y-23071155D01*
X11944767Y-23071155D02*
X11954291Y-23052108D01*
X11954291Y-23052108D02*
X11973339Y-23023536D01*
X11973339Y-23023536D02*
X11982863Y-23014012D01*
X12144767Y-23109250D02*
X12144767Y-23242584D01*
X12097148Y-23033060D02*
X12049529Y-23175917D01*
X12049529Y-23175917D02*
X12173339Y-23175917D01*
X12401910Y-23242584D02*
X12401910Y-23042584D01*
X12487625Y-23242584D02*
X12487625Y-23137822D01*
X12487625Y-23137822D02*
X12478101Y-23118774D01*
X12478101Y-23118774D02*
X12459053Y-23109250D01*
X12459053Y-23109250D02*
X12430482Y-23109250D01*
X12430482Y-23109250D02*
X12411434Y-23118774D01*
X12411434Y-23118774D02*
X12401910Y-23128298D01*
X12611434Y-23242584D02*
X12592386Y-23233060D01*
X12592386Y-23233060D02*
X12582863Y-23223536D01*
X12582863Y-23223536D02*
X12573339Y-23204489D01*
X12573339Y-23204489D02*
X12573339Y-23147346D01*
X12573339Y-23147346D02*
X12582863Y-23128298D01*
X12582863Y-23128298D02*
X12592386Y-23118774D01*
X12592386Y-23118774D02*
X12611434Y-23109250D01*
X12611434Y-23109250D02*
X12640006Y-23109250D01*
X12640006Y-23109250D02*
X12659053Y-23118774D01*
X12659053Y-23118774D02*
X12668577Y-23128298D01*
X12668577Y-23128298D02*
X12678101Y-23147346D01*
X12678101Y-23147346D02*
X12678101Y-23204489D01*
X12678101Y-23204489D02*
X12668577Y-23223536D01*
X12668577Y-23223536D02*
X12659053Y-23233060D01*
X12659053Y-23233060D02*
X12640006Y-23242584D01*
X12640006Y-23242584D02*
X12611434Y-23242584D01*
X12792386Y-23242584D02*
X12773339Y-23233060D01*
X12773339Y-23233060D02*
X12763815Y-23214012D01*
X12763815Y-23214012D02*
X12763815Y-23042584D01*
X12944767Y-23233060D02*
X12925720Y-23242584D01*
X12925720Y-23242584D02*
X12887625Y-23242584D01*
X12887625Y-23242584D02*
X12868577Y-23233060D01*
X12868577Y-23233060D02*
X12859053Y-23214012D01*
X12859053Y-23214012D02*
X12859053Y-23137822D01*
X12859053Y-23137822D02*
X12868577Y-23118774D01*
X12868577Y-23118774D02*
X12887625Y-23109250D01*
X12887625Y-23109250D02*
X12925720Y-23109250D01*
X12925720Y-23109250D02*
X12944767Y-23118774D01*
X12944767Y-23118774D02*
X12954291Y-23137822D01*
X12954291Y-23137822D02*
X12954291Y-23156870D01*
X12954291Y-23156870D02*
X12859053Y-23175917D01*
X13030482Y-23233060D02*
X13049529Y-23242584D01*
X13049529Y-23242584D02*
X13087625Y-23242584D01*
X13087625Y-23242584D02*
X13106672Y-23233060D01*
X13106672Y-23233060D02*
X13116196Y-23214012D01*
X13116196Y-23214012D02*
X13116196Y-23204489D01*
X13116196Y-23204489D02*
X13106672Y-23185441D01*
X13106672Y-23185441D02*
X13087625Y-23175917D01*
X13087625Y-23175917D02*
X13059053Y-23175917D01*
X13059053Y-23175917D02*
X13040006Y-23166393D01*
X13040006Y-23166393D02*
X13030482Y-23147346D01*
X13030482Y-23147346D02*
X13030482Y-23137822D01*
X13030482Y-23137822D02*
X13040006Y-23118774D01*
X13040006Y-23118774D02*
X13059053Y-23109250D01*
X13059053Y-23109250D02*
X13087625Y-23109250D01*
X13087625Y-23109250D02*
X13106672Y-23118774D01*
X13182863Y-23318774D02*
X13192387Y-23309250D01*
X13192387Y-23309250D02*
X13211434Y-23280679D01*
X13211434Y-23280679D02*
X13220958Y-23261631D01*
X13220958Y-23261631D02*
X13230482Y-23233060D01*
X13230482Y-23233060D02*
X13240006Y-23185441D01*
X13240006Y-23185441D02*
X13240006Y-23147346D01*
X13240006Y-23147346D02*
X13230482Y-23099727D01*
X13230482Y-23099727D02*
X13220958Y-23071155D01*
X13220958Y-23071155D02*
X13211434Y-23052108D01*
X13211434Y-23052108D02*
X13192387Y-23023536D01*
X13192387Y-23023536D02*
X13182863Y-23014012D01*
X13544768Y-23318774D02*
X13535244Y-23309250D01*
X13535244Y-23309250D02*
X13516196Y-23280679D01*
X13516196Y-23280679D02*
X13506672Y-23261631D01*
X13506672Y-23261631D02*
X13497148Y-23233060D01*
X13497148Y-23233060D02*
X13487625Y-23185441D01*
X13487625Y-23185441D02*
X13487625Y-23147346D01*
X13487625Y-23147346D02*
X13497148Y-23099727D01*
X13497148Y-23099727D02*
X13506672Y-23071155D01*
X13506672Y-23071155D02*
X13516196Y-23052108D01*
X13516196Y-23052108D02*
X13535244Y-23023536D01*
X13535244Y-23023536D02*
X13544768Y-23014012D01*
X13620958Y-23109250D02*
X13620958Y-23242584D01*
X13620958Y-23128298D02*
X13630482Y-23118774D01*
X13630482Y-23118774D02*
X13649529Y-23109250D01*
X13649529Y-23109250D02*
X13678101Y-23109250D01*
X13678101Y-23109250D02*
X13697148Y-23118774D01*
X13697148Y-23118774D02*
X13706672Y-23137822D01*
X13706672Y-23137822D02*
X13706672Y-23242584D01*
X13830482Y-23242584D02*
X13811434Y-23233060D01*
X13811434Y-23233060D02*
X13801910Y-23223536D01*
X13801910Y-23223536D02*
X13792387Y-23204489D01*
X13792387Y-23204489D02*
X13792387Y-23147346D01*
X13792387Y-23147346D02*
X13801910Y-23128298D01*
X13801910Y-23128298D02*
X13811434Y-23118774D01*
X13811434Y-23118774D02*
X13830482Y-23109250D01*
X13830482Y-23109250D02*
X13859053Y-23109250D01*
X13859053Y-23109250D02*
X13878101Y-23118774D01*
X13878101Y-23118774D02*
X13887625Y-23128298D01*
X13887625Y-23128298D02*
X13897148Y-23147346D01*
X13897148Y-23147346D02*
X13897148Y-23204489D01*
X13897148Y-23204489D02*
X13887625Y-23223536D01*
X13887625Y-23223536D02*
X13878101Y-23233060D01*
X13878101Y-23233060D02*
X13859053Y-23242584D01*
X13859053Y-23242584D02*
X13830482Y-23242584D01*
X13954291Y-23109250D02*
X14030482Y-23109250D01*
X13982863Y-23042584D02*
X13982863Y-23214012D01*
X13982863Y-23214012D02*
X13992387Y-23233060D01*
X13992387Y-23233060D02*
X14011434Y-23242584D01*
X14011434Y-23242584D02*
X14030482Y-23242584D01*
X14249529Y-23109250D02*
X14249529Y-23309250D01*
X14249529Y-23118774D02*
X14268577Y-23109250D01*
X14268577Y-23109250D02*
X14306672Y-23109250D01*
X14306672Y-23109250D02*
X14325720Y-23118774D01*
X14325720Y-23118774D02*
X14335244Y-23128298D01*
X14335244Y-23128298D02*
X14344768Y-23147346D01*
X14344768Y-23147346D02*
X14344768Y-23204489D01*
X14344768Y-23204489D02*
X14335244Y-23223536D01*
X14335244Y-23223536D02*
X14325720Y-23233060D01*
X14325720Y-23233060D02*
X14306672Y-23242584D01*
X14306672Y-23242584D02*
X14268577Y-23242584D01*
X14268577Y-23242584D02*
X14249529Y-23233060D01*
X14459053Y-23242584D02*
X14440006Y-23233060D01*
X14440006Y-23233060D02*
X14430482Y-23214012D01*
X14430482Y-23214012D02*
X14430482Y-23042584D01*
X14620958Y-23242584D02*
X14620958Y-23137822D01*
X14620958Y-23137822D02*
X14611434Y-23118774D01*
X14611434Y-23118774D02*
X14592387Y-23109250D01*
X14592387Y-23109250D02*
X14554291Y-23109250D01*
X14554291Y-23109250D02*
X14535244Y-23118774D01*
X14620958Y-23233060D02*
X14601910Y-23242584D01*
X14601910Y-23242584D02*
X14554291Y-23242584D01*
X14554291Y-23242584D02*
X14535244Y-23233060D01*
X14535244Y-23233060D02*
X14525720Y-23214012D01*
X14525720Y-23214012D02*
X14525720Y-23194965D01*
X14525720Y-23194965D02*
X14535244Y-23175917D01*
X14535244Y-23175917D02*
X14554291Y-23166393D01*
X14554291Y-23166393D02*
X14601910Y-23166393D01*
X14601910Y-23166393D02*
X14620958Y-23156870D01*
X14687625Y-23109250D02*
X14763815Y-23109250D01*
X14716196Y-23042584D02*
X14716196Y-23214012D01*
X14716196Y-23214012D02*
X14725720Y-23233060D01*
X14725720Y-23233060D02*
X14744768Y-23242584D01*
X14744768Y-23242584D02*
X14763815Y-23242584D01*
X14906672Y-23233060D02*
X14887625Y-23242584D01*
X14887625Y-23242584D02*
X14849529Y-23242584D01*
X14849529Y-23242584D02*
X14830482Y-23233060D01*
X14830482Y-23233060D02*
X14820958Y-23214012D01*
X14820958Y-23214012D02*
X14820958Y-23137822D01*
X14820958Y-23137822D02*
X14830482Y-23118774D01*
X14830482Y-23118774D02*
X14849529Y-23109250D01*
X14849529Y-23109250D02*
X14887625Y-23109250D01*
X14887625Y-23109250D02*
X14906672Y-23118774D01*
X14906672Y-23118774D02*
X14916196Y-23137822D01*
X14916196Y-23137822D02*
X14916196Y-23156870D01*
X14916196Y-23156870D02*
X14820958Y-23175917D01*
X15087625Y-23242584D02*
X15087625Y-23042584D01*
X15087625Y-23233060D02*
X15068577Y-23242584D01*
X15068577Y-23242584D02*
X15030482Y-23242584D01*
X15030482Y-23242584D02*
X15011434Y-23233060D01*
X15011434Y-23233060D02*
X15001910Y-23223536D01*
X15001910Y-23223536D02*
X14992387Y-23204489D01*
X14992387Y-23204489D02*
X14992387Y-23147346D01*
X14992387Y-23147346D02*
X15001910Y-23128298D01*
X15001910Y-23128298D02*
X15011434Y-23118774D01*
X15011434Y-23118774D02*
X15030482Y-23109250D01*
X15030482Y-23109250D02*
X15068577Y-23109250D01*
X15068577Y-23109250D02*
X15087625Y-23118774D01*
X15163815Y-23318774D02*
X15173339Y-23309250D01*
X15173339Y-23309250D02*
X15192387Y-23280679D01*
X15192387Y-23280679D02*
X15201910Y-23261631D01*
X15201910Y-23261631D02*
X15211434Y-23233060D01*
X15211434Y-23233060D02*
X15220958Y-23185441D01*
X15220958Y-23185441D02*
X15220958Y-23147346D01*
X15220958Y-23147346D02*
X15211434Y-23099727D01*
X15211434Y-23099727D02*
X15201910Y-23071155D01*
X15201910Y-23071155D02*
X15192387Y-23052108D01*
X15192387Y-23052108D02*
X15173339Y-23023536D01*
X15173339Y-23023536D02*
X15163815Y-23014012D01*
M02*
