G04 #@! TF.GenerationSoftware,KiCad,Pcbnew,8.0.1*
G04 #@! TF.CreationDate,2024-06-07T19:27:20+03:00*
G04 #@! TF.ProjectId,impeller18,696d7065-6c6c-4657-9231-382e6b696361,rev?*
G04 #@! TF.SameCoordinates,Original*
G04 #@! TF.FileFunction,Paste,Bot*
G04 #@! TF.FilePolarity,Positive*
%FSLAX46Y46*%
G04 Gerber Fmt 4.6, Leading zero omitted, Abs format (unit mm)*
G04 Created by KiCad (PCBNEW 8.0.1) date 2024-06-07 19:27:20*
%MOMM*%
%LPD*%
G01*
G04 APERTURE LIST*
G04 Aperture macros list*
%AMRoundRect*
0 Rectangle with rounded corners*
0 $1 Rounding radius*
0 $2 $3 $4 $5 $6 $7 $8 $9 X,Y pos of 4 corners*
0 Add a 4 corners polygon primitive as box body*
4,1,4,$2,$3,$4,$5,$6,$7,$8,$9,$2,$3,0*
0 Add four circle primitives for the rounded corners*
1,1,$1+$1,$2,$3*
1,1,$1+$1,$4,$5*
1,1,$1+$1,$6,$7*
1,1,$1+$1,$8,$9*
0 Add four rect primitives between the rounded corners*
20,1,$1+$1,$2,$3,$4,$5,0*
20,1,$1+$1,$4,$5,$6,$7,0*
20,1,$1+$1,$6,$7,$8,$9,0*
20,1,$1+$1,$8,$9,$2,$3,0*%
G04 Aperture macros list end*
%ADD10RoundRect,0.200000X0.275000X-0.200000X0.275000X0.200000X-0.275000X0.200000X-0.275000X-0.200000X0*%
%ADD11RoundRect,0.225000X0.250000X-0.225000X0.250000X0.225000X-0.250000X0.225000X-0.250000X-0.225000X0*%
%ADD12RoundRect,0.225000X-0.225000X-0.250000X0.225000X-0.250000X0.225000X0.250000X-0.225000X0.250000X0*%
%ADD13RoundRect,0.200000X-0.200000X-0.550000X0.200000X-0.550000X0.200000X0.550000X-0.200000X0.550000X0*%
%ADD14RoundRect,0.200000X-0.200000X-0.275000X0.200000X-0.275000X0.200000X0.275000X-0.200000X0.275000X0*%
%ADD15RoundRect,0.225000X0.225000X0.250000X-0.225000X0.250000X-0.225000X-0.250000X0.225000X-0.250000X0*%
%ADD16RoundRect,0.200000X-0.275000X0.200000X-0.275000X-0.200000X0.275000X-0.200000X0.275000X0.200000X0*%
%ADD17RoundRect,0.225000X-0.250000X0.225000X-0.250000X-0.225000X0.250000X-0.225000X0.250000X0.225000X0*%
%ADD18RoundRect,0.150000X0.150000X-0.587500X0.150000X0.587500X-0.150000X0.587500X-0.150000X-0.587500X0*%
%ADD19RoundRect,0.150000X-0.587500X-0.150000X0.587500X-0.150000X0.587500X0.150000X-0.587500X0.150000X0*%
%ADD20RoundRect,0.250000X-0.325000X-0.650000X0.325000X-0.650000X0.325000X0.650000X-0.325000X0.650000X0*%
%ADD21RoundRect,0.150000X0.150000X-0.825000X0.150000X0.825000X-0.150000X0.825000X-0.150000X-0.825000X0*%
%ADD22RoundRect,0.200000X0.053033X-0.335876X0.335876X-0.053033X-0.053033X0.335876X-0.335876X0.053033X0*%
%ADD23RoundRect,0.250000X-1.100000X0.325000X-1.100000X-0.325000X1.100000X-0.325000X1.100000X0.325000X0*%
%ADD24RoundRect,0.200000X0.200000X0.275000X-0.200000X0.275000X-0.200000X-0.275000X0.200000X-0.275000X0*%
%ADD25RoundRect,0.200000X0.335876X0.053033X0.053033X0.335876X-0.335876X-0.053033X-0.053033X-0.335876X0*%
%ADD26RoundRect,0.250000X0.325000X0.650000X-0.325000X0.650000X-0.325000X-0.650000X0.325000X-0.650000X0*%
%ADD27RoundRect,0.150000X-0.150000X0.725000X-0.150000X-0.725000X0.150000X-0.725000X0.150000X0.725000X0*%
%ADD28RoundRect,0.225000X-0.017678X0.335876X-0.335876X0.017678X0.017678X-0.335876X0.335876X-0.017678X0*%
%ADD29RoundRect,0.150000X0.512500X0.150000X-0.512500X0.150000X-0.512500X-0.150000X0.512500X-0.150000X0*%
%ADD30RoundRect,0.200000X-0.053033X0.335876X-0.335876X0.053033X0.053033X-0.335876X0.335876X-0.053033X0*%
%ADD31RoundRect,0.250000X-0.325000X-1.100000X0.325000X-1.100000X0.325000X1.100000X-0.325000X1.100000X0*%
%ADD32RoundRect,0.225000X-0.335876X-0.017678X-0.017678X-0.335876X0.335876X0.017678X0.017678X0.335876X0*%
%ADD33RoundRect,0.150000X-0.468458X0.256326X0.256326X-0.468458X0.468458X-0.256326X-0.256326X0.468458X0*%
%ADD34RoundRect,0.200000X0.100391X-0.324880X0.340006X-0.004591X-0.100391X0.324880X-0.340006X0.004591X0*%
%ADD35RoundRect,0.150000X-0.150000X0.825000X-0.150000X-0.825000X0.150000X-0.825000X0.150000X0.825000X0*%
%ADD36R,1.200000X1.400000*%
%ADD37RoundRect,0.150000X0.825000X0.150000X-0.825000X0.150000X-0.825000X-0.150000X0.825000X-0.150000X0*%
%ADD38RoundRect,0.150000X0.150000X-0.875000X0.150000X0.875000X-0.150000X0.875000X-0.150000X-0.875000X0*%
%ADD39RoundRect,0.150000X0.353553X0.565685X-0.565685X-0.353553X-0.353553X-0.565685X0.565685X0.353553X0*%
%ADD40RoundRect,0.150000X0.587500X0.150000X-0.587500X0.150000X-0.587500X-0.150000X0.587500X-0.150000X0*%
%ADD41R,0.700000X1.300000*%
%ADD42R,1.200000X2.000000*%
%ADD43R,1.050000X1.400000*%
%ADD44RoundRect,0.150000X-0.150000X0.587500X-0.150000X-0.587500X0.150000X-0.587500X0.150000X0.587500X0*%
%ADD45RoundRect,0.100000X0.100000X-0.637500X0.100000X0.637500X-0.100000X0.637500X-0.100000X-0.637500X0*%
G04 APERTURE END LIST*
D10*
X178905000Y-180658000D03*
X178905000Y-179008000D03*
D11*
X286179000Y-166035999D03*
X286179000Y-164485999D03*
D12*
X219173678Y-74201000D03*
X220723678Y-74201000D03*
D13*
X128766000Y-74526000D03*
X126226000Y-74526000D03*
X126226000Y-68226000D03*
X128766000Y-68226000D03*
D14*
X196406000Y-145086500D03*
X198056000Y-145086500D03*
D10*
X182606000Y-85481000D03*
X182606000Y-83831000D03*
D15*
X128264000Y-209086001D03*
X126714000Y-209086001D03*
X108583000Y-102435000D03*
X107033000Y-102435000D03*
D16*
X156491000Y-185794000D03*
X156491000Y-187444000D03*
D10*
X196501000Y-148151500D03*
X196501000Y-146501500D03*
X248771000Y-185206001D03*
X248771000Y-183556001D03*
D11*
X220698678Y-71876000D03*
X220698678Y-70326000D03*
D13*
X134766000Y-74526000D03*
X132226000Y-74526000D03*
X132226000Y-68226000D03*
X134766000Y-68226000D03*
D16*
X202772000Y-130041000D03*
X202772000Y-131691000D03*
D14*
X250437000Y-193993501D03*
X252087000Y-193993501D03*
D10*
X287051500Y-115595000D03*
X287051500Y-113945000D03*
X133226000Y-78081000D03*
X133226000Y-76431000D03*
D16*
X174579000Y-127646000D03*
X174579000Y-129296000D03*
D17*
X203089499Y-157446998D03*
X203089499Y-158996998D03*
D10*
X223618678Y-70326000D03*
X223618678Y-68676000D03*
D18*
X189626000Y-88993500D03*
X187726000Y-88993500D03*
X188676000Y-87118500D03*
D12*
X273233501Y-176212001D03*
X274783501Y-176212001D03*
D19*
X289318500Y-102601000D03*
X289318500Y-100701000D03*
X291193500Y-101651000D03*
D20*
X154446000Y-108114000D03*
X157396000Y-108114000D03*
D21*
X240606000Y-192036001D03*
X239336000Y-192036001D03*
X238066000Y-192036001D03*
X236796000Y-192036001D03*
X236796000Y-187086001D03*
X238066000Y-187086001D03*
X239336000Y-187086001D03*
X240606000Y-187086001D03*
D22*
X167799765Y-177365491D03*
X168966491Y-176198765D03*
D19*
X283316499Y-114895000D03*
X283316499Y-112995000D03*
X285191499Y-113945000D03*
D16*
X149766000Y-76431000D03*
X149766000Y-78081000D03*
D10*
X174525000Y-183133000D03*
X174525000Y-181483000D03*
X177445000Y-181483000D03*
X177445000Y-179833000D03*
D20*
X154446000Y-130044000D03*
X157396000Y-130044000D03*
D16*
X244015999Y-181388001D03*
X244015999Y-183038001D03*
D23*
X138229000Y-101952000D03*
X138229000Y-104902000D03*
D24*
X305875000Y-135559000D03*
X304225000Y-135559000D03*
D14*
X304225000Y-149059000D03*
X305875000Y-149059000D03*
D23*
X121304000Y-125081000D03*
X121304000Y-128031000D03*
D10*
X151011500Y-176728000D03*
X151011500Y-175078000D03*
D25*
X128269089Y-92660452D03*
X127102363Y-91493726D03*
D11*
X116203000Y-100455000D03*
X116203000Y-98905000D03*
D13*
X152766000Y-74526000D03*
X150226000Y-74526000D03*
X150226000Y-68226000D03*
X152766000Y-68226000D03*
D26*
X157396000Y-104314000D03*
X154446000Y-104314000D03*
D10*
X222158678Y-77185323D03*
X222158678Y-75535323D03*
D17*
X200926999Y-153671997D03*
X200926999Y-155221997D03*
D18*
X126446000Y-81593500D03*
X124546000Y-81593500D03*
X125496000Y-79718500D03*
D22*
X166767389Y-176333115D03*
X167934115Y-175166389D03*
D27*
X242196000Y-187186001D03*
X243466000Y-187186001D03*
X244736000Y-187186001D03*
X246006000Y-187186001D03*
X246006000Y-192336001D03*
X244736000Y-192336001D03*
X243466000Y-192336001D03*
X242196000Y-192336001D03*
D10*
X282723000Y-195904001D03*
X282723000Y-194254001D03*
X139226000Y-78081000D03*
X139226000Y-76431000D03*
D28*
X116203000Y-102844124D03*
X115106984Y-103940140D03*
D24*
X305875000Y-132559000D03*
X304225000Y-132559000D03*
D18*
X179426000Y-88993500D03*
X177526000Y-88993500D03*
X178476000Y-87118500D03*
D24*
X305875000Y-138559000D03*
X304225000Y-138559000D03*
D14*
X150841500Y-181808000D03*
X152491500Y-181808000D03*
D24*
X184856500Y-202685000D03*
X183206500Y-202685000D03*
D14*
X241780000Y-174783000D03*
X243430000Y-174783000D03*
D13*
X146766000Y-74526000D03*
X144226000Y-74526000D03*
X144226000Y-68226000D03*
X146766000Y-68226000D03*
D18*
X172626000Y-88993500D03*
X170726000Y-88993500D03*
X171676000Y-87118500D03*
D14*
X304225000Y-131059000D03*
X305875000Y-131059000D03*
D29*
X201447000Y-157097000D03*
X201447000Y-158046999D03*
X201447000Y-158996998D03*
X199172000Y-158996998D03*
X199172000Y-158046999D03*
X199172000Y-157097000D03*
D14*
X154066500Y-179268000D03*
X155716500Y-179268000D03*
D16*
X252806000Y-112928000D03*
X252806000Y-114578000D03*
X156491000Y-193294000D03*
X156491000Y-194944000D03*
D24*
X214430500Y-143067000D03*
X212780500Y-143067000D03*
X188774000Y-145228000D03*
X187124000Y-145228000D03*
D16*
X187946000Y-83831000D03*
X187946000Y-85481000D03*
X167546000Y-83831000D03*
X167546000Y-85481000D03*
X194746000Y-83831000D03*
X194746000Y-85481000D03*
D10*
X175806000Y-85481000D03*
X175806000Y-83831000D03*
D15*
X250211000Y-198506001D03*
X248661000Y-198506001D03*
D14*
X304225000Y-143059000D03*
X305875000Y-143059000D03*
D10*
X173065000Y-184783000D03*
X173065000Y-183133000D03*
D18*
X133666000Y-81593500D03*
X131766000Y-81593500D03*
X132716000Y-79718500D03*
D24*
X201312000Y-128656000D03*
X199662000Y-128656000D03*
D14*
X254206000Y-112928000D03*
X255856000Y-112928000D03*
D30*
X242097000Y-203096637D03*
X240930274Y-204263363D03*
D14*
X236396000Y-185131001D03*
X238046000Y-185131001D03*
D13*
X199086000Y-74526000D03*
X196546000Y-74526000D03*
X196546000Y-68226000D03*
X199086000Y-68226000D03*
D18*
X169226000Y-88993500D03*
X167326000Y-88993500D03*
X168276000Y-87118500D03*
D10*
X251929000Y-156132500D03*
X251929000Y-154482500D03*
D16*
X141359001Y-203399500D03*
X141359001Y-205049500D03*
D14*
X190084000Y-145228000D03*
X191734000Y-145228000D03*
D11*
X286179000Y-156346000D03*
X286179000Y-154796000D03*
D16*
X170946000Y-83831000D03*
X170946000Y-85481000D03*
D14*
X97598000Y-99318500D03*
X99248000Y-99318500D03*
D17*
X294942000Y-131744000D03*
X294942000Y-133294000D03*
D26*
X157396000Y-126244000D03*
X154446000Y-126244000D03*
D10*
X235363000Y-136992000D03*
X235363000Y-135342000D03*
X175985000Y-182308000D03*
X175985000Y-180658000D03*
D16*
X250901000Y-112928000D03*
X250901000Y-114578000D03*
D13*
X172926000Y-74526000D03*
X170386000Y-74526000D03*
X170386000Y-68226000D03*
X172926000Y-68226000D03*
D12*
X221886000Y-174463000D03*
X223436000Y-174463000D03*
D25*
X124082726Y-92660452D03*
X122916000Y-91493726D03*
D10*
X179206000Y-85481000D03*
X179206000Y-83831000D03*
X211898000Y-166776000D03*
X211898000Y-165126000D03*
X203089499Y-154909500D03*
X203089499Y-153259500D03*
D23*
X148380500Y-122969000D03*
X148380500Y-125919000D03*
D24*
X249109000Y-193996501D03*
X247459000Y-193996501D03*
D31*
X125279000Y-104633000D03*
X128229000Y-104633000D03*
D18*
X145666000Y-81593500D03*
X143766000Y-81593500D03*
X144716000Y-79718500D03*
D14*
X221463000Y-79551000D03*
X223113000Y-79551000D03*
D32*
X176318463Y-155906463D03*
X177414479Y-157002479D03*
D24*
X245703000Y-122097000D03*
X244053000Y-122097000D03*
D31*
X125279000Y-111033000D03*
X128229000Y-111033000D03*
D12*
X295323999Y-156374000D03*
X296873999Y-156374000D03*
D10*
X126226000Y-78081000D03*
X126226000Y-76431000D03*
X285723000Y-195904001D03*
X285723000Y-194254001D03*
D18*
X165826000Y-81593500D03*
X163926000Y-81593500D03*
X164876000Y-79718500D03*
D14*
X260989500Y-193068001D03*
X262639500Y-193068001D03*
D10*
X172406000Y-85481000D03*
X172406000Y-83831000D03*
D24*
X305875000Y-129559000D03*
X304225000Y-129559000D03*
D14*
X304225000Y-134059000D03*
X305875000Y-134059000D03*
D18*
X139666000Y-81593500D03*
X137766000Y-81593500D03*
X138716000Y-79718500D03*
D15*
X238568000Y-139617000D03*
X237018000Y-139617000D03*
D23*
X124504000Y-125081000D03*
X124504000Y-128031000D03*
D19*
X209268000Y-155737000D03*
X209268000Y-153837000D03*
X211143000Y-154787000D03*
D11*
X284719000Y-156346000D03*
X284719000Y-154796000D03*
D10*
X291723000Y-195904001D03*
X291723000Y-194254001D03*
D24*
X250320000Y-159407500D03*
X248670000Y-159407500D03*
D14*
X289788999Y-111886000D03*
X291438999Y-111886000D03*
D17*
X214810000Y-132897000D03*
X214810000Y-134447000D03*
D10*
X145226000Y-78081000D03*
X145226000Y-76431000D03*
X222158678Y-70326000D03*
X222158678Y-68676000D03*
D24*
X259207500Y-122169000D03*
X257557500Y-122169000D03*
D12*
X219173678Y-77121000D03*
X220723678Y-77121000D03*
D33*
X237859915Y-207015835D03*
X238531666Y-206344084D03*
X239203417Y-205672333D03*
X240812085Y-207281001D03*
X240140334Y-207952752D03*
X239468583Y-208624503D03*
D14*
X180478000Y-162241000D03*
X182128000Y-162241000D03*
D10*
X169006000Y-85481000D03*
X169006000Y-83831000D03*
D34*
X291172795Y-131479596D03*
X292161207Y-130158404D03*
D15*
X128264000Y-207626001D03*
X126714000Y-207626001D03*
D23*
X118104000Y-125081000D03*
X118104000Y-128031000D03*
D24*
X243189000Y-194192501D03*
X241539000Y-194192501D03*
X157234000Y-176728000D03*
X155584000Y-176728000D03*
D17*
X213350000Y-132897000D03*
X213350000Y-134447000D03*
D10*
X253389000Y-161132500D03*
X253389000Y-159482500D03*
D35*
X247596000Y-187086001D03*
X248866000Y-187086001D03*
X250136000Y-187086001D03*
X251406000Y-187086001D03*
X251406000Y-192036001D03*
X250136000Y-192036001D03*
X248866000Y-192036001D03*
X247596000Y-192036001D03*
D36*
X252147500Y-135759000D03*
X252147500Y-137959000D03*
X250447500Y-137959000D03*
X250447500Y-135759000D03*
D11*
X213474000Y-84796000D03*
X213474000Y-83246000D03*
D24*
X298238999Y-113842000D03*
X296588999Y-113842000D03*
D10*
X300723000Y-195904001D03*
X300723000Y-194254001D03*
D16*
X163926000Y-76431000D03*
X163926000Y-78081000D03*
D37*
X301847000Y-133364000D03*
X301847000Y-134634000D03*
X301847000Y-135904000D03*
X301847000Y-137174000D03*
X301847000Y-138444000D03*
X301847000Y-139714000D03*
X301847000Y-140984000D03*
X301847000Y-142254000D03*
X296897000Y-142254000D03*
X296897000Y-140984000D03*
X296897000Y-139714000D03*
X296897000Y-138444000D03*
X296897000Y-137174000D03*
X296897000Y-135904000D03*
X296897000Y-134634000D03*
X296897000Y-133364000D03*
D38*
X258727500Y-133479000D03*
X257457500Y-133479000D03*
X256187500Y-133479000D03*
X254917500Y-133479000D03*
X253647500Y-133479000D03*
X252377500Y-133479000D03*
X251107500Y-133479000D03*
X249837500Y-133479000D03*
X248567500Y-133479000D03*
X248567500Y-124179000D03*
X249837500Y-124179000D03*
X251107500Y-124179000D03*
X252377500Y-124179000D03*
X253647500Y-124179000D03*
X254917500Y-124179000D03*
X256187500Y-124179000D03*
X257457500Y-124179000D03*
X258727500Y-124179000D03*
D11*
X284719000Y-166035999D03*
X284719000Y-164485999D03*
D29*
X199284500Y-153471999D03*
X199284500Y-154421998D03*
X199284500Y-155371997D03*
X197009500Y-155371997D03*
X197009500Y-154421998D03*
X197009500Y-153471999D03*
D14*
X142784000Y-203399500D03*
X144434000Y-203399500D03*
D16*
X177746000Y-83831000D03*
X177746000Y-85481000D03*
D10*
X189406000Y-85481000D03*
X189406000Y-83831000D03*
X192806000Y-85481000D03*
X192806000Y-83831000D03*
D14*
X179476000Y-163701000D03*
X181126000Y-163701000D03*
D11*
X293799000Y-166035999D03*
X293799000Y-164485999D03*
D10*
X201312000Y-131691000D03*
X201312000Y-130041000D03*
D24*
X187949000Y-143768000D03*
X186299000Y-143768000D03*
D13*
X140766000Y-74526000D03*
X138226000Y-74526000D03*
X138226000Y-68226000D03*
X140766000Y-68226000D03*
D10*
X186006000Y-85481000D03*
X186006000Y-83831000D03*
X151226000Y-78081000D03*
X151226000Y-76431000D03*
D25*
X181256000Y-202685000D03*
X180089274Y-201518274D03*
D15*
X252072500Y-139689000D03*
X250522500Y-139689000D03*
D10*
X158386000Y-78081000D03*
X158386000Y-76431000D03*
X303723000Y-195904001D03*
X303723000Y-194254001D03*
D16*
X146991000Y-185794000D03*
X146991000Y-187444000D03*
D14*
X178228000Y-165161000D03*
X179878000Y-165161000D03*
D16*
X131766000Y-76431000D03*
X131766000Y-78081000D03*
D17*
X260397500Y-123604000D03*
X260397500Y-125154000D03*
D16*
X184546000Y-83831000D03*
X184546000Y-85481000D03*
D24*
X249506000Y-112928000D03*
X247856000Y-112928000D03*
D12*
X273233501Y-174752001D03*
X274783501Y-174752001D03*
D24*
X305875000Y-141559000D03*
X304225000Y-141559000D03*
X305875000Y-144559000D03*
X304225000Y-144559000D03*
D39*
X229950546Y-170735377D03*
X230848572Y-171633403D03*
X231746597Y-172531428D03*
X232644623Y-173429454D03*
X227553454Y-178520623D03*
X226655428Y-177622597D03*
X225757403Y-176724572D03*
X224859377Y-175826546D03*
D16*
X292906000Y-100001000D03*
X292906000Y-101651000D03*
D10*
X199662000Y-127271000D03*
X199662000Y-125621000D03*
D15*
X128264000Y-148683000D03*
X126714000Y-148683000D03*
D16*
X251929000Y-157832500D03*
X251929000Y-159482500D03*
D17*
X208174000Y-204231001D03*
X208174000Y-205781001D03*
D14*
X304225000Y-128059000D03*
X305875000Y-128059000D03*
D23*
X148380000Y-101039000D03*
X148380000Y-103989000D03*
D16*
X249506000Y-116028000D03*
X249506000Y-117678000D03*
D13*
X166926000Y-74526000D03*
X164386000Y-74526000D03*
X164386000Y-68226000D03*
X166926000Y-68226000D03*
D10*
X213358000Y-165126000D03*
X213358000Y-163476000D03*
X201312000Y-127271000D03*
X201312000Y-125621000D03*
D22*
X181367274Y-200249725D03*
X182534000Y-199082999D03*
D23*
X145180500Y-122969000D03*
X145180500Y-125919000D03*
D12*
X201983000Y-163981000D03*
X203533000Y-163981000D03*
D16*
X191346000Y-83831000D03*
X191346000Y-85481000D03*
D12*
X219173678Y-75661000D03*
X220723678Y-75661000D03*
D10*
X294723000Y-195904001D03*
X294723000Y-194254001D03*
D23*
X138229000Y-122969000D03*
X138229000Y-125919000D03*
D16*
X174082000Y-138179000D03*
X174082000Y-139829000D03*
D10*
X297723000Y-195904001D03*
X297723000Y-194254001D03*
D18*
X196426000Y-88993500D03*
X194526000Y-88993500D03*
X195476000Y-87118500D03*
D31*
X125279000Y-107833000D03*
X128229000Y-107833000D03*
D38*
X245223000Y-133407000D03*
X243953000Y-133407000D03*
X242683000Y-133407000D03*
X241413000Y-133407000D03*
X240143000Y-133407000D03*
X238873000Y-133407000D03*
X237603000Y-133407000D03*
X236333000Y-133407000D03*
X235063000Y-133407000D03*
X235063000Y-124107000D03*
X236333000Y-124107000D03*
X237603000Y-124107000D03*
X238873000Y-124107000D03*
X240143000Y-124107000D03*
X241413000Y-124107000D03*
X242683000Y-124107000D03*
X243953000Y-124107000D03*
X245223000Y-124107000D03*
D22*
X186081000Y-169371000D03*
X187247726Y-168204274D03*
D19*
X209268000Y-144017000D03*
X209268000Y-142117000D03*
X211143000Y-143067000D03*
D16*
X207555500Y-153962000D03*
X207555500Y-155612000D03*
X252806000Y-116028000D03*
X252806000Y-117678000D03*
D24*
X305875000Y-147559000D03*
X304225000Y-147559000D03*
D16*
X174578000Y-106696000D03*
X174578000Y-108346000D03*
D10*
X286264000Y-119958000D03*
X286264000Y-118308000D03*
D16*
X208250000Y-199099001D03*
X208250000Y-200749001D03*
D10*
X303035000Y-178280000D03*
X303035000Y-176630000D03*
D18*
X151666000Y-81593500D03*
X149766000Y-81593500D03*
X150716000Y-79718500D03*
D13*
X160926000Y-74526000D03*
X158386000Y-74526000D03*
X158386000Y-68226000D03*
X160926000Y-68226000D03*
D10*
X199662000Y-131691000D03*
X199662000Y-130041000D03*
D16*
X207555500Y-142242000D03*
X207555500Y-143892000D03*
D18*
X176026000Y-88993500D03*
X174126000Y-88993500D03*
X175076000Y-87118500D03*
D10*
X230542000Y-184598500D03*
X230542000Y-182948500D03*
D15*
X128264000Y-147223000D03*
X126714000Y-147223000D03*
D10*
X165386000Y-78081000D03*
X165386000Y-76431000D03*
D16*
X174346000Y-83831000D03*
X174346000Y-85481000D03*
D11*
X253727500Y-137634000D03*
X253727500Y-136084000D03*
D14*
X304225000Y-146059000D03*
X305875000Y-146059000D03*
D19*
X232254500Y-184636000D03*
X232254500Y-182736000D03*
X234129500Y-183686000D03*
D15*
X250211000Y-199966001D03*
X248661000Y-199966001D03*
D16*
X143766000Y-76431000D03*
X143766000Y-78081000D03*
D15*
X282895500Y-185307000D03*
X281345500Y-185307000D03*
D10*
X295764000Y-119958000D03*
X295764000Y-118308000D03*
D24*
X192559000Y-143768000D03*
X190909000Y-143768000D03*
D15*
X250211000Y-197046001D03*
X248661000Y-197046001D03*
D14*
X239736000Y-195676501D03*
X241386000Y-195676501D03*
D17*
X222158678Y-72476001D03*
X222158678Y-74026001D03*
D24*
X241006000Y-185131001D03*
X239356000Y-185131001D03*
D14*
X304225000Y-137059000D03*
X305875000Y-137059000D03*
D13*
X184926000Y-74526000D03*
X182386000Y-74526000D03*
X182386000Y-68226000D03*
X184926000Y-68226000D03*
D14*
X244499000Y-194192501D03*
X246149000Y-194192501D03*
D10*
X288723000Y-195904001D03*
X288723000Y-194254001D03*
D13*
X193086000Y-74526000D03*
X190546000Y-74526000D03*
X190546000Y-68226000D03*
X193086000Y-68226000D03*
D12*
X273233501Y-183832001D03*
X274783501Y-183832001D03*
D24*
X244380000Y-209131001D03*
X242730000Y-209131001D03*
D13*
X178926000Y-74526000D03*
X176386000Y-74526000D03*
X176386000Y-68226000D03*
X178926000Y-68226000D03*
D18*
X193026000Y-88993500D03*
X191126000Y-88993500D03*
X192076000Y-87118500D03*
D12*
X248661000Y-201426001D03*
X250211000Y-201426001D03*
D15*
X283013500Y-174752001D03*
X281463500Y-174752001D03*
D37*
X208483000Y-165506000D03*
X208483000Y-166776000D03*
X208483000Y-168046000D03*
X208483000Y-169316000D03*
X203533000Y-169316000D03*
X203533000Y-168046000D03*
X203533000Y-166776000D03*
X203533000Y-165506000D03*
D15*
X108583000Y-100975000D03*
X107033000Y-100975000D03*
D16*
X137766000Y-76431000D03*
X137766000Y-78081000D03*
X174578000Y-117171000D03*
X174578000Y-118821000D03*
D10*
X200926999Y-146859500D03*
X200926999Y-145209500D03*
X124316000Y-59716000D03*
X124316000Y-58066000D03*
D18*
X250445000Y-157695000D03*
X248545000Y-157695000D03*
X249495000Y-155820000D03*
D24*
X305875000Y-126561000D03*
X304225000Y-126561000D03*
D17*
X246893000Y-123532000D03*
X246893000Y-125082000D03*
D18*
X270421500Y-195576501D03*
X268521500Y-195576501D03*
X269471500Y-193701501D03*
D10*
X214818000Y-163476000D03*
X214818000Y-161826000D03*
X197961000Y-148151500D03*
X197961000Y-146501500D03*
D11*
X240223000Y-137562000D03*
X240223000Y-136012000D03*
D18*
X182826000Y-88993500D03*
X180926000Y-88993500D03*
X181876000Y-87118500D03*
D14*
X302220500Y-113842000D03*
X303870500Y-113842000D03*
D16*
X156926000Y-76431000D03*
X156926000Y-78081000D03*
X210438000Y-166776000D03*
X210438000Y-168426000D03*
D10*
X196206000Y-85481000D03*
X196206000Y-83831000D03*
D15*
X283013500Y-176212001D03*
X281463500Y-176212001D03*
D10*
X308442500Y-163322250D03*
X308442500Y-161672250D03*
D16*
X181146000Y-83831000D03*
X181146000Y-85481000D03*
D18*
X186226000Y-88993500D03*
X184326000Y-88993500D03*
X185276000Y-87118500D03*
D10*
X248867500Y-137064000D03*
X248867500Y-135414000D03*
D23*
X145180000Y-101039000D03*
X145180000Y-103989000D03*
D19*
X293076499Y-114792000D03*
X293076499Y-112892000D03*
X294951499Y-113842000D03*
D17*
X294942000Y-134704000D03*
X294942000Y-136254000D03*
D14*
X275947250Y-198475501D03*
X277597250Y-198475501D03*
D18*
X158606000Y-81593500D03*
X156706000Y-81593500D03*
X157656000Y-79718500D03*
D14*
X286828999Y-111886000D03*
X288478999Y-111886000D03*
D40*
X305543500Y-168848000D03*
X305543500Y-170748000D03*
X303668500Y-169798000D03*
D24*
X244380000Y-207671001D03*
X242730000Y-207671001D03*
D22*
X164702637Y-174268363D03*
X165869363Y-173101637D03*
D41*
X167768000Y-195337000D03*
X168868000Y-195337000D03*
X169968000Y-195337000D03*
X171068000Y-195337000D03*
X172168000Y-195337000D03*
X173268000Y-195337000D03*
X174368000Y-195337000D03*
X175468000Y-195337000D03*
X176568000Y-195337000D03*
D42*
X162248000Y-205887000D03*
X177768000Y-205887000D03*
D36*
X163088000Y-196187000D03*
D43*
X177843000Y-196187000D03*
D16*
X250231000Y-183556001D03*
X250231000Y-185206001D03*
X124766000Y-76431000D03*
X124766000Y-78081000D03*
D22*
X165735013Y-175300739D03*
X166901739Y-174134013D03*
D44*
X241655000Y-176495500D03*
X243555000Y-176495500D03*
X242605000Y-178370500D03*
D24*
X214430500Y-154787000D03*
X212780500Y-154787000D03*
D16*
X146991000Y-193294000D03*
X146991000Y-194944000D03*
D17*
X205563000Y-162436000D03*
X205563000Y-163986000D03*
D45*
X250411000Y-208868501D03*
X249761000Y-208868501D03*
X249111000Y-208868501D03*
X248461000Y-208868501D03*
X247811000Y-208868501D03*
X247161000Y-208868501D03*
X246511000Y-208868501D03*
X245861000Y-208868501D03*
X245861000Y-203143501D03*
X246511000Y-203143501D03*
X247161000Y-203143501D03*
X247811000Y-203143501D03*
X248461000Y-203143501D03*
X249111000Y-203143501D03*
X249761000Y-203143501D03*
X250411000Y-203143501D03*
D17*
X208483000Y-162436000D03*
X208483000Y-163986000D03*
D18*
X291343999Y-115473500D03*
X289443999Y-115473500D03*
X290393999Y-113598500D03*
D36*
X238643000Y-135687000D03*
X238643000Y-137887000D03*
X236943000Y-137887000D03*
X236943000Y-135687000D03*
D17*
X207023000Y-162436000D03*
X207023000Y-163986000D03*
X214934000Y-83246000D03*
X214934000Y-84796000D03*
D14*
X304225000Y-140059000D03*
X305875000Y-140059000D03*
D10*
X147434000Y-205049500D03*
X147434000Y-203399500D03*
M02*
