M48
; DRILL file {KiCad 8.0.1} date 2024-06-07T19:27:22+0300
; FORMAT={-:-/ absolute / metric / decimal}
; #@! TF.CreationDate,2024-06-07T19:27:22+03:00
; #@! TF.GenerationSoftware,Kicad,Pcbnew,8.0.1
; #@! TF.FileFunction,Plated,1,4,PTH
FMAT,2
METRIC
; #@! TA.AperFunction,Plated,PTH,ViaDrill
T1C0.400
; #@! TA.AperFunction,Plated,PTH,ComponentDrill
T2C0.450
; #@! TA.AperFunction,Plated,PTH,ComponentDrill
T3C0.500
; #@! TA.AperFunction,Plated,PTH,ComponentDrill
T4C0.600
; #@! TA.AperFunction,Plated,PTH,ComponentDrill
T5C0.650
; #@! TA.AperFunction,Plated,PTH,ComponentDrill
T6C0.700
; #@! TA.AperFunction,Plated,PTH,ComponentDrill
T7C0.762
; #@! TA.AperFunction,Plated,PTH,ComponentDrill
T8C0.800
; #@! TA.AperFunction,Plated,PTH,ComponentDrill
T9C1.000
; #@! TA.AperFunction,Plated,PTH,ComponentDrill
T10C1.020
; #@! TA.AperFunction,Plated,PTH,ComponentDrill
T11C1.100
; #@! TA.AperFunction,Plated,PTH,ComponentDrill
T12C1.200
; #@! TA.AperFunction,Plated,PTH,ComponentDrill
T13C1.300
; #@! TA.AperFunction,Plated,PTH,ComponentDrill
T14C2.700
; #@! TA.AperFunction,Plated,PTH,ComponentDrill
T15C4.300
%
G90
G05
T1
X97.598Y-99.319
X107.033Y-100.975
X108.583Y-100.975
X108.583Y-102.435
X114.863Y-107.601
X114.863Y-105.751
X114.863Y-108.871
X114.863Y-111.99
X114.863Y-115.099
X114.863Y-118.219
X114.933Y-93.105
X115.263Y-70.268
X115.263Y-72.808
X115.263Y-75.348
X115.263Y-77.888
X115.263Y-83.977
X115.263Y-86.517
X115.263Y-89.057
X115.263Y-91.597
X115.663Y-116.949
X116.203Y-93.105
X116.203Y-98.905
X116.203Y-100.455
X116.203Y-102.844
X117.154Y-128.031
X118.459Y-70.165
X118.459Y-72.705
X118.459Y-75.245
X118.459Y-77.785
X118.459Y-83.874
X118.459Y-86.414
X118.459Y-88.954
X118.459Y-91.494
X118.465Y-54.355
X119.054Y-128.031
X120.354Y-128.031
X122.254Y-128.031
X122.916Y-91.494
X123.554Y-128.031
X124.546Y-81.593
X124.766Y-76.431
X125.454Y-128.031
X126.714Y-147.223
X126.714Y-148.683
X126.714Y-207.626
X126.714Y-209.086
X127.102Y-91.494
X128.264Y-139.353
X128.264Y-147.223
X128.264Y-148.683
X128.264Y-199.756
X128.264Y-207.626
X128.264Y-209.086
X128.766Y-68.576
X128.766Y-74.526
X129.534Y-139.353
X129.534Y-199.756
X131.289Y-91.494
X131.766Y-76.431
X131.766Y-81.593
X134.614Y-139.353
X134.614Y-199.756
X134.724Y-152.028
X134.724Y-154.568
X134.724Y-157.108
X134.724Y-159.648
X134.724Y-162.828
X134.724Y-165.368
X134.724Y-167.908
X134.724Y-170.448
X134.724Y-173.588
X134.724Y-176.728
X134.724Y-179.268
X134.724Y-181.808
X134.724Y-184.348
X134.724Y-187.528
X134.724Y-190.068
X134.724Y-192.608
X134.724Y-195.148
X134.724Y-198.288
X134.766Y-68.576
X134.766Y-74.526
X135.884Y-139.353
X135.884Y-199.756
X137.279Y-101.952
X137.279Y-122.969
X137.518Y-150.758
X137.518Y-155.838
X137.518Y-158.378
X137.518Y-161.558
X137.518Y-164.098
X137.518Y-166.638
X137.561Y-153.255
X137.679Y-147.223
X137.679Y-148.683
X137.679Y-207.131
X137.679Y-208.591
X137.766Y-76.431
X137.766Y-81.593
X138.685Y-151.925
X138.685Y-154.465
X138.685Y-157.005
X138.685Y-159.545
X138.685Y-162.725
X138.685Y-165.265
X138.685Y-167.805
X138.685Y-170.345
X138.685Y-173.485
X138.685Y-176.625
X138.685Y-179.165
X138.685Y-181.705
X138.685Y-184.245
X138.685Y-187.425
X138.685Y-189.965
X138.685Y-192.505
X138.685Y-195.045
X138.685Y-198.185
X139.179Y-101.952
X139.179Y-122.969
X139.229Y-147.223
X139.229Y-148.683
X139.229Y-207.131
X139.229Y-208.591
X140.766Y-68.576
X140.766Y-74.526
X141.434Y-201.825
X141.434Y-203.399
X142.344Y-143.224
X143.766Y-76.431
X143.766Y-81.593
X143.894Y-143.224
X144.23Y-101.039
X144.231Y-122.969
X144.434Y-201.825
X144.434Y-203.399
X144.897Y-168.491
X145.304Y-143.224
X146.13Y-101.039
X146.13Y-122.969
X146.766Y-68.576
X146.766Y-74.526
X146.854Y-143.224
X146.991Y-187.444
X146.991Y-194.944
X147.43Y-101.039
X147.431Y-122.969
X147.434Y-201.825
X147.434Y-203.399
X147.437Y-168.491
X149.199Y-144.604
X149.199Y-145.804
X149.33Y-101.039
X149.331Y-122.969
X149.766Y-76.431
X149.766Y-81.593
X150.963Y-202.077
X150.963Y-205.077
X151.011Y-176.728
X151.229Y-146.099
X151.229Y-147.649
X151.229Y-149.059
X151.229Y-150.609
X152.492Y-179.268
X152.492Y-181.808
X152.766Y-68.576
X152.766Y-74.526
X153.831Y-142.486
X153.963Y-202.077
X153.963Y-205.077
X153.971Y-176.728
X154.066Y-179.268
X154.066Y-181.808
X154.446Y-125.744
X154.446Y-126.744
X154.446Y-129.544
X154.446Y-130.544
X154.507Y-103.814
X154.507Y-104.814
X154.507Y-107.614
X154.507Y-108.614
X154.83Y-141.487
X155.584Y-176.728
X155.716Y-179.268
X156.491Y-187.444
X156.491Y-194.944
X156.706Y-81.593
X156.926Y-76.431
X156.963Y-202.077
X156.963Y-205.077
X157.571Y-125.744
X157.571Y-126.744
X157.571Y-129.544
X157.571Y-130.544
X157.632Y-103.814
X157.632Y-104.814
X157.632Y-107.614
X157.632Y-108.614
X159.963Y-202.077
X159.963Y-205.077
X160.926Y-68.576
X160.926Y-74.526
X162.076Y-165.411
X162.248Y-205.887
X162.307Y-149.936
X162.888Y-196.187
X163.307Y-147.166
X163.526Y-154.666
X163.601Y-148.166
X163.601Y-149.816
X163.601Y-156.316
X163.601Y-159.666
X163.601Y-161.316
X163.926Y-76.431
X163.926Y-81.593
X164.976Y-166.796
X166.652Y-153.594
X166.656Y-162.653
X166.656Y-149.244
X166.673Y-157.433
X166.717Y-158.567
X166.811Y-160.603
X166.925Y-154.556
X166.926Y-68.576
X166.926Y-74.526
X166.985Y-159.53
X167.034Y-161.702
X167.161Y-165.81
X167.262Y-156.556
X167.326Y-88.993
X167.546Y-83.831
X167.631Y-140.081
X167.656Y-163.068
X167.662Y-108.899
X167.662Y-110.399
X167.662Y-133.99
X167.662Y-135.49
X167.662Y-136.99
X167.681Y-141.541
X168.115Y-203.842
X168.261Y-150.622
X168.32Y-165.816
X168.406Y-143.001
X169.006Y-83.831
X169.075Y-148.834
X169.143Y-147.687
X169.162Y-107.399
X169.162Y-108.899
X169.162Y-110.399
X169.162Y-133.99
X169.162Y-135.49
X169.162Y-136.99
X169.281Y-140.081
X169.469Y-165.79
X169.516Y-203.842
X169.691Y-149.924
X170.043Y-148.422
X170.056Y-143.001
X170.662Y-107.399
X170.662Y-108.899
X170.662Y-110.399
X170.662Y-133.99
X170.662Y-135.49
X170.662Y-136.99
X170.67Y-139.684
X170.67Y-141.234
X170.726Y-88.993
X170.946Y-83.831
X171.034Y-149.043
X171.068Y-195.337
X171.068Y-196.887
X171.415Y-203.842
X171.663Y-169.305
X171.954Y-148.562
X171.981Y-152.655
X171.981Y-153.655
X171.981Y-154.655
X172.081Y-144.491
X172.815Y-203.842
X172.926Y-68.576
X172.926Y-74.526
X173.065Y-184.783
X173.206Y-169.371
X173.268Y-195.337
X173.481Y-147.657
X173.481Y-155.655
X173.658Y-141.207
X174.126Y-88.993
X174.263Y-148.364
X174.346Y-83.831
X174.368Y-195.337
X174.368Y-196.987
X174.525Y-183.133
X174.578Y-118.821
X174.715Y-203.842
X174.729Y-155.712
X175.108Y-149.105
X175.212Y-166.167
X175.284Y-163.421
X175.406Y-164.781
X175.468Y-195.337
X175.506Y-156.732
X175.707Y-158.6
X175.985Y-182.308
X176.014Y-141.622
X176.076Y-107.399
X176.076Y-108.899
X176.076Y-110.399
X176.115Y-200.742
X176.115Y-203.842
X176.245Y-149.016
X176.318Y-155.906
X176.381Y-144.611
X176.565Y-196.987
X176.644Y-147.824
X177.235Y-170.831
X177.241Y-148.678
X177.392Y-159.877
X177.414Y-157.002
X177.445Y-181.483
X177.478Y-164.277
X177.526Y-88.993
X177.576Y-107.399
X177.576Y-108.899
X177.576Y-110.399
X177.576Y-133.779
X177.576Y-135.279
X177.746Y-83.831
X177.768Y-205.887
X177.843Y-196.187
X178.031Y-144.611
X178.225Y-148.981
X178.228Y-165.086
X178.365Y-160.895
X178.441Y-162.991
X178.756Y-170.831
X178.905Y-180.658
X178.926Y-68.576
X178.926Y-74.526
X179.076Y-107.399
X179.076Y-108.899
X179.076Y-110.399
X179.076Y-133.779
X179.076Y-135.279
X179.134Y-161.97
X179.291Y-148.76
X179.476Y-163.776
X179.647Y-147.756
X179.878Y-165.086
X180.089Y-201.518
X180.115Y-141.622
X180.478Y-162.241
X180.926Y-88.993
X181.126Y-163.701
X181.146Y-83.831
X181.256Y-202.685
X181.5Y-141.622
X181.92Y-77.16
X182.128Y-162.241
X182.376Y-156.836
X182.481Y-199.03
X182.486Y-201.305
X182.606Y-83.831
X182.954Y-138.096
X183.113Y-161.432
X183.388Y-163.741
X183.733Y-154.325
X184.326Y-88.993
X184.531Y-169.371
X184.546Y-83.831
X184.856Y-202.685
X184.926Y-68.576
X184.926Y-74.526
X185.028Y-157.888
X185.581Y-170.831
X186.006Y-83.831
X186.079Y-139.792
X186.081Y-169.371
X186.299Y-143.693
X186.45Y-140.796
X186.476Y-190.853
X186.476Y-193.853
X186.722Y-142.2
X187.124Y-145.228
X187.726Y-88.993
X187.946Y-83.831
X187.949Y-143.768
X188.338Y-148.491
X188.361Y-154.216
X188.361Y-155.766
X188.774Y-145.228
X188.996Y-159.741
X189.476Y-184.853
X189.476Y-187.853
X189.476Y-190.853
X189.476Y-193.853
X189.888Y-148.491
X190.084Y-145.228
X190.092Y-160.837
X190.909Y-143.768
X191.197Y-88.975
X191.346Y-83.831
X191.734Y-145.228
X191.79Y-134.01
X192.101Y-195.801
X192.559Y-143.768
X193.086Y-68.576
X193.086Y-74.526
X194.405Y-94.734
X194.405Y-97.734
X194.405Y-100.734
X194.405Y-103.734
X194.526Y-88.993
X194.746Y-83.831
X195.306Y-148.151
X195.476Y-184.853
X195.476Y-187.853
X195.476Y-190.853
X195.476Y-193.853
X195.894Y-180.864
X196.206Y-83.831
X196.426Y-141.243
X196.501Y-146.501
X196.576Y-148.151
X197.272Y-153.472
X197.272Y-157.097
X197.405Y-94.734
X197.405Y-97.734
X197.405Y-100.734
X197.405Y-103.734
X197.405Y-106.734
X197.405Y-109.734
X197.886Y-148.151
X197.961Y-146.501
X197.976Y-141.243
X198.845Y-85.752
X198.845Y-88.752
X198.845Y-91.752
X199.086Y-68.576
X199.086Y-74.526
X199.172Y-157.097
X199.662Y-125.621
X200.387Y-167.249
X200.405Y-97.734
X200.405Y-100.734
X200.405Y-103.734
X200.405Y-106.734
X200.405Y-112.734
X200.927Y-145.209
X201.312Y-125.621
X201.449Y-208.955
X201.845Y-85.752
X201.845Y-88.752
X201.845Y-91.752
X201.983Y-163.981
X202.566Y-141.493
X203.089Y-153.26
X203.405Y-97.734
X203.405Y-100.734
X203.405Y-103.734
X203.405Y-109.734
X203.405Y-112.734
X203.533Y-163.981
X203.533Y-166.776
X203.533Y-169.316
X204.755Y-58.196
X204.845Y-85.752
X204.845Y-88.752
X204.845Y-91.752
X205.563Y-162.436
X205.563Y-163.986
X205.683Y-156.501
X206.405Y-97.734
X206.405Y-100.734
X206.405Y-106.734
X206.405Y-109.734
X206.405Y-112.734
X206.495Y-58.196
X206.873Y-141.53
X207.023Y-162.436
X207.845Y-85.752
X207.845Y-88.752
X207.845Y-91.752
X208.174Y-205.781
X208.483Y-162.436
X208.483Y-168.046
X208.483Y-169.316
X208.541Y-120.598
X209.405Y-97.734
X209.405Y-103.734
X209.405Y-106.734
X209.405Y-109.734
X209.405Y-112.734
X210.001Y-120.598
X210.438Y-168.426
X211.474Y-152.564
X212.177Y-136.121
X212.466Y-181.002
X213.35Y-132.897
X213.35Y-134.447
X213.474Y-83.246
X214.155Y-58.196
X214.155Y-61.196
X214.81Y-132.897
X214.81Y-134.447
X214.934Y-83.246
X215.895Y-58.196
X215.895Y-61.196
X216.848Y-188.887
X216.848Y-191.887
X216.848Y-194.887
X216.848Y-197.887
X216.848Y-200.887
X216.848Y-203.887
X218.298Y-122.098
X218.298Y-123.348
X218.298Y-124.598
X218.924Y-79.151
X219.148Y-122.723
X219.148Y-123.973
X219.174Y-74.201
X219.848Y-188.887
X219.848Y-191.887
X219.848Y-194.887
X219.848Y-197.887
X219.848Y-200.887
X219.848Y-203.887
X219.998Y-122.098
X219.998Y-123.348
X219.998Y-124.598
X220.194Y-79.151
X220.194Y-84.301
X220.699Y-70.276
X220.699Y-71.876
X220.724Y-74.201
X220.724Y-75.661
X220.724Y-77.121
X221.463Y-87.731
X221.464Y-79.626
X221.886Y-174.463
X222.159Y-72.476
X222.159Y-74.076
X222.159Y-77.185
X222.848Y-188.887
X222.848Y-191.887
X222.848Y-194.887
X222.848Y-197.887
X222.848Y-200.887
X222.848Y-203.887
X223.436Y-174.463
X225.848Y-188.887
X225.848Y-191.887
X225.848Y-194.887
X225.848Y-197.887
X225.848Y-200.887
X225.848Y-203.887
X226.277Y-54.806
X227.852Y-54.806
X228.848Y-188.887
X228.848Y-191.887
X228.848Y-194.887
X228.848Y-197.887
X228.848Y-200.887
X228.848Y-203.887
X229.951Y-170.735
X230.542Y-184.599
X231.426Y-62.764
X231.426Y-64.34
X232.645Y-173.429
X233.821Y-112.245
X233.821Y-113.175
X233.821Y-114.105
X233.821Y-115.035
X233.821Y-115.965
X233.821Y-116.895
X234.393Y-78.674
X234.393Y-81.674
X234.393Y-84.674
X234.393Y-87.674
X234.393Y-90.674
X234.393Y-93.674
X234.393Y-96.674
X234.393Y-99.674
X234.393Y-102.674
X234.946Y-112.245
X234.946Y-113.175
X234.946Y-114.105
X234.946Y-115.035
X234.946Y-115.965
X234.946Y-116.895
X235.038Y-133.407
X236.796Y-186.391
X236.796Y-187.661
X236.897Y-195.558
X236.943Y-135.687
X237.393Y-72.674
X237.393Y-75.674
X237.393Y-81.674
X237.393Y-84.674
X237.393Y-87.674
X237.393Y-90.674
X237.393Y-93.674
X237.393Y-96.674
X237.393Y-99.674
X237.393Y-102.674
X237.394Y-63.676
X237.62Y-204.45
X238.568Y-139.617
X238.873Y-123.926
X239.203Y-205.672
X240.143Y-123.482
X240.223Y-137.562
X240.303Y-142.073
X240.303Y-145.073
X240.393Y-72.674
X240.393Y-78.674
X240.393Y-84.674
X240.393Y-87.674
X240.393Y-90.674
X240.393Y-93.674
X240.393Y-96.674
X240.393Y-99.674
X240.393Y-102.674
X240.394Y-54.676
X240.394Y-57.676
X240.394Y-60.676
X240.394Y-63.676
X240.812Y-207.281
X240.93Y-204.263
X241.006Y-184.984
X241.413Y-124.732
X241.539Y-194.193
X241.78Y-174.783
X242.73Y-209.131
X242.839Y-195.831
X243.191Y-184.571
X243.303Y-145.073
X243.304Y-142.073
X243.393Y-72.674
X243.393Y-78.674
X243.393Y-81.674
X243.393Y-87.674
X243.393Y-90.674
X243.393Y-93.674
X243.393Y-96.674
X243.393Y-99.674
X243.393Y-102.674
X243.394Y-54.676
X243.394Y-57.676
X243.394Y-60.676
X243.394Y-63.676
X243.43Y-174.783
X244.389Y-195.831
X244.736Y-191.861
X244.841Y-184.571
X244.88Y-174.783
X245.536Y-111.886
X245.536Y-113.346
X245.536Y-114.809
X245.703Y-122.097
X245.799Y-195.831
X245.88Y-177.323
X246.006Y-192.811
X246.151Y-184.571
X246.393Y-72.674
X246.393Y-78.674
X246.393Y-81.674
X246.393Y-84.674
X246.393Y-90.674
X246.393Y-93.674
X246.393Y-96.674
X246.393Y-99.674
X246.393Y-102.674
X246.394Y-54.676
X246.394Y-57.676
X246.394Y-60.676
X246.394Y-63.676
X246.893Y-123.532
X246.893Y-125.082
X247.349Y-195.831
X247.701Y-184.571
X248.461Y-207.429
X248.542Y-133.479
X248.544Y-206.205
X248.661Y-201.426
X248.711Y-197.046
X248.786Y-195.546
X249.393Y-72.674
X249.393Y-78.674
X249.393Y-81.674
X249.393Y-84.674
X249.393Y-87.674
X249.393Y-93.674
X249.393Y-96.674
X249.393Y-99.674
X249.393Y-102.674
X249.394Y-54.676
X249.394Y-57.676
X249.394Y-60.676
X249.394Y-63.676
X249.495Y-155.87
X249.506Y-112.928
X249.506Y-116.028
X249.857Y-165.575
X249.857Y-167.075
X249.857Y-168.575
X249.857Y-170.075
X250.161Y-197.046
X250.161Y-198.506
X250.161Y-199.966
X250.161Y-201.351
X250.32Y-159.407
X250.447Y-135.759
X250.901Y-112.928
X250.906Y-116.028
X251.357Y-165.575
X251.357Y-167.075
X251.357Y-168.575
X251.357Y-170.075
X251.406Y-192.384
X251.929Y-156.132
X251.929Y-157.832
X252.072Y-139.689
X252.087Y-193.919
X252.377Y-124.179
X252.393Y-72.674
X252.393Y-78.674
X252.393Y-81.674
X252.393Y-84.674
X252.393Y-87.674
X252.393Y-90.674
X252.394Y-54.676
X252.394Y-57.676
X252.394Y-60.676
X252.394Y-63.676
X252.805Y-151.484
X252.806Y-112.928
X252.806Y-116.028
X252.857Y-165.575
X252.857Y-167.075
X252.857Y-168.575
X252.857Y-170.075
X253.389Y-159.482
X253.727Y-137.634
X254.117Y-176.557
X254.117Y-177.827
X254.117Y-182.907
X254.117Y-184.177
X254.206Y-112.928
X254.206Y-116.028
X254.357Y-165.575
X254.357Y-167.075
X254.357Y-168.575
X254.357Y-170.075
X255.393Y-72.674
X255.393Y-78.674
X255.393Y-81.674
X255.393Y-84.674
X255.393Y-87.674
X255.393Y-90.674
X255.394Y-54.676
X255.394Y-57.676
X255.394Y-60.676
X255.394Y-63.676
X256.186Y-147.969
X256.186Y-150.969
X258.372Y-169.704
X258.393Y-72.674
X258.393Y-78.674
X258.393Y-81.674
X258.393Y-84.674
X258.393Y-87.674
X258.393Y-90.674
X258.393Y-93.674
X258.393Y-96.674
X258.393Y-99.674
X258.393Y-102.674
X258.394Y-54.676
X258.394Y-57.676
X258.394Y-60.676
X258.394Y-63.676
X259.186Y-147.969
X259.186Y-150.969
X259.186Y-153.969
X259.207Y-122.169
X259.351Y-186.002
X259.435Y-174.737
X259.832Y-165.528
X260.397Y-123.604
X260.397Y-125.154
X260.901Y-186.002
X260.986Y-174.737
X261.393Y-72.674
X261.393Y-78.674
X261.393Y-81.674
X261.393Y-84.674
X261.393Y-87.674
X261.393Y-90.674
X261.393Y-93.674
X261.393Y-96.674
X261.393Y-99.674
X261.393Y-102.674
X261.394Y-54.676
X261.394Y-57.676
X261.394Y-60.676
X261.394Y-63.676
X262.186Y-150.969
X262.186Y-153.969
X262.187Y-141.969
X262.187Y-147.969
X262.311Y-186.002
X262.395Y-174.737
X263.861Y-186.002
X263.945Y-174.737
X264.393Y-72.674
X264.393Y-78.674
X264.393Y-81.674
X264.393Y-84.674
X264.393Y-87.674
X264.393Y-90.674
X264.393Y-93.674
X264.393Y-96.674
X264.393Y-99.674
X264.393Y-102.674
X264.394Y-54.676
X264.394Y-57.676
X264.394Y-60.676
X264.394Y-63.676
X265.186Y-150.969
X265.187Y-141.969
X265.187Y-144.969
X267.393Y-72.674
X267.393Y-78.674
X267.393Y-81.674
X267.393Y-84.674
X267.393Y-87.674
X267.393Y-90.674
X267.393Y-93.674
X267.393Y-96.674
X267.393Y-99.674
X267.393Y-102.674
X267.394Y-54.676
X267.394Y-57.676
X267.394Y-60.676
X267.394Y-63.676
X267.589Y-137.76
X268.187Y-141.969
X268.187Y-144.969
X268.187Y-147.969
X268.203Y-187.586
X270.393Y-72.674
X270.393Y-78.674
X270.393Y-81.674
X270.393Y-84.674
X270.393Y-87.674
X270.393Y-90.674
X270.393Y-93.674
X270.393Y-96.674
X270.393Y-99.674
X270.393Y-102.674
X270.394Y-54.676
X270.394Y-57.676
X270.394Y-60.676
X270.394Y-63.676
X270.589Y-134.76
X270.589Y-137.76
X270.743Y-187.586
X271.187Y-141.969
X271.187Y-144.969
X273.284Y-174.752
X273.284Y-176.212
X273.284Y-183.832
X273.393Y-72.674
X273.393Y-81.674
X273.393Y-84.674
X273.393Y-87.674
X273.393Y-90.674
X273.393Y-93.674
X273.393Y-96.674
X273.393Y-99.674
X273.393Y-102.674
X273.394Y-54.676
X273.394Y-57.676
X273.394Y-60.676
X273.394Y-63.676
X273.589Y-137.76
X274.734Y-174.753
X274.734Y-176.212
X274.734Y-183.836
X276.393Y-72.674
X276.393Y-75.674
X276.393Y-84.674
X276.393Y-87.674
X276.393Y-90.674
X276.393Y-93.674
X276.393Y-96.674
X276.393Y-99.674
X276.393Y-102.674
X276.394Y-54.676
X276.394Y-57.676
X276.394Y-60.676
X276.394Y-63.676
X277.075Y-148.903
X277.075Y-150.553
X277.075Y-152.203
X277.597Y-198.476
X277.597Y-200.051
X277.844Y-184.532
X278.492Y-147.253
X278.492Y-148.903
X278.492Y-150.553
X278.492Y-152.203
X278.492Y-153.853
X279.393Y-72.674
X279.393Y-75.674
X279.393Y-78.674
X279.393Y-87.674
X279.393Y-90.674
X279.393Y-93.674
X279.393Y-96.674
X279.393Y-99.674
X279.393Y-102.674
X279.394Y-54.676
X279.394Y-57.676
X279.394Y-60.676
X279.394Y-63.676
X279.908Y-147.253
X279.908Y-148.903
X279.908Y-150.553
X279.908Y-152.203
X279.908Y-153.853
X280.383Y-184.532
X281.325Y-147.253
X281.325Y-148.903
X281.325Y-150.553
X281.325Y-152.203
X281.325Y-153.853
X281.395Y-185.307
X281.513Y-174.752
X281.513Y-176.212
X282.244Y-158.97
X282.393Y-72.674
X282.393Y-75.674
X282.393Y-78.674
X282.393Y-81.674
X282.393Y-90.674
X282.393Y-93.674
X282.393Y-96.674
X282.393Y-99.674
X282.393Y-102.674
X282.394Y-54.676
X282.394Y-57.676
X282.394Y-60.676
X282.394Y-63.676
X282.723Y-194.254
X282.742Y-147.253
X282.742Y-148.903
X282.742Y-150.553
X282.742Y-152.203
X282.742Y-153.853
X282.795Y-180.916
X282.895Y-185.307
X282.964Y-174.752
X282.964Y-176.212
X283.316Y-112.995
X283.643Y-189.009
X284.158Y-148.903
X284.158Y-150.553
X284.158Y-152.203
X284.158Y-153.853
X284.703Y-175.324
X284.703Y-176.874
X284.703Y-178.284
X284.703Y-179.834
X284.719Y-154.796
X284.719Y-156.346
X284.719Y-165.986
X284.719Y-164.536
X284.913Y-189.409
X285.393Y-72.674
X285.393Y-75.674
X285.393Y-78.674
X285.393Y-81.674
X285.393Y-84.674
X285.393Y-93.674
X285.393Y-96.674
X285.393Y-99.674
X285.393Y-102.674
X285.394Y-54.676
X285.394Y-57.676
X285.394Y-60.676
X285.394Y-63.676
X285.476Y-113.945
X285.575Y-148.903
X285.575Y-150.553
X285.575Y-152.203
X285.723Y-194.254
X286.179Y-154.796
X286.179Y-156.346
X286.179Y-164.536
X286.179Y-165.986
X286.524Y-185.152
X287.051Y-113.945
X287.453Y-189.009
X287.794Y-185.152
X288.393Y-96.674
X288.394Y-54.676
X288.394Y-57.676
X288.394Y-60.676
X288.394Y-63.676
X288.394Y-72.676
X288.394Y-75.676
X288.394Y-78.676
X288.394Y-81.676
X288.394Y-84.676
X288.394Y-87.676
X288.723Y-194.254
X288.82Y-113.826
X289.051Y-142.644
X289.051Y-144.194
X289.051Y-145.604
X289.051Y-147.154
X289.318Y-100.701
X289.318Y-102.601
X289.444Y-115.474
X289.993Y-189.009
X290.872Y-153.499
X291.192Y-131.454
X291.394Y-63.676
X291.394Y-72.676
X291.394Y-75.676
X291.394Y-78.676
X291.394Y-81.676
X291.394Y-84.676
X291.394Y-87.676
X291.394Y-90.676
X291.439Y-111.886
X291.723Y-194.254
X291.847Y-127.644
X291.847Y-134.314
X291.947Y-138.444
X291.947Y-142.254
X292.142Y-130.184
X292.142Y-153.499
X292.533Y-189.009
X292.874Y-185.152
X293.076Y-112.892
X293.799Y-165.986
X293.803Y-164.536
X294.144Y-185.152
X294.394Y-72.676
X294.394Y-75.676
X294.394Y-78.676
X294.394Y-81.676
X294.394Y-84.676
X294.394Y-87.676
X294.394Y-90.676
X294.394Y-93.676
X294.499Y-158.886
X294.499Y-161.426
X294.723Y-194.254
X294.942Y-131.744
X294.942Y-133.294
X294.942Y-134.704
X294.942Y-136.254
X294.976Y-113.842
X295.274Y-156.374
X295.643Y-189.009
X295.969Y-175.408
X295.969Y-176.958
X295.969Y-178.368
X295.969Y-179.918
X296.517Y-139.714
X296.517Y-140.984
X296.589Y-113.842
X296.817Y-130.184
X296.913Y-189.009
X296.924Y-156.299
X297.222Y-153.499
X297.553Y-171.046
X297.563Y-168.536
X297.723Y-194.254
X298.183Y-189.009
X298.239Y-113.842
X298.492Y-153.499
X298.666Y-142.254
X298.854Y-132.644
X298.861Y-135.604
X298.861Y-137.254
X299.453Y-189.009
X300.315Y-130.564
X300.315Y-132.214
X300.315Y-144.099
X300.315Y-145.699
X300.315Y-147.249
X300.723Y-189.009
X300.723Y-194.254
X301.993Y-189.009
X303.263Y-189.009
X303.723Y-194.254
X303.87Y-113.842
X304.225Y-128.059
X304.225Y-130.934
X304.225Y-132.684
X304.225Y-135.559
X304.225Y-140.059
X304.225Y-142.934
X304.225Y-144.684
X304.225Y-147.559
X304.533Y-189.009
X305.445Y-113.842
X305.875Y-131.059
X305.875Y-143.059
X308.442Y-161.672
X310.017Y-161.672
T3
X234.151Y-59.106
X234.151Y-108.106
X234.744Y-57.674
X234.744Y-60.538
X234.744Y-106.674
X234.744Y-109.538
X236.176Y-57.081
X236.176Y-61.131
X236.176Y-106.081
X236.176Y-110.131
X237.608Y-57.674
X237.608Y-60.538
X237.608Y-106.674
X237.608Y-109.538
X238.201Y-59.106
X238.201Y-108.106
X292.151Y-59.106
X292.151Y-108.106
X292.744Y-57.674
X292.744Y-60.538
X292.744Y-106.674
X292.744Y-109.538
X294.176Y-57.081
X294.176Y-61.131
X294.176Y-106.081
X294.176Y-110.131
X295.608Y-57.674
X295.608Y-60.538
X295.608Y-106.674
X295.608Y-109.538
X296.201Y-59.106
X296.201Y-108.106
T4
X86.276Y-58.704
X86.276Y-204.808
X87.221Y-56.424
X87.221Y-60.984
X87.221Y-202.528
X87.221Y-207.088
X89.501Y-55.479
X89.501Y-61.929
X89.501Y-201.583
X89.501Y-208.033
X91.781Y-56.424
X91.781Y-60.984
X91.781Y-202.528
X91.781Y-207.088
X92.726Y-58.704
X92.726Y-204.808
X114.451Y-60.904
X114.451Y-165.904
X115.396Y-58.624
X115.396Y-63.184
X115.396Y-163.624
X115.396Y-168.184
X117.676Y-57.679
X117.676Y-64.129
X117.676Y-162.679
X117.676Y-169.129
X119.956Y-58.624
X119.956Y-63.184
X119.956Y-163.624
X119.956Y-168.184
X120.901Y-60.904
X120.901Y-165.904
X219.451Y-60.904
X219.451Y-105.004
X219.451Y-165.904
X220.396Y-58.624
X220.396Y-63.184
X220.396Y-102.724
X220.396Y-107.284
X220.396Y-163.624
X220.396Y-168.184
X222.676Y-57.679
X222.676Y-64.129
X222.676Y-101.779
X222.676Y-108.229
X222.676Y-162.679
X222.676Y-169.129
X224.956Y-58.624
X224.956Y-63.184
X224.956Y-102.724
X224.956Y-107.284
X224.956Y-163.624
X224.956Y-168.184
X225.901Y-60.904
X225.901Y-105.004
X225.901Y-165.904
X311.553Y-117.004
X311.553Y-204.808
X312.498Y-114.724
X312.498Y-119.284
X312.498Y-202.528
X312.498Y-207.088
X314.778Y-113.779
X314.778Y-120.229
X314.778Y-201.583
X314.778Y-208.033
X317.058Y-114.724
X317.058Y-119.284
X317.058Y-202.528
X317.058Y-207.088
X318.003Y-117.004
X318.003Y-204.808
T5
X190.929Y-206.494
X190.929Y-207.764
X192.199Y-206.494
X192.199Y-207.764
X193.469Y-206.494
X193.469Y-207.764
X194.739Y-206.494
X194.739Y-207.764
X196.009Y-206.494
X196.009Y-207.764
X205.75Y-199.099
X208.25Y-202.299
X209.564Y-189.725
X210.75Y-199.099
X212.764Y-187.225
X212.764Y-192.225
X262.639Y-194.495
X265.839Y-191.995
X265.839Y-196.995
X301.962Y-173.43
X304.462Y-176.63
X306.962Y-173.43
T6
X125.839Y-198.056
X178.064Y-142.397
X182.328Y-78.836
X182.328Y-94.076
X183.576Y-142.351
X184.868Y-78.836
X184.868Y-94.076
X200.108Y-78.836
X200.108Y-94.076
X205.188Y-78.836
X205.188Y-94.076
X216.678Y-77.916
X216.678Y-80.456
X216.678Y-82.996
X216.678Y-85.536
T7
X149.178Y-115.141
X149.179Y-136.091
X151.718Y-99.901
X151.718Y-115.141
X151.719Y-120.851
X151.719Y-136.091
X154.258Y-99.901
X154.258Y-115.141
X154.259Y-120.851
X154.259Y-136.091
X169.498Y-99.901
X169.499Y-120.851
X174.578Y-99.901
X174.578Y-115.141
X174.579Y-120.851
X174.579Y-136.091
T8
X202.885Y-66.551
X202.885Y-70.051
T9
X99.269Y-123.826
X99.269Y-133.716
X105.986Y-98.511
X114.217Y-54.806
X121.128Y-54.806
X123.908Y-176.579
X141.434Y-208.731
X141.604Y-100.614
X141.604Y-105.614
X141.604Y-122.544
X141.604Y-127.544
X142.357Y-181.808
X144.434Y-208.731
X144.897Y-181.808
X147.434Y-208.731
X147.437Y-181.808
X150.434Y-208.731
X169.578Y-81.326
X169.578Y-91.826
X174.578Y-81.326
X174.578Y-91.826
X175.708Y-192.657
X178.248Y-192.657
X180.788Y-192.657
X184.553Y-99.826
X184.553Y-104.826
X184.554Y-113.101
X184.554Y-118.101
X184.554Y-123.601
X184.554Y-128.601
X188.924Y-202.784
X191.464Y-202.784
X194.004Y-202.784
X196.544Y-202.784
X199.084Y-202.784
X201.463Y-189.725
X201.624Y-202.784
X203.156Y-54.806
X209.624Y-70.526
X214.624Y-70.526
X217.884Y-54.806
X230.783Y-139.768
X230.783Y-142.308
X230.793Y-137.228
X231.426Y-54.842
X231.426Y-72.837
X231.426Y-83.412
X231.426Y-92.638
X233.323Y-139.768
X233.323Y-142.308
X233.333Y-137.228
X233.636Y-157.183
X233.636Y-162.815
X235.027Y-208.731
X236.936Y-163.353
X236.936Y-165.893
X236.936Y-168.433
X236.936Y-170.973
X236.936Y-173.513
X236.936Y-176.053
X236.936Y-178.593
X236.936Y-181.133
X241.046Y-106.816
X241.046Y-109.356
X242.136Y-76.106
X243.586Y-106.816
X243.586Y-109.356
X244.676Y-76.106
X246.126Y-106.816
X246.126Y-109.356
X247.216Y-76.106
X248.666Y-106.816
X248.666Y-109.356
X251.206Y-106.816
X251.206Y-109.356
X252.177Y-206.862
X253.746Y-106.816
X253.746Y-109.356
X256.286Y-106.816
X256.286Y-109.356
X258.826Y-106.816
X258.826Y-109.356
X261.346Y-208.731
X261.366Y-106.816
X261.366Y-109.356
X262.641Y-113.203
X262.641Y-115.743
X263.906Y-106.816
X263.906Y-109.356
X265.181Y-113.203
X265.181Y-115.743
X266.446Y-106.816
X266.446Y-109.356
X268.986Y-106.816
X268.986Y-109.356
X269.209Y-163.353
X269.209Y-172.257
X271.526Y-106.816
X271.526Y-109.356
X271.748Y-163.353
X271.748Y-172.257
X272.526Y-113.213
X272.526Y-115.753
X274.066Y-106.816
X274.066Y-109.356
X274.288Y-163.353
X274.288Y-172.257
X274.477Y-187.757
X274.477Y-190.297
X274.477Y-192.837
X276.606Y-106.816
X276.606Y-109.356
X276.828Y-163.353
X276.828Y-172.257
X277.597Y-208.731
X279.146Y-106.816
X279.146Y-109.356
X279.368Y-163.353
X279.368Y-172.257
X281.686Y-106.816
X281.686Y-109.356
X284.226Y-106.816
X284.226Y-109.356
X284.975Y-134.253
X284.975Y-139.553
X284.975Y-144.853
X286.766Y-106.816
X286.766Y-109.356
X289.306Y-106.816
X289.306Y-109.356
X292.906Y-97.538
X295.446Y-97.538
X297.724Y-164.792
X300.264Y-164.792
X302.07Y-126.809
X302.07Y-151.316
X302.804Y-164.792
X318.698Y-161.672
X318.698Y-177.924
T10
X93.519Y-68.286
X93.519Y-71.286
X93.519Y-74.286
X93.519Y-77.286
X93.519Y-80.286
X93.519Y-88.436
X93.519Y-91.436
X93.519Y-94.436
X93.519Y-102.586
X93.519Y-105.586
X93.519Y-108.586
X93.519Y-116.746
X93.519Y-119.746
X93.519Y-127.906
X93.519Y-130.906
X93.519Y-139.066
X93.519Y-142.066
X93.519Y-145.066
X93.519Y-148.066
X93.519Y-151.066
X93.519Y-154.066
X93.519Y-157.066
X93.519Y-160.066
X93.519Y-163.066
X93.519Y-171.226
X93.519Y-174.226
X93.519Y-177.226
X93.519Y-180.226
X93.519Y-183.226
X93.519Y-186.226
X93.519Y-189.226
X93.519Y-192.226
X93.519Y-195.226
X96.519Y-68.286
X96.519Y-71.286
X96.519Y-74.286
X96.519Y-77.286
X96.519Y-80.286
X96.519Y-88.436
X96.519Y-91.436
X96.519Y-94.436
X96.519Y-102.586
X96.519Y-105.586
X96.519Y-108.586
X96.519Y-116.746
X96.519Y-119.746
X96.519Y-127.906
X96.519Y-130.906
X96.519Y-139.066
X96.519Y-142.066
X96.519Y-145.066
X96.519Y-148.066
X96.519Y-151.066
X96.519Y-154.066
X96.519Y-157.066
X96.519Y-160.066
X96.519Y-163.066
X96.519Y-171.226
X96.519Y-174.226
X96.519Y-177.226
X96.519Y-180.226
X96.519Y-183.226
X96.519Y-186.226
X96.519Y-189.226
X96.519Y-192.226
X96.519Y-195.226
X99.089Y-62.726
X99.089Y-65.726
X99.089Y-197.796
X99.089Y-200.796
X102.089Y-62.726
X102.089Y-65.726
X102.089Y-197.796
X102.089Y-200.796
X105.089Y-62.726
X105.089Y-65.726
X105.089Y-197.796
X105.089Y-200.796
X108.089Y-62.726
X108.089Y-65.726
X108.089Y-197.796
X108.089Y-200.796
X111.089Y-197.796
X111.089Y-200.796
X114.089Y-197.796
X114.089Y-200.796
X117.089Y-197.796
X117.089Y-200.796
X120.089Y-197.796
X120.089Y-200.796
X123.089Y-197.796
X123.089Y-200.796
X127.266Y-62.726
X127.266Y-65.726
X130.266Y-62.726
X130.266Y-65.726
X133.266Y-62.726
X133.266Y-65.726
X136.266Y-62.726
X136.266Y-65.726
X139.266Y-62.726
X139.266Y-65.726
X142.266Y-62.726
X142.266Y-65.726
X145.266Y-62.726
X145.266Y-65.726
X148.266Y-62.726
X148.266Y-65.726
X151.266Y-62.726
X151.266Y-65.726
X159.426Y-62.726
X159.426Y-65.726
X162.426Y-62.726
X162.426Y-65.726
X165.426Y-62.726
X165.426Y-65.726
X168.426Y-62.726
X168.426Y-65.726
X171.426Y-62.726
X171.426Y-65.726
X174.426Y-62.726
X174.426Y-65.726
X177.426Y-62.726
X177.426Y-65.726
X180.426Y-62.726
X180.426Y-65.726
X183.426Y-62.726
X183.426Y-65.726
X191.586Y-62.726
X191.586Y-65.726
X194.586Y-62.726
X194.586Y-65.726
X197.586Y-62.726
X197.586Y-65.726
X240.597Y-197.811
X240.597Y-200.811
X243.597Y-197.811
X243.597Y-200.811
X246.597Y-197.811
X246.597Y-200.811
X267.971Y-197.811
X267.971Y-200.811
X270.971Y-197.811
X270.971Y-200.811
X284.223Y-197.811
X284.223Y-200.811
X287.223Y-197.811
X287.223Y-200.811
X290.223Y-197.811
X290.223Y-200.811
X293.223Y-197.811
X293.223Y-200.811
X296.223Y-197.811
X296.223Y-200.811
X299.223Y-197.811
X299.223Y-200.811
X302.223Y-197.811
X302.223Y-200.811
X305.223Y-197.811
X305.223Y-200.811
X307.778Y-168.298
X307.778Y-171.298
X307.781Y-126.559
X307.781Y-129.559
X307.781Y-132.559
X307.781Y-135.559
X307.781Y-138.559
X307.781Y-141.559
X307.781Y-144.559
X307.781Y-147.559
X310.778Y-168.298
X310.778Y-171.298
X310.781Y-126.559
X310.781Y-129.559
X310.781Y-132.559
X310.781Y-135.559
X310.781Y-138.559
X310.781Y-141.559
X310.781Y-144.559
X310.781Y-147.559
T11
X143.741Y-185.794
X143.741Y-190.294
X143.741Y-193.294
X143.741Y-197.794
X150.241Y-185.794
X150.241Y-190.294
X150.241Y-193.294
X150.241Y-197.794
X153.241Y-185.794
X153.241Y-190.294
X153.241Y-193.294
X153.241Y-197.794
X159.741Y-185.794
X159.741Y-190.294
X159.741Y-193.294
X159.741Y-197.794
X204.924Y-204.231
X204.924Y-208.731
X205.565Y-126.611
X205.565Y-129.151
X205.565Y-131.691
X211.424Y-204.231
X211.424Y-208.731
X283.014Y-118.308
X283.014Y-122.808
X289.514Y-118.308
X289.514Y-122.808
X292.514Y-118.308
X292.514Y-122.808
X299.014Y-118.308
X299.014Y-122.808
T12
X124.654Y-101.327
X124.654Y-116.327
X124.654Y-120.744
X124.654Y-135.744
X134.654Y-101.327
X134.654Y-116.327
X134.654Y-120.744
X134.654Y-135.744
T13
X190.398Y-178.502
X198.018Y-178.502
X209.403Y-128.537
X209.403Y-136.157
X209.403Y-139.757
X209.403Y-147.377
X209.403Y-150.977
X209.403Y-158.597
X219.563Y-136.157
X219.563Y-147.377
X219.563Y-158.597
X222.576Y-181.405
X223.846Y-208.405
X225.116Y-181.405
X227.183Y-128.537
X227.183Y-136.157
X227.183Y-139.757
X227.183Y-147.377
X227.183Y-150.977
X227.183Y-158.597
T14
X236.176Y-59.106
X236.176Y-108.106
X294.176Y-59.106
X294.176Y-108.106
T15
X89.501Y-58.704
X89.501Y-204.808
X117.676Y-60.904
X117.676Y-165.904
X222.676Y-60.904
X222.676Y-105.004
X222.676Y-165.904
X314.778Y-117.004
X314.778Y-204.808
T2
X179.206Y-204.008G85X179.206Y-204.558
G05
X186.406Y-204.008G85X186.406Y-204.558
G05
T3
X179.206Y-207.283G85X179.206Y-208.183
G05
X186.406Y-207.283G85X186.406Y-208.183
G05
M30
