M48
; DRILL file {KiCad 8.0.1} date 2024-06-07T19:27:22+0300
; FORMAT={-:-/ absolute / metric / decimal}
; #@! TF.CreationDate,2024-06-07T19:27:22+03:00
; #@! TF.GenerationSoftware,Kicad,Pcbnew,8.0.1
; #@! TF.FileFunction,NonPlated,1,4,NPTH
FMAT,2
METRIC
; #@! TA.AperFunction,NonPlated,NPTH,ComponentDrill
T1C0.500
; #@! TA.AperFunction,NonPlated,NPTH,ComponentDrill
T2C1.000
; #@! TA.AperFunction,NonPlated,NPTH,ComponentDrill
T3C2.400
; #@! TA.AperFunction,NonPlated,NPTH,ComponentDrill
T4C2.410
; #@! TA.AperFunction,NonPlated,NPTH,ComponentDrill
T5C3.000
; #@! TA.AperFunction,NonPlated,NPTH,ComponentDrill
T6C3.500
%
G90
G05
T1
X180.806Y-205.583
X184.806Y-205.583
T2
X166.958Y-206.177
X174.958Y-206.177
T3
X277.675Y-136.553
X277.675Y-158.553
T4
X210.325Y-56.046
X210.325Y-63.346
T5
X89.199Y-70.426
X89.199Y-78.126
X89.199Y-91.436
X89.199Y-105.586
X89.199Y-118.246
X89.199Y-129.406
X89.199Y-141.206
X89.199Y-160.906
X89.199Y-173.366
X89.199Y-193.066
X101.229Y-205.116
X101.249Y-58.406
X105.949Y-58.406
X120.929Y-205.116
X129.426Y-58.406
X149.126Y-58.406
X161.586Y-58.406
X181.286Y-58.406
X194.586Y-58.406
X243.597Y-205.131
X269.471Y-205.131
X286.363Y-205.131
X303.063Y-205.131
X315.098Y-169.798
X315.101Y-128.719
X315.101Y-145.419
T6
X243.075Y-136.553
X243.075Y-158.553
X273.575Y-120.553
X273.575Y-142.553
M30
