G04 #@! TF.GenerationSoftware,KiCad,Pcbnew,8.0.1*
G04 #@! TF.CreationDate,2024-06-07T19:27:21+03:00*
G04 #@! TF.ProjectId,impeller18,696d7065-6c6c-4657-9231-382e6b696361,rev?*
G04 #@! TF.SameCoordinates,Original*
G04 #@! TF.FileFunction,Soldermask,Top*
G04 #@! TF.FilePolarity,Negative*
%FSLAX46Y46*%
G04 Gerber Fmt 4.6, Leading zero omitted, Abs format (unit mm)*
G04 Created by KiCad (PCBNEW 8.0.1) date 2024-06-07 19:27:21*
%MOMM*%
%LPD*%
G01*
G04 APERTURE LIST*
G04 Aperture macros list*
%AMRoundRect*
0 Rectangle with rounded corners*
0 $1 Rounding radius*
0 $2 $3 $4 $5 $6 $7 $8 $9 X,Y pos of 4 corners*
0 Add a 4 corners polygon primitive as box body*
4,1,4,$2,$3,$4,$5,$6,$7,$8,$9,$2,$3,0*
0 Add four circle primitives for the rounded corners*
1,1,$1+$1,$2,$3*
1,1,$1+$1,$4,$5*
1,1,$1+$1,$6,$7*
1,1,$1+$1,$8,$9*
0 Add four rect primitives between the rounded corners*
20,1,$1+$1,$2,$3,$4,$5,0*
20,1,$1+$1,$4,$5,$6,$7,0*
20,1,$1+$1,$6,$7,$8,$9,0*
20,1,$1+$1,$8,$9,$2,$3,0*%
G04 Aperture macros list end*
%ADD10RoundRect,0.225000X0.250000X-0.225000X0.250000X0.225000X-0.250000X0.225000X-0.250000X-0.225000X0*%
%ADD11RoundRect,0.250000X0.712500X2.475000X-0.712500X2.475000X-0.712500X-2.475000X0.712500X-2.475000X0*%
%ADD12RoundRect,0.137500X-0.662500X-0.137500X0.662500X-0.137500X0.662500X0.137500X-0.662500X0.137500X0*%
%ADD13C,1.524000*%
%ADD14RoundRect,0.225000X-0.250000X0.225000X-0.250000X-0.225000X0.250000X-0.225000X0.250000X0.225000X0*%
%ADD15RoundRect,0.200000X0.275000X-0.200000X0.275000X0.200000X-0.275000X0.200000X-0.275000X-0.200000X0*%
%ADD16RoundRect,0.200000X-0.335876X-0.053033X-0.053033X-0.335876X0.335876X0.053033X0.053033X0.335876X0*%
%ADD17RoundRect,0.218750X0.218750X0.256250X-0.218750X0.256250X-0.218750X-0.256250X0.218750X-0.256250X0*%
%ADD18RoundRect,0.200000X-0.275000X0.200000X-0.275000X-0.200000X0.275000X-0.200000X0.275000X0.200000X0*%
%ADD19RoundRect,0.200000X-0.200000X-0.275000X0.200000X-0.275000X0.200000X0.275000X-0.200000X0.275000X0*%
%ADD20C,0.900000*%
%ADD21C,8.600000*%
%ADD22RoundRect,0.200000X0.200000X0.275000X-0.200000X0.275000X-0.200000X-0.275000X0.200000X-0.275000X0*%
%ADD23RoundRect,0.150000X-0.825000X-0.150000X0.825000X-0.150000X0.825000X0.150000X-0.825000X0.150000X0*%
%ADD24C,2.000000*%
%ADD25C,1.400000*%
%ADD26RoundRect,0.200000X-0.200000X-1.500000X0.200000X-1.500000X0.200000X1.500000X-0.200000X1.500000X0*%
%ADD27RoundRect,0.218750X-0.218750X-0.256250X0.218750X-0.256250X0.218750X0.256250X-0.218750X0.256250X0*%
%ADD28RoundRect,0.150000X-0.587500X-0.150000X0.587500X-0.150000X0.587500X0.150000X-0.587500X0.150000X0*%
%ADD29RoundRect,0.200000X0.200000X0.550000X-0.200000X0.550000X-0.200000X-0.550000X0.200000X-0.550000X0*%
%ADD30RoundRect,0.218750X-0.256250X0.218750X-0.256250X-0.218750X0.256250X-0.218750X0.256250X0.218750X0*%
%ADD31R,1.400000X1.200000*%
%ADD32RoundRect,0.225000X0.225000X0.250000X-0.225000X0.250000X-0.225000X-0.250000X0.225000X-0.250000X0*%
%ADD33RoundRect,0.225000X-0.225000X-0.250000X0.225000X-0.250000X0.225000X0.250000X-0.225000X0.250000X0*%
%ADD34RoundRect,0.300000X-1.125000X-0.300000X1.125000X-0.300000X1.125000X0.300000X-1.125000X0.300000X0*%
%ADD35RoundRect,0.375000X-0.375000X0.625000X-0.375000X-0.625000X0.375000X-0.625000X0.375000X0.625000X0*%
%ADD36RoundRect,0.500000X-1.400000X0.500000X-1.400000X-0.500000X1.400000X-0.500000X1.400000X0.500000X0*%
%ADD37C,3.000000*%
%ADD38C,1.500000*%
%ADD39C,3.500000*%
%ADD40C,2.400000*%
%ADD41RoundRect,1.850000X2.800000X-1.850000X2.800000X1.850000X-2.800000X1.850000X-2.800000X-1.850000X0*%
%ADD42RoundRect,0.162500X-1.012500X-0.162500X1.012500X-0.162500X1.012500X0.162500X-1.012500X0.162500X0*%
%ADD43C,1.600000*%
%ADD44RoundRect,0.150000X-0.725000X-0.150000X0.725000X-0.150000X0.725000X0.150000X-0.725000X0.150000X0*%
%ADD45RoundRect,0.150000X0.150000X-0.587500X0.150000X0.587500X-0.150000X0.587500X-0.150000X-0.587500X0*%
%ADD46RoundRect,0.162500X-0.162500X1.012500X-0.162500X-1.012500X0.162500X-1.012500X0.162500X1.012500X0*%
%ADD47C,0.800000*%
%ADD48C,5.400000*%
%ADD49C,1.700000*%
%ADD50O,1.700000X1.700000*%
%ADD51C,2.600000*%
%ADD52RoundRect,0.150000X-0.150000X0.587500X-0.150000X-0.587500X0.150000X-0.587500X0.150000X0.587500X0*%
%ADD53RoundRect,0.250000X1.425000X-0.362500X1.425000X0.362500X-1.425000X0.362500X-1.425000X-0.362500X0*%
%ADD54RoundRect,0.200000X0.200000X1.500000X-0.200000X1.500000X-0.200000X-1.500000X0.200000X-1.500000X0*%
%ADD55RoundRect,0.250000X-1.425000X0.362500X-1.425000X-0.362500X1.425000X-0.362500X1.425000X0.362500X0*%
%ADD56R,2.600000X2.600000*%
%ADD57RoundRect,0.137500X0.137500X-0.662500X0.137500X0.662500X-0.137500X0.662500X-0.137500X-0.662500X0*%
%ADD58R,0.900000X1.500000*%
%ADD59C,1.000000*%
%ADD60O,1.000000X1.000000*%
%ADD61RoundRect,0.250000X-0.712500X-2.475000X0.712500X-2.475000X0.712500X2.475000X-0.712500X2.475000X0*%
%ADD62C,0.500000*%
%ADD63R,0.400000X1.800000*%
%ADD64O,1.090000X2.000000*%
%ADD65O,1.050000X1.600000*%
%ADD66RoundRect,0.150000X0.150000X-0.725000X0.150000X0.725000X-0.150000X0.725000X-0.150000X-0.725000X0*%
%ADD67C,1.905000*%
%ADD68C,1.300000*%
%ADD69O,2.000000X2.000000*%
%ADD70RoundRect,0.075000X-0.075000X0.662500X-0.075000X-0.662500X0.075000X-0.662500X0.075000X0.662500X0*%
%ADD71RoundRect,0.075000X-0.662500X0.075000X-0.662500X-0.075000X0.662500X-0.075000X0.662500X0.075000X0*%
%ADD72RoundRect,0.150000X-0.150000X0.825000X-0.150000X-0.825000X0.150000X-0.825000X0.150000X0.825000X0*%
%ADD73C,2.410000*%
%ADD74R,2.540000X1.270000*%
%ADD75RoundRect,0.300000X-0.300000X1.125000X-0.300000X-1.125000X0.300000X-1.125000X0.300000X1.125000X0*%
%ADD76RoundRect,0.150000X-0.150000X0.512500X-0.150000X-0.512500X0.150000X-0.512500X0.150000X0.512500X0*%
%ADD77RoundRect,0.225000X-0.335876X-0.017678X-0.017678X-0.335876X0.335876X0.017678X0.017678X0.335876X0*%
%ADD78RoundRect,0.218750X0.256250X-0.218750X0.256250X0.218750X-0.256250X0.218750X-0.256250X-0.218750X0*%
%ADD79RoundRect,0.150000X0.725000X0.150000X-0.725000X0.150000X-0.725000X-0.150000X0.725000X-0.150000X0*%
%ADD80RoundRect,0.200000X-1.500000X0.200000X-1.500000X-0.200000X1.500000X-0.200000X1.500000X0.200000X0*%
%ADD81RoundRect,0.250000X1.400000X1.000000X-1.400000X1.000000X-1.400000X-1.000000X1.400000X-1.000000X0*%
%ADD82RoundRect,0.125000X0.125000X-0.375000X0.125000X0.375000X-0.125000X0.375000X-0.125000X-0.375000X0*%
%ADD83RoundRect,0.375000X-0.625000X-0.375000X0.625000X-0.375000X0.625000X0.375000X-0.625000X0.375000X0*%
%ADD84RoundRect,0.500000X-0.500000X-1.400000X0.500000X-1.400000X0.500000X1.400000X-0.500000X1.400000X0*%
%ADD85RoundRect,0.250000X-1.000000X1.400000X-1.000000X-1.400000X1.000000X-1.400000X1.000000X1.400000X0*%
%ADD86RoundRect,0.250000X-0.362500X-1.425000X0.362500X-1.425000X0.362500X1.425000X-0.362500X1.425000X0*%
G04 APERTURE END LIST*
D10*
X163601000Y-161266000D03*
X163601000Y-159716000D03*
D11*
X241158500Y-114570000D03*
X234383500Y-114570000D03*
D12*
X128224000Y-150758000D03*
X128224000Y-152028000D03*
X128224000Y-153298000D03*
X128224000Y-154568000D03*
X128224000Y-155838000D03*
X128224000Y-157108000D03*
X128224000Y-158378000D03*
X128224000Y-159648000D03*
X134724000Y-159648000D03*
X134724000Y-158378000D03*
X134724000Y-157108000D03*
X134724000Y-155838000D03*
X134724000Y-154568000D03*
X134724000Y-153298000D03*
X134724000Y-152028000D03*
X134724000Y-150758000D03*
D13*
X149178000Y-115141000D03*
X151718000Y-115141000D03*
X154258000Y-115141000D03*
X174578000Y-115141000D03*
X174578000Y-99901000D03*
X169498000Y-99901000D03*
X154258000Y-99901000D03*
X151718000Y-99901000D03*
D14*
X151229000Y-149058999D03*
X151229000Y-150608999D03*
D15*
X99961000Y-165046000D03*
X99961000Y-163396000D03*
D16*
X137518274Y-169178000D03*
X138685000Y-170344726D03*
D17*
X305445500Y-113842000D03*
X303870500Y-113842000D03*
D18*
X298855000Y-128914000D03*
X298855000Y-130564000D03*
D19*
X105190000Y-147707500D03*
X106840000Y-147707500D03*
D20*
X89501000Y-201583000D03*
X91781419Y-202527581D03*
X87220581Y-202527581D03*
X92726000Y-204808000D03*
D21*
X89501000Y-204808000D03*
D20*
X86276000Y-204808000D03*
X91781419Y-207088419D03*
X87220581Y-207088419D03*
X89501000Y-208033000D03*
D18*
X98501000Y-190619000D03*
X98501000Y-192269000D03*
D22*
X106838000Y-67707500D03*
X105188000Y-67707500D03*
D23*
X291567000Y-138444000D03*
X291567000Y-139714000D03*
X291567000Y-140984000D03*
X291567000Y-142254000D03*
X296517000Y-142254000D03*
X296517000Y-140984000D03*
X296517000Y-139714000D03*
X296517000Y-138444000D03*
D24*
X141434000Y-208731001D03*
D16*
X117292343Y-74078000D03*
X118459069Y-75244726D03*
D25*
X216678002Y-85536000D03*
X216678002Y-82996000D03*
X216678002Y-80456000D03*
X216678002Y-77916000D03*
D18*
X98501000Y-142982000D03*
X98501000Y-144632000D03*
D26*
X286524000Y-183852000D03*
X287794000Y-183852000D03*
X292874000Y-183852000D03*
X294144000Y-183852000D03*
X294144000Y-176552000D03*
X287794000Y-176552000D03*
X286524000Y-176552000D03*
D14*
X171068000Y-195337000D03*
X171068000Y-196887000D03*
D27*
X120140500Y-176579000D03*
X121715500Y-176579000D03*
D18*
X98499000Y-103056250D03*
X98499000Y-104706250D03*
D28*
X101677500Y-136052000D03*
X101677500Y-137952000D03*
X103552500Y-137002000D03*
D16*
X117292343Y-87787000D03*
X118459069Y-88953726D03*
D15*
X289812000Y-131009000D03*
X289812000Y-129359000D03*
D28*
X101678000Y-113150000D03*
X101678000Y-115050000D03*
X103553000Y-114100000D03*
D29*
X172926000Y-74526000D03*
X175466000Y-74526000D03*
X175466000Y-68226000D03*
X172926000Y-68226000D03*
D30*
X277597250Y-198475501D03*
X277597250Y-200050501D03*
D17*
X155546500Y-176728000D03*
X153971500Y-176728000D03*
D16*
X137518274Y-197018000D03*
X138685000Y-198184726D03*
D24*
X99269000Y-123826000D03*
D16*
X117292343Y-76618000D03*
X118459069Y-77784726D03*
D28*
X101675500Y-109739250D03*
X101675500Y-111639250D03*
X103550500Y-110689250D03*
D31*
X172081000Y-144491000D03*
X174281000Y-144491000D03*
X174281000Y-142791000D03*
X172081000Y-142791000D03*
D25*
X182328000Y-94076000D03*
X184868000Y-94076000D03*
X200108000Y-94076000D03*
X205188000Y-94076000D03*
X205188000Y-78836000D03*
X200108000Y-78836000D03*
X184868000Y-78836000D03*
X182328000Y-78836000D03*
D22*
X106840000Y-153045500D03*
X105190000Y-153045500D03*
D32*
X163626000Y-165411000D03*
X162076000Y-165411000D03*
D19*
X105190000Y-174930500D03*
X106840000Y-174930500D03*
D22*
X106840000Y-173465500D03*
X105190000Y-173465500D03*
D27*
X308442500Y-161672250D03*
X310017500Y-161672250D03*
D33*
X262311500Y-186002001D03*
X263861500Y-186002001D03*
X137679000Y-147223000D03*
X139229000Y-147223000D03*
D19*
X105190000Y-140901000D03*
X106840000Y-140901000D03*
D24*
X283014000Y-118308000D03*
X289514000Y-118308000D03*
X283014000Y-122808000D03*
X289514000Y-122808000D03*
D34*
X297553000Y-168546000D03*
X304903000Y-168546000D03*
X304903000Y-171046000D03*
X297553000Y-171046000D03*
D18*
X98501000Y-159992000D03*
X98501000Y-161642000D03*
D20*
X314778000Y-113779000D03*
X317058419Y-114723581D03*
X312497581Y-114723581D03*
X318003000Y-117004000D03*
D21*
X314778000Y-117004000D03*
D20*
X311553000Y-117004000D03*
X317058419Y-119284419D03*
X312497581Y-119284419D03*
X314778000Y-120229000D03*
D24*
X105986000Y-98511000D03*
D19*
X105190000Y-168125500D03*
X106840000Y-168125500D03*
D16*
X117292343Y-71538000D03*
X118459069Y-72704726D03*
D19*
X105190000Y-137498500D03*
X106840000Y-137498500D03*
D35*
X149199000Y-145203999D03*
X146899000Y-145203999D03*
D36*
X146899000Y-151503999D03*
D35*
X144599000Y-145203999D03*
D18*
X98499000Y-74651500D03*
X98499000Y-76301500D03*
D15*
X180034000Y-139746500D03*
X180034000Y-138096500D03*
D24*
X143741000Y-193294000D03*
X150241000Y-193294000D03*
X143741000Y-197794000D03*
X150241000Y-197794000D03*
X284975000Y-139553000D03*
D37*
X89199000Y-78126000D03*
X89199000Y-70426000D03*
D38*
X93519000Y-80286000D03*
X93519000Y-77286000D03*
X93519000Y-74286000D03*
X93519000Y-71286000D03*
X93519000Y-68286000D03*
X96519000Y-80286000D03*
X96519000Y-77286000D03*
X96519000Y-74286000D03*
X96519000Y-71286000D03*
X96519000Y-68286000D03*
D15*
X99961000Y-185464000D03*
X99961000Y-183814000D03*
X99959000Y-104706250D03*
X99959000Y-103056250D03*
D39*
X243075000Y-136553000D03*
X273575000Y-120553000D03*
D40*
X277675000Y-136553000D03*
D41*
X235325000Y-128553000D03*
X281325000Y-128553000D03*
D42*
X285449000Y-165986000D03*
X285449000Y-168526000D03*
X285449000Y-171066000D03*
X285449000Y-173606000D03*
X294499000Y-173606000D03*
X294499000Y-171066000D03*
X294499000Y-168526000D03*
X294499000Y-165986000D03*
D19*
X105188000Y-69172500D03*
X106838000Y-69172500D03*
D28*
X101677500Y-156465000D03*
X101677500Y-158365000D03*
X103552500Y-157415000D03*
D43*
X202885000Y-66551349D03*
X202885000Y-70051349D03*
D22*
X106840000Y-136033500D03*
X105190000Y-136033500D03*
D15*
X99959000Y-86507000D03*
X99959000Y-84857000D03*
D16*
X137518274Y-155838000D03*
X138685000Y-157004726D03*
D44*
X291667000Y-133044000D03*
X291667000Y-134314000D03*
X291667000Y-135584000D03*
X291667000Y-136854000D03*
X296817000Y-136854000D03*
X296817000Y-135584000D03*
X296817000Y-134314000D03*
X296817000Y-133044000D03*
D45*
X141866000Y-81593500D03*
X143766000Y-81593500D03*
X142816000Y-79718500D03*
D19*
X105188000Y-72572500D03*
X106838000Y-72572500D03*
D14*
X181575000Y-141622000D03*
X181575000Y-143172000D03*
D28*
X101677500Y-146261000D03*
X101677500Y-148161000D03*
X103552500Y-147211000D03*
D46*
X273283500Y-175482001D03*
X270743500Y-175482001D03*
X268203500Y-175482001D03*
X265663500Y-175482001D03*
X265663500Y-184532001D03*
X268203500Y-184532001D03*
X270743500Y-184532001D03*
X273283500Y-184532001D03*
D37*
X120929000Y-205116000D03*
X101229000Y-205116000D03*
D38*
X123089000Y-200796000D03*
X120089000Y-200796000D03*
X117089000Y-200796000D03*
X114089000Y-200796000D03*
X111089000Y-200796000D03*
X108089000Y-200796000D03*
X105089000Y-200796000D03*
X102089000Y-200796000D03*
X99089000Y-200796000D03*
X123089000Y-197796000D03*
X120089000Y-197796000D03*
X117089000Y-197796000D03*
X114089000Y-197796000D03*
X111089000Y-197796000D03*
X108089000Y-197796000D03*
X105089000Y-197796000D03*
X102089000Y-197796000D03*
X99089000Y-197796000D03*
D47*
X236176000Y-57081000D03*
X237607891Y-57674109D03*
X234744109Y-57674109D03*
X238201000Y-59106000D03*
D48*
X236176000Y-59106000D03*
D47*
X234151000Y-59106000D03*
X237607891Y-60537891D03*
X234744109Y-60537891D03*
X236176000Y-61131000D03*
D28*
X101675500Y-84732000D03*
X101675500Y-86632000D03*
X103550500Y-85682000D03*
D15*
X259832000Y-167178000D03*
X259832000Y-165528000D03*
D20*
X222676000Y-162679000D03*
X224956419Y-163623581D03*
X220395581Y-163623581D03*
X225901000Y-165904000D03*
D21*
X222676000Y-165904000D03*
D20*
X219451000Y-165904000D03*
X224956419Y-168184419D03*
X220395581Y-168184419D03*
X222676000Y-169129000D03*
D18*
X98501000Y-194021000D03*
X98501000Y-195671000D03*
D12*
X108763000Y-104481000D03*
X108763000Y-105751000D03*
X115263000Y-105751000D03*
X115263000Y-104481000D03*
D49*
X279368500Y-172257001D03*
D50*
X276828500Y-172257001D03*
X274288500Y-172257001D03*
X271748500Y-172257001D03*
X269208500Y-172257001D03*
D15*
X99959000Y-79702000D03*
X99959000Y-78052000D03*
D19*
X105188000Y-111185750D03*
X106838000Y-111185750D03*
D38*
X125839000Y-198056000D03*
D51*
X219563000Y-136157000D03*
X227183000Y-128537000D03*
X227183000Y-136157000D03*
X209403000Y-136157000D03*
X209403000Y-128537000D03*
D18*
X98499000Y-91665000D03*
X98499000Y-93315000D03*
D22*
X106838000Y-71107500D03*
X105188000Y-71107500D03*
D15*
X99961000Y-158240000D03*
X99961000Y-156590000D03*
D22*
X106838000Y-84713500D03*
X105188000Y-84713500D03*
D16*
X137518274Y-177998000D03*
X138685000Y-179164726D03*
D32*
X181256000Y-202685000D03*
X179706000Y-202685000D03*
D33*
X137679000Y-207131001D03*
X139229000Y-207131001D03*
D19*
X105188000Y-92986500D03*
X106838000Y-92986500D03*
D24*
X99269000Y-133716500D03*
D49*
X236936000Y-163353000D03*
D50*
X236936000Y-165893000D03*
X236936000Y-168433000D03*
X236936000Y-170973000D03*
X236936000Y-173513000D03*
X236936000Y-176053000D03*
X236936000Y-178593000D03*
X236936000Y-181133000D03*
D38*
X183576000Y-142351000D03*
D22*
X106838000Y-81311500D03*
X105188000Y-81311500D03*
D33*
X145304000Y-143223999D03*
X146854000Y-143223999D03*
D52*
X202566000Y-141493000D03*
X200666000Y-141493000D03*
X201616000Y-143368000D03*
D53*
X205683000Y-151134500D03*
X205683000Y-145209500D03*
D40*
X124654000Y-116327000D03*
X124654000Y-101327000D03*
X134654000Y-101327000D03*
X134654000Y-116327000D03*
D32*
X186081000Y-169371000D03*
X184531000Y-169371000D03*
D54*
X135884000Y-201056001D03*
X134614000Y-201056001D03*
X129534000Y-201056001D03*
X128264000Y-201056001D03*
X128264000Y-208356001D03*
X134614000Y-208356001D03*
X135884000Y-208356001D03*
D14*
X300315000Y-145699000D03*
X300315000Y-147249000D03*
D45*
X197272000Y-153134500D03*
X199172000Y-153134500D03*
X198222000Y-151259500D03*
D19*
X105190000Y-188536500D03*
X106840000Y-188536500D03*
D55*
X201843000Y-145209500D03*
X201843000Y-151134500D03*
D10*
X206873000Y-143080000D03*
X206873000Y-141530000D03*
D22*
X106840000Y-176867500D03*
X105190000Y-176867500D03*
D24*
X153241000Y-193294000D03*
X159741000Y-193294000D03*
X153241000Y-197794000D03*
X159741000Y-197794000D03*
X252177000Y-206862001D03*
D37*
X315098000Y-169798000D03*
D38*
X310778000Y-168298000D03*
X310778000Y-171298000D03*
X307778000Y-168298000D03*
X307778000Y-171298000D03*
D17*
X152586500Y-176728000D03*
X151011500Y-176728000D03*
D14*
X188361000Y-154216000D03*
X188361000Y-155766000D03*
D12*
X108763000Y-116949000D03*
X108763000Y-118219000D03*
X115263000Y-118219000D03*
X115263000Y-116949000D03*
D13*
X149179000Y-136091000D03*
X151719000Y-136091000D03*
X154259000Y-136091000D03*
X174579000Y-136091000D03*
X174579000Y-120851000D03*
X169499000Y-120851000D03*
X154259000Y-120851000D03*
X151719000Y-120851000D03*
D56*
X222576000Y-181405001D03*
X225116000Y-181405001D03*
D51*
X223846000Y-208405002D03*
D33*
X245799000Y-195831001D03*
X247349000Y-195831001D03*
D37*
X194586000Y-58406000D03*
D38*
X191586000Y-62726000D03*
X194586000Y-62726000D03*
X197586000Y-62726000D03*
X191586000Y-65726000D03*
X194586000Y-65726000D03*
X197586000Y-65726000D03*
D57*
X283643000Y-195509001D03*
X284913000Y-195509001D03*
X286183000Y-195509001D03*
X287453000Y-195509001D03*
X288723000Y-195509001D03*
X289993000Y-195509001D03*
X291263000Y-195509001D03*
X292533000Y-195509001D03*
X292533000Y-189009001D03*
X291263000Y-189009001D03*
X289993000Y-189009001D03*
X288723000Y-189009001D03*
X287453000Y-189009001D03*
X286183000Y-189009001D03*
X284913000Y-189009001D03*
X283643000Y-189009001D03*
D29*
X140766000Y-74526000D03*
X143306000Y-74526000D03*
X143306000Y-68226000D03*
X140766000Y-68226000D03*
D58*
X254206000Y-112928000D03*
X254206000Y-116028000D03*
X252806000Y-116028000D03*
X252806000Y-112928000D03*
D59*
X190929000Y-207764000D03*
D60*
X190929000Y-206494000D03*
X192199000Y-207764000D03*
X192199000Y-206494000D03*
X193469000Y-207764000D03*
X193469000Y-206494000D03*
X194739000Y-207764000D03*
X194739000Y-206494000D03*
X196009000Y-207764000D03*
X196009000Y-206494000D03*
D18*
X98499000Y-109864250D03*
X98499000Y-111514250D03*
D24*
X184553000Y-99826000D03*
X184553000Y-104826000D03*
D61*
X222187500Y-123757000D03*
X228962500Y-123757000D03*
D19*
X105190000Y-185135500D03*
X106840000Y-185135500D03*
D28*
X101677500Y-183689000D03*
X101677500Y-185589000D03*
X103552500Y-184639000D03*
D58*
X250906000Y-112928000D03*
X250906000Y-116028000D03*
X249506000Y-116028000D03*
X249506000Y-112928000D03*
D29*
X166926000Y-74526000D03*
X169466000Y-74526000D03*
X169466000Y-68226000D03*
X166926000Y-68226000D03*
D18*
X137766000Y-76431000D03*
X137766000Y-78081000D03*
D22*
X106838000Y-88117500D03*
X105188000Y-88117500D03*
D12*
X128224000Y-175458000D03*
X128224000Y-176728000D03*
X128224000Y-177998000D03*
X128224000Y-179268000D03*
X128224000Y-180538000D03*
X128224000Y-181808000D03*
X128224000Y-183078000D03*
X128224000Y-184348000D03*
X134724000Y-184348000D03*
X134724000Y-183078000D03*
X134724000Y-181808000D03*
X134724000Y-180538000D03*
X134724000Y-179268000D03*
X134724000Y-177998000D03*
X134724000Y-176728000D03*
X134724000Y-175458000D03*
D22*
X106840000Y-180270000D03*
X105190000Y-180270000D03*
D15*
X99959000Y-83105000D03*
X99959000Y-81455000D03*
D16*
X137518274Y-180538000D03*
X138685000Y-181704726D03*
D19*
X105190000Y-191940500D03*
X106840000Y-191940500D03*
D28*
X101677500Y-153064000D03*
X101677500Y-154964000D03*
X103552500Y-154014000D03*
D10*
X163601000Y-149766000D03*
X163601000Y-148216000D03*
D49*
X272526000Y-115753000D03*
D50*
X272526000Y-113213000D03*
D32*
X178756000Y-170831000D03*
X177206000Y-170831000D03*
D18*
X298854000Y-132644000D03*
X298854000Y-134294000D03*
D16*
X137518274Y-175458000D03*
X138685000Y-176624726D03*
D22*
X106838000Y-91521500D03*
X105188000Y-91521500D03*
D19*
X105188000Y-86178500D03*
X106838000Y-86178500D03*
D12*
X128224000Y-172318000D03*
X128224000Y-173588000D03*
X134724000Y-173588000D03*
X134724000Y-172318000D03*
D28*
X101677500Y-187090000D03*
X101677500Y-188990000D03*
X103552500Y-188040000D03*
D15*
X300845000Y-135559000D03*
X300845000Y-133909000D03*
D22*
X106840000Y-139436000D03*
X105190000Y-139436000D03*
D20*
X219451000Y-105004000D03*
X220395581Y-102723581D03*
X220395581Y-107284419D03*
X222676000Y-101779000D03*
D21*
X222676000Y-105004000D03*
D20*
X222676000Y-108229000D03*
X224956419Y-102723581D03*
X224956419Y-107284419D03*
X225901000Y-105004000D03*
D18*
X98501500Y-113275000D03*
X98501500Y-114925000D03*
D39*
X243075000Y-158553000D03*
X273575000Y-142553000D03*
D40*
X277675000Y-158553000D03*
D41*
X235325000Y-150553000D03*
X281325000Y-150553000D03*
D20*
X117676000Y-57679000D03*
X119956419Y-58623581D03*
X115395581Y-58623581D03*
X120901000Y-60904000D03*
D21*
X117676000Y-60904000D03*
D20*
X114451000Y-60904000D03*
X119956419Y-63184419D03*
X115395581Y-63184419D03*
X117676000Y-64129000D03*
D10*
X295969000Y-176958000D03*
X295969000Y-175408000D03*
D24*
X231426000Y-72837000D03*
D10*
X163601000Y-156266000D03*
X163601000Y-154716000D03*
D15*
X99961000Y-144632000D03*
X99961000Y-142982000D03*
D33*
X184031000Y-170831000D03*
X185581000Y-170831000D03*
D10*
X208541000Y-122148000D03*
X208541000Y-120598000D03*
D37*
X89199000Y-91436000D03*
D38*
X93519000Y-94436000D03*
X93519000Y-91436000D03*
X93519000Y-88436000D03*
X96519000Y-94436000D03*
X96519000Y-91436000D03*
X96519000Y-88436000D03*
D28*
X101677500Y-142857000D03*
X101677500Y-144757000D03*
X103552500Y-143807000D03*
D51*
X219563000Y-147377000D03*
X227183000Y-139757000D03*
X227183000Y-147377000D03*
X209403000Y-147377000D03*
X209403000Y-139757000D03*
D47*
X236176000Y-106081000D03*
X237607891Y-106674109D03*
X234744109Y-106674109D03*
X238201000Y-108106000D03*
D48*
X236176000Y-108106000D03*
D47*
X234151000Y-108106000D03*
X237607891Y-109537891D03*
X234744109Y-109537891D03*
X236176000Y-110131000D03*
D24*
X233636000Y-162815000D03*
D15*
X99961000Y-148036000D03*
X99961000Y-146386000D03*
X99961500Y-114925000D03*
X99961500Y-113275000D03*
D28*
X101677500Y-190494000D03*
X101677500Y-192394000D03*
X103552500Y-191444000D03*
D15*
X300315000Y-132214000D03*
X300315000Y-130564000D03*
D20*
X222676000Y-57679000D03*
X224956419Y-58623581D03*
X220395581Y-58623581D03*
X225901000Y-60904000D03*
D21*
X222676000Y-60904000D03*
D20*
X219451000Y-60904000D03*
X224956419Y-63184419D03*
X220395581Y-63184419D03*
X222676000Y-64129000D03*
D16*
X125935637Y-90327000D03*
X127102363Y-91493726D03*
D49*
X274477500Y-187757001D03*
D50*
X274477500Y-190297001D03*
X274477500Y-192837001D03*
D32*
X244791000Y-184570501D03*
X243241000Y-184570501D03*
D28*
X101677500Y-166679000D03*
X101677500Y-168579000D03*
X103552500Y-167629000D03*
D33*
X168456000Y-143001000D03*
X170006000Y-143001000D03*
D16*
X137518274Y-158378000D03*
X138685000Y-159544726D03*
D18*
X98499000Y-81455000D03*
X98499000Y-83105000D03*
D30*
X141434000Y-201824500D03*
X141434000Y-203399500D03*
D33*
X246201000Y-184570501D03*
X247751000Y-184570501D03*
D37*
X161586000Y-58406000D03*
X181286000Y-58406000D03*
D38*
X159426000Y-62726000D03*
X162426000Y-62726000D03*
X165426000Y-62726000D03*
X168426000Y-62726000D03*
X171426000Y-62726000D03*
X174426000Y-62726000D03*
X177426000Y-62726000D03*
X180426000Y-62726000D03*
X183426000Y-62726000D03*
X159426000Y-65726000D03*
X162426000Y-65726000D03*
X165426000Y-65726000D03*
X168426000Y-65726000D03*
X171426000Y-65726000D03*
X174426000Y-65726000D03*
X177426000Y-65726000D03*
X180426000Y-65726000D03*
X183426000Y-65726000D03*
D10*
X289051000Y-144194000D03*
X289051000Y-142644000D03*
D19*
X105188000Y-82776500D03*
X106838000Y-82776500D03*
D18*
X98499000Y-84857000D03*
X98499000Y-86507000D03*
D19*
X105190000Y-151109000D03*
X106840000Y-151109000D03*
D18*
X98501000Y-187215000D03*
X98501000Y-188865000D03*
D15*
X99961000Y-151437500D03*
X99961000Y-149787500D03*
D18*
X98499000Y-78052000D03*
X98499000Y-79702000D03*
D49*
X247216000Y-76106000D03*
D50*
X244676000Y-76106000D03*
X242136000Y-76106000D03*
D49*
X147437438Y-181808000D03*
D50*
X144897438Y-181808000D03*
X142357438Y-181808000D03*
D19*
X114910000Y-174560000D03*
X116560000Y-174560000D03*
D27*
X122135500Y-192909000D03*
X123710500Y-192909000D03*
D22*
X106840000Y-166660500D03*
X105190000Y-166660500D03*
D19*
X105190500Y-114596500D03*
X106840500Y-114596500D03*
D24*
X302070000Y-126809000D03*
D18*
X98501500Y-116677000D03*
X98501500Y-118327000D03*
D62*
X184806000Y-205583000D03*
X180806000Y-205583000D03*
D63*
X181506000Y-204483000D03*
X182156000Y-204483000D03*
X182806000Y-204483000D03*
X183456000Y-204483000D03*
X184106000Y-204483000D03*
D64*
X186406000Y-207733000D03*
D65*
X186406000Y-204283000D03*
D64*
X179206000Y-207733000D03*
D65*
X179206000Y-204283000D03*
D24*
X141604000Y-100614000D03*
X141604000Y-105614000D03*
D17*
X154066500Y-179268000D03*
X152491500Y-179268000D03*
D16*
X117292343Y-68998000D03*
X118459069Y-70164726D03*
D24*
X114217000Y-54806000D03*
D15*
X99961000Y-141229500D03*
X99961000Y-139579500D03*
D28*
X101675500Y-81330000D03*
X101675500Y-83230000D03*
X103550500Y-82280000D03*
D66*
X218924000Y-84301000D03*
X220194000Y-84301000D03*
X221464000Y-84301000D03*
X222734000Y-84301000D03*
X222734000Y-79151000D03*
X221464000Y-79151000D03*
X220194000Y-79151000D03*
X218924000Y-79151000D03*
D32*
X245536000Y-111886000D03*
X243986000Y-111886000D03*
D24*
X141604000Y-122544000D03*
X141604000Y-127544000D03*
D19*
X105188000Y-104377750D03*
X106838000Y-104377750D03*
D67*
X205565000Y-131691000D03*
X205565000Y-129151000D03*
X205565000Y-126611000D03*
D15*
X99961000Y-195671000D03*
X99961000Y-194021000D03*
D18*
X98499000Y-106464250D03*
X98499000Y-108114250D03*
D68*
X265839500Y-196995001D03*
X262639500Y-194495001D03*
X265839500Y-191995001D03*
D22*
X106840000Y-156446500D03*
X105190000Y-156446500D03*
D18*
X98499000Y-67851000D03*
X98499000Y-69501000D03*
D28*
X101675500Y-67726000D03*
X101675500Y-69626000D03*
X103550500Y-68676000D03*
D18*
X98501000Y-180413500D03*
X98501000Y-182063500D03*
D24*
X184554000Y-123601000D03*
X184554000Y-128601000D03*
D27*
X116890000Y-54355000D03*
X118465000Y-54355000D03*
D15*
X99961000Y-154839000D03*
X99961000Y-153189000D03*
D24*
X184554000Y-118101000D03*
X184554000Y-113101000D03*
X261345750Y-208731001D03*
D49*
X230783000Y-142308000D03*
D50*
X233323000Y-142308000D03*
D32*
X165026000Y-166871000D03*
X163476000Y-166871000D03*
D58*
X172815500Y-200742000D03*
X172815500Y-203842000D03*
X171415500Y-203842000D03*
X171415500Y-200742000D03*
D28*
X101675500Y-77927000D03*
X101675500Y-79827000D03*
X103550500Y-78877000D03*
D58*
X169515500Y-200742000D03*
X169515500Y-203842000D03*
X168115500Y-203842000D03*
X168115500Y-200742000D03*
D18*
X98501000Y-153189000D03*
X98501000Y-154839000D03*
X149766000Y-76431000D03*
X149766000Y-78081000D03*
X98501000Y-139579500D03*
X98501000Y-141229500D03*
D24*
X144434000Y-208731001D03*
D19*
X105190000Y-181735000D03*
X106840000Y-181735000D03*
D24*
X233636000Y-157183000D03*
D37*
X101249000Y-58406000D03*
X105949000Y-58406000D03*
D38*
X99089000Y-62726000D03*
X102089000Y-62726000D03*
X105089000Y-62726000D03*
X108089000Y-62726000D03*
X99089000Y-65726000D03*
X102089000Y-65726000D03*
X105089000Y-65726000D03*
X108089000Y-65726000D03*
D16*
X137518274Y-166638000D03*
X138685000Y-167804726D03*
D17*
X186431500Y-202685000D03*
X184856500Y-202685000D03*
D20*
X89501000Y-55479000D03*
X91781419Y-56423581D03*
X87220581Y-56423581D03*
X92726000Y-58704000D03*
D21*
X89501000Y-58704000D03*
D20*
X86276000Y-58704000D03*
X91781419Y-60984419D03*
X87220581Y-60984419D03*
X89501000Y-61929000D03*
D24*
X284975000Y-144853000D03*
D15*
X99961000Y-192269000D03*
X99961000Y-190619000D03*
D69*
X174578000Y-91826000D03*
D24*
X169578000Y-91826000D03*
D37*
X89199000Y-118246000D03*
D38*
X93519000Y-119746000D03*
X93519000Y-116746000D03*
X96519000Y-119746000D03*
X96519000Y-116746000D03*
D12*
X108763000Y-68998000D03*
X108763000Y-70268000D03*
X108763000Y-71538000D03*
X108763000Y-72808000D03*
X108763000Y-74078000D03*
X108763000Y-75348000D03*
X108763000Y-76618000D03*
X108763000Y-77888000D03*
X115263000Y-77888000D03*
X115263000Y-76618000D03*
X115263000Y-75348000D03*
X115263000Y-74078000D03*
X115263000Y-72808000D03*
X115263000Y-71538000D03*
X115263000Y-70268000D03*
X115263000Y-68998000D03*
D24*
X153241000Y-185794000D03*
X159741000Y-185794000D03*
X153241000Y-190294000D03*
X159741000Y-190294000D03*
D33*
X176431000Y-144611000D03*
X177981000Y-144611000D03*
D22*
X106840000Y-190475500D03*
X105190000Y-190475500D03*
D15*
X99961000Y-175259000D03*
X99961000Y-173609000D03*
D17*
X227851750Y-54806000D03*
X226276750Y-54806000D03*
D18*
X98501000Y-156590000D03*
X98501000Y-158240000D03*
X131766000Y-76431000D03*
X131766000Y-78081000D03*
D70*
X184731000Y-146328500D03*
X184231000Y-146328500D03*
X183731000Y-146328500D03*
X183231000Y-146328500D03*
X182731000Y-146328500D03*
X182231000Y-146328500D03*
X181731000Y-146328500D03*
X181231000Y-146328500D03*
X180731000Y-146328500D03*
X180231000Y-146328500D03*
X179731000Y-146328500D03*
X179231000Y-146328500D03*
X178731000Y-146328500D03*
X178231000Y-146328500D03*
X177731000Y-146328500D03*
X177231000Y-146328500D03*
X176731000Y-146328500D03*
X176231000Y-146328500D03*
X175731000Y-146328500D03*
X175231000Y-146328500D03*
X174731000Y-146328500D03*
X174231000Y-146328500D03*
X173731000Y-146328500D03*
X173231000Y-146328500D03*
X172731000Y-146328500D03*
X172231000Y-146328500D03*
X171731000Y-146328500D03*
X171231000Y-146328500D03*
X170731000Y-146328500D03*
X170231000Y-146328500D03*
X169731000Y-146328500D03*
X169231000Y-146328500D03*
X168731000Y-146328500D03*
X168231000Y-146328500D03*
X167731000Y-146328500D03*
X167231000Y-146328500D03*
D71*
X165318500Y-148241000D03*
X165318500Y-148741000D03*
X165318500Y-149241000D03*
X165318500Y-149741000D03*
X165318500Y-150241000D03*
X165318500Y-150741000D03*
X165318500Y-151241000D03*
X165318500Y-151741000D03*
X165318500Y-152241000D03*
X165318500Y-152741000D03*
X165318500Y-153241000D03*
X165318500Y-153741000D03*
X165318500Y-154241000D03*
X165318500Y-154741000D03*
X165318500Y-155241000D03*
X165318500Y-155741000D03*
X165318500Y-156241000D03*
X165318500Y-156741000D03*
X165318500Y-157241000D03*
X165318500Y-157741000D03*
X165318500Y-158241000D03*
X165318500Y-158741000D03*
X165318500Y-159241000D03*
X165318500Y-159741000D03*
X165318500Y-160241000D03*
X165318500Y-160741000D03*
X165318500Y-161241000D03*
X165318500Y-161741000D03*
X165318500Y-162241000D03*
X165318500Y-162741000D03*
X165318500Y-163241000D03*
X165318500Y-163741000D03*
X165318500Y-164241000D03*
X165318500Y-164741000D03*
X165318500Y-165241000D03*
X165318500Y-165741000D03*
D70*
X167231000Y-167653500D03*
X167731000Y-167653500D03*
X168231000Y-167653500D03*
X168731000Y-167653500D03*
X169231000Y-167653500D03*
X169731000Y-167653500D03*
X170231000Y-167653500D03*
X170731000Y-167653500D03*
X171231000Y-167653500D03*
X171731000Y-167653500D03*
X172231000Y-167653500D03*
X172731000Y-167653500D03*
X173231000Y-167653500D03*
X173731000Y-167653500D03*
X174231000Y-167653500D03*
X174731000Y-167653500D03*
X175231000Y-167653500D03*
X175731000Y-167653500D03*
X176231000Y-167653500D03*
X176731000Y-167653500D03*
X177231000Y-167653500D03*
X177731000Y-167653500D03*
X178231000Y-167653500D03*
X178731000Y-167653500D03*
X179231000Y-167653500D03*
X179731000Y-167653500D03*
X180231000Y-167653500D03*
X180731000Y-167653500D03*
X181231000Y-167653500D03*
X181731000Y-167653500D03*
X182231000Y-167653500D03*
X182731000Y-167653500D03*
X183231000Y-167653500D03*
X183731000Y-167653500D03*
X184231000Y-167653500D03*
X184731000Y-167653500D03*
D71*
X186643500Y-165741000D03*
X186643500Y-165241000D03*
X186643500Y-164741000D03*
X186643500Y-164241000D03*
X186643500Y-163741000D03*
X186643500Y-163241000D03*
X186643500Y-162741000D03*
X186643500Y-162241000D03*
X186643500Y-161741000D03*
X186643500Y-161241000D03*
X186643500Y-160741000D03*
X186643500Y-160241000D03*
X186643500Y-159741000D03*
X186643500Y-159241000D03*
X186643500Y-158741000D03*
X186643500Y-158241000D03*
X186643500Y-157741000D03*
X186643500Y-157241000D03*
X186643500Y-156741000D03*
X186643500Y-156241000D03*
X186643500Y-155741000D03*
X186643500Y-155241000D03*
X186643500Y-154741000D03*
X186643500Y-154241000D03*
X186643500Y-153741000D03*
X186643500Y-153241000D03*
X186643500Y-152741000D03*
X186643500Y-152241000D03*
X186643500Y-151741000D03*
X186643500Y-151241000D03*
X186643500Y-150741000D03*
X186643500Y-150241000D03*
X186643500Y-149741000D03*
X186643500Y-149241000D03*
X186643500Y-148741000D03*
X186643500Y-148241000D03*
D54*
X116203000Y-94405000D03*
X114933000Y-94405000D03*
X109853000Y-94405000D03*
X108583000Y-94405000D03*
X108583000Y-101705000D03*
X114933000Y-101705000D03*
X116203000Y-101705000D03*
D53*
X205683000Y-159184500D03*
X205683000Y-153259500D03*
D32*
X245536000Y-113346000D03*
X243986000Y-113346000D03*
X260985500Y-174736501D03*
X259435500Y-174736501D03*
D49*
X292906000Y-97538000D03*
D50*
X295446000Y-97538000D03*
D28*
X101675500Y-71126000D03*
X101675500Y-73026000D03*
X103550500Y-72076000D03*
D42*
X285449000Y-156306000D03*
X285449000Y-158846000D03*
X285449000Y-161386000D03*
X285449000Y-163926000D03*
X294499000Y-163926000D03*
X294499000Y-161386000D03*
X294499000Y-158846000D03*
X294499000Y-156306000D03*
D16*
X137518274Y-188798000D03*
X138685000Y-189964726D03*
D24*
X147434000Y-208731001D03*
D22*
X106840000Y-149644000D03*
X105190000Y-149644000D03*
X106840000Y-183670500D03*
X105190000Y-183670500D03*
D32*
X244389000Y-195831001D03*
X242839000Y-195831001D03*
D16*
X137518274Y-183078000D03*
X138685000Y-184244726D03*
D24*
X123908000Y-176579000D03*
D68*
X306962000Y-173430000D03*
X304462000Y-176630000D03*
X301962000Y-173430000D03*
D19*
X105188000Y-79373500D03*
X106838000Y-79373500D03*
D37*
X89199000Y-193066000D03*
X89199000Y-173366000D03*
D38*
X93519000Y-195226000D03*
X93519000Y-192226000D03*
X93519000Y-189226000D03*
X93519000Y-186226000D03*
X93519000Y-183226000D03*
X93519000Y-180226000D03*
X93519000Y-177226000D03*
X93519000Y-174226000D03*
X93519000Y-171226000D03*
X96519000Y-195226000D03*
X96519000Y-192226000D03*
X96519000Y-189226000D03*
X96519000Y-186226000D03*
X96519000Y-183226000D03*
X96519000Y-180226000D03*
X96519000Y-177226000D03*
X96519000Y-174226000D03*
X96519000Y-171226000D03*
D18*
X98501000Y-136177000D03*
X98501000Y-137827000D03*
D58*
X176115500Y-200742000D03*
X176115500Y-203842000D03*
X174715500Y-203842000D03*
X174715500Y-200742000D03*
D19*
X111170000Y-192909000D03*
X112820000Y-192909000D03*
D37*
X89199000Y-105586000D03*
D38*
X93519000Y-108586000D03*
X93519000Y-105586000D03*
X93519000Y-102586000D03*
X96519000Y-108586000D03*
X96519000Y-105586000D03*
X96519000Y-102586000D03*
D51*
X190398000Y-178502000D03*
X198018000Y-178502000D03*
D49*
X241046000Y-106816000D03*
D50*
X241046000Y-109356000D03*
X243586000Y-106816000D03*
X243586000Y-109356000D03*
X246126000Y-106816000D03*
X246126000Y-109356000D03*
X248666000Y-106816000D03*
X248666000Y-109356000D03*
X251206000Y-106816000D03*
X251206000Y-109356000D03*
X253746000Y-106816000D03*
X253746000Y-109356000D03*
X256286000Y-106816000D03*
X256286000Y-109356000D03*
X258826000Y-106816000D03*
X258826000Y-109356000D03*
X261366000Y-106816000D03*
X261366000Y-109356000D03*
X263906000Y-106816000D03*
X263906000Y-109356000D03*
X266446000Y-106816000D03*
X266446000Y-109356000D03*
X268986000Y-106816000D03*
X268986000Y-109356000D03*
X271526000Y-106816000D03*
X271526000Y-109356000D03*
X274066000Y-106816000D03*
X274066000Y-109356000D03*
X276606000Y-106816000D03*
X276606000Y-109356000D03*
X279146000Y-106816000D03*
X279146000Y-109356000D03*
X281686000Y-106816000D03*
X281686000Y-109356000D03*
X284226000Y-106816000D03*
X284226000Y-109356000D03*
X286766000Y-106816000D03*
X286766000Y-109356000D03*
X289306000Y-106816000D03*
X289306000Y-109356000D03*
D10*
X210001000Y-122148000D03*
X210001000Y-120598000D03*
D33*
X137679000Y-208591001D03*
X139229000Y-208591001D03*
D28*
X101675500Y-102931250D03*
X101675500Y-104831250D03*
X103550500Y-103881250D03*
D15*
X182954000Y-136446500D03*
X182954000Y-134796500D03*
D22*
X106838000Y-77908500D03*
X105188000Y-77908500D03*
D15*
X130306000Y-78081000D03*
X130306000Y-76431000D03*
D16*
X117292343Y-85247000D03*
X118459069Y-86413726D03*
D19*
X105190000Y-195342500D03*
X106840000Y-195342500D03*
X105190500Y-117998500D03*
X106840500Y-117998500D03*
D28*
X101677500Y-180288500D03*
X101677500Y-182188500D03*
X103552500Y-181238500D03*
D14*
X295969000Y-178368000D03*
X295969000Y-179918000D03*
D18*
X98499000Y-88261000D03*
X98499000Y-89911000D03*
D19*
X105190000Y-171528500D03*
X106840000Y-171528500D03*
D24*
X235027000Y-208731001D03*
X174578000Y-81326000D03*
X169578000Y-81326000D03*
D72*
X199116000Y-143201500D03*
X197846000Y-143201500D03*
X196576000Y-143201500D03*
X195306000Y-143201500D03*
X195306000Y-148151500D03*
X196576000Y-148151500D03*
X197846000Y-148151500D03*
X199116000Y-148151500D03*
D73*
X210325000Y-63345998D03*
X210325000Y-56045998D03*
D74*
X205625000Y-61195998D03*
X205625000Y-58195998D03*
X215025000Y-61195998D03*
X215025000Y-58195998D03*
D15*
X99961000Y-168454000D03*
X99961000Y-166804000D03*
D37*
X129426000Y-58406000D03*
X149126000Y-58406000D03*
D38*
X127266000Y-62726000D03*
X130266000Y-62726000D03*
X133266000Y-62726000D03*
X136266000Y-62726000D03*
X139266000Y-62726000D03*
X142266000Y-62726000D03*
X145266000Y-62726000D03*
X148266000Y-62726000D03*
X151266000Y-62726000D03*
X127266000Y-65726000D03*
X130266000Y-65726000D03*
X133266000Y-65726000D03*
X136266000Y-65726000D03*
X139266000Y-65726000D03*
X142266000Y-65726000D03*
X145266000Y-65726000D03*
X148266000Y-65726000D03*
X151266000Y-65726000D03*
D19*
X105190000Y-154510500D03*
X106840000Y-154510500D03*
D28*
X101677500Y-149662500D03*
X101677500Y-151562500D03*
X103552500Y-150612500D03*
D16*
X137518274Y-193878000D03*
X138685000Y-195044726D03*
D15*
X136306000Y-78081000D03*
X136306000Y-76431000D03*
D24*
X318698000Y-161672250D03*
D18*
X298861000Y-135604000D03*
X298861000Y-137254000D03*
D12*
X108763000Y-107601000D03*
X108763000Y-108871000D03*
X115263000Y-108871000D03*
X115263000Y-107601000D03*
D75*
X270723500Y-187586001D03*
X270723500Y-194936001D03*
X268223500Y-194936001D03*
X268223500Y-187586001D03*
D29*
X146766000Y-74526000D03*
X149306000Y-74526000D03*
X149306000Y-68226000D03*
X146766000Y-68226000D03*
D22*
X106838000Y-102912750D03*
X105188000Y-102912750D03*
D30*
X144434000Y-201824500D03*
X144434000Y-203399500D03*
D45*
X147866000Y-81593500D03*
X149766000Y-81593500D03*
X148816000Y-79718500D03*
D22*
X106840500Y-116533500D03*
X105190500Y-116533500D03*
D15*
X99959000Y-108114250D03*
X99959000Y-106464250D03*
X99961000Y-161642000D03*
X99961000Y-159992000D03*
D16*
X130122000Y-90327000D03*
X131288726Y-91493726D03*
D19*
X105188000Y-89582500D03*
X106838000Y-89582500D03*
D37*
X89199000Y-129406000D03*
D38*
X93519000Y-130906000D03*
X93519000Y-127906000D03*
X96519000Y-130906000D03*
X96519000Y-127906000D03*
D16*
X137518274Y-161558000D03*
X138685000Y-162724726D03*
D27*
X294976500Y-113842000D03*
X296551500Y-113842000D03*
D24*
X292514000Y-118308000D03*
X299014000Y-118308000D03*
X292514000Y-122808000D03*
X299014000Y-122808000D03*
D15*
X162466000Y-78081000D03*
X162466000Y-76431000D03*
D19*
X105188000Y-75973000D03*
X106838000Y-75973000D03*
D15*
X221463000Y-87731000D03*
X221463000Y-86081000D03*
D24*
X284975000Y-134253000D03*
D33*
X262395500Y-174736501D03*
X263945500Y-174736501D03*
D51*
X219563000Y-158597000D03*
X227183000Y-150977000D03*
X227183000Y-158597000D03*
X209403000Y-158597000D03*
X209403000Y-150977000D03*
D16*
X137518274Y-172318000D03*
X138685000Y-173484726D03*
D76*
X183431000Y-198767500D03*
X182481000Y-198767500D03*
X181531000Y-198767500D03*
X181531000Y-201042500D03*
X182481000Y-201042500D03*
X183431000Y-201042500D03*
D57*
X295643000Y-195509001D03*
X296913000Y-195509001D03*
X298183000Y-195509001D03*
X299453000Y-195509001D03*
X300723000Y-195509001D03*
X301993000Y-195509001D03*
X303263000Y-195509001D03*
X304533000Y-195509001D03*
X304533000Y-189009001D03*
X303263000Y-189009001D03*
X301993000Y-189009001D03*
X300723000Y-189009001D03*
X299453000Y-189009001D03*
X298183000Y-189009001D03*
X296913000Y-189009001D03*
X295643000Y-189009001D03*
D24*
X231426000Y-83412000D03*
X203156000Y-54806000D03*
D18*
X182954000Y-138096500D03*
X182954000Y-139746500D03*
D12*
X128224000Y-186258000D03*
X128224000Y-187528000D03*
X128224000Y-188798000D03*
X128224000Y-190068000D03*
X128224000Y-191338000D03*
X128224000Y-192608000D03*
X128224000Y-193878000D03*
X128224000Y-195148000D03*
X134724000Y-195148000D03*
X134724000Y-193878000D03*
X134724000Y-192608000D03*
X134724000Y-191338000D03*
X134724000Y-190068000D03*
X134724000Y-188798000D03*
X134724000Y-187528000D03*
X134724000Y-186258000D03*
D77*
X188995698Y-159741000D03*
X190091714Y-160837016D03*
D15*
X300321000Y-138904000D03*
X300321000Y-137254000D03*
D78*
X252162000Y-195456003D03*
X252162000Y-193881003D03*
D79*
X296817000Y-131454000D03*
X296817000Y-130184000D03*
X296817000Y-128914000D03*
X296817000Y-127644000D03*
X291667000Y-127644000D03*
X291667000Y-128914000D03*
X291667000Y-130184000D03*
X291667000Y-131454000D03*
D28*
X101675500Y-74526500D03*
X101675500Y-76426500D03*
X103550500Y-75476500D03*
D32*
X260901500Y-186002001D03*
X259351500Y-186002001D03*
X143894000Y-143223999D03*
X142344000Y-143223999D03*
D28*
X101675500Y-88136000D03*
X101675500Y-90036000D03*
X103550500Y-89086000D03*
D10*
X284703500Y-176874000D03*
X284703500Y-175324000D03*
D22*
X106840000Y-163252500D03*
X105190000Y-163252500D03*
X251406000Y-192383502D03*
X249756000Y-192383502D03*
D18*
X98499000Y-71251000D03*
X98499000Y-72901000D03*
X98501000Y-173609000D03*
X98501000Y-175259000D03*
D80*
X238196000Y-186391001D03*
X238196000Y-187661001D03*
X238196000Y-192741001D03*
X238196000Y-194011001D03*
X245496000Y-194011001D03*
X245496000Y-187661001D03*
X245496000Y-186391001D03*
D16*
X137518274Y-164098000D03*
X138685000Y-165264726D03*
D24*
X143741000Y-185794000D03*
X150241000Y-185794000D03*
X143741000Y-190294000D03*
X150241000Y-190294000D03*
D22*
X106838000Y-109720750D03*
X105188000Y-109720750D03*
D18*
X163926000Y-76431000D03*
X163926000Y-78081000D03*
D15*
X142306000Y-78081000D03*
X142306000Y-76431000D03*
D45*
X129866000Y-81593500D03*
X131766000Y-81593500D03*
X130816000Y-79718500D03*
D33*
X137679000Y-148683000D03*
X139229000Y-148683000D03*
D15*
X99961000Y-171857000D03*
X99961000Y-170207000D03*
D19*
X105190000Y-161313500D03*
X106840000Y-161313500D03*
D46*
X282963500Y-175482001D03*
X280423500Y-175482001D03*
X277883500Y-175482001D03*
X275343500Y-175482001D03*
X275343500Y-184532001D03*
X277883500Y-184532001D03*
X280423500Y-184532001D03*
X282963500Y-184532001D03*
D15*
X176565000Y-196987000D03*
X176565000Y-195337000D03*
D12*
X128224000Y-161558000D03*
X128224000Y-162828000D03*
X128224000Y-164098000D03*
X128224000Y-165368000D03*
X128224000Y-166638000D03*
X128224000Y-167908000D03*
X128224000Y-169178000D03*
X128224000Y-170448000D03*
X134724000Y-170448000D03*
X134724000Y-169178000D03*
X134724000Y-167908000D03*
X134724000Y-166638000D03*
X134724000Y-165368000D03*
X134724000Y-164098000D03*
X134724000Y-162828000D03*
X134724000Y-161558000D03*
D28*
X101677500Y-173484000D03*
X101677500Y-175384000D03*
X103552500Y-174434000D03*
D22*
X106840000Y-146242500D03*
X105190000Y-146242500D03*
D37*
X89199000Y-160906000D03*
X89199000Y-141206000D03*
D38*
X93519000Y-163066000D03*
X93519000Y-160066000D03*
X93519000Y-157066000D03*
X93519000Y-154066000D03*
X93519000Y-151066000D03*
X93519000Y-148066000D03*
X93519000Y-145066000D03*
X93519000Y-142066000D03*
X93519000Y-139066000D03*
X96519000Y-163066000D03*
X96519000Y-160066000D03*
X96519000Y-157066000D03*
X96519000Y-154066000D03*
X96519000Y-151066000D03*
X96519000Y-148066000D03*
X96519000Y-145066000D03*
X96519000Y-142066000D03*
X96519000Y-139066000D03*
D15*
X99959000Y-76301500D03*
X99959000Y-74651500D03*
D19*
X105188000Y-107785750D03*
X106838000Y-107785750D03*
D37*
X303063000Y-205131001D03*
X286363000Y-205131001D03*
D38*
X305223000Y-200811001D03*
X302223000Y-200811001D03*
X299223000Y-200811001D03*
X296223000Y-200811001D03*
X293223000Y-200811001D03*
X290223000Y-200811001D03*
X287223000Y-200811001D03*
X284223000Y-200811001D03*
X305223000Y-197811001D03*
X302223000Y-197811001D03*
X299223000Y-197811001D03*
X296223000Y-197811001D03*
X293223000Y-197811001D03*
X290223000Y-197811001D03*
X287223000Y-197811001D03*
X284223000Y-197811001D03*
D29*
X134766000Y-74526000D03*
X137306000Y-74526000D03*
X137306000Y-68226000D03*
X134766000Y-68226000D03*
D20*
X314778000Y-201583001D03*
X317058419Y-202527582D03*
X312497581Y-202527582D03*
X318003000Y-204808001D03*
D21*
X314778000Y-204808001D03*
D20*
X311553000Y-204808001D03*
X317058419Y-207088420D03*
X312497581Y-207088420D03*
X314778000Y-208033001D03*
D15*
X99961000Y-188865000D03*
X99961000Y-187215000D03*
D18*
X98501000Y-149787500D03*
X98501000Y-151437500D03*
D15*
X99959000Y-93315000D03*
X99959000Y-91665000D03*
D24*
X204924000Y-204231001D03*
X211424000Y-204231001D03*
X204924000Y-208731001D03*
X211424000Y-208731001D03*
D12*
X108763000Y-113829000D03*
X108763000Y-115099000D03*
X115263000Y-115099000D03*
X115263000Y-113829000D03*
D18*
X143766000Y-76431000D03*
X143766000Y-78081000D03*
D24*
X231426000Y-92638000D03*
D22*
X106838000Y-74508000D03*
X105188000Y-74508000D03*
D81*
X192886000Y-136169500D03*
X192886000Y-129369500D03*
D15*
X181494000Y-138096500D03*
X181494000Y-136446500D03*
X99959000Y-69501000D03*
X99959000Y-67851000D03*
D33*
X188338000Y-148491000D03*
X189888000Y-148491000D03*
D52*
X199172000Y-157434500D03*
X197272000Y-157434500D03*
X198222000Y-159309500D03*
D14*
X284703500Y-178284000D03*
X284703500Y-179834000D03*
D18*
X282244000Y-157320000D03*
X282244000Y-158970000D03*
D68*
X212764000Y-192225000D03*
X209564000Y-189725000D03*
X212764000Y-187225000D03*
D20*
X117676000Y-162679000D03*
X119956419Y-163623581D03*
X115395581Y-163623581D03*
X120901000Y-165904000D03*
D21*
X117676000Y-165904000D03*
D20*
X114451000Y-165904000D03*
X119956419Y-168184419D03*
X115395581Y-168184419D03*
X117676000Y-169129000D03*
D29*
X128766000Y-74526000D03*
X131306000Y-74526000D03*
X131306000Y-68226000D03*
X128766000Y-68226000D03*
D32*
X173256000Y-169371000D03*
X171706000Y-169371000D03*
D40*
X124654000Y-135744000D03*
X124654000Y-120744000D03*
X134654000Y-120744000D03*
X134654000Y-135744000D03*
D22*
X106840000Y-142838500D03*
X105190000Y-142838500D03*
D49*
X230783000Y-139768000D03*
D50*
X233323000Y-139768000D03*
D15*
X99961000Y-182063500D03*
X99961000Y-180413500D03*
X99961500Y-118327000D03*
X99961500Y-116677000D03*
D22*
X106840000Y-187071500D03*
X105190000Y-187071500D03*
D24*
X121128000Y-54806000D03*
D22*
X106840000Y-170063500D03*
X105190000Y-170063500D03*
D19*
X105190000Y-144303500D03*
X106840000Y-144303500D03*
D32*
X169231000Y-141541000D03*
X167681000Y-141541000D03*
D28*
X101678000Y-116552000D03*
X101678000Y-118452000D03*
X103553000Y-117502000D03*
D29*
X160926000Y-74526000D03*
X163466000Y-74526000D03*
X163466000Y-68226000D03*
X160926000Y-68226000D03*
D16*
X137518274Y-191338000D03*
X138685000Y-192504726D03*
D10*
X151229000Y-147648999D03*
X151229000Y-146098999D03*
D22*
X106838000Y-106320750D03*
X105188000Y-106320750D03*
D24*
X217883750Y-54806000D03*
D15*
X174368000Y-196987000D03*
X174368000Y-195337000D03*
D12*
X108763000Y-82707000D03*
X108763000Y-83977000D03*
X108763000Y-85247000D03*
X108763000Y-86517000D03*
X108763000Y-87787000D03*
X108763000Y-89057000D03*
X108763000Y-90327000D03*
X108763000Y-91597000D03*
X115263000Y-91597000D03*
X115263000Y-90327000D03*
X115263000Y-89057000D03*
X115263000Y-87787000D03*
X115263000Y-86517000D03*
X115263000Y-85247000D03*
X115263000Y-83977000D03*
X115263000Y-82707000D03*
D24*
X318698000Y-177923750D03*
X214623677Y-70525999D03*
X209623677Y-70525999D03*
X201463000Y-189725000D03*
D68*
X210750000Y-199099001D03*
X208250000Y-202299001D03*
X205750000Y-199099001D03*
D38*
X178064500Y-142397000D03*
D76*
X304225000Y-130671500D03*
X303275000Y-130671500D03*
X302325000Y-130671500D03*
X302325000Y-132946500D03*
X303275000Y-132946500D03*
X304225000Y-132946500D03*
D12*
X128224000Y-197018000D03*
X128224000Y-198288000D03*
X134724000Y-198288000D03*
X134724000Y-197018000D03*
D78*
X231426000Y-64339500D03*
X231426000Y-62764500D03*
D37*
X315101000Y-128719000D03*
X315101000Y-145419000D03*
D38*
X310781000Y-126559000D03*
X310781000Y-129559000D03*
X310781000Y-132559000D03*
X310781000Y-135559000D03*
X310781000Y-138559000D03*
X310781000Y-141559000D03*
X310781000Y-144559000D03*
X310781000Y-147559000D03*
X307781000Y-126559000D03*
X307781000Y-129559000D03*
X307781000Y-132559000D03*
X307781000Y-135559000D03*
X307781000Y-138559000D03*
X307781000Y-141559000D03*
X307781000Y-144559000D03*
X307781000Y-147559000D03*
D49*
X297724000Y-164792000D03*
D50*
X300264000Y-164792000D03*
X302804000Y-164792000D03*
D16*
X137518274Y-186258000D03*
X138685000Y-187424726D03*
D15*
X148306000Y-78081000D03*
X148306000Y-76431000D03*
D37*
X269471500Y-205131001D03*
D38*
X270971500Y-200811001D03*
X267971500Y-200811001D03*
X270971500Y-197811001D03*
X267971500Y-197811001D03*
D26*
X290872000Y-152199000D03*
X292142000Y-152199000D03*
X297222000Y-152199000D03*
X298492000Y-152199000D03*
X298492000Y-144899000D03*
X292142000Y-144899000D03*
X290872000Y-144899000D03*
D24*
X302070000Y-151316500D03*
D28*
X101677500Y-139454500D03*
X101677500Y-141354500D03*
X103552500Y-140404500D03*
D47*
X294176000Y-57081000D03*
X295607891Y-57674109D03*
X292744109Y-57674109D03*
X296201000Y-59106000D03*
D48*
X294176000Y-59106000D03*
D47*
X292151000Y-59106000D03*
X295607891Y-60537891D03*
X292744109Y-60537891D03*
X294176000Y-61131000D03*
D30*
X147434000Y-201824500D03*
X147434000Y-203399500D03*
D14*
X180115000Y-141622000D03*
X180115000Y-143172000D03*
X289051000Y-145604000D03*
X289051000Y-147154000D03*
D27*
X285476500Y-113945000D03*
X287051500Y-113945000D03*
D33*
X168456000Y-144461000D03*
X170006000Y-144461000D03*
D55*
X201843000Y-153259500D03*
X201843000Y-159184500D03*
D76*
X304225000Y-142671500D03*
X303275000Y-142671500D03*
X302325000Y-142671500D03*
X302325000Y-144946500D03*
X303275000Y-144946500D03*
X304225000Y-144946500D03*
D18*
X98501000Y-177011000D03*
X98501000Y-178661000D03*
X258372000Y-168054000D03*
X258372000Y-169704000D03*
D16*
X117292343Y-90327000D03*
X118459069Y-91493726D03*
D19*
X105190000Y-157911500D03*
X106840000Y-157911500D03*
D49*
X279368500Y-163353000D03*
D50*
X276828500Y-163353000D03*
X274288500Y-163353000D03*
X271748500Y-163353000D03*
X269208500Y-163353000D03*
D47*
X294176000Y-106081000D03*
X295607891Y-106674109D03*
X292744109Y-106674109D03*
X296201000Y-108106000D03*
D48*
X294176000Y-108106000D03*
D47*
X292151000Y-108106000D03*
X295607891Y-109537891D03*
X292744109Y-109537891D03*
X294176000Y-110131000D03*
D49*
X233333000Y-137228000D03*
D50*
X230793000Y-137228000D03*
D15*
X99959000Y-89911000D03*
X99959000Y-88261000D03*
D22*
X106840000Y-159848500D03*
X105190000Y-159848500D03*
D15*
X99961000Y-137827000D03*
X99961000Y-136177000D03*
D28*
X101677500Y-163271000D03*
X101677500Y-165171000D03*
X103552500Y-164221000D03*
D49*
X180788000Y-192657000D03*
D50*
X178248000Y-192657000D03*
X175708000Y-192657000D03*
D32*
X178756000Y-169371000D03*
X177206000Y-169371000D03*
D82*
X180295000Y-144666000D03*
X181395000Y-144666000D03*
D16*
X121749274Y-90327000D03*
X122916000Y-91493726D03*
D19*
X105190000Y-164717500D03*
X106840000Y-164717500D03*
D32*
X169231000Y-140081000D03*
X167681000Y-140081000D03*
D18*
X98501000Y-166804000D03*
X98501000Y-168454000D03*
D78*
X303241000Y-138866500D03*
X303241000Y-137291500D03*
D19*
X105190000Y-178332500D03*
X106840000Y-178332500D03*
D10*
X248785999Y-197096000D03*
X248785999Y-195546000D03*
D15*
X99959000Y-111514250D03*
X99959000Y-109864250D03*
D18*
X98501000Y-183814000D03*
X98501000Y-185464000D03*
D28*
X101677500Y-176886000D03*
X101677500Y-178786000D03*
X103552500Y-177836000D03*
D24*
X277597250Y-208731001D03*
D80*
X255417500Y-176557001D03*
X255417500Y-177827001D03*
X255417500Y-182907001D03*
X255417500Y-184177001D03*
X262717500Y-184177001D03*
X262717500Y-177827001D03*
X262717500Y-176557001D03*
D49*
X265181000Y-113203000D03*
D50*
X265181000Y-115743000D03*
X262641000Y-113203000D03*
X262641000Y-115743000D03*
D17*
X154066500Y-181808000D03*
X152491500Y-181808000D03*
D28*
X101675500Y-106339250D03*
X101675500Y-108239250D03*
X103550500Y-107289250D03*
D24*
X231426000Y-54842000D03*
D83*
X218623678Y-69876000D03*
X218623678Y-72176000D03*
D84*
X224923678Y-72176000D03*
D83*
X218623678Y-74476000D03*
D54*
X135884000Y-140653000D03*
X134614000Y-140653000D03*
X129534000Y-140653000D03*
X128264000Y-140653000D03*
X128264000Y-147953000D03*
X134614000Y-147953000D03*
X135884000Y-147953000D03*
D32*
X173658000Y-141207000D03*
X172108000Y-141207000D03*
D85*
X219148000Y-123348000D03*
X212348000Y-123348000D03*
D49*
X188924000Y-202784000D03*
D50*
X191464000Y-202784000D03*
X194004000Y-202784000D03*
X196544000Y-202784000D03*
X199084000Y-202784000D03*
X201624000Y-202784000D03*
D16*
X137518274Y-150758000D03*
X138685000Y-151924726D03*
D24*
X150434000Y-208731001D03*
D12*
X108763000Y-110720000D03*
X108763000Y-111990000D03*
X115263000Y-111990000D03*
X115263000Y-110720000D03*
D28*
X101677500Y-193896000D03*
X101677500Y-195796000D03*
X103552500Y-194846000D03*
X101675500Y-91540000D03*
X101675500Y-93440000D03*
X103550500Y-92490000D03*
D29*
X193086000Y-74526000D03*
X195626000Y-74526000D03*
X195626000Y-68226000D03*
X193086000Y-68226000D03*
D10*
X300315000Y-144099000D03*
X300315000Y-142549000D03*
D28*
X101677500Y-170082000D03*
X101677500Y-171982000D03*
X103552500Y-171032000D03*
D16*
X117292343Y-82707000D03*
X118459069Y-83873726D03*
D22*
X106840000Y-193877500D03*
X105190000Y-193877500D03*
D15*
X99961000Y-178661000D03*
X99961000Y-177011000D03*
D45*
X162026000Y-81593500D03*
X163926000Y-81593500D03*
X162976000Y-79718500D03*
D18*
X212466000Y-179352000D03*
X212466000Y-181002000D03*
X98501000Y-163396000D03*
X98501000Y-165046000D03*
D15*
X99959000Y-72901000D03*
X99959000Y-71251000D03*
D37*
X243597000Y-205131001D03*
D38*
X246597000Y-200811001D03*
X243597000Y-200811001D03*
X240597000Y-200811001D03*
X246597000Y-197811001D03*
X243597000Y-197811001D03*
X240597000Y-197811001D03*
D32*
X245536000Y-114809000D03*
X243986000Y-114809000D03*
D86*
X197102500Y-138589500D03*
X203027500Y-138589500D03*
D14*
X176014000Y-141622000D03*
X176014000Y-143172000D03*
D10*
X170670000Y-141234000D03*
X170670000Y-139684000D03*
D30*
X97598000Y-97743500D03*
X97598000Y-99318500D03*
D18*
X98501000Y-146386000D03*
X98501000Y-148036000D03*
D22*
X106840500Y-113131500D03*
X105190500Y-113131500D03*
D45*
X135866000Y-81593500D03*
X137766000Y-81593500D03*
X136816000Y-79718500D03*
D33*
X196426000Y-141243500D03*
X197976000Y-141243500D03*
D29*
X178926000Y-74526000D03*
X181466000Y-74526000D03*
X181466000Y-68226000D03*
X178926000Y-68226000D03*
D18*
X98501000Y-170207000D03*
X98501000Y-171857000D03*
D15*
X301781000Y-138904000D03*
X301781000Y-137254000D03*
D16*
X137561274Y-153255000D03*
X138728000Y-154421726D03*
D28*
X101677500Y-159867000D03*
X101677500Y-161767000D03*
X103552500Y-160817000D03*
D59*
X166958000Y-206177000D03*
X174958000Y-206177000D03*
M02*
